<svg width="801" height="733" viewBox="0 0 801 733" fill="none" xmlns="http://www.w3.org/2000/svg"><g filter="url(#filter0_d)"><path d="M540.266 389c-77.044 0-139.5-62.456-139.5-139.5S463.222 110 540.266 110c77.043 0 139.5 62.456 139.5 139.5S617.309 389 540.266 389z" fill="url(#paint0_linear)"/><path d="M382.266 379c-77.044 0-139.5-62.456-139.5-139.5S305.222 100 382.266 100c77.043 0 139.5 62.456 139.5 139.5S459.309 379 382.266 379z" fill="url(#paint1_linear)"/><path d="M462.266 503c-77.044 0-139.5-62.456-139.5-139.5S385.222 224 462.266 224c77.043 0 139.5 62.456 139.5 139.5S539.309 503 462.266 503z" fill="url(#paint2_linear)"/><path d="M456.269 375.942h59.147c-.301-7.626-.708-15.841-1.016-25.008 0 0-2.016-48.866-8.788-50.372-3.054-.679-4.041 5.224-4.202 11.905-.77-8.459-2.262-16.912-5.154-17.374-5.119-.812-5.806 14.58-5.827 25.085-.231-10.316-1.26-25.638-5.294-26.843-6.779-2.024-6.064 10.946-4.79 35.659 0 0-3.151-16.548-11.709-18.095-6.477-1.17-11.709 1.064-9.58 5.854 2.129 4.79 9.93 1.387 10.995 12.031 1.064 10.645-15.316 8.509-15.239-1.134.028-3.642 5.54-7.886 2.816-10.442-6.779-6.358-19.742 9.874-2.297 35.204.833 7.857 1.162 15.701.938 23.53z" fill="#fff"/><path d="M515.417 377.203H456.27a1.274 1.274 0 01-1.261-1.303c.218-7.563-.091-15.308-.903-23.026-12.654-18.536-9.454-31.982-4.188-36.513 2.339-2.01 5.14-2.318 7.444-.917-.175-1.317.127-2.521.904-3.516 1.772-2.255 5.833-3.116 10.588-2.262 4.608.834 7.738 5.351 9.741 9.783-.707-15.371-.616-24.083 2.738-26.723 1.121-.882 2.522-1.078 4.153-.595 1.065.315 3.348.994 4.846 10.182.715-3.914 1.772-6.407 3.18-7.605.854-.728 1.876-1.022 2.934-.854 1.603.259 3.487 1.673 4.937 8.991.574-1.694 1.246-2.465 1.828-2.92.777-.609 1.694-.812 2.675-.595 7.164 1.59 9.293 39.861 9.776 51.549.196 5.784.427 11.19.651 16.302.133 2.991.259 5.89.364 8.705a1.269 1.269 0 01-1.26 1.317zm-57.858-2.528H514.1c-.098-2.395-.203-4.853-.315-7.381-.224-5.12-.455-10.533-.651-16.317-.946-23.026-4.202-48.384-7.801-49.182-.239-.056-.393-.021-.575.119-.56.441-1.898 2.353-2.094 10.589a1.27 1.27 0 01-1.218 1.232c-.791.014-1.24-.483-1.296-1.148-1.421-15.638-3.991-16.226-4.096-16.24-.344-.056-.61.035-.904.28-1.281 1.092-3.431 5.602-3.466 23.558 0 .693-.56 1.253-1.247 1.26h-.014a1.258 1.258 0 01-1.26-1.232c-.539-23.831-3.999-25.547-4.391-25.659-1.079-.322-1.59-.063-1.87.161-2.948 2.318-2.262 15.526-1.323 33.796l.021.427a1.26 1.26 0 01-1.107 1.317c-.602.105-1.26-.364-1.386-1.015-.028-.162-3.089-15.715-10.694-17.088-3.718-.679-6.996-.14-8.158 1.338-.203.259-.813 1.036-.049 2.766.574 1.296 1.722 1.786 3.557 2.486 2.871 1.1 6.807 2.598 7.542 9.93.315 3.152-.728 5.708-2.955 7.185-2.612 1.737-6.555 1.723-9.811-.042-3.2-1.729-5.014-4.706-4.986-8.158.014-1.849 1.057-3.614 2.059-5.308 1.365-2.311 1.926-3.474 1.155-4.195-1.54-1.436-3.431-1.394-5.196.133-4.426 3.81-7.031 16.247 4.804 33.432.119.175.189.371.217.581a178.163 178.163 0 01.967 22.375zm2.037-55.219c-.196 1.422-1.064 2.886-1.827 4.174-.834 1.415-1.702 2.878-1.709 4.048-.021 2.493 1.316 4.65 3.662 5.924 2.423 1.31 5.386 1.373 7.213.154 1.429-.945 2.059-2.619 1.842-4.832-.581-5.784-3.179-6.771-5.931-7.822-1.086-.42-2.262-.868-3.25-1.646z" fill="#1A1A1A"/><path d="M490.751 329.974a1.263 1.263 0 01-1.26-1.211l-.33-8.53a1.261 1.261 0 011.212-1.309h.049c.672 0 1.232.532 1.26 1.211l.33 8.53c.028.7-.519 1.281-1.212 1.309h-.049zm10.988 3.411a1.26 1.26 0 01-1.26-1.239l-.343-19.651a1.25 1.25 0 011.239-1.281c.582-.007 1.275.539 1.282 1.239l.343 19.651a1.25 1.25 0 01-1.24 1.281h-.021z" fill="#1A1A1A"/><path d="M507.959 448.583c-13.852 31.388-42.361 51.766-75.884 56.962-22.606 3.481-46.346-1.085-66.752-11.653v137.314H188.576s-1.338-178.057 0-208.638c.098-2.396.224-4.945.378-7.592-2.248.855-4.44 1.765-6.632 2.696-14.356 6.205-42.557 15.715-35.091 39.154 1.386 4.391 4.516 7.57 8.298 10.217-3.761 22.403-7.192 44.854-10.771 67.305-7.164-2.773-14.075-6.204-20.637-10.546-30.526-20.182-49.07-54.441-42.557-91.353 5.827-33.152 34.489-55.05 63.194-68.594 33.201-15.666 112.419-26.87 116.046-25.407 4.44-.476 9.16-.805 14.153-.931 10.245-.28 34.335 1.638 53.53 8.529 16.198 5.652 30.82 17.438 38.159 34.84 5.75 13.621 7.606 34.328 19.238 45.127 12.262 11.401 25 14.734 39.657 11.884 9.888-1.919 19.02-9.762 23.061-24.272 4.594-16.471 6.183-33.124 5.553-49.847.28.028.504.077.785.077h62.69c1.477 34.398 2.738 56.626-9.671 84.728z" fill="#fff"/><path d="M365.322 632.474H188.568c-.693 0-1.254-.56-1.261-1.254-.014-1.779-1.323-178.442 0-208.701.077-1.807.168-3.698.274-5.652a223.387 223.387 0 00-4.776 1.968c-1.135.49-2.367 1.009-3.663 1.548-14.832 6.212-37.242 15.588-30.722 36.065 1.135 3.586 3.614 6.625 7.822 9.566.4.28.603.763.519 1.24-2.591 15.455-5.077 31.205-7.473 46.436-1.092 6.954-2.191 13.908-3.298 20.862a1.26 1.26 0 01-1.702.98c-7.703-2.983-14.531-6.471-20.875-10.665-32.837-21.709-49.357-57.2-43.11-92.621 6.24-35.477 38.194-57.389 63.894-69.518 31.668-14.945 108.777-26.955 116.655-25.54 4.587-.49 9.314-.798 14.055-.917 10.792-.301 34.987 1.778 53.993 8.599 17.808 6.219 31.989 19.167 38.894 35.54 1.863 4.419 3.298 9.468 4.811 14.811 3.172 11.198 6.457 22.774 14.111 29.882 11.576 10.756 23.831 14.44 38.558 11.569 10.469-2.031 18.516-10.547 22.087-23.369 4.37-15.673 6.17-31.849 5.505-49.469a1.257 1.257 0 01.392-.959c.266-.252.602-.357.98-.343l.329.035c.112.014.217.035.336.035h62.691c.672 0 1.232.532 1.26 1.204l.091 2.171c1.45 33.32 2.402 55.33-9.867 83.104-13.782 31.24-41.793 52.27-76.843 57.704-21.611 3.327-44.861-.525-65.681-10.847v135.261a1.226 1.226 0 01-1.232 1.275zm-175.501-2.521h174.233v-136.06a1.265 1.265 0 011.842-1.121c20.82 10.785 44.252 14.874 65.982 11.527 34.181-5.294 61.493-25.792 74.924-56.227 12.031-27.234 11.079-49.013 9.65-81.976l-.042-.966h-60.96c.532 17.346-1.317 33.341-5.645 48.852-3.83 13.782-12.591 22.956-24.034 25.169-15.595 3.018-28.551-.841-40.757-12.199-8.172-7.592-11.555-19.511-14.825-31.044-1.499-5.267-2.906-10.239-4.713-14.524-6.723-15.946-20.007-28.068-37.417-34.147-18.691-6.709-42.458-8.725-53.082-8.452-4.741.119-9.468.434-14.055.924a1.4 1.4 0 01-.609-.084c-4.629-1.197-81.976 9.776-115.037 25.372-25.169 11.877-56.437 33.257-62.494 67.676-6.065 34.412 10.028 68.93 42.01 90.079 5.792 3.83 11.996 7.059 18.943 9.846 1.023-6.436 2.038-12.871 3.053-19.307 2.36-14.979 4.797-30.463 7.347-45.687-4.293-3.138-6.884-6.457-8.131-10.407-7.22-22.675 17.423-32.99 32.151-39.153 1.281-.539 2.507-1.051 3.641-1.541 2.22-.938 4.426-1.855 6.681-2.717a1.268 1.268 0 011.716 1.247c-.154 2.64-.281 5.182-.379 7.577-1.246 28.873-.105 191.362.007 207.343z" fill="#1A1A1A"/><path d="M247.267 631.234c-.7 0-1.26-.567-1.26-1.261V339.681a1.26 1.26 0 112.521 0v290.292a1.26 1.26 0 01-1.261 1.261z" fill="#1A1A1A"/><path d="M297.883 542.815h-50.246v87.649h50.246v-87.649z" fill="#1A1A1A"/><path d="M296.98 631.234a1.26 1.26 0 01-1.261-1.26V340.291a1.26 1.26 0 112.521 0v289.683c0 .693-.56 1.26-1.26 1.26zm-19.125-92.691c-.7 0-1.26-.567-1.26-1.26v-98.917c0-.7.567-1.26 1.26-1.26.694 0 1.261.567 1.261 1.26v98.917c0 .693-.567 1.26-1.261 1.26zm16.316-247.161c-1.421-.231-2.85-.455-4.271-.686-1.541-.245-3.117.399-3.565 2.024-.119.434-.077.917.028 1.386-.707.701-1.092 1.66-.798 2.739.385 1.4 2.094 2.577 3.564 2.023 1.681-.63 7.241-4.454 7.241-5.812 0-1.177-.959-1.471-2.199-1.674zm-8.97-26.632c-7.375-2.451-35.617-12.017-38.93-14.657 7.164-14.784 22.669-17.298 36.31-11.625 14.616 6.078 21.92 21.583 16.212 36.254-4.3-1.793-8.578-5.021-13.592-9.972z" fill="#1A1A1A"/><path d="M282.589 238.468c13.838 5.756 20.869 20.966 16.723 35.021.238.077.462.112.7.21 11.142 4.629 10.666 24.195-10.14 17.522-.91.679-1.821 1.365-2.801 1.932l4.286 45.239-29.861 47.088-8.319-47.508-3.495-45.638c-8.326-8.06-12.619-20.589-5.077-38.18 7.626-17.822 23.159-21.849 37.984-15.686z" fill="#fff"/><path d="M261.484 386.734a.975.975 0 01-.245-.028 1.252 1.252 0 01-.995-1.023l-8.319-47.515-3.474-45.288c-7.066-7.031-13.494-19.475-5.021-39.251 7.255-16.926 22.809-23.334 39.637-16.345 13.957 5.805 21.436 20.862 17.766 35.386 6.485 2.906 8.908 10.042 7.08 15.014-.805 2.199-4.454 8.964-17.815 4.916-.561.413-1.121.827-1.709 1.198l4.209 44.454a1.25 1.25 0 01-.189.792l-29.861 47.088a1.235 1.235 0 01-1.064.602zm8.326-149.737c-10.42 0-19.132 6.169-24.055 17.647-8.046 18.768-1.835 30.358 4.797 36.78.224.217.357.504.385.812l3.495 45.638 7.738 44.182 27.886-43.972-4.244-44.811c-.049-.491.196-.96.623-1.212.904-.525 1.751-1.155 2.64-1.821.322-.245.792-.343 1.177-.224 7.913 2.542 13.627 1.345 15.294-3.186 1.429-3.88-.7-9.748-6.029-11.968-.358-.098-.491-.133-.617-.175a1.258 1.258 0 01-.805-1.555c4.02-13.635-2.857-28.04-15.995-33.502-4.257-1.772-8.396-2.633-12.29-2.633z" fill="#1A1A1A"/><path d="M290.151 258.972c-6.303-1.863-29.272-11.667-34.286-22.192-5.743-30.057 21.128-10.533 33.607-2.612 13.361 8.48 24.972 23.564 14.678 41.674-3.936-2.493-9.902-11.135-13.999-16.87zm-28.397 40.778c-.063 0-.133-.007-.203-.014-4.019-.644-8.627-3.585-12.598-6.38a1.26 1.26 0 01-.308-1.757 1.26 1.26 0 011.758-.308c3.522 2.472 8.018 5.385 11.554 5.952a1.272 1.272 0 011.051 1.45 1.28 1.28 0 01-1.254 1.057z" fill="#1A1A1A"/><path d="M272.723 434.5h-96.64v125.934h96.64V434.5z" fill="#fff"/><path d="M272.723 561.695h-96.641c-.7 0-1.26-.567-1.26-1.26V434.501c0-.7.567-1.261 1.26-1.261h96.641c.7 0 1.26.568 1.26 1.261v125.927c.007.7-.56 1.267-1.26 1.267zm-95.38-2.528h94.119V435.761h-94.119v123.406z" fill="#1A1A1A"/><path d="M219.765 480.314c24.531-1.576 47.669-2.493 47.669 3.823 0 6.317-16.037 1.947-20.407 7.774-4.377 5.833.973 6.799 11.177 6.316 10.203-.483 23.032.462 22.836 4.86-.245 5.617-6.316 7.29-6.316 7.29s7.122 7.893-1.947 12.15c0 0 2.43 5.834-2.913 8.747 0 0 .175 10.637-47.536 10.911-47.711.273-12.234-59.988-12.234-59.988l9.671-1.883z" fill="#fff"/><path d="M222.013 543.446c-11.366 0-19.104-3.425-22.991-10.19-9.993-17.367 9.167-50.309 9.987-51.702.182-.308.49-.533.847-.596l9.671-1.876.161-.021c26.863-1.723 43.278-1.905 47.718 2.255.84.791 1.289 1.771 1.289 2.829 0 4.426-5.204 4.909-10.232 5.371-4.061.378-8.662.798-10.427 3.158-1.023 1.366-1.478 2.486-1.205 2.991.435.826 2.76 1.715 11.31 1.309 4.384-.217 18.985-.574 23.026 3.453.784.784 1.176 1.722 1.134 2.724-.196 4.503-3.501 6.8-5.581 7.801 1.029 1.562 2.353 4.23 1.793 7.01-.428 2.122-1.842 3.873-4.202 5.203.644 2.528.504 6.513-3.319 8.922-.183.609-.61 1.498-1.59 2.5-3.859 3.95-15.161 8.683-47.067 8.866-.112-.007-.217-.007-.322-.007zm-11.114-60.121c-2.339 4.153-18.333 33.656-9.692 48.678 3.411 5.917 10.407 8.922 20.806 8.922h.308c44.784-.253 46.276-9.601 46.283-9.7-.007-.469.245-.833.658-1.057 4.188-2.283 2.556-6.667 2.353-7.157a1.258 1.258 0 01.63-1.618c2.199-1.029 3.474-2.36 3.796-3.935.595-2.97-2.22-6.198-2.255-6.226a1.263 1.263 0 01-.273-1.197c.119-.421.448-.75.868-.862.21-.056 5.196-1.519 5.399-6.127.007-.196-.028-.463-.392-.827-2.101-2.094-10.777-3.207-21.128-2.717-8.599.406-12.437-.329-13.663-2.64-1.183-2.227.778-4.832 1.415-5.686 2.444-3.257 7.633-3.733 12.22-4.153 4.937-.455 7.942-.875 7.942-2.864 0-.245-.057-.581-.491-.988-4.503-4.222-31.296-2.514-45.75-1.582l-9.034 1.736zm42.58-208.554c-.175 0-.35-.035-.525-.112l-6.534-2.969a1.269 1.269 0 01-.665-.722 1.254 1.254 0 01.056-.98c2.941-5.952 10.588-11.947 10.911-12.199a1.266 1.266 0 011.771.217 1.268 1.268 0 01-.217 1.772c-.07.056-6.513 5.112-9.573 10.182l5.294 2.409a1.26 1.26 0 01.624 1.674 1.252 1.252 0 01-1.142.728zm45.952-11.218c-.315-1.429-1.716-2.437-3.103-2.374.224-.624.449-1.254.666-1.877 1.253-3.523-4.342-5.035-5.589-1.541-1.652 4.643-3.487 9.265-4.965 13.971-.917 2.92-1.19 6.317 1.639 8.327 6.842 4.853 11.555-8.971 12.948-13.222.54-1.632-.364-2.801-1.596-3.284z" fill="#1A1A1A"/><path d="M100.791 502.841c6.541 7.998 14.419 15.092 23.327 20.974 28.6 18.894 63.943 21.443 97.347 20.876v-64.882c-19.755.476-41.653.308-57.851-8.047-5.483-2.829-10.974-5.931-14.23-10.616" fill="#fff"/><path d="M213.413 546.028c-29.875 0-62.873-3.242-89.988-21.156-9.013-5.952-16.954-13.102-23.607-21.233a1.256 1.256 0 01.175-1.771 1.256 1.256 0 011.772.175c6.491 7.934 14.244 14.909 23.046 20.721 28.628 18.915 64.182 21.128 95.394 20.687v-62.347c-19.37.434-41.114.063-57.165-8.221-5.539-2.858-11.239-6.065-14.685-11.023a1.267 1.267 0 01.315-1.758 1.273 1.273 0 011.758.315c3.109 4.482 8.509 7.507 13.768 10.218 15.883 8.193 37.858 8.375 57.235 7.906.308-.035.665.119.91.357.238.238.378.56.378.903v64.883c0 .686-.553 1.246-1.239 1.26-2.654.056-5.35.084-8.067.084zm34.897-32.913a1.267 1.267 0 01-1.261-1.197 1.257 1.257 0 011.198-1.324c.189-.007 18.992-.952 26.38-1.478.637-.049 1.303.477 1.345 1.17a1.261 1.261 0 01-1.17 1.344c-7.409.526-26.24 1.471-26.429 1.478-.021.007-.042.007-.063.007zm-.314 13.565a1.256 1.256 0 01-1.254-1.177 1.26 1.26 0 011.17-1.344c.182-.014 18.256-1.275 24.559-2.857a1.264 1.264 0 01.616 2.451c-6.527 1.638-24.251 2.871-25 2.927h-.091zm1.768 8.872c-.875 0-1.337-.042-1.407-.049a1.258 1.258 0 01-1.135-1.372c.063-.693.701-1.191 1.373-1.142.063.007 6.653.547 20.694-3.116a1.252 1.252 0 011.54.903 1.261 1.261 0 01-.903 1.541c-10.967 2.857-17.493 3.235-20.162 3.235zm3.478-109.883h-57.669v8.46h57.669v-8.46z" fill="#1A1A1A"/><path d="M253.24 435.389h-57.669a1.26 1.26 0 01-1.261-1.26v-8.46c0-.7.567-1.26 1.261-1.26h57.669c.7 0 1.26.567 1.26 1.26v8.46c0 .7-.56 1.26-1.26 1.26zm-56.409-2.521h55.148v-5.931h-55.148v5.931z" fill="#000"/><path d="M365 586.318c-.112 0-.224-.014-.336-.049l-36.506-10.126a1.257 1.257 0 01-.876-1.555 1.248 1.248 0 011.555-.875l36.506 10.126c.672.182 1.065.882.875 1.554a1.262 1.262 0 01-1.218.925zm-176.508 0c-.511 0-.994-.315-1.183-.82a1.265 1.265 0 01.742-1.624l27.157-10.126a1.259 1.259 0 011.625.742 1.266 1.266 0 01-.742 1.625l-27.158 10.126a1.221 1.221 0 01-.441.077zm176.815-91.158c-.7 0-1.26-.568-1.26-1.261V421.58a1.26 1.26 0 112.521 0v72.319c0 .7-.56 1.261-1.261 1.261zm-176.354-78.916c-.7 0-1.26-.567-1.26-1.26v-9.545a1.26 1.26 0 112.521 0v9.545c0 .7-.568 1.26-1.261 1.26zm-69.197-158.718a1.26 1.26 0 01-.89-.371l-13.732-13.733a1.266 1.266 0 010-1.785l13.732-13.733c.49-.49 1.289-.49 1.786 0l13.733 13.733c.49.49.49 1.288 0 1.785l-13.733 13.733a1.244 1.244 0 01-.896.371zm-11.947-14.993l11.947 11.947 11.947-11.947-11.947-11.947-11.947 11.947zm459.694 304.861c-.322 0-.644-.126-.889-.371l-12.36-12.36a1.269 1.269 0 010-1.786c.49-.49 1.288-.49 1.786 0l12.36 12.36c.49.49.49 1.289 0 1.786a1.256 1.256 0 01-.897.371zm-28.69 13.244c-4.103 0-7.437-3.34-7.437-7.437s3.341-7.437 7.437-7.437c4.097 0 7.438 3.34 7.438 7.437s-3.334 7.437-7.438 7.437zm0-12.36a4.922 4.922 0 00-4.916 4.916 4.922 4.922 0 004.916 4.916 4.922 4.922 0 004.916-4.916 4.922 4.922 0 00-4.916-4.916zm-340.406-82.04a4.27 4.27 0 100-8.543 4.271 4.271 0 100 8.543zm53.377-2.997h-38.243a1.26 1.26 0 110-2.521h38.243a1.26 1.26 0 110 2.521zm78.55 3.179c-.112 0-.224-.014-.336-.049l-17.339-4.832a1.258 1.258 0 01-.925-1.211v-38.362a1.26 1.26 0 011.261-1.261h34.111c.7 0 1.261.567 1.261 1.261v38.362a1.26 1.26 0 01-.911 1.211l-16.772 4.832a1.456 1.456 0 01-.35.049zm-16.072-7.052l16.072 4.475 15.519-4.468v-36.149h-31.591v36.142zm32.851.96h.028-.028z" fill="#1A1A1A"/><path d="M441.533 305.359a1.25 1.25 0 01-.637-.175l-10.231-5.966a1.258 1.258 0 01-.455-1.723 1.258 1.258 0 011.722-.455l10.232 5.966a1.26 1.26 0 01.455 1.723c-.224.406-.652.63-1.086.63zm10.779-7.863c-.497 0-.973-.302-1.169-.792l-9.875-24.685a1.262 1.262 0 01.701-1.639 1.255 1.255 0 011.638.701l9.875 24.685a1.263 1.263 0 01-1.17 1.73z" fill="#fff"/><path d="M309.936 528.516h-6.009c-.7 0-1.26-.567-1.26-1.26 0-.694.567-1.261 1.26-1.261h6.009c.693 0 1.26.567 1.26 1.261 0 .693-.567 1.26-1.26 1.26zm0 64.518h-6.009c-.7 0-1.26-.567-1.26-1.26 0-.694.567-1.261 1.26-1.261h6.009c.693 0 1.26.567 1.26 1.261 0 .693-.567 1.26-1.26 1.26zM479.519 347.86a1.26 1.26 0 01-1.163-.777c-.133-.316-3.368-7.816-14.083-9.756a1.263 1.263 0 01-1.015-1.47 1.273 1.273 0 011.471-1.016c12.129 2.206 15.812 10.911 15.966 11.282a1.25 1.25 0 01-.686 1.639c-.168.07-.329.098-.49.098z" fill="#1A1A1A"/></g><defs><linearGradient id="paint0_linear" x1="540.266" y1="435.818" x2="540.266" y2="128.053" gradientUnits="userSpaceOnUse"><stop stop-color="#fff" stop-opacity=".56"/><stop offset="1" stop-color="#FFBC26"/></linearGradient><linearGradient id="paint1_linear" x1="382.266" y1="425.818" x2="382.266" y2="118.053" gradientUnits="userSpaceOnUse"><stop stop-color="#13AB50"/><stop offset="1" stop-color="#5FAE62"/></linearGradient><linearGradient id="paint2_linear" x1="462.266" y1="549.818" x2="446.266" y2="363" gradientUnits="userSpaceOnUse"><stop stop-color="#6A46F0" stop-opacity="0"/><stop offset="1" stop-color="#825FFF"/></linearGradient><filter id="filter0_d" x="0" y="0" width="800.766" height="732.474" filterUnits="userSpaceOnUse" color-interpolation-filters="sRGB"><feFlood flood-opacity="0" result="BackgroundImageFix"/><feColorMatrix in="SourceAlpha" values="0 0 0 0 0 0 0 0 0 0 0 0 0 0 0 0 0 0 127 0"/><feOffset dx="21"/><feGaussianBlur stdDeviation="50"/><feColorMatrix values="0 0 0 0 0.0949583 0 0 0 0 0.0739063 0 0 0 0 0.179167 0 0 0 1 0"/><feBlend in2="BackgroundImageFix" result="effect1_dropShadow"/><feBlend in="SourceGraphic" in2="effect1_dropShadow" result="shape"/></filter></defs></svg>