<svg width="155" height="25" viewBox="0 0 155 25" fill="none" xmlns="http://www.w3.org/2000/svg"><mask id="a" maskUnits="userSpaceOnUse" x="0" y="0" width="16" height="25"><path d="M0 0l8.58 24.557h6.773L6.773 0H0z" fill="#C4C4C4"/></mask><g mask="url(#a)"><path d="M10.439-7.04L27.01 16.693 4.915 31.598-11.657 7.863 10.439-7.04z" fill="url(#paint0_linear)"/></g><mask id="b" maskUnits="userSpaceOnUse" x="8" y="7" width="13" height="18"><path d="M8.58 24.557h6.773c0-7.022 2.112-13.05 5.138-15.678-1.038-.9-2.185-1.403-3.39-1.403-4.705 0-8.522 7.648-8.522 17.081z" fill="#C4C4C4"/></mask><g mask="url(#b)"><path d="M.27 18.51L12.796 1.88 28.8 13.523 16.272 30.154.27 18.51z" fill="url(#paint1_linear)"/></g><mask id="c" maskUnits="userSpaceOnUse" x="17" y="7" width="16" height="18"><path d="M17.102 7.476c1.204 0 2.348.499 3.385 1.403 3.022 2.624 5.138 8.656 5.138 15.674h6.773c0-9.433-3.816-17.077-8.522-17.077h-6.774z" fill="#C4C4C4"/></mask><g mask="url(#c)"><path d="M28.774 1.083l11.018 19.425L20.73 30.95 9.711 11.53 28.774 1.083z" fill="url(#paint2_linear)"/></g><path d="M25.624 24.557L34.207 0h6.774L32.4 24.557h-6.777z" fill="#F7C654"/><path d="M83.881 7.078c-2.669 0-4.736.852-6.436 2.59-1.7 1.705-2.567 3.815-2.567 6.371 0 2.59.867 4.737 2.601 6.438C79.213 24.147 81.454 25 84.264 25c3.362 0 5.88-1.54 7.383-4.145l-3.215-1.537c-.893 1.466-2.158 2.31-4.134 2.31-2.878 0-5.252-1.47-5.501-4.018h13.546c.417-1.824.008-5.687-2.07-7.905-1.633-1.741-3.863-2.627-6.392-2.627zm-5.118 7.528c.355-2.675 2.309-4.19 5.084-4.19 2.461 0 4.85 1.41 5.252 4.19H78.762zm41.598-7.528c-2.529 0-4.713.852-6.482 2.59-1.768 1.738-2.669 3.852-2.669 6.371 0 2.523.901 4.633 2.669 6.371 1.769 1.738 3.953 2.59 6.482 2.59 2.563 0 4.714-.852 6.482-2.59 1.768-1.738 2.669-3.852 2.669-6.37 0-2.52-.901-4.634-2.669-6.372-1.768-1.738-3.919-2.59-6.482-2.59zm3.847 12.813c-1.041 1.023-2.325 1.533-3.847 1.533-1.526 0-2.809-.51-3.846-1.533-1.042-1.024-1.56-2.319-1.56-3.852s.518-2.828 1.56-3.852c1.041-1.023 2.32-1.533 3.846-1.533 1.526 0 2.81.51 3.847 1.534 1.041 1.023 1.56 2.318 1.56 3.851s-.519 2.828-1.56 3.852zm-23.849 4.666c-.39-1.075-.59-2.497-.59-4.558V0h-3.745v19.407c0 1.767.287 4.067 1.185 5.15h3.15zm8.075 0c-.389-1.075-.59-2.497-.59-4.558V0h-3.745v19.407c0 1.767.288 4.067 1.185 5.15h3.15zM70.35 7.52L67.495 19.3s-1.06-6.87-4.3-11.778h-2.697c-3.24 4.908-4.3 11.778-4.3 11.778L53.342 7.521H49.39l5.1 17.036h3.82s1.272-8.086 3.536-12.756c2.264 4.67 3.536 12.756 3.536 12.756h3.82l5.1-17.036H70.35zm63.69 0l2.854 11.779s1.06-6.87 4.301-11.778h2.696c3.241 4.908 4.301 11.778 4.301 11.778l2.855-11.778H155l-5.1 17.036h-3.677s-1.419-8.086-3.68-12.756c-2.264 4.67-3.68 12.756-3.68 12.756h-3.676l-5.1-17.036h3.953z" fill="#fff"/><defs><linearGradient id="paint0_linear" x1="5.288" y1="8.872" x2="10.894" y2="17.183" gradientUnits="userSpaceOnUse"><stop stop-color="#9274FF"/><stop offset=".819" stop-color="#6A46F0"/><stop offset="1" stop-color="#6A46F0"/></linearGradient><linearGradient id="paint1_linear" x1="7.263" y1="25.668" x2="19.449" y2="8.919" gradientUnits="userSpaceOnUse"><stop stop-color="#9274FF"/><stop offset="1" stop-color="#FF9354"/></linearGradient><linearGradient id="paint2_linear" x1="21.605" y1="10.468" x2="29.596" y2="25.053" gradientUnits="userSpaceOnUse"><stop stop-color="#F7C654"/><stop offset=".715" stop-color="#FF7B2E"/><stop offset="1" stop-color="#FF7B2E"/></linearGradient></defs></svg>