<svg width="731" height="554" viewBox="0 0 731 554" fill="none" xmlns="http://www.w3.org/2000/svg"><path d="M549.626 276.985c0 16.558-1.474 32.785-4.271 48.541-14.026 79.251-61.856 146.776-127.948 186.934-35.894 21.825-77.15 35.596-121.349 38.799-5.307.416-10.608.625-16 .68-1.353.061-2.711.061-4.064.061-10.639 0-21.161-.594-31.501-1.806-2.888-.356-5.807-.711-8.695-1.182-36.954-5.42-71.489-18.304-102.077-37.078C64.383 469.467 15.346 396.847 4.591 312.207c-1.474-11.549-2.211-23.275-2.211-35.21C2.374 125.114 124.874 2 275.988 2c61.558 0 118.406 20.434 164.11 54.934a284.485 284.485 0 0114.325 11.58c37.277 32.222 65.774 74.365 81.506 122.343 8.896 27.103 13.697 56.037 13.697 86.128z" fill="url(#paint0_radial)" stroke="#fff" stroke-width="3"/><path d="M137.452 171.721c2.12-8.004-11.065-11.188-14.532-2.878-15.763 37.806-66.518 39.448-93.553 65.705-21.253 20.643-28.101 57.354-.353 75.767 26.681 17.703 59.175 4.666 77.095-19.087 24.622-32.645 21.447-76.404 31.897-114.161.579-2.095.268-3.895-.554-5.346z" fill="#1A1A1A"/><path d="M213.606 91.116c-17.06-19.828-43.486-12.694-58.633 4.568-47.891-2.045-73.281 60.777-33.14 91.107 17.121 12.939 41.902 12.418 59.261.165 16.701-11.788 21.989-30.948 23.787-50.33 16.031-7.96 22.032-30.042 8.725-45.51z" fill="#1A1A1A"/><path d="M369.524 486.221c-2.595-7.508-6.215-14.109-11.095-20.165l.451-1.623s-17.688-18.352-43.371-15.486c-25.676 2.865-36.521 24.09-54.209 10.893-16.805-12.528-13.04-115.025-39.508-152.807-10.126-19.185-26.98-32.094-55.465-38.291-6.787-1.494-14.209-2.59-22.386-3.3-18.175-1.574-34.151-1.905-48.232-1.066-49.543 2.891-75.67 20.067-91.116 47.813 13.32 104.817 85.358 191.141 181.89 224.71 17.621-11.616 108.487-50.103 108.487-50.103s1.998 30.967 13.124 27.526c7.421-2.297 0-20.649 1.712-29.246 12.595 3.766 23.3 34.359 32.336 28.854 1.682-.821 2.858-2.909 3.674-5.891 1.584 1.959 4.54 4.697 7.019 5.787 6.106 2.682 9.128-3.668 8.019-10.337-.67-4.029 10.23.392 9.566-3.637 5.021.961 1.273-7.342-.896-13.631z" fill="#fff"/><path d="M186.475 538.357c-.159 0-.323-.025-.475-.08C88.03 504.212 16.254 415.536 3.141 312.373a1.445 1.445 0 01.17-.9c17.183-30.857 45.644-45.835 92.298-48.56 14.203-.845 30.502-.484 48.44 1.071 8.311.723 15.696 1.807 22.575 3.325 27.619 6.008 45.551 18.414 56.44 39.032 14.477 20.643 19.887 59.87 24.658 94.487 3.723 26.986 7.239 52.472 14.428 57.837 9.743 7.262 17.067 3.404 27.194-1.935 7.147-3.766 15.251-8.041 25.993-9.241 26.09-2.915 43.827 15.15 44.57 15.921.36.374.494.907.354 1.409l-.25.906c4.734 6.001 8.299 12.56 10.87 20.012 1.03 2.982.615 5.756-1.158 7.826-1.627 1.892-4.241 2.97-7.001 2.97h-.122c.043 1.212-.115 2.106-.262 2.915-.189 1.09-.359 2.026-.061 3.796.805 4.844-.396 9.314-3.052 11.396-1.889 1.482-4.369 1.666-6.983.515-1.968-.864-4.143-2.603-5.855-4.311-.92 2.216-2.121 3.661-3.626 4.396-5.849 3.564-11.631-4.452-17.755-12.951-4.314-5.989-9.145-12.694-14.002-15.156-.158 2.921.39 6.712.92 10.404 1.158 8.059 2.359 16.393-3.418 18.181-2.077.643-4.113.337-5.886-.888-6.367-4.415-8.402-20.036-8.956-25.903-13.009 5.542-90.476 38.701-106.403 49.191a1.386 1.386 0 01-.786.239zM6.085 312.483c13.105 101.633 83.76 188.979 180.201 222.806 18.846-11.978 104.435-48.284 108.109-49.84a1.456 1.456 0 012.017 1.255c.383 5.904 2.54 22.033 7.866 25.726 1.054.728 2.126.887 3.381.502 3.4-1.054 2.383-8.132 1.402-14.979-.683-4.739-1.383-9.638-.683-13.165a1.46 1.46 0 01.677-.968 1.466 1.466 0 011.163-.147c6.337 1.899 11.839 9.522 17.152 16.907 5.314 7.373 10.322 14.336 14.014 12.094 1.286-.636 2.297-2.351 3.029-5.027a1.449 1.449 0 011.102-1.041 1.466 1.466 0 011.426.508c1.536 1.899 4.326 4.422 6.477 5.365 1.639.716 2.998.673 4.034-.141 1.773-1.39 2.589-4.93 1.974-8.616-.378-2.26-.14-3.601.067-4.783.189-1.09.353-2.027.061-3.796a1.466 1.466 0 01.42-1.286 1.451 1.451 0 011.286-.392c2.419.465 4.941-.263 6.282-1.819 1.084-1.261 1.298-2.976.615-4.96-2.553-7.373-6.099-13.827-10.858-19.724a1.47 1.47 0 01-.268-1.31l.22-.784c-3.236-3.025-19.474-16.95-41.579-14.482-10.2 1.139-18.042 5.278-24.97 8.928-10.224 5.389-19.059 10.049-30.27 1.69-8.171-6.093-11.436-29.785-15.574-59.778-4.728-34.28-10.084-73.14-24.25-93.36-10.553-19.957-27.863-31.892-54.588-37.703-6.757-1.488-14.02-2.56-22.203-3.27-17.797-1.543-33.956-1.898-48.025-1.065-45.35 2.651-73.037 17.048-89.708 46.655zm114.346-150.229c2.102.41 4.204.82 6.3 1.224 2.279.441 4.137 2.156 3.936 4.66-.055.668-.353 1.323-.75 1.929.628 1.341.677 2.884-.286 4.244-1.255 1.77-4.228 2.535-5.995 1.004-2.017-1.745-7.812-9.951-7.117-11.849.597-1.647 2.084-1.568 3.912-1.212zm90.307-30.508c-6.008 1.813-50.177-.729-61.674-1.433-9.651 4.036-17.335 6.124-24.25 6.203l.036-1.145c.865-22.896 19.285-39.723 42.383-39.956 13.953-.153 27.09 4.703 35.224 14.537 4.649 5.622 7.678 12.896 8.281 21.794z" fill="#1A1A1A"/><path d="M210.806 138.286c-.634-28.897-19.766-43.134-43.572-42.871-22.233.239-40.36 17.354-42.431 39.117-.378-.036-.707-.122-1.085-.11-17.901.202-28.107 27.525 4.223 29.883.889 1.451 1.754 2.909 2.796 4.238l-25.188 95.821c-3.961-.073-7.976.367-11.675.472l62.32 78.418 8.481-74.897c-.725-.184-1.492-.349-2.236-.527l20.193-79.576c15.927-6.503 28.789-21.451 28.174-49.968z" fill="#fff"/><path d="M156.185 344.711c-.432 0-.853-.196-1.133-.545l-62.32-78.424a1.459 1.459 0 011.097-2.37c1.42-.037 2.888-.128 4.387-.22 2.029-.123 4.119-.251 6.215-.258l24.72-94.039c-.756-1.029-1.42-2.107-2.066-3.16-20.442-1.751-21.709-12.89-21.606-16.295.238-7.795 7.531-16.221 18.036-16.435 2.802-22.1 21.35-38.769 43.699-39.007 26.767-.362 44.442 17.091 45.04 44.298.694 31.805-14.898 45.326-28.4 51.064l-19.65 77.42c.274.061.548.129.816.196a1.46 1.46 0 011.085 1.58l-8.482 74.897a1.454 1.454 0 01-1.042 1.237 1.395 1.395 0 01-.396.061zm-59.4-78.547l58.352 73.428 7.94-70.115a.906.906 0 00-.122-.024l-.859-.202a1.471 1.471 0 01-.908-.662 1.46 1.46 0 01-.165-1.114l20.193-79.576a1.47 1.47 0 01.859-.992c12.807-5.229 27.936-17.899 27.266-48.578-.56-25.621-16.421-41.45-41.439-41.45-.219 0-.438 0-.664.006-21.344.226-38.971 16.478-41 37.794a1.452 1.452 0 01-1.59 1.317l-.451-.061c-.146-.025-.286-.055-.445-.049-8.835.104-15.19 7.256-15.385 13.612-.225 7.453 7.123 12.443 19.663 13.356.463.03.883.288 1.133.692l.25.404c.804 1.31 1.559 2.553 2.455 3.692.28.362.378.833.262 1.28l-25.182 95.816c-.171.649-.683 1.084-1.432 1.084-2.346-.049-4.783.104-7.13.244-.535.037-1.072.068-1.602.098z" fill="#1A1A1A"/><path d="M202.451 109.952c-14.039 9.718-28.193.496-33.281-4.501-7.427 16.197-28.253 37.109-45.326 30.079.865-22.896 20.284-39.876 43.383-40.115 13.959-.153 27.089 4.703 35.224 14.537zm-14.617 51.622a1.456 1.456 0 01-1.45-1.396 1.457 1.457 0 011.389-1.525l9.085-.398c-1.268-8.897-7.574-19.92-7.641-20.036a1.465 1.465 0 01.53-1.996 1.449 1.449 0 011.986.532c.305.527 7.452 13.001 8.196 22.78a1.48 1.48 0 01-.36 1.078 1.462 1.462 0 01-1.024.49l-10.638.465c-.031.006-.055.006-.073.006zm-44.407 343.263c-.664 0-1.261-.46-1.413-1.139l-54.29-240.503a1.459 1.459 0 011.097-1.746 1.446 1.446 0 011.737 1.103l54.289 240.509a1.458 1.458 0 01-1.097 1.745c-.11.018-.219.031-.323.031zm73.062-22.076a1.457 1.457 0 01-1.42-1.151c-9.658-44.488-19.205-87.978-28.814-131.749-5.734-26.129-11.492-52.356-17.31-78.963a1.454 1.454 0 112.839-.625c5.819 26.607 11.577 52.834 17.31 78.964 9.615 43.777 19.163 87.267 28.814 131.76a1.46 1.46 0 01-1.109 1.739 2.49 2.49 0 01-.31.025zm19.12-3.111a1.455 1.455 0 01-1.426-1.2l-15.976-87.751a1.459 1.459 0 01.78-1.567c4.613-2.321 6.239-16.644-3.028-49.913a1.459 1.459 0 011.005-1.801 1.467 1.467 0 011.792 1.011c4.77 17.127 11.253 46.196 2.492 52.723l15.799 86.771a1.455 1.455 0 01-1.17 1.697 1.05 1.05 0 01-.268.03zm258.832-200.326c-2.023-1.427-3.436-3.754-3.436-6.999V106.94a275.603 275.603 0 00-36.589-38.426L302.967 145.17a13.768 13.768 0 00-7.531 12.29v286.136c0 10.244 10.748 16.901 19.851 12.29l179.154-90.696v-85.865zm-100.12 241.765v-82.828h-34.706v96.636a1019.944 1019.944 0 0034.706-13.808zM87.549 476.68c-.451 0-.902-.208-1.182-.612-.262-.368-26.054-37.36-29.26-102.429a1.46 1.46 0 011.378-1.531c.798-.11 1.48.582 1.523 1.384 3.162 64.224 28.467 100.512 28.723 100.873a1.465 1.465 0 01-1.182 2.315z" fill="#1A1A1A"/><path d="M234.854 495.045c15.373 9.185 36.906 28.933 26.048 33.367-8.171 3.337-33.365-23.888-43.413-25.664 0 0 27.12 20.263 27.754 32.259.555 10.043-7.117 11.059-7.117 11.059s-.578 1.421-2.321 2.946c-36.948-5.426-71.502-18.316-102.095-37.085 70.216-47.764 128.545-31.046 135.058-21.94 5.88 8.236-33.128 2.823-33.914 5.058z" fill="#fff"/><path d="M235.804 550.463c-.067 0-.14-.006-.207-.012-36.534-5.371-71.07-17.912-102.644-37.287a1.464 1.464 0 01-.055-2.455c70.777-48.144 129.983-31.469 137.051-21.586 1.201 1.684.951 2.982.53 3.778-1.876 3.54-10.955 3.54-24.579 3.148a286.537 286.537 0 00-6.94-.135c10.974 7.263 26.931 20.826 26.322 28.995-.116 1.55-.877 3.644-3.833 4.85-5.343 2.192-15.122-5.419-25.475-13.466-1.267-.985-2.54-1.977-3.808-2.945 7.038 6.76 14.191 15.15 14.526 21.579.512 9.247-5.404 11.782-7.592 12.401-.39.667-1.121 1.702-2.352 2.78a1.407 1.407 0 01-.944.355zm-99.39-38.603c30.508 18.377 63.77 30.348 98.915 35.602 1.06-1.059 1.456-1.953 1.462-1.965a1.47 1.47 0 011.152-.882c.249-.037 6.33-1.029 5.861-9.528-.487-9.278-19.778-25.646-27.169-31.169a1.471 1.471 0 01-.469-1.752 1.438 1.438 0 011.584-.857c4.783.845 12.18 6.589 20.01 12.676 8.378 6.515 18.827 14.623 22.605 13.074 1.712-.698 1.98-1.684 2.029-2.364.463-6.197-14.818-20.355-28.272-28.395a1.457 1.457 0 01-.627-1.739c.578-1.647 2.412-1.727 12.503-1.427 5.788.172 21.173.619 21.934-1.604 0 0 .013-.208-.329-.698-6.452-9.002-63.995-23.686-131.189 21.028z" fill="#1A1A1A"/><path d="M234.853 496.502a1.42 1.42 0 01-.865-.287c-7.732-5.818-10.194-7.024-10.218-7.036a1.465 1.465 0 01-.688-1.942 1.456 1.456 0 011.919-.704c.103.049 2.626 1.249 10.73 7.342a1.47 1.47 0 01.292 2.046 1.463 1.463 0 01-1.17.581zm182.554 15.958c-35.894 21.824-77.15 35.596-121.349 38.799-5.307.416-10.608.625-16 .68l127.679-61.891 9.67 22.412zm-179.282 35.064c-.712 0-1.34-.533-1.437-1.262-.659-4.844-12.284-23.551-29.802-30.979a1.464 1.464 0 01-.774-1.911 1.445 1.445 0 011.901-.777c17.841 7.569 30.673 26.827 31.55 33.275a1.456 1.456 0 01-1.243 1.647c-.067 0-.134.007-.195.007zm-13.198.661c-.427 0-.847-.19-1.133-.545-.122-.153-12.345-15.37-24.647-20.244a1.463 1.463 0 01-.822-1.893c.292-.747 1.139-1.126 1.882-.82 13.027 5.156 25.329 20.483 25.847 21.132a1.47 1.47 0 01-.225 2.052 1.426 1.426 0 01-.902.318zm120.881-38.689c-.603 0-1.163-.38-1.37-.986-.055-.159-5.618-16.129-17.213-28.989a1.466 1.466 0 01.103-2.063 1.45 1.45 0 012.054.098c12.009 13.318 17.572 29.325 17.803 29.999a1.458 1.458 0 01-.901 1.855 1.311 1.311 0 01-.476.086zm15.256-.147a1.461 1.461 0 01-1.365-.955c-.085-.226-8.451-22.945-20.064-35.823a1.466 1.466 0 01.103-2.063 1.455 1.455 0 012.054.098c12.003 13.306 20.296 35.829 20.637 36.778a1.466 1.466 0 01-1.365 1.965zm-75.348-19.099c-.804 0-1.45-.655-1.45-1.457v-27.434c0-.808.652-1.457 1.45-1.457.798 0 1.45.655 1.45 1.457v27.434a1.45 1.45 0 01-1.45 1.457z" fill="#1A1A1A"/><path d="M726.32 375.782c-11.345 67.2-53.722 121.308-109.858 149.973-31.178 15.964-66.597 24.077-103.313 22.24-8.134-.416-16.299-1.273-24.519-2.694-34.803-5.952-66.066-20.318-92.059-40.691-4.863-3.821-9.579-7.851-14.057-12.082-41.67-39.154-66.481-95.007-65.421-154.804.03-3.196.177-6.429.384-9.656.445-7.165 1.298-14.391 2.504-21.647 15.294-90.568 86.899-157.321 172.598-170.205 21.039-3.196 42.962-3.11 65.098.68 23.927 4.084 46.179 12.143 66.188 23.429 58.232 32.724 97.66 92.576 104.35 159.898.268 2.254.445 4.532.591 6.81a208.254 208.254 0 01-2.486 48.749z" fill="#FEFFFE"/><path d="M523.268 549.71c-3.4 0-6.794-.086-10.194-.257-8.445-.429-16.756-1.341-24.695-2.713-33.829-5.787-65.884-19.957-92.706-40.979-5.039-3.962-9.804-8.058-14.16-12.173-42.907-40.318-66.92-97.139-65.878-155.894.024-2.884.152-6.069.384-9.724.432-7.018 1.279-14.348 2.522-21.794 15.056-89.159 84.907-158.037 173.81-171.405 21.649-3.288 43.7-3.062 65.555.686 23.623 4.036 46.052 11.972 66.652 23.594 59.078 33.202 98.36 93.403 105.081 161.025.268 2.248.445 4.556.597 6.865a210.315 210.315 0 01-2.492 49.086c-10.937 64.782-52.297 121.241-110.631 151.026-29.082 14.898-61.333 22.657-93.845 22.657zm-.354-414.32c-10.09 0-20.15.759-30.118 2.272-87.666 13.177-156.536 81.094-171.379 169.004-1.224 7.342-2.059 14.574-2.486 21.494-.231 3.6-.353 6.735-.377 9.577-1.03 57.941 22.647 113.965 64.957 153.72 4.29 4.053 8.988 8.089 13.96 12.002 26.443 20.728 58.048 34.696 91.407 40.403 7.83 1.353 16.019 2.253 24.348 2.676a203.387 203.387 0 00102.583-22.088c57.524-29.374 98.299-85.044 109.083-148.919a206.849 206.849 0 002.462-48.406c-.146-2.26-.323-4.513-.579-6.736-6.629-66.704-45.363-126.054-103.618-158.797-20.314-11.457-42.426-19.283-65.72-23.263a205.828 205.828 0 00-34.523-2.939z" fill="#1A1A1A"/><path d="M729.145 334.418c0-.006 0-.006 0 0 .006-.086-.007-.172-.007-.258a224.788 224.788 0 00-.286-6.111c-.018-.343-.03-.686-.049-1.022-.146-2.278-.316-4.556-.578-6.804a59.494 59.494 0 00-.232-2.045 12913.01 12913.01 0 00-19.376 11.476c-1.682.992-2.663 2.326-3.144 3.772-32.141 11.745-86.606 39.729-90.835 86.47-4.679 51.714 1.182 101.407 1.834 105.846 56.135-28.658 98.494-82.766 109.845-149.947a208.26 208.26 0 002.828-41.377z" fill="#fff"/><path d="M616.474 527.2a1.472 1.472 0 01-1.438-1.25c-.067-.483-6.782-51.627-1.846-106.188 4.533-50.171 64.75-77.745 91.158-87.481.7-1.605 1.907-2.94 3.528-3.889 6.446-3.821 12.892-7.648 19.375-11.469.415-.251.939-.27 1.371-.055.439.214.738.636.805 1.12.091.692.176 1.415.237 2.107.262 2.235.433 4.537.585 6.84l.049 1.035c.122 2.039.225 4.096.286 6.154l.013.294v.085c.426 13.87-.531 27.85-2.84 41.537-10.949 64.787-52.309 121.24-110.625 151.007a1.463 1.463 0 01-.658.153zm110.327-206.628c-5.831 3.448-11.638 6.889-17.451 10.337-1.249.735-2.09 1.739-2.504 2.976-.14.422-.463.759-.884.912-25.554 9.339-85.461 36.338-89.878 85.234-4.351 48.082.39 93.446 1.572 103.458 56.525-29.595 96.55-84.75 107.231-147.945a207.548 207.548 0 002.803-41.083v-.135c-.073-2.199-.17-4.201-.292-6.185l-.049-1.029c-.14-2.18-.305-4.372-.548-6.54z" fill="#1A1A1A"/><path d="M655.489 218.302c.756-3.306-2.589-10.685-2.412-14.206-36.681-22.664-68.419-43.245-101.498-70.929-16.354 9.748-29.247 25.082-33.378 42.075-11.163 46.122-3.047 74.34-3.047 74.34l18.523.82s19.979 43.269 62.033 26.846l81.909 135.698 45.101-85.754-67.231-108.89z" fill="#fff"/><path d="M677.616 414.404c-.505 0-.981-.264-1.243-.705l-81.281-134.663c-38.849 14.317-59.267-21.334-62.326-27.219l-17.676-.784a1.447 1.447 0 01-1.328-1.053c-.335-1.17-8.097-29.118 3.035-75.087 4.039-16.62 16.768-32.682 34.047-42.988a1.438 1.438 0 011.67.135c31.294 26.19 60.851 45.792 101.327 70.807.451.281.719.784.689 1.316-.067 1.366.56 3.705 1.17 5.971.792 2.951 1.547 5.75 1.316 7.856l66.944 108.418c.274.441.292.992.049 1.451l-45.107 85.767a1.46 1.46 0 01-1.243.778h-.043zm-81.908-138.62c.493 0 .974.258 1.243.705l80.58 133.499 43.516-82.741-66.791-108.173a1.473 1.473 0 01-.183-1.096c.329-1.451-.475-4.44-1.182-7.073-.591-2.192-1.152-4.286-1.255-5.982-39.904-24.672-69.236-44.145-100.194-69.968-16.177 9.92-28.041 25.045-31.83 40.636-9.774 40.379-4.576 67.175-3.315 72.582l17.444.772a1.446 1.446 0 011.249.845c.799 1.721 19.931 41.818 60.187 26.105.177-.08.354-.111.531-.111z" fill="#1A1A1A"/><path d="M654.962 220.409c-2.857 1.151-5.764 2.113-8.859 2.658-7.184 1.225-40.939-7.655-32.683-16.668 9.261-10.092 2.212-31.225-13.581-26.307-20.979 6.552-93.584 4.972-101.127-25.174-3.918-25.793 41.335-24.243 69.76-31.384 32.482-6.49 52.741 2.56 71.136 28.867 16.299 26.931 20.387 49.227 15.354 68.008z" fill="#1A1A1A"/><path d="M581.988 162.603c-3.162-4.807-9.122-2.487-10.815 1.677-4.028.19-7.812 3.705-5.539 8.304 3.473 7.018 6.946 14.029 10.419 21.047 2.73 5.517 10.901 5.119 12.107-1.36 1.944-10.471-.353-20.826-6.172-29.668zm-12.552 382.208c-.372 0-.743-.141-1.03-.429-.329-.33-33.237-33.71-51.949-70.892-18.164-36.098-55.971-111.216-108.066-117.915a1.46 1.46 0 01-1.256-1.635 1.455 1.455 0 011.627-1.262c53.625 6.895 91.896 82.95 110.29 119.495 18.493 36.76 51.091 69.821 51.42 70.146a1.474 1.474 0 010 2.07 1.492 1.492 0 01-1.036.422z" fill="#1A1A1A"/><path d="M482.997 485.302l-86.429 19.308c-4.863-3.821-9.579-7.851-14.057-12.082-41.67-39.154-66.481-95.007-65.421-154.804.031-3.196.177-6.43.384-9.657l62.886-14.035c4.241-.949 8.665.857 11.053 4.532l98.098 150.658c4.009 6.184.652 14.482-6.514 16.08z" fill="#1A1A1A"/><path d="M471.63 472.626l-89.111 19.902c-41.67-39.154-66.481-95.007-65.421-154.804l64.977-14.513a9.161 9.161 0 019.663 3.938l85.577 131.436c3.51 5.395.561 12.645-5.685 14.041z" fill="#fff"/><path d="M382.079 494.12l-.561-.527c-42.907-40.317-66.92-97.138-65.878-155.893l.019-1.151 66.091-14.764c4.35-.968 8.749.826 11.199 4.562l85.577 131.436a10.717 10.717 0 01.944 9.865 10.636 10.636 0 01-7.531 6.393l-89.86 20.079zM318.528 338.9c-.694 57.268 22.734 112.576 64.416 152.036l88.361-19.736c2.511-.558 4.503-2.254 5.472-4.642.969-2.394.719-5.009-.689-7.171l-85.564-131.436c-1.773-2.713-4.972-4.005-8.14-3.313L318.528 338.9z" fill="#1A1A1A"/><path d="M320.954 365.017a1.458 1.458 0 01-1.42-1.145 1.463 1.463 0 011.103-1.739L382 348.429a1.453 1.453 0 011.731 1.108 1.462 1.462 0 01-1.103 1.739l-61.363 13.705c-.104.03-.207.036-.311.036zm.949 24.611a1.46 1.46 0 01-.317-2.884l72.507-16.191a1.452 1.452 0 011.731 1.108 1.462 1.462 0 01-1.103 1.739l-72.507 16.191a1.322 1.322 0 01-.311.037z" fill="#1A1A1A"/><path d="M461.077 394.184c-22.057-10.943-40.068-13.246-51.486-9.535-9.164 2.982-8.007 11.39 2.717 14.286 35.321 9.547 43.23 37.385 61.028 41.01" fill="#fff"/><path d="M473.341 441.402c-.098 0-.195-.006-.293-.03-8.006-1.635-14.014-7.783-20.966-14.911-9.018-9.24-20.241-20.741-40.153-26.123-6.045-1.635-9.859-5.156-9.963-9.192-.085-3.453 2.596-6.405 7.172-7.893 12.741-4.139 31.909-.643 52.577 9.614a1.462 1.462 0 01.658 1.954 1.45 1.45 0 01-1.944.661c-19.991-9.92-38.355-13.374-50.389-9.455-3.284 1.072-5.216 2.952-5.161 5.046.067 2.651 3.132 5.18 7.811 6.448 20.674 5.591 32.208 17.403 41.47 26.895 6.617 6.785 12.332 12.639 19.473 14.096a1.458 1.458 0 011.133 1.721 1.452 1.452 0 01-1.425 1.169zm-17.285 96.936c-.323 0-.652-.11-.921-.33-.627-.521-15.513-13.123-25.938-45.401a1.45 1.45 0 112.76-.9c10.133 31.377 24.878 43.925 25.025 44.047.615.514.7 1.433.195 2.058a1.46 1.46 0 01-1.121.526z" fill="#1A1A1A"/><path d="M446.246 525.62c-.505 0-.999-.27-1.267-.741a1.467 1.467 0 01.548-1.99l74.585-42.345a1.447 1.447 0 011.98.551 1.466 1.466 0 01-.548 1.99l-74.585 42.345c-.225.129-.469.19-.713.19zm-338.73-41.506c-.39 0-.78-.159-1.067-.465a1.467 1.467 0 01.074-2.064l14.726-13.741-13.794-72.528-34.682 6.338c-.786.123-1.547-.38-1.688-1.176a1.451 1.451 0 011.17-1.696l36.095-6.595a1.471 1.471 0 011.688 1.164l14.221 74.75c.092.496-.073.998-.438 1.341l-15.312 14.286a1.46 1.46 0 01-.993.386z" fill="#1A1A1A"/><path d="M106.993 468.854a4.369 4.369 0 01-4.278-3.551l-15.098-79.025c-.451-2.376 1.09-4.672 3.46-5.125 2.352-.466 4.643 1.096 5.1 3.472l15.099 79.024c.451 2.376-1.091 4.673-3.461 5.126a4.162 4.162 0 01-.822.079z" fill="#1A1A1A"/><path d="M100.934 396.431a1.45 1.45 0 01-1.426-1.206l-.987-5.579-5.478 1.133a1.45 1.45 0 01-1.712-1.139 1.468 1.468 0 011.133-1.727l6.94-1.433a1.45 1.45 0 011.724 1.176l1.243 7.054a1.456 1.456 0 01-1.175 1.69 1.288 1.288 0 01-.262.031zm307.377-92.79a1.457 1.457 0 01-1.091-2.419l14.636-16.809a1.442 1.442 0 012.047-.135 1.46 1.46 0 01.134 2.057l-14.636 16.81a1.458 1.458 0 01-1.09.496zm22.299 18.915c-.457 0-.914-.22-1.194-.631a1.455 1.455 0 01.371-2.027l29.277-20.317a1.439 1.439 0 012.017.373 1.455 1.455 0 01-.372 2.027l-29.277 20.318a1.451 1.451 0 01-.822.257zm199.426 196.297a1.444 1.444 0 01-1.438-1.31l-3.973-39.105a1.453 1.453 0 011.298-1.599 1.455 1.455 0 011.59 1.305l3.973 39.105c.085.802-.5 1.519-1.298 1.598-.055 0-.104.006-.152.006zm-495.023-348.7c-.311-3.987-3.163-7.403-7.367-7.403-3.369 0-6.867 2.755-7.312 6.227 1.426 1.66 2.328 3.785 2.316 5.965-.012 2.333-.201 4.653-.408 6.974-.232 2.535-.951 4.587-2.663 6.461-.609.667-1.353 1.151-2.139 1.555 2.2 1.157 4.936 1.255 7.147-.098 6.697-4.078 11.047-11.72 10.426-19.681z" fill="#1A1A1A"/><path d="M461.107 111.042c-.372 0-.744-.14-1.03-.428l-16.701-16.785a1.464 1.464 0 010-2.063 1.447 1.447 0 012.053 0l16.701 16.784c.567.57.567 1.494 0 2.064-.28.288-.652.428-1.023.428z" fill="#fff"/><path d="M523.273 549.704c-3.4 0-6.793-.086-10.193-.258-8.659-.434-16.738-1.322-24.696-2.706-33.859-5.793-65.914-19.963-92.699-40.979-4.99-3.913-9.761-8.01-14.16-12.174-42.92-40.311-66.932-97.119-65.872-155.875.024-2.927.152-6.111.378-9.73.432-7.11 1.279-14.452 2.516-21.812 15.074-89.166 84.925-158.043 173.816-171.399 21.533-3.288 43.59-3.062 65.555.674 23.611 4.029 46.033 11.971 66.64 23.606 58.347 32.792 97.556 92.215 104.867 158.962.086.661.171 1.383.238 2.069.262 2.235.432 4.538.585 6.84.146 2.48.292 4.979.347 7.447a210.066 210.066 0 01-2.839 41.646c-10.949 64.769-52.309 121.228-110.632 151.019-29.094 14.911-61.35 22.67-93.851 22.67zm-.402-414.314c-10.096 0-20.143.759-30.069 2.271-87.655 13.166-156.524 81.082-171.391 168.998-1.219 7.257-2.054 14.495-2.48 21.506-.226 3.57-.347 6.706-.372 9.59-1.042 57.941 22.636 113.959 64.958 153.701a198.992 198.992 0 0013.959 12.002c26.401 20.723 58.012 34.69 91.402 40.404 7.842 1.365 15.805 2.235 24.348 2.67 35.431 1.788 70.892-5.867 102.594-22.088 57.513-29.381 98.287-85.05 109.084-148.913a206.95 206.95 0 002.797-41.071c-.055-2.449-.201-4.917-.341-7.348-.146-2.241-.317-4.495-.579-6.717a47.472 47.472 0 00-.232-2.021c-7.214-65.841-45.874-124.431-103.405-156.763-20.32-11.47-42.426-19.302-65.701-23.276a205.657 205.657 0 00-34.572-2.945z" fill="#1A1A1A"/><path d="M409.37 459.32c-.195 0-.384-.037-.566-.116l-21.387-9.118a1.456 1.456 0 01-.768-1.911 1.44 1.44 0 011.901-.772l19.547 8.329 3.71-42.933c.074-.802.78-1.365 1.573-1.329a1.456 1.456 0 011.322 1.58l-3.888 44.941a1.468 1.468 0 01-.7 1.127 1.444 1.444 0 01-.744.202zm-115.103 72.417a1.457 1.457 0 01-1.316-.833 1.464 1.464 0 01.689-1.947l13.325-6.344a1.457 1.457 0 011.932.698 1.465 1.465 0 01-.689 1.948l-13.325 6.344a1.442 1.442 0 01-.616.134zM267 544.443a1.458 1.458 0 01-1.316-.832 1.465 1.465 0 01.689-1.948l13.325-6.344a1.449 1.449 0 011.932.698 1.465 1.465 0 01-.689 1.948l-13.319 6.337a1.417 1.417 0 01-.622.141zm4.131-31.487a1.449 1.449 0 01-1.323-.857 1.467 1.467 0 01.719-1.935l24.123-11.047a1.453 1.453 0 011.925.722 1.466 1.466 0 01-.719 1.935l-24.122 11.047a1.414 1.414 0 01-.603.135zm94.693-19.006a1.455 1.455 0 01-1.365-.961c-.061-.165-5.867-16.191-12.594-23.172a1.465 1.465 0 01.036-2.063 1.443 1.443 0 012.054.036c7.159 7.428 12.996 23.527 13.24 24.207a1.459 1.459 0 01-.871 1.868 1.596 1.596 0 01-.5.085zM54.176 532.662c-.353 0-.707-.129-.987-.386a1.466 1.466 0 01-.08-2.063l16.519-17.918a1.448 1.448 0 012.053-.08c.591.552.622 1.476.08 2.064l-16.519 17.918a1.461 1.461 0 01-1.066.465zM60.605 509c-.372 0-.744-.141-1.03-.429l-9.804-9.852a1.465 1.465 0 010-2.064l9.804-9.853a1.448 1.448 0 012.053 0l9.804 9.853c.274.275.426.643.426 1.035 0 .392-.152.759-.426 1.035l-9.804 9.852c-.28.282-.652.423-1.023.423zm-7.75-11.316l7.75 7.789 7.75-7.789-7.75-7.789-7.75 7.789zm638.278-364.107a1.453 1.453 0 01-1.451-1.457v-16.981c0-.808.652-1.457 1.451-1.457.804 0 1.45.655 1.45 1.457v16.981c0 .802-.646 1.457-1.45 1.457z" fill="#1A1A1A"/><defs><radialGradient id="paint0_radial" cx="0" cy="0" r="1" gradientUnits="userSpaceOnUse" gradientTransform="rotate(-128.639 368.04 157.919) scale(644.607 616.105)"><stop offset=".683" stop-color="#fff"/><stop offset="1" stop-color="#DFD9F3"/></radialGradient></defs></svg>