<svg width="931" height="754" viewBox="0 0 931 754" fill="none" xmlns="http://www.w3.org/2000/svg"><g filter="url(#filter0_d)"><path d="M628.626 376.985c0 16.558-1.474 32.785-4.271 48.541-14.026 79.251-61.856 146.776-127.948 186.934-35.894 21.825-77.15 35.596-121.349 38.799-5.307.416-10.608.625-16 .68-1.353.061-2.711.061-4.064.061-10.639 0-21.161-.594-31.501-1.806-2.888-.356-5.807-.711-8.695-1.182-36.954-5.42-71.489-18.304-102.077-37.078-69.338-42.467-118.375-115.087-129.13-199.727-1.474-11.549-2.211-23.275-2.211-35.21C81.374 225.114 203.874 102 354.988 102c61.558 0 118.406 20.434 164.11 54.934a284.827 284.827 0 0114.325 11.58c37.277 32.222 65.774 74.365 81.506 122.343 8.896 27.103 13.697 56.037 13.697 86.128z" fill="url(#paint0_radial)" stroke="#fff" stroke-width="3"/><path d="M216.451 271.721c2.121-8.004-11.065-11.188-14.531-2.878-15.763 37.806-66.518 39.448-93.553 65.705-21.253 20.643-28.101 57.354-.354 75.767 26.682 17.703 59.176 4.666 77.096-19.087 24.622-32.645 21.447-76.404 31.897-114.161.579-2.095.268-3.895-.555-5.346z" fill="#1A1A1A"/><path d="M292.606 191.116c-17.06-19.828-43.486-12.694-58.633 4.569-47.891-2.046-73.281 60.776-33.14 91.106 17.121 12.939 41.902 12.419 59.261.165 16.701-11.788 21.99-30.948 23.787-50.329 16.031-7.961 22.032-30.042 8.725-45.511z" fill="#1A1A1A"/><path d="M448.524 586.221c-2.595-7.508-6.215-14.109-11.095-20.165l.451-1.623s-17.688-18.352-43.371-15.486c-25.676 2.865-36.521 24.09-54.21 10.893-16.804-12.528-13.039-115.025-39.507-152.807-10.126-19.185-26.98-32.094-55.465-38.291-6.788-1.494-14.209-2.59-22.386-3.3-18.175-1.574-34.151-1.905-48.232-1.066-49.543 2.891-75.67 20.067-91.116 47.813 13.32 104.817 85.358 191.141 181.89 224.71 17.621-11.616 108.487-50.103 108.487-50.103s1.998 30.967 13.124 27.526c7.421-2.297 0-20.649 1.712-29.246 12.595 3.766 23.3 34.359 32.336 28.854 1.682-.821 2.858-2.909 3.674-5.891 1.584 1.959 4.539 4.697 7.019 5.787 6.106 2.682 9.128-3.668 8.019-10.337-.67-4.029 10.23.392 9.566-3.637 5.021.961 1.273-7.342-.896-13.631z" fill="#fff"/><path d="M265.475 638.357c-.159 0-.323-.025-.475-.08-97.971-34.065-169.747-122.741-182.859-225.904a1.446 1.446 0 01.17-.9c17.183-30.857 45.644-45.835 92.298-48.56 14.203-.845 30.502-.484 48.44 1.071 8.311.723 15.696 1.807 22.575 3.325 27.619 6.008 45.551 18.414 56.439 39.032 14.478 20.643 19.888 59.87 24.659 94.487 3.723 26.986 7.239 52.472 14.428 57.837 9.743 7.262 17.067 3.404 27.194-1.935 7.147-3.766 15.251-8.041 25.993-9.241 26.09-2.915 43.827 15.15 44.57 15.921.36.374.494.907.354 1.409l-.25.906c4.734 6.001 8.298 12.56 10.87 20.012 1.029 2.982.615 5.756-1.158 7.826-1.627 1.892-4.241 2.97-7.001 2.97h-.122c.043 1.212-.115 2.106-.262 2.915-.189 1.09-.359 2.026-.061 3.796.805 4.844-.396 9.314-3.052 11.396-1.889 1.482-4.369 1.666-6.983.515-1.968-.864-4.143-2.603-5.855-4.311-.92 2.216-2.121 3.661-3.626 4.396-5.849 3.564-11.631-4.452-17.755-12.951-4.314-5.989-9.145-12.694-14.002-15.156-.158 2.921.39 6.712.92 10.404 1.158 8.059 2.358 16.393-3.418 18.181-2.077.643-4.113.337-5.886-.888-6.367-4.415-8.402-20.036-8.956-25.903-13.009 5.542-90.476 38.701-106.403 49.191a1.386 1.386 0 01-.786.239zM85.085 412.483c13.105 101.633 83.76 188.979 180.201 222.806 18.846-11.978 104.435-48.284 108.109-49.84a1.456 1.456 0 012.017 1.255c.383 5.904 2.54 22.033 7.866 25.726 1.054.728 2.126.887 3.381.502 3.4-1.054 2.383-8.132 1.402-14.979-.683-4.739-1.383-9.638-.683-13.165.079-.404.323-.753.677-.968a1.466 1.466 0 011.163-.147c6.337 1.899 11.839 9.522 17.152 16.907 5.313 7.373 10.322 14.336 14.014 12.094 1.286-.636 2.297-2.351 3.029-5.027a1.449 1.449 0 011.102-1.041 1.466 1.466 0 011.426.508c1.536 1.899 4.326 4.422 6.477 5.365 1.639.716 2.998.673 4.034-.141 1.773-1.39 2.589-4.93 1.974-8.616-.378-2.26-.14-3.601.067-4.783.189-1.09.353-2.027.061-3.796a1.466 1.466 0 01.42-1.286 1.451 1.451 0 011.286-.392c2.419.465 4.941-.263 6.282-1.819 1.084-1.261 1.298-2.976.615-4.96-2.553-7.373-6.099-13.827-10.858-19.724a1.47 1.47 0 01-.268-1.31l.22-.784c-3.236-3.025-19.474-16.95-41.579-14.482-10.2 1.139-18.042 5.278-24.97 8.928-10.224 5.389-19.059 10.049-30.27 1.69-8.171-6.093-11.437-29.785-15.574-59.778-4.728-34.28-10.084-73.14-24.25-93.36-10.553-19.957-27.863-31.892-54.588-37.703-6.757-1.488-14.02-2.56-22.203-3.27-17.797-1.543-33.956-1.898-48.025-1.065-45.351 2.651-73.037 17.048-89.708 46.655zm114.346-150.229c2.102.41 4.204.82 6.3 1.224 2.279.441 4.137 2.156 3.936 4.66-.055.668-.354 1.323-.75 1.929.628 1.341.677 2.884-.286 4.244-1.255 1.77-4.228 2.535-5.995 1.004-2.017-1.745-7.812-9.951-7.117-11.849.597-1.647 2.084-1.568 3.912-1.212zm90.307-30.508c-6.008 1.812-50.177-.729-61.674-1.433-9.652 4.035-17.335 6.123-24.251 6.203l.037-1.145c.865-22.896 19.285-39.724 42.383-39.956 13.953-.153 27.09 4.703 35.224 14.537 4.649 5.621 7.677 12.896 8.281 21.794z" fill="#1A1A1A"/><path d="M289.806 238.286c-.634-28.897-19.766-43.135-43.571-42.871-22.234.239-40.361 17.354-42.432 39.117-.378-.037-.707-.122-1.085-.11-17.901.202-28.107 27.525 4.223 29.883.889 1.451 1.754 2.908 2.796 4.237l-25.188 95.822c-3.961-.074-7.976.367-11.674.471l62.319 78.419 8.482-74.898c-.726-.183-1.493-.349-2.237-.526l20.193-79.576c15.927-6.503 28.789-21.451 28.174-49.968z" fill="#fff"/><path d="M235.185 444.711c-.432 0-.853-.196-1.133-.545l-62.319-78.424a1.456 1.456 0 01-.183-1.525 1.457 1.457 0 011.279-.845c1.42-.037 2.888-.128 4.387-.22 2.029-.123 4.119-.251 6.215-.258l24.72-94.039c-.756-1.029-1.42-2.107-2.066-3.16-20.442-1.751-21.709-12.89-21.606-16.295.238-7.795 7.531-16.221 18.036-16.435 2.802-22.1 21.35-38.769 43.699-39.007 26.767-.362 44.442 17.091 45.04 44.298.694 31.805-14.898 45.326-28.4 51.064l-19.65 77.42c.274.061.548.129.816.196a1.46 1.46 0 011.085 1.58l-8.482 74.897a1.455 1.455 0 01-1.041 1.237 1.402 1.402 0 01-.397.061zm-59.401-78.547l58.353 73.428 7.94-70.115a.876.876 0 00-.122-.024l-.859-.202a1.471 1.471 0 01-.908-.662 1.46 1.46 0 01-.165-1.114l20.193-79.576a1.47 1.47 0 01.859-.992c12.807-5.229 27.936-17.899 27.266-48.578-.56-25.621-16.421-41.45-41.439-41.45-.219 0-.438 0-.664.006-21.344.226-38.971 16.478-41 37.794a1.452 1.452 0 01-1.59 1.317l-.451-.061c-.146-.025-.286-.055-.445-.049-8.835.104-15.19 7.256-15.385 13.612-.225 7.453 7.123 12.443 19.663 13.356.463.03.883.288 1.133.692l.25.404c.804 1.31 1.56 2.553 2.455 3.692.28.362.378.833.262 1.28l-25.182 95.816c-.171.649-.683 1.084-1.432 1.084-2.346-.049-4.783.104-7.129.244-.536.037-1.072.068-1.603.098z" fill="#1A1A1A"/><path d="M281.451 209.952c-14.039 9.718-28.193.496-33.281-4.501-7.427 16.197-28.253 37.109-45.326 30.079.865-22.896 20.284-39.877 43.383-40.115 13.959-.153 27.089 4.703 35.224 14.537zm-14.617 51.622a1.456 1.456 0 01-1.45-1.396 1.457 1.457 0 011.389-1.525l9.085-.398c-1.268-8.897-7.574-19.92-7.641-20.036a1.465 1.465 0 01.53-1.996 1.449 1.449 0 011.986.532c.305.527 7.452 13.001 8.196 22.78a1.48 1.48 0 01-.36 1.078 1.46 1.46 0 01-1.023.49l-10.639.465c-.031.006-.055.006-.073.006zm-44.407 343.263c-.664 0-1.261-.46-1.413-1.139l-54.289-240.503a1.458 1.458 0 011.096-1.746 1.446 1.446 0 011.737 1.103l54.289 240.509a1.458 1.458 0 01-1.097 1.745c-.11.018-.219.031-.323.031zm73.062-22.076a1.457 1.457 0 01-1.42-1.151c-9.658-44.488-19.205-87.978-28.814-131.749-5.734-26.129-11.492-52.356-17.31-78.963a1.454 1.454 0 112.839-.625c5.819 26.607 11.577 52.834 17.31 78.964 9.615 43.777 19.163 87.267 28.814 131.76a1.46 1.46 0 01-1.109 1.739 2.49 2.49 0 01-.31.025zm19.12-3.111a1.455 1.455 0 01-1.426-1.2l-15.976-87.751a1.459 1.459 0 01.78-1.567c4.612-2.321 6.239-16.644-3.028-49.913a1.458 1.458 0 011.005-1.801 1.466 1.466 0 011.791 1.011c4.771 17.127 11.254 46.196 2.493 52.723l15.799 86.771a1.455 1.455 0 01-1.17 1.697 1.05 1.05 0 01-.268.03zm258.832-200.326c-2.023-1.427-3.436-3.754-3.436-6.999V206.94a275.603 275.603 0 00-36.589-38.426l-151.449 76.655a13.768 13.768 0 00-7.531 12.29v286.136c0 10.244 10.748 16.901 19.851 12.29l179.154-90.696v-85.865zm-100.12 241.765v-82.828h-34.706v96.636a1019.944 1019.944 0 0034.706-13.808zM166.549 576.68c-.451 0-.902-.208-1.182-.612-.262-.367-26.054-37.36-29.259-102.429a1.46 1.46 0 011.377-1.531c.798-.11 1.48.582 1.523 1.384 3.162 64.224 28.467 100.512 28.723 100.874a1.462 1.462 0 01-1.182 2.314z" fill="#1A1A1A"/><path d="M313.854 595.045c15.373 9.185 36.906 28.933 26.048 33.367-8.171 3.337-33.365-23.888-43.413-25.664 0 0 27.12 20.263 27.754 32.259.555 10.043-7.117 11.059-7.117 11.059s-.578 1.421-2.321 2.946c-36.948-5.426-71.502-18.316-102.095-37.085 70.216-47.764 128.545-31.046 135.058-21.94 5.88 8.236-33.128 2.823-33.914 5.058z" fill="#fff"/><path d="M314.804 650.463c-.067 0-.14-.006-.207-.012-36.534-5.371-71.07-17.912-102.644-37.287a1.467 1.467 0 01-.695-1.212 1.47 1.47 0 01.64-1.243c70.777-48.144 129.983-31.469 137.051-21.586 1.201 1.684.951 2.982.53 3.778-1.876 3.54-10.955 3.54-24.579 3.148a286.537 286.537 0 00-6.94-.135c10.974 7.263 26.931 20.826 26.322 28.995-.116 1.55-.877 3.644-3.833 4.85-5.343 2.192-15.123-5.419-25.475-13.466-1.267-.985-2.54-1.977-3.808-2.945 7.038 6.76 14.191 15.15 14.526 21.579.512 9.247-5.404 11.782-7.592 12.401-.39.667-1.121 1.702-2.352 2.78a1.407 1.407 0 01-.944.355zm-99.39-38.603c30.508 18.377 63.77 30.348 98.915 35.602 1.06-1.059 1.456-1.953 1.462-1.965a1.47 1.47 0 011.151-.882c.25-.037 6.331-1.029 5.862-9.528-.487-9.278-19.778-25.646-27.169-31.169a1.471 1.471 0 01-.469-1.752 1.438 1.438 0 011.584-.857c4.783.845 12.18 6.589 20.01 12.676 8.378 6.515 18.827 14.623 22.605 13.074 1.712-.698 1.98-1.684 2.029-2.364.463-6.197-14.818-20.355-28.272-28.395a1.459 1.459 0 01-.628-1.739c.579-1.647 2.413-1.727 12.503-1.427 5.789.172 21.174.619 21.935-1.604 0 0 .013-.208-.329-.698-6.452-9.002-63.995-23.686-131.189 21.028z" fill="#1A1A1A"/><path d="M313.853 596.502a1.42 1.42 0 01-.865-.287c-7.732-5.818-10.194-7.024-10.218-7.036a1.465 1.465 0 01-.688-1.942 1.456 1.456 0 011.919-.704c.103.049 2.626 1.249 10.73 7.342a1.47 1.47 0 01.292 2.046 1.463 1.463 0 01-1.17.581zm182.554 15.958c-35.894 21.824-77.15 35.596-121.349 38.799-5.307.416-10.608.625-16 .68l127.679-61.891 9.67 22.412zm-179.281 35.064a1.458 1.458 0 01-1.438-1.262c-.658-4.844-12.284-23.551-29.802-30.979a1.464 1.464 0 01-.774-1.911 1.445 1.445 0 011.901-.777c17.841 7.569 30.673 26.827 31.551 33.275a1.458 1.458 0 01-1.243 1.647c-.068 0-.135.007-.195.007zm-13.199.661c-.427 0-.847-.19-1.133-.545-.122-.153-12.345-15.37-24.647-20.245a1.461 1.461 0 01-.822-1.892c.292-.747 1.139-1.127 1.882-.82 13.027 5.156 25.329 20.483 25.847 21.132a1.47 1.47 0 01-.225 2.051 1.422 1.422 0 01-.902.319zm120.881-38.689a1.45 1.45 0 01-1.371-.986c-.054-.159-5.617-16.129-17.212-28.989a1.466 1.466 0 01.103-2.063 1.448 1.448 0 012.053.098c12.01 13.318 17.573 29.325 17.804 29.999a1.458 1.458 0 01-.901 1.855 1.311 1.311 0 01-.476.086zm15.256-.147a1.461 1.461 0 01-1.365-.955c-.085-.227-8.451-22.945-20.064-35.823a1.468 1.468 0 01.103-2.064 1.455 1.455 0 012.054.098c12.003 13.307 20.296 35.829 20.637 36.778a1.466 1.466 0 01-1.365 1.966zm-75.348-19.099c-.804 0-1.45-.655-1.45-1.457v-27.434c0-.808.652-1.457 1.45-1.457.798 0 1.45.655 1.45 1.457v27.434a1.45 1.45 0 01-1.45 1.457z" fill="#1A1A1A"/><path d="M805.32 475.782c-11.345 67.2-53.722 121.308-109.857 149.972-31.179 15.964-66.597 24.078-103.314 22.241-8.134-.417-16.299-1.274-24.518-2.695-34.804-5.952-66.067-20.317-92.06-40.691-4.862-3.821-9.578-7.85-14.057-12.081-41.67-39.154-66.481-95.007-65.421-154.804.031-3.197.177-6.43.384-9.657.445-7.164 1.298-14.39 2.504-21.647 15.294-90.567 86.899-157.32 172.598-170.204 21.039-3.197 42.962-3.111 65.098.68 23.927 4.084 46.179 12.143 66.189 23.428 58.231 32.725 97.659 92.576 104.349 159.899.268 2.253.445 4.531.591 6.809a208.263 208.263 0 01-2.486 48.75z" fill="#FEFFFE"/><path d="M602.268 649.71c-3.4 0-6.794-.086-10.194-.257-8.445-.429-16.756-1.341-24.695-2.713-33.829-5.787-65.884-19.957-92.706-40.979-5.039-3.962-9.803-8.059-14.16-12.174-42.907-40.317-66.92-97.138-65.878-155.893.024-2.885.152-6.069.384-9.725.433-7.017 1.28-14.347 2.522-21.793 15.056-89.159 84.907-158.037 173.811-171.405 21.648-3.288 43.699-3.062 65.555.686 23.622 4.035 46.051 11.971 66.651 23.594 59.079 33.202 98.36 93.403 105.081 161.025.268 2.248.445 4.556.597 6.865a210.318 210.318 0 01-2.492 49.086c-10.937 64.781-52.297 121.241-110.631 151.026-29.082 14.898-61.333 22.657-93.845 22.657zm-.354-414.321c-10.09 0-20.149.76-30.118 2.272-87.666 13.178-156.536 81.095-171.379 169.005-1.224 7.342-2.059 14.574-2.486 21.493-.231 3.601-.353 6.736-.377 9.578-1.03 57.941 22.648 113.965 64.958 153.719 4.289 4.054 8.987 8.09 13.959 12.002 26.444 20.729 58.048 34.697 91.408 40.404 7.829 1.353 16.018 2.253 24.347 2.676a203.397 203.397 0 00102.583-22.088c57.524-29.375 98.299-85.044 109.084-148.919a206.854 206.854 0 002.461-48.407 135.239 135.239 0 00-.579-6.736c-6.629-66.704-45.362-126.053-103.618-158.796-20.314-11.457-42.426-19.283-65.72-23.263a205.725 205.725 0 00-34.523-2.94z" fill="#1A1A1A"/><path d="M808.145 434.418c0-.006 0-.006 0 0 .006-.086-.006-.172-.006-.257a224.67 224.67 0 00-.287-6.112c-.018-.343-.03-.685-.049-1.022-.146-2.278-.316-4.556-.578-6.804a59.494 59.494 0 00-.232-2.045c-6.477 3.827-12.923 7.649-19.376 11.476-1.681.992-2.662 2.327-3.144 3.772-32.141 11.745-86.606 39.73-90.835 86.471-4.679 51.713 1.182 101.406 1.834 105.845 56.135-28.658 98.494-82.766 109.845-149.947a208.186 208.186 0 002.828-41.377z" fill="#fff"/><path d="M695.474 627.2c-.232 0-.457-.055-.664-.165a1.475 1.475 0 01-.774-1.084c-.067-.484-6.782-51.628-1.846-106.189 4.533-50.17 64.75-77.745 91.158-87.481.7-1.605 1.907-2.94 3.528-3.889 6.446-3.821 12.892-7.648 19.375-11.469.415-.251.939-.27 1.371-.055.439.214.738.637.805 1.12.091.692.176 1.415.237 2.107.262 2.235.433 4.537.585 6.84l.049 1.035c.122 2.039.225 4.096.286 6.154l.013.294v.086a211.293 211.293 0 01-2.84 41.536c-10.949 64.787-52.309 121.24-110.625 151.007a1.463 1.463 0 01-.658.153zm110.327-206.627c-5.831 3.447-11.638 6.889-17.451 10.336-1.249.735-2.09 1.739-2.504 2.976-.14.423-.463.759-.884.913-25.554 9.338-85.461 36.337-89.878 85.233-4.351 48.083.39 93.446 1.572 103.458 56.525-29.595 96.55-84.75 107.231-147.945a207.538 207.538 0 002.803-41.083v-.135a216.34 216.34 0 00-.292-6.185l-.049-1.029c-.14-2.18-.305-4.372-.548-6.539z" fill="#1A1A1A"/><path d="M734.49 318.302c.755-3.306-2.59-10.685-2.413-14.206-36.68-22.664-68.419-43.245-101.498-70.929-16.354 9.748-29.247 25.082-33.378 42.075-11.162 46.122-3.046 74.34-3.046 74.34l18.522.82s19.98 43.269 62.034 26.846l81.908 135.698 45.101-85.754-67.23-108.89z" fill="#fff"/><path d="M756.616 514.404c-.505 0-.981-.264-1.243-.705l-81.281-134.663c-38.849 14.317-59.267-21.334-62.325-27.219l-17.676-.784a1.447 1.447 0 01-1.329-1.053c-.335-1.17-8.097-29.118 3.035-75.087 4.039-16.62 16.768-32.682 34.048-42.988a1.436 1.436 0 011.669.135c31.294 26.19 60.851 45.792 101.327 70.807.451.281.719.784.689 1.316-.067 1.366.56 3.705 1.17 5.971.792 2.951 1.547 5.75 1.316 7.856l66.944 108.418c.274.441.292.992.049 1.451l-45.107 85.767a1.46 1.46 0 01-1.243.778h-.043zm-81.908-138.62c.493 0 .975.258 1.243.705l80.58 133.499 43.517-82.741-66.792-108.173a1.477 1.477 0 01-.183-1.096c.329-1.451-.475-4.44-1.182-7.073-.591-2.192-1.152-4.286-1.255-5.982-39.904-24.672-69.236-44.145-100.194-69.968-16.177 9.92-28.04 25.045-31.83 40.636-9.774 40.379-4.576 67.175-3.315 72.582l17.444.772a1.449 1.449 0 011.25.845c.798 1.721 19.93 41.818 60.187 26.105a1.26 1.26 0 01.53-.111z" fill="#1A1A1A"/><path d="M733.962 320.409c-2.857 1.151-5.764 2.113-8.859 2.658-7.184 1.225-40.939-7.655-32.683-16.668 9.261-10.092 2.212-31.225-13.581-26.307-20.979 6.552-93.584 4.972-101.127-25.174-3.918-25.793 41.335-24.243 69.76-31.384 32.482-6.49 52.741 2.56 71.136 28.867 16.299 26.931 20.387 49.227 15.354 68.008z" fill="#1A1A1A"/><path d="M660.988 262.603c-3.162-4.807-9.121-2.487-10.815 1.677-4.028.19-7.812 3.705-5.539 8.304 3.473 7.018 6.946 14.029 10.419 21.047 2.73 5.517 10.901 5.119 12.107-1.36 1.944-10.471-.353-20.826-6.172-29.668zm-12.552 382.208c-.372 0-.744-.141-1.03-.428-.329-.331-33.238-33.711-51.949-70.893-18.164-36.098-55.971-111.216-108.067-117.915a1.46 1.46 0 01-1.255-1.635 1.456 1.456 0 011.627-1.262c53.625 6.896 91.895 82.95 110.29 119.496 18.493 36.759 51.091 69.82 51.42 70.145a1.474 1.474 0 010 2.07 1.494 1.494 0 01-1.036.422z" fill="#1A1A1A"/><path d="M561.998 585.302l-86.43 19.308c-4.862-3.821-9.578-7.851-14.057-12.082-41.67-39.154-66.481-95.007-65.421-154.804.031-3.196.177-6.43.384-9.657l62.886-14.035c4.241-.949 8.665.857 11.053 4.532l98.098 150.658c4.009 6.184.652 14.482-6.513 16.08z" fill="#1A1A1A"/><path d="M550.63 572.626l-89.11 19.902c-41.671-39.154-66.482-95.007-65.421-154.804l64.976-14.513a9.161 9.161 0 019.663 3.938l85.577 131.436c3.51 5.395.561 12.645-5.685 14.041z" fill="#fff"/><path d="M461.079 594.12l-.561-.527c-42.907-40.317-66.919-97.138-65.878-155.893l.019-1.151 66.091-14.764c4.35-.968 8.75.826 11.199 4.562l85.577 131.436a10.717 10.717 0 01.944 9.865 10.636 10.636 0 01-7.531 6.393l-89.86 20.079zm-63.55-155.22c-.695 57.268 22.733 112.576 64.415 152.036l88.361-19.736c2.511-.558 4.503-2.254 5.472-4.642.969-2.394.719-5.009-.689-7.171l-85.564-131.436c-1.773-2.713-4.972-4.005-8.14-3.313L397.529 438.9z" fill="#1A1A1A"/><path d="M399.954 465.017a1.458 1.458 0 01-1.42-1.145 1.463 1.463 0 011.103-1.739L461 448.429a1.453 1.453 0 011.731 1.108 1.462 1.462 0 01-1.103 1.739l-61.363 13.705c-.104.03-.208.036-.311.036zm.949 24.611a1.458 1.458 0 01-1.42-1.145 1.462 1.462 0 011.103-1.739l72.507-16.191a1.452 1.452 0 011.731 1.108 1.462 1.462 0 01-1.103 1.739l-72.507 16.191a1.322 1.322 0 01-.311.037z" fill="#1A1A1A"/><path d="M540.077 494.184c-22.057-10.943-40.068-13.246-51.486-9.535-9.164 2.982-8.007 11.39 2.717 14.286 35.321 9.547 43.23 37.385 61.028 41.01" fill="#fff"/><path d="M552.34 541.402c-.097 0-.195-.006-.292-.03-8.006-1.635-14.014-7.783-20.966-14.911-9.018-9.24-20.241-20.741-40.153-26.123-6.045-1.635-9.859-5.156-9.963-9.192-.085-3.453 2.596-6.405 7.172-7.893 12.741-4.139 31.909-.643 52.577 9.614a1.463 1.463 0 01.658 1.954 1.45 1.45 0 01-1.944.661c-19.991-9.92-38.356-13.374-50.389-9.455-3.284 1.072-5.216 2.952-5.161 5.046.067 2.651 3.132 5.18 7.811 6.448 20.674 5.591 32.208 17.403 41.469 26.895 6.618 6.785 12.333 12.639 19.474 14.096a1.458 1.458 0 011.133 1.721 1.452 1.452 0 01-1.426 1.169zm-17.285 96.936c-.323 0-.652-.11-.92-.33-.627-.521-15.513-13.123-25.938-45.401a1.452 1.452 0 112.76-.9c10.133 31.377 24.878 43.925 25.024 44.047.616.514.701 1.433.196 2.058a1.46 1.46 0 01-1.122.526z" fill="#1A1A1A"/><path d="M525.246 625.62c-.505 0-.999-.27-1.267-.741a1.467 1.467 0 01.548-1.99l74.585-42.345a1.447 1.447 0 011.98.551 1.466 1.466 0 01-.548 1.99l-74.585 42.345c-.225.129-.469.19-.713.19zm-338.73-41.506a1.46 1.46 0 01-.993-2.529l14.727-13.741-13.795-72.528-34.682 6.338c-.786.123-1.547-.38-1.687-1.176a1.45 1.45 0 011.169-1.696l36.096-6.595a1.47 1.47 0 011.687 1.164l14.222 74.75a1.47 1.47 0 01-.439 1.341l-15.312 14.286a1.46 1.46 0 01-.993.386z" fill="#1A1A1A"/><path d="M185.993 568.854a4.369 4.369 0 01-4.278-3.552l-15.098-79.024c-.451-2.376 1.09-4.672 3.46-5.126 2.352-.465 4.643 1.097 5.1 3.472l15.099 79.025c.451 2.376-1.091 4.672-3.461 5.125a4.09 4.09 0 01-.822.08z" fill="#1A1A1A"/><path d="M179.933 496.431a1.45 1.45 0 01-1.425-1.206l-.987-5.579-5.478 1.133a1.449 1.449 0 01-1.712-1.139 1.468 1.468 0 011.133-1.727l6.94-1.433a1.455 1.455 0 011.724 1.176l1.243 7.054c.141.79-.384 1.55-1.176 1.691-.091.018-.176.03-.262.03zm307.378-92.791c-.342 0-.683-.122-.957-.361a1.46 1.46 0 01-.134-2.057l14.636-16.81a1.443 1.443 0 012.047-.134 1.46 1.46 0 01.134 2.057l-14.636 16.809a1.454 1.454 0 01-1.09.496zm22.299 18.916c-.457 0-.914-.22-1.194-.631a1.455 1.455 0 01.371-2.027l29.277-20.317a1.439 1.439 0 012.017.373 1.455 1.455 0 01-.372 2.027l-29.277 20.318a1.451 1.451 0 01-.822.257zm199.426 196.297a1.444 1.444 0 01-1.438-1.31l-3.973-39.105a1.453 1.453 0 011.298-1.599 1.455 1.455 0 011.59 1.305l3.973 39.105c.085.802-.5 1.519-1.298 1.598-.055 0-.104.006-.152.006zm-495.023-348.7c-.311-3.987-3.163-7.403-7.367-7.403-3.369 0-6.867 2.755-7.312 6.227 1.426 1.66 2.328 3.785 2.316 5.965-.012 2.333-.201 4.653-.408 6.974-.232 2.535-.951 4.587-2.663 6.461-.609.667-1.353 1.151-2.139 1.555 2.2 1.157 4.936 1.255 7.147-.098 6.697-4.078 11.047-11.72 10.426-19.681z" fill="#1A1A1A"/><path d="M540.107 211.042c-.372 0-.744-.14-1.03-.428l-16.701-16.785a1.465 1.465 0 010-2.064 1.448 1.448 0 012.053 0l16.701 16.785c.567.57.567 1.494 0 2.064-.28.288-.652.428-1.023.428z" fill="#fff"/><path d="M602.273 649.704c-3.4 0-6.793-.086-10.193-.257-8.659-.435-16.738-1.323-24.696-2.707-33.859-5.793-65.914-19.963-92.699-40.979-4.99-3.913-9.761-8.009-14.16-12.173-42.92-40.312-66.932-97.12-65.872-155.876.024-2.927.152-6.111.378-9.73.432-7.11 1.279-14.452 2.516-21.812 15.074-89.165 84.925-158.043 173.816-171.399 21.533-3.288 43.59-3.061 65.555.674 23.611 4.029 46.033 11.971 66.64 23.606 58.347 32.792 97.556 92.215 104.867 158.962.086.661.171 1.384.238 2.07.262 2.235.432 4.537.585 6.84.146 2.48.292 4.978.347 7.446a210.061 210.061 0 01-2.839 41.646c-10.949 64.769-52.309 121.228-110.632 151.019-29.094 14.911-61.35 22.67-93.851 22.67zm-.402-414.314c-10.096 0-20.143.759-30.069 2.272-87.655 13.165-156.524 81.082-171.391 168.998-1.219 7.256-2.054 14.494-2.48 21.506-.226 3.57-.347 6.705-.372 9.589-1.042 57.941 22.636 113.96 64.958 153.702a199.524 199.524 0 0013.959 12.002c26.401 20.722 58.012 34.69 91.402 40.403 7.842 1.366 15.805 2.235 24.348 2.67 35.431 1.788 70.892-5.867 102.594-22.088 57.513-29.381 98.287-85.05 109.084-148.913a206.94 206.94 0 002.797-41.07c-.055-2.45-.201-4.918-.341-7.349-.146-2.241-.317-4.494-.579-6.717a47.472 47.472 0 00-.232-2.021c-7.214-65.84-45.874-124.431-103.405-156.763-20.32-11.47-42.426-19.302-65.701-23.276a205.761 205.761 0 00-34.572-2.945z" fill="#1A1A1A"/><path d="M488.37 559.32c-.195 0-.384-.037-.566-.116l-21.387-9.118a1.456 1.456 0 01-.768-1.911 1.44 1.44 0 011.901-.772l19.547 8.329 3.71-42.933c.073-.802.78-1.365 1.572-1.329a1.456 1.456 0 011.323 1.58l-3.888 44.941a1.468 1.468 0 01-.7 1.127 1.444 1.444 0 01-.744.202zm-115.102 72.417a1.457 1.457 0 01-1.317-.833 1.464 1.464 0 01.689-1.947l13.325-6.344a1.457 1.457 0 011.932.698 1.465 1.465 0 01-.689 1.948l-13.325 6.344a1.441 1.441 0 01-.615.134zM346 644.443a1.458 1.458 0 01-1.316-.832 1.465 1.465 0 01.689-1.948l13.325-6.344a1.448 1.448 0 011.932.698 1.464 1.464 0 01-.689 1.948l-13.319 6.337a1.414 1.414 0 01-.622.141zm4.131-31.487a1.447 1.447 0 01-1.322-.857 1.466 1.466 0 01.719-1.935l24.122-11.047a1.453 1.453 0 011.925.722 1.466 1.466 0 01-.719 1.935l-24.122 11.047a1.414 1.414 0 01-.603.135zm94.693-19.005a1.456 1.456 0 01-1.365-.962c-.061-.165-5.867-16.191-12.594-23.171a1.466 1.466 0 01.036-2.064 1.443 1.443 0 012.054.037c7.159 7.428 12.996 23.526 13.24 24.206a1.459 1.459 0 01-.871 1.868 1.593 1.593 0 01-.5.086z" fill="#1A1A1A"/></g><defs><radialGradient id="paint0_radial" cx="0" cy="0" r="1" gradientUnits="userSpaceOnUse" gradientTransform="rotate(-128.639 431.583 188.925) scale(644.607 616.105)"><stop offset=".683" stop-color="#fff"/><stop offset="1" stop-color="#DFD9F3"/></radialGradient><filter id="filter0_d" x=".88" y=".5" width="929.821" height="753" filterUnits="userSpaceOnUse" color-interpolation-filters="sRGB"><feFlood flood-opacity="0" result="BackgroundImageFix"/><feColorMatrix in="SourceAlpha" values="0 0 0 0 0 0 0 0 0 0 0 0 0 0 0 0 0 0 127 0"/><feOffset dx="21"/><feGaussianBlur stdDeviation="50"/><feColorMatrix values="0 0 0 0 0.887069 0 0 0 0 0.878628 0 0 0 0 0.920833 0 0 0 1 0"/><feBlend in2="BackgroundImageFix" result="effect1_dropShadow"/><feBlend in="SourceGraphic" in2="effect1_dropShadow" result="shape"/></filter></defs></svg>