<svg width="217" height="35" viewBox="0 0 217 35" fill="none" xmlns="http://www.w3.org/2000/svg"><mask id="a" maskUnits="userSpaceOnUse" x="0" y="0" width="22" height="35"><path d="M0 0l12.011 34.38h9.483L9.483 0H0z" fill="#C4C4C4"/></mask><g mask="url(#a)"><path d="M14.614-9.857l23.2 33.229L6.882 44.237l-23.2-33.228L14.613-9.857z" fill="url(#paint0_linear)"/></g><mask id="b" maskUnits="userSpaceOnUse" x="12" y="10" width="17" height="25"><path d="M12.011 34.38h9.483c0-9.83 2.957-18.27 7.193-21.95-1.453-1.26-3.059-1.963-4.744-1.963-6.589 0-11.932 10.706-11.932 23.913z" fill="#C4C4C4"/></mask><g mask="url(#b)"><path d="M.377 25.914l17.54-23.283 22.405 16.302-17.54 23.283L.377 25.914z" fill="url(#paint1_linear)"/></g><mask id="c" maskUnits="userSpaceOnUse" x="23" y="10" width="23" height="25"><path d="M23.944 10.467c1.685 0 3.286.698 4.738 1.964 4.23 3.673 7.193 12.118 7.193 21.944h9.483c0-13.207-5.343-23.908-11.932-23.908h-9.482z" fill="#C4C4C4"/></mask><g mask="url(#c)"><path d="M40.284 1.516L55.71 28.712 29.021 43.33 13.596 16.14 40.284 1.515z" fill="url(#paint2_linear)"/></g><path d="M35.874 34.38L47.891 0h9.482l-12.01 34.38h-9.489z" fill="#F7C654"/><path d="M117.434 9.91c-3.737 0-6.631 1.192-9.011 3.625-2.38 2.386-3.594 5.34-3.594 8.92 0 3.626 1.214 6.632 3.642 9.013 2.427 2.339 5.565 3.532 9.498 3.532 4.707 0 8.232-2.157 10.336-5.804l-4.5-2.152c-1.251 2.053-3.021 3.236-5.788 3.236-4.029 0-7.352-2.058-7.702-5.627h18.966c.583-2.553.01-7.96-2.9-11.066-2.284-2.438-5.406-3.678-8.947-3.678zm-7.167 10.539c.499-3.746 3.234-5.867 7.119-5.867 3.445 0 6.79 1.975 7.352 5.867h-14.471zM168.505 9.91c-3.54 0-6.599 1.192-9.074 3.625-2.476 2.433-3.737 5.392-3.737 8.92 0 3.532 1.261 6.486 3.737 8.919 2.475 2.433 5.534 3.626 9.074 3.626 3.589 0 6.599-1.193 9.075-3.626 2.475-2.433 3.737-5.392 3.737-8.92 0-3.527-1.262-6.486-3.737-8.919-2.476-2.433-5.486-3.626-9.075-3.626zm5.386 17.937c-1.458 1.432-3.255 2.146-5.386 2.146-2.136 0-3.933-.713-5.385-2.146-1.458-1.433-2.184-3.246-2.184-5.392 0-2.147.726-3.96 2.184-5.393 1.458-1.432 3.249-2.146 5.385-2.146 2.136 0 3.933.714 5.386 2.146 1.457 1.433 2.183 3.246 2.183 5.393 0 2.146-.726 3.96-2.183 5.392zm-33.389 6.533c-.546-1.506-.827-3.496-.827-6.382V0h-5.242v27.17c0 2.474.403 5.694 1.659 7.21h4.41zm11.306 0c-.546-1.506-.827-3.496-.827-6.382V0h-5.242v27.17c0 2.474.403 5.694 1.659 7.21h4.41zM98.49 10.53l-3.997 16.489s-1.484-9.618-6.021-16.49h-3.774c-4.537 6.872-6.022 16.49-6.022 16.49l-3.996-16.49h-5.534l7.14 23.851h5.348s1.781-11.32 4.95-17.86c3.17 6.54 4.951 17.86 4.951 17.86h5.349l7.14-23.85H98.49zm89.165 0l3.997 16.489s1.484-9.618 6.021-16.49h3.774c4.538 6.872 6.022 16.49 6.022 16.49l3.996-16.49h5.534l-7.14 23.851h-5.146s-1.988-11.32-5.153-17.86c-3.169 6.54-5.152 17.86-5.152 17.86h-5.147l-7.139-23.85h5.533z" fill="#1A1A1A"/><defs><linearGradient id="paint0_linear" x1="7.403" y1="12.421" x2="15.251" y2="24.056" gradientUnits="userSpaceOnUse"><stop stop-color="#9274FF"/><stop offset=".819" stop-color="#6A46F0"/><stop offset="1" stop-color="#6A46F0"/></linearGradient><linearGradient id="paint1_linear" x1="10.168" y1="35.936" x2="27.229" y2="12.486" gradientUnits="userSpaceOnUse"><stop stop-color="#9274FF"/><stop offset="1" stop-color="#FF9354"/></linearGradient><linearGradient id="paint2_linear" x1="30.247" y1="14.655" x2="41.435" y2="35.074" gradientUnits="userSpaceOnUse"><stop stop-color="#F7C654"/><stop offset=".715" stop-color="#FF7B2E"/><stop offset="1" stop-color="#FF7B2E"/></linearGradient></defs></svg> 
