<svg width="334" height="339" viewBox="0 0 334 339" fill="none" xmlns="http://www.w3.org/2000/svg"><path d="M112 306c-41.974 0-76-34.026-76-76s34.026-76 76-76 76 34.026 76 76-34.026 76-76 76z" fill="url(#paint0_linear)"/><path d="M72.627 227.154c-8.575-1.39-14.035-18.757-.953-23.023 0 0-1.948-8.869 15.592-14.783s123.238 3.575 123.238 3.575l20.554-21.791c40.262 14.157 69.807 37.81 83.831 110.721 1.858 9.662 4.927 29.402 4.927 43.356l-116.618 12.988c0-10.521-1.55-25.387-6.605-36.454-12.579-27.535-44.747-24.02-64.358-26.356-21.77-2.595-55.627-2.475-48.725-21.783-14.666-.387-27.234-19.113-10.883-26.45z" fill="#fff"/><path d="M203.198 339c.446 0 .803-.36.803-.804 0-5.2-.48-23.224-6.68-36.788-10.635-23.281-34.723-24.764-54.08-25.954-3.906-.241-7.599-.47-10.916-.864-3.1-.368-6.387-.68-9.866-1.006-15.439-1.454-32.938-3.098-37.771-10.691-1.569-2.471-1.711-5.418-.424-9.016a.802.802 0 00-.736-1.074c-8.95-.236-16.324-7.213-17.6-13.582-.968-4.836 1.528-8.862 7.025-11.329a.804.804 0 00-.199-1.528c-4.03-.653-7.648-5.509-8.057-10.822-.187-2.429.14-8.332 7.224-10.638a.803.803 0 00.537-.939c-.015-.075-1.475-8.272 15.063-13.848 17.18-5.794 121.854 3.518 122.908 3.612a.773.773 0 00.657-.251l20.193-21.408c39.749 14.081 69.038 38.283 82.818 109.936 1.824 9.485 4.916 29.263 4.916 43.202 0 .447.361.803.803.803.447 0 .803-.36.803-.803 0-14.059-3.107-33.964-4.942-43.51-13.982-72.701-43.835-97.082-84.357-111.329a.793.793 0 00-.851.207l-20.287 21.501c-8.084-.717-106.04-9.283-123.179-3.5-15.337 5.175-16.305 12.647-16.204 14.998-5.276 1.971-8.147 6.443-7.711 12.08.405 5.238 3.497 9.951 7.392 11.678-4.912 2.842-7.134 7.198-6.135 12.192 1.5 7.518 9.633 14.093 18.069 14.818-1.066 3.612-.762 6.774.912 9.406 5.254 8.261 23.169 9.944 38.975 11.431 3.471.326 6.748.634 9.828.998 3.363.402 7.078.631 11.007.871 18.929 1.165 42.481 2.618 52.714 25.02 6.061 13.267 6.534 30.998 6.534 36.12a.82.82 0 00.814.811z" fill="#1A1A1A"/><path d="M139.863 201.949c-25.136-.804-54.223.086-67.774 2.182l67.774-2.182z" fill="#fff"/><path d="M72.084 204.938a.65.65 0 00.124-.012c13.225-2.046 42.297-2.985 67.627-2.174.462-.019.815-.338.83-.781a.806.806 0 00-.781-.83c-25.409-.807-54.613.132-67.924 2.193a.807.807 0 00.124 1.604zm144.692 37.01a.798.798 0 00.33-.071c.406-.184.586-.661.406-1.066-.128-.286-12.737-28.798-6.241-47.629a.806.806 0 00-1.524-.526c-6.702 19.44 5.761 47.625 6.294 48.815a.803.803 0 00.735.477z" fill="#1A1A1A"/><path d="M89.113 215.325H232.38c6.928 0 12.02-6.503 10.358-13.236l-41.775-169.34a10.67 10.67 0 00-10.358-8.119H47.338c-6.927 0-12.02 6.504-10.357 13.237l41.775 169.34a10.666 10.666 0 0010.357 8.118z" fill="#1A1A1A"/><path d="M89.115 216.128h143.267a11.39 11.39 0 009.032-4.404 11.41 11.41 0 002.106-9.831l-41.772-169.34a11.454 11.454 0 00-11.141-8.731H47.34c-3.55 0-6.845 1.603-9.032 4.405a11.407 11.407 0 00-2.106 9.83l41.775 169.345a11.445 11.445 0 0011.138 8.726zM190.61 25.433a9.845 9.845 0 019.577 7.506l41.775 169.344a9.817 9.817 0 01-1.812 8.453 9.802 9.802 0 01-7.768 3.785H89.115a9.846 9.846 0 01-9.577-7.506L37.764 37.67a9.814 9.814 0 011.812-8.452 9.8 9.8 0 017.768-3.785H190.61z" fill="#1A1A1A"/><path d="M93.022 208.398h138.061c6.676 0 11.584-6.268 9.982-12.756L200.81 32.452a10.281 10.281 0 00-9.982-7.822H52.766c-6.676 0-11.584 6.267-9.982 12.756l40.255 163.19a10.286 10.286 0 009.983 7.822z" fill="#fff"/><path d="M93.018 209.2h138.061c3.43 0 6.612-1.551 8.729-4.254a11.045 11.045 0 002.034-9.501l-40.255-163.19a11.067 11.067 0 00-10.763-8.433H52.763a11.02 11.02 0 00-8.729 4.254 11.045 11.045 0 00-2.034 9.5l40.255 163.19a11.07 11.07 0 0010.763 8.434zm97.806-183.767a9.46 9.46 0 019.202 7.21l40.255 163.193a9.428 9.428 0 01-1.742 8.118 9.413 9.413 0 01-7.46 3.635H93.018a9.46 9.46 0 01-9.202-7.21L43.561 37.189a9.43 9.43 0 011.741-8.118 9.42 9.42 0 017.46-3.638h138.062z" fill="#1A1A1A"/><path d="M66.288 107.626h5.333l-7.75-31.415H58.54l7.749 31.415z" fill="#1A1A1A"/><path d="M200.64 131.145h114.99c4.034 0 7.734-1.42 10.639-3.782 3.794-3.094 6.218-7.803 6.218-13.082V52.822a16.81 16.81 0 00-4.785-11.772 16.792 16.792 0 00-12.069-5.092H200.644c-5.149 0-9.761 2.31-12.849 5.952a16.81 16.81 0 00-4.005 10.912v61.463c0 3.492 1.062 6.736 2.879 9.428 3.024 4.484 8.154 7.432 13.971 7.432z" fill="#fff"/><path d="M200.516 131.952h115.241c9.667 0 17.533-7.87 17.533-17.543V52.694c0-9.672-7.866-17.543-17.533-17.543H200.516c-9.667 0-17.532 7.87-17.532 17.543v61.715c-.004 9.673 7.862 17.543 17.532 17.543zm115.241-95.19c8.782 0 15.923 7.146 15.923 15.932v61.715c0 8.786-7.145 15.932-15.923 15.932H200.516c-8.781 0-15.922-7.149-15.922-15.932V52.694c0-8.786 7.145-15.932 15.922-15.932h115.241z" fill="#1A1A1A"/><path d="M183.787 55.683v-6.785c0-7.146 5.79-12.94 12.932-12.94h122.836c7.141 0 12.932 5.794 12.932 12.94v6.785h-148.7z" fill="#1A1A1A"/><path d="M183.786 56.487h148.696c.447 0 .803-.36.803-.803v-6.79c0-7.577-6.162-13.743-13.735-13.743H196.714c-7.573 0-13.735 6.166-13.735 13.743v6.79a.81.81 0 00.807.803zm147.893-1.61H184.592v-5.983c0-6.691 5.438-12.132 12.125-12.132h122.837c6.687 0 12.125 5.441 12.125 12.132v5.982zm-42.141 25.78h27.706c.446 0 .803-.36.803-.803v-11.55a.802.802 0 00-.803-.804h-27.706a.802.802 0 00-.803.803v11.55c0 .444.36.804.803.804zm26.903-1.61h-26.096v-9.94h26.096v9.94zm-68.931 25.76h69.733v7.855H247.51v-7.855zm-5.997-24.15h38.791c.447 0 .803-.36.803-.803v-11.55a.802.802 0 00-.803-.804h-38.791a.802.802 0 00-.803.803v11.55c0 .444.36.804.803.804zm37.988-1.61h-37.182v-9.94h37.182v9.94zm-69.855 1.61h26.783c.446 0 .803-.36.803-.803v-11.55a.802.802 0 00-.803-.804h-26.783a.802.802 0 00-.803.803v11.55c0 .444.36.804.803.804zm25.98-1.61h-25.173v-9.94h25.173v9.94zM83.512 254.412a.8.8 0 00.731-.473c2.988-6.602 35.786-9.535 74.671-6.669a.818.818 0 00.863-.744.81.81 0 00-.743-.864c-35.016-2.576-72.456-.788-76.254 7.612a.805.805 0 00.732 1.138zm-10.884-26.456a.859.859 0 00.218-.03c29.762-8.388 81.283-4.735 81.801-4.693a.822.822 0 00.863-.748.809.809 0 00-.747-.863c-.518-.038-52.32-3.718-82.356 4.75a.806.806 0 00.22 1.584zM91.362 68.064h54.632a.804.804 0 000-1.607H91.362a.804.804 0 000 1.607zm-6.97 32.86h57.536a.804.804 0 000-1.607H84.392a.802.802 0 00-.803.804c0 .443.356.803.803.803zm18.59 36.829h38.356c.447 0 .803-.36.803-.803a.802.802 0 00-.803-.804h-38.356a.804.804 0 000 1.607zm31.39 37.625h64.509c.447 0 .803-.36.803-.803a.802.802 0 00-.803-.804h-64.512a.804.804 0 10.003 1.607zm23.245-66.314c4.931 0 8.942-4.014 8.942-8.948s-4.011-8.948-8.942-8.948-8.943 4.014-8.943 8.948 4.015 8.948 8.943 8.948zm0-16.285c4.041 0 7.332 3.289 7.332 7.337s-3.287 7.337-7.332 7.337c-4.046 0-7.333-3.289-7.333-7.337s3.291-7.338 7.333-7.338z" fill="#1A1A1A"/><path d="M157.615 104.187a4.07 4.07 0 01-4.068-4.07 4.069 4.069 0 118.136 0 4.069 4.069 0 01-4.068 4.07z" fill="#1A1A1A"/><path d="M157.615 141.021a4.07 4.07 0 010-8.141 4.069 4.069 0 014.068 4.07 4.07 4.07 0 01-4.068 4.071zm53.598 37.625a4.069 4.069 0 01-4.068-4.07 4.07 4.07 0 014.068-4.071 4.07 4.07 0 010 8.141z" fill="#F7C757"/><path d="M118.579 32.84h19.548a.802.802 0 100-1.607h-19.548a.802.802 0 00-.803.804.799.799 0 00.803.804zm-6.353 1.958a2.761 2.761 0 000-5.524 2.768 2.768 0 00-2.762 2.764c0 1.52 1.238 2.76 2.762 2.76zm0-3.913a1.15 1.15 0 011.148 1.153c0 .635-.514 1.149-1.148 1.149a1.151 1.151 0 110-2.302zM.803 12.737h36c.446 0 .803-.36.803-.804V.803A.802.802 0 0036.803 0h-36A.802.802 0 000 .804v11.13c0 .446.36.803.803.803zM36 11.127H1.61v-9.52H36v9.52zm59.523 40.839a.804.804 0 00.57-.237.803.803 0 000-1.138L56.89 11.363a.81.81 0 00-.57-.237h-9.3a.804.804 0 000 1.607h8.966l38.968 38.992c.157.162.364.24.57.24zm71.535 39.751a.805.805 0 00.571-.236l11.524-11.532a.803.803 0 000-1.138.801.801 0 00-1.137 0l-11.524 11.532a.801.801 0 000 1.138c.154.158.36.236.566.236zm-4.418-18.679l-6.672-11.565h13.341l-6.669 11.566z" fill="#1A1A1A"/><path d="M291.458 180.192a.8.8 0 00.57-.236l8.549-8.554a.803.803 0 000-1.138.802.802 0 00-1.137 0l-8.549 8.554a.803.803 0 00.567 1.374z" fill="#fff"/><path d="M37.123 238.155a.803.803 0 00.57-1.374l-8.177-8.182a.8.8 0 00-1.137 0 .803.803 0 000 1.138l8.177 8.182c.158.158.36.236.567.236zm-9.659 11.157a6.016 6.016 0 006.008-6.012 6.016 6.016 0 00-6.008-6.012 6.016 6.016 0 00-6.008 6.012 6.016 6.016 0 006.008 6.012zm0-10.413a4.406 4.406 0 014.399 4.401 4.406 4.406 0 01-4.399 4.401 4.406 4.406 0 01-4.398-4.401 4.403 4.403 0 014.398-4.401zM229.269 11.55a.779.779 0 00.412-.116l11.544-6.932a.804.804 0 00-.826-1.382l-11.543 6.932a.804.804 0 00-.278 1.104c.15.255.417.394.691.394zm6.924 4.623a.78.78 0 00.413-.116l11.543-6.932a.804.804 0 10-.825-1.382l-11.543 6.932a.804.804 0 00-.278 1.104c.15.251.416.394.69.394z" fill="#1A1A1A"/><defs><linearGradient id="paint0_linear" x1="112" y1="331.507" x2="112.077" y2="250.823" gradientUnits="userSpaceOnUse"><stop stop-color="#fff"/><stop offset="1" stop-color="#F7C757"/></linearGradient></defs></svg>