<svg width="376" height="459" viewBox="0 0 376 459" fill="none" xmlns="http://www.w3.org/2000/svg"><path d="M126.528 187.925v217.124H50.16V236.843l76.368-48.918z" fill="url(#paint0_linear)"/><path d="M234.962 64.755H158.9v340.803h76.062V64.755z" fill="url(#paint1_linear)"/><path d="M344.037 11.688h-76.651v393.87h76.651V11.688z" fill="url(#paint2_linear)"/><path d="M312.039 235.105h39.452c-.201-5.087-.472-10.566-.677-16.68 0 0-1.345-32.596-5.862-33.6-2.037-.453-2.696 3.485-2.803 7.941-.514-5.643-1.509-11.281-3.438-11.589-3.415-.542-3.872 9.725-3.886 16.732-.155-6.881-.841-17.101-3.532-17.904-4.521-1.35-4.045 7.301-3.195 23.785 0 0-2.102-11.038-7.81-12.07-4.321-.78-7.81.71-6.39 3.905s6.624.925 7.334 8.025c.71 7.1-10.216 5.675-10.165-.757.019-2.429 3.695-5.26 1.878-6.965-4.522-4.241-13.168 6.587-1.532 23.482.556 5.241.775 10.473.626 15.695z" fill="#fff"/><path d="M351.492 235.946h-39.453a.846.846 0 01-.84-.868 115.688 115.688 0 00-.603-15.359c-8.441-12.365-6.306-21.333-2.793-24.356 1.56-1.34 3.428-1.546 4.965-.611-.117-.879.084-1.682.603-2.345 1.181-1.504 3.891-2.079 7.062-1.509 3.074.556 5.162 3.569 6.498 6.525-.472-10.253-.411-16.064 1.826-17.825.748-.588 1.682-.719 2.77-.397.71.21 2.233.664 3.233 6.792.476-2.611 1.182-4.274 2.121-5.073.569-.486 1.251-.682 1.957-.57 1.069.173 2.326 1.117 3.293 5.998.383-1.13.831-1.644 1.219-1.948a2.07 2.07 0 011.784-.397c4.779 1.061 6.199 26.588 6.521 34.385.131 3.858.285 7.464.435 10.874.089 1.995.173 3.928.243 5.806a.846.846 0 01-.841.878zm-38.593-1.686h37.715a1561.95 1561.95 0 00-.211-4.923 1108.8 1108.8 0 01-.434-10.884c-.631-15.359-2.803-32.273-5.204-32.806a.402.402 0 00-.383.08c-.373.294-1.266 1.569-1.396 7.063a.848.848 0 01-.813.822c-.528.009-.827-.323-.864-.766-.948-10.431-2.663-10.823-2.733-10.833-.229-.037-.406.024-.602.187-.855.729-2.289 3.737-2.313 15.714a.841.841 0 01-.831.841h-.009a.84.84 0 01-.841-.822c-.36-15.896-2.667-17.041-2.929-17.115-.719-.215-1.06-.043-1.247.107-1.967 1.546-1.509 10.356-.883 22.543l.014.285a.84.84 0 01-.738.878c-.402.07-.841-.243-.925-.677-.019-.108-2.06-10.482-7.133-11.398-2.48-.453-4.666-.093-5.442.892-.135.173-.542.692-.032 1.845.383.865 1.149 1.192 2.373 1.659 1.915.733 4.54 1.733 5.03 6.623.211 2.102-.485 3.807-1.971 4.793-1.742 1.158-4.372 1.149-6.544-.028-2.135-1.154-3.345-3.139-3.326-5.442.009-1.233.705-2.41 1.373-3.541.911-1.541 1.285-2.317.771-2.798-1.028-.957-2.289-.929-3.466.089-2.952 2.541-4.69 10.837 3.204 22.3.08.117.127.248.145.388.528 4.989.748 10.01.645 14.924zm1.359-36.832c-.131.948-.71 1.925-1.219 2.784-.556.944-1.135 1.92-1.14 2.7-.014 1.663.878 3.102 2.443 3.952 1.616.873 3.592.915 4.812.103.952-.631 1.373-1.747 1.228-3.224-.388-3.858-2.121-4.517-3.956-5.217-.724-.28-1.509-.579-2.168-1.098z" fill="#1A1A1A"/><path d="M335.045 204.445a.843.843 0 01-.841-.808l-.22-5.69a.84.84 0 01.808-.873h.033c.449 0 .822.355.841.808l.219 5.689a.841.841 0 01-.808.874h-.032zm7.33 2.275a.84.84 0 01-.841-.827l-.229-13.107a.834.834 0 01.827-.855c.388-.005.85.359.855.826l.229 13.108a.835.835 0 01-.827.855h-.014z" fill="#1A1A1A"/><path d="M346.516 283.559c-9.24 20.936-28.256 34.529-50.617 37.995-15.078 2.322-30.913-.724-44.525-7.772v91.591H133.479s-.892-118.768 0-139.167c.066-1.598.15-3.298.252-5.064-1.499.57-2.961 1.178-4.423 1.799-9.576 4.138-28.387 10.482-23.407 26.116.925 2.929 3.013 5.05 5.535 6.815-2.508 14.943-4.797 29.919-7.184 44.895-4.779-1.85-9.39-4.139-13.766-7.035-20.362-13.462-32.73-36.313-28.387-60.935 3.887-22.113 23.006-36.72 42.153-45.754 22.146-10.449 74.986-17.923 77.405-16.947 2.962-.317 6.11-.537 9.441-.621 6.834-.187 22.902 1.093 35.706 5.689 10.804 3.77 20.557 11.632 25.453 23.239 3.835 9.086 5.073 22.898 12.832 30.101 8.179 7.605 16.675 9.828 26.452 7.927 6.596-1.28 12.687-6.511 15.382-16.19 3.064-10.987 4.125-22.095 3.704-33.249.187.018.337.051.524.051h41.816c.985 22.945 1.826 37.771-6.451 56.516z" fill="#fff"/><path d="M251.376 406.219H133.477a.842.842 0 01-.841-.836c-.009-1.186-.883-119.025 0-139.209.051-1.205.112-2.467.182-3.77-1.069.425-2.13.864-3.186 1.313-.756.327-1.578.672-2.443 1.032-9.893 4.143-24.841 10.398-20.492 24.056.757 2.392 2.41 4.419 5.218 6.381a.836.836 0 01.346.827c-1.729 10.309-3.387 20.815-4.985 30.974-.728 4.639-1.462 9.277-2.2 13.916a.84.84 0 01-1.135.654c-5.138-1.99-9.692-4.316-13.925-7.114-21.903-14.481-32.922-38.154-28.755-61.781 4.162-23.664 25.476-38.28 42.619-46.371 21.123-9.968 72.557-17.979 77.812-17.035 3.06-.327 6.213-.533 9.375-.612 7.199-.201 23.337 1.186 36.015 5.736 11.879 4.148 21.338 12.785 25.943 23.706 1.243 2.948 2.201 6.316 3.209 9.88 2.117 7.469 4.307 15.19 9.413 19.931 7.721 7.175 15.896 9.632 25.719 7.717 6.984-1.354 12.351-7.035 14.733-15.587 2.915-10.454 4.115-21.245 3.671-32.997a.84.84 0 01.262-.64.864.864 0 01.654-.229l.22.023c.074.009.144.023.224.023h41.816c.448 0 .822.355.841.804l.06 1.448c.967 22.225 1.603 36.907-6.581 55.432-9.193 20.838-27.878 34.866-51.257 38.491-14.415 2.218-29.923-.351-43.81-7.236v90.223a.819.819 0 01-.823.85zm-117.063-1.681h116.218v-90.756a.842.842 0 011.229-.747c13.887 7.193 29.516 9.921 44.011 7.688 22.8-3.531 41.017-17.203 49.977-37.504 8.025-18.166 7.389-32.694 6.436-54.681l-.028-.644h-40.662c.355 11.57-.878 22.239-3.765 32.586-2.555 9.192-8.399 15.312-16.031 16.788-10.403 2.013-19.044-.561-27.186-8.137-5.451-5.064-7.708-13.014-9.889-20.708-1-3.512-1.939-6.829-3.144-9.688-4.484-10.636-13.345-18.722-24.958-22.776-12.467-4.475-28.321-5.82-35.407-5.638-3.162.079-6.315.289-9.375.616a.913.913 0 01-.406-.056c-3.088-.798-54.681 6.521-76.733 16.924-16.788 7.922-37.645 22.183-41.685 45.142-4.046 22.954 6.689 45.978 28.022 60.085 3.863 2.555 8.001 4.708 12.635 6.568.682-4.293 1.359-8.586 2.037-12.879 1.574-9.991 3.2-20.319 4.9-30.474-2.864-2.093-4.592-4.307-5.423-6.942-4.816-15.125 11.621-22.005 21.445-26.116.855-.36 1.672-.701 2.429-1.028a135.724 135.724 0 014.456-1.812.846.846 0 011.145.831 296.674 296.674 0 00-.253 5.054c-.831 19.26-.07 127.644.005 138.304z" fill="#1A1A1A"/><path d="M172.632 405.392a.84.84 0 01-.84-.841V210.919a.84.84 0 111.681 0v193.632a.84.84 0 01-.841.841z" fill="#1A1A1A"/><path d="M206.393 346.414h-33.516v58.464h33.516v-58.464z" fill="#1A1A1A"/><path d="M205.793 405.392a.84.84 0 01-.841-.841V211.325a.84.84 0 111.682 0v193.226a.84.84 0 01-.841.841zm-12.76-61.827a.84.84 0 01-.841-.841v-65.98a.84.84 0 111.681 0v65.98a.843.843 0 01-.84.841zm10.882-164.863c-.948-.155-1.901-.304-2.849-.458-1.028-.164-2.079.266-2.378 1.35-.079.289-.051.612.019.925-.472.467-.729 1.107-.532 1.826.256.934 1.396 1.719 2.377 1.35 1.121-.42 4.83-2.971 4.83-3.877 0-.785-.64-.981-1.467-1.116zm-5.984-17.764c-4.919-1.635-23.757-8.016-25.967-9.777 4.779-9.861 15.121-11.538 24.22-7.754 9.749 4.054 14.621 14.396 10.814 24.182-2.868-1.195-5.722-3.349-9.067-6.651z" fill="#1A1A1A"/><path d="M196.195 143.406c9.23 3.839 13.92 13.985 11.154 23.36.159.051.309.075.467.14 7.432 3.088 7.115 16.139-6.763 11.687-.608.453-1.215.911-1.869 1.29l2.859 30.175-19.918 31.409-5.549-31.689-2.331-30.442c-5.554-5.376-8.418-13.733-3.387-25.467 5.087-11.888 15.448-14.574 25.337-10.463z" fill="#fff"/><path d="M182.118 242.304a.648.648 0 01-.163-.019.833.833 0 01-.663-.682l-5.55-31.693-2.317-30.209c-4.713-4.689-9.001-12.99-3.349-26.181 4.839-11.291 15.214-15.565 26.439-10.903 9.309 3.873 14.298 13.916 11.85 23.603 4.326 1.939 5.942 6.699 4.723 10.015-.537 1.467-2.971 5.979-11.883 3.279-.374.276-.748.552-1.14.799l2.807 29.653a.828.828 0 01-.126.527l-19.918 31.409a.824.824 0 01-.71.402zm5.554-99.878c-6.95 0-12.761 4.115-16.045 11.771-5.367 12.519-1.224 20.249 3.2 24.533a.862.862 0 01.257.542l2.33 30.441 5.162 29.471 18.601-29.33-2.831-29.891a.841.841 0 01.416-.808c.602-.351 1.167-.771 1.761-1.215a.907.907 0 01.784-.149c5.279 1.695 9.09.897 10.202-2.126.953-2.587-.467-6.502-4.022-7.982-.238-.066-.327-.089-.411-.117a.839.839 0 01-.537-1.037 18.502 18.502 0 00-10.669-22.347c-2.84-1.182-5.601-1.756-8.198-1.756z" fill="#1A1A1A"/><path d="M201.235 157.084c-4.204-1.243-19.525-7.782-22.87-14.803-3.83-20.048 14.093-7.025 22.417-1.742 8.912 5.656 16.657 15.718 9.791 27.798-2.626-1.663-6.605-7.427-9.338-11.253zm-18.944 27.2c-.042 0-.088-.005-.135-.009-2.681-.43-5.755-2.392-8.404-4.256a.84.84 0 01-.205-1.172.84.84 0 011.172-.206c2.35 1.649 5.349 3.592 7.708 3.971.458.074.77.504.7.967a.853.853 0 01-.836.705z" fill="#1A1A1A"/><path d="M189.613 274.166h-64.462v84.001h64.462v-84.001z" fill="#fff"/><path d="M189.612 359.008H125.15a.84.84 0 01-.841-.841v-84.001c0-.467.379-.841.841-.841h64.462c.467 0 .841.379.841.841v83.997a.839.839 0 01-.841.845zm-63.621-1.686h62.78v-82.315h-62.78v82.315z" fill="#1A1A1A"/><path d="M154.284 304.724c16.363-1.051 31.796-1.663 31.796 2.551 0 4.213-10.697 1.298-13.611 5.185-2.92 3.891.649 4.535 7.455 4.213 6.806-.322 15.363.308 15.232 3.242-.163 3.746-4.213 4.863-4.213 4.863s4.751 5.264-1.299 8.104c0 0 1.621 3.891-1.943 5.834 0 0 .117 7.096-31.707 7.278-31.825.182-8.161-40.013-8.161-40.013l6.451-1.257z" fill="#fff"/><path d="M155.787 346.835c-7.581 0-12.743-2.284-15.335-6.797-6.666-11.584 6.114-33.557 6.661-34.487a.83.83 0 01.565-.397l6.451-1.252.107-.014c17.919-1.149 28.868-1.27 31.829 1.505.561.527.86 1.181.86 1.887 0 2.952-3.471 3.274-6.825 3.582-2.709.253-5.778.533-6.955 2.107-.682.911-.986 1.658-.803 1.995.289.551 1.84 1.144 7.544.873 2.924-.145 12.663-.383 15.358 2.303.523.523.785 1.149.757 1.817-.131 3.004-2.336 4.536-3.723 5.204.687 1.042 1.57 2.821 1.196 4.676-.285 1.415-1.229 2.583-2.803 3.47.43 1.687.336 4.344-2.214 5.951-.121.407-.406 1-1.06 1.668-2.574 2.634-10.113 5.792-31.395 5.914-.075-.005-.145-.005-.215-.005zm-7.413-40.102c-1.56 2.77-12.229 22.45-6.465 32.469 2.275 3.947 6.941 5.951 13.878 5.951h.206c29.872-.168 30.867-6.404 30.871-6.469-.004-.313.164-.556.439-.706 2.794-1.522 1.705-4.446 1.57-4.773a.84.84 0 01.42-1.08c1.467-.686 2.317-1.574 2.532-2.625.397-1.98-1.481-4.134-1.504-4.152a.843.843 0 01.397-1.374c.14-.037 3.466-1.013 3.601-4.087.005-.131-.018-.308-.261-.551-1.402-1.397-7.189-2.139-14.093-1.812-5.736.27-8.296-.22-9.113-1.761-.79-1.486.518-3.224.943-3.793 1.63-2.173 5.092-2.49 8.151-2.77 3.293-.304 5.297-.584 5.297-1.911 0-.163-.037-.388-.327-.659-3.003-2.816-20.875-1.676-30.516-1.055l-6.026 1.158zm28.399-139.111a.852.852 0 01-.35-.075l-4.358-1.98a.839.839 0 01-.407-1.135c1.962-3.971 7.063-7.969 7.278-8.137a.845.845 0 011.182.144.846.846 0 01-.145 1.182c-.047.038-4.344 3.41-6.385 6.792l3.531 1.607c.42.191.612.691.416 1.116a.835.835 0 01-.762.486zm30.657-7.484c-.21-.952-1.145-1.625-2.069-1.583.149-.416.299-.836.443-1.252.836-2.35-2.896-3.359-3.727-1.028-1.103 3.097-2.326 6.18-3.312 9.319-.612 1.948-.794 4.214 1.093 5.554 4.564 3.237 7.707-5.983 8.637-8.819.36-1.088-.243-1.868-1.065-2.191z" fill="#1A1A1A"/><path d="M74.931 319.751c4.363 5.335 9.618 10.066 15.56 13.99 19.077 12.603 42.652 14.303 64.933 13.925v-43.278c-13.177.317-27.784.205-38.588-5.367-3.658-1.887-7.32-3.957-9.492-7.082" fill="#fff"/><path d="M150.051 348.558c-19.927 0-41.938-2.163-60.024-14.112-6.012-3.97-11.31-8.739-15.747-14.163a.838.838 0 01.117-1.181.838.838 0 011.182.116c4.33 5.293 9.5 9.945 15.373 13.822 19.095 12.617 42.811 14.093 63.63 13.799v-41.587c-12.921.289-27.424.042-38.131-5.484-3.695-1.906-7.497-4.045-9.795-7.353a.845.845 0 01.21-1.172.85.85 0 011.173.21c2.074 2.99 5.675 5.008 9.183 6.815 10.594 5.466 25.252 5.587 38.177 5.274.206-.023.444.08.608.238a.856.856 0 01.252.603v43.278a.843.843 0 01-.827.841c-1.77.037-3.569.056-5.381.056zm23.275-21.954a.845.845 0 01-.841-.799.838.838 0 01.799-.883c.126-.005 12.668-.635 17.596-.985.425-.033.868.317.897.78a.841.841 0 01-.781.896c-4.942.351-17.502.981-17.628.986-.014.005-.028.005-.042.005zm-.206 9.048a.84.84 0 01-.056-1.681c.122-.01 12.178-.85 16.382-1.906a.844.844 0 01.411 1.635c-4.354 1.093-16.176 1.915-16.676 1.952h-.061zm1.18 5.919c-.584 0-.892-.028-.939-.033a.84.84 0 01-.757-.916c.042-.462.467-.794.916-.761.042.005 4.437.364 13.803-2.079a.836.836 0 011.028.603.843.843 0 01-.603 1.028c-7.315 1.905-11.669 2.158-13.448 2.158zm2.319-73.296h-38.467v5.643h38.467v-5.643z" fill="#1A1A1A"/><path d="M176.617 274.759h-38.466a.84.84 0 01-.841-.841v-5.643a.84.84 0 01.841-.84h38.466a.84.84 0 01.841.84v5.643a.837.837 0 01-.841.841zm-37.626-1.682h36.786v-3.956h-36.786v3.956z" fill="#000"/><path d="M251.166 375.431a.728.728 0 01-.224-.033l-24.351-6.754a.838.838 0 01-.583-1.037.832.832 0 011.037-.584l24.35 6.754a.843.843 0 01-.229 1.654zm-117.742 0a.846.846 0 01-.79-.546.845.845 0 01.495-1.084l18.115-6.755a.84.84 0 011.084.495.845.845 0 01-.495 1.084l-18.115 6.755a.82.82 0 01-.294.051zm117.94-60.804a.841.841 0 01-.841-.841v-48.239a.841.841 0 111.682 0v48.239a.838.838 0 01-.841.841zm-117.625-52.639a.84.84 0 01-.841-.841v-6.366a.84.84 0 111.681 0v6.366a.84.84 0 01-.84.841zm241.397 144.231H24.011a.84.84 0 110-1.682h351.125a.84.84 0 110 1.682zM39.127 181.397a.837.837 0 01-.593-.248l-9.16-9.16a.846.846 0 010-1.191l9.16-9.16a.846.846 0 011.191 0l9.16 9.16a.846.846 0 010 1.191l-9.16 9.16a.827.827 0 01-.598.248zm-7.969-10.001l7.97 7.969 7.968-7.969-7.968-7.969-7.97 7.969z" fill="#1A1A1A"/><path d="M300.82 54.192a6.739 6.739 0 01-6.731-6.731 6.74 6.74 0 016.731-6.731 6.736 6.736 0 016.731 6.73 6.739 6.739 0 01-6.731 6.732zm0-11.776a5.05 5.05 0 00-5.045 5.045 5.051 5.051 0 005.045 5.045 5.053 5.053 0 005.045-5.045 5.05 5.05 0 00-5.045-5.045z" fill="#fff"/><path d="M266.685 450.167a.836.836 0 01-.593-.248l-8.245-8.244a.846.846 0 010-1.191.846.846 0 011.191 0l8.245 8.244a.846.846 0 01-.598 1.439zM113.611 9.928c.215 0 .43-.084.593-.247l8.245-8.245a.846.846 0 000-1.19.846.846 0 00-1.191 0l-8.245 8.244a.846.846 0 000 1.19.838.838 0 00.598.248zM247.539 459a4.966 4.966 0 01-4.96-4.961 4.97 4.97 0 014.96-4.96 4.97 4.97 0 014.961 4.96 4.967 4.967 0 01-4.961 4.961zm0-8.244a3.283 3.283 0 00-3.279 3.279 3.284 3.284 0 003.279 3.279 3.284 3.284 0 003.28-3.279 3.284 3.284 0 00-3.28-3.279zm-114.8-431.994a4.967 4.967 0 004.961-4.96 4.97 4.97 0 00-4.961-4.962 4.97 4.97 0 00-4.961 4.961 4.967 4.967 0 004.961 4.96zm0-8.245a3.283 3.283 0 013.279 3.28 3.283 3.283 0 01-3.279 3.279 3.283 3.283 0 01-3.279-3.28 3.283 3.283 0 013.279-3.279zM17.33 274.694H.84a.84.84 0 110-1.682h16.49a.84.84 0 110 1.682zm0 30.81H.84a.84.84 0 110-1.682h16.49a.84.84 0 110 1.682zm0 30.816H.84a.84.84 0 110-1.682h16.49a.84.84 0 110 1.682zm0 30.816H.84a.84.84 0 110-1.682h16.49a.84.84 0 110 1.682zm122.712-71.801a2.85 2.85 0 100-5.7 2.85 2.85 0 000 5.7zm35.604-1.998h-25.509a.841.841 0 110-1.682h25.509a.84.84 0 110 1.682zm52.395 2.119a.75.75 0 01-.224-.032l-11.566-3.223a.84.84 0 01-.617-.809v-25.588c0-.467.379-.841.841-.841h22.753a.84.84 0 01.841.841v25.588a.842.842 0 01-.607.809l-11.188 3.223a1 1 0 01-.233.032zm-10.72-4.703l10.72 2.984 10.351-2.98v-24.112h-21.071v24.108zm21.912.639h.019-.019z" fill="#1A1A1A"/><path d="M318.68 188.025a.836.836 0 01-.425-.117l-6.825-3.98a.84.84 0 11.846-1.453l6.824 3.98a.84.84 0 01.304 1.149.823.823 0 01-.724.421zm7.197-5.246a.842.842 0 01-.78-.527l-6.586-16.466a.841.841 0 011.56-.626l6.586 16.466a.842.842 0 01-.78 1.153z" fill="#fff"/><path d="M214.429 336.876h-4.008a.84.84 0 110-1.681h4.008c.463 0 .841.378.841.841 0 .462-.378.84-.841.84zm0 43.035h-4.008a.84.84 0 010-1.682h4.008c.463 0 .841.379.841.841a.844.844 0 01-.841.841zm113.117-163.537a.842.842 0 01-.776-.519c-.088-.21-2.246-5.213-9.393-6.507a.842.842 0 11.303-1.658c8.091 1.471 10.548 7.278 10.651 7.525a.834.834 0 01-.458 1.093.83.83 0 01-.327.066z" fill="#1A1A1A"/><defs><linearGradient id="paint0_linear" x1="88.344" y1="461.08" x2="88.344" y2="176.534" gradientUnits="userSpaceOnUse"><stop stop-color="#fff" stop-opacity=".4"/><stop offset="1" stop-color="#006233"/></linearGradient><linearGradient id="paint1_linear" x1="196.931" y1="493.505" x2="196.931" y2="46.875" gradientUnits="userSpaceOnUse"><stop stop-color="#fff" stop-opacity=".4"/><stop offset="1" stop-color="#006233"/></linearGradient><linearGradient id="paint2_linear" x1="305.711" y1="507.199" x2="305.711" y2="-8.976" gradientUnits="userSpaceOnUse"><stop stop-color="#fff" stop-opacity=".4"/><stop offset="1" stop-color="#006233"/></linearGradient></defs></svg>