<svg width="447" height="539" viewBox="0 0 447 539" fill="none" xmlns="http://www.w3.org/2000/svg"><path d="M199.003 400c109.906 0 199.003-89.543 199.003-200S308.909 0 199.003 0C89.097 0 0 89.543 0 200s89.097 200 199.003 200z" fill="url(#paint0_linear)"/><path d="M169.859 451.452h180.709V539H169.859v-87.548z" fill="#1A1A1A"/><path d="M105.612 372.158c-.691 6.659-.668 11.391 3.583 12.785 27.639 9.05 34.058-87.732 55.718-86.668 33.522 1.652 26.061 104.611 10.124 127.124-17.725 25.039-52.541 35.718-81.667 28.466-44.25-11.016-59.612-65.634-50.346-101.022.591.213 1.182.431 1.778.644 18.968 6.849 39.145 11.749 58.353 17.882.819.268 1.638.526 2.457.789z" fill="#fff"/><path d="M111.923 457.324c25.209 0 50.262-11.694 64.076-31.21 12.454-17.591 20.188-86.154 6.085-115.365-4.208-8.719-9.975-13.317-17.135-13.67-10.738-.56-17.67 19.859-24.897 41.453-8.203 24.484-16.695 49.792-30.503 45.267-3.237-1.059-3.471-4.71-2.764-11.514a1.21 1.21 0 00-.83-1.277l-2.457-.784c-7.64-2.436-15.558-4.721-23.22-6.928-11.646-3.354-23.688-6.826-35.094-10.943l-1.778-.638a1.199 1.199 0 00-1.566.829c-5.867 22.406-1.783 50.222 10.404 70.865 9.718 16.464 23.832 27.402 40.817 31.63 6.185 1.545 12.532 2.285 18.862 2.285zm52.63-157.842c.095 0 .19 0 .29.005 6.218.309 11.295 4.447 15.09 12.315 13.813 28.617 6.291 95.713-5.885 112.912-16.744 23.649-50.557 35.427-80.402 27.995-16.35-4.071-29.951-14.622-39.335-30.521-11.64-19.724-15.697-46.157-10.465-67.746l.535.191c11.474 4.144 23.56 7.622 35.24 10.993 7.645 2.201 15.546 4.48 23.152 6.905l1.533.493c-.597 6.244-.491 11.441 4.502 13.076 16.126 5.27 24.953-21.202 33.523-46.795 6.558-19.584 13.334-39.823 22.222-39.823z" fill="#1A1A1A"/><path d="M155.673 348.678v110.839H360.21s1.259-82.048-1.505-133.912a93.148 93.148 0 013.11 4.161c4.329 6.194 14.532 25.829 10.058 33.618-1.834 3.209-4.453 4.497-7.629 4.329.702 12.864.413 25.89.825 38.591.412 12.45.786 24.921 1.114 37.371 51.36.537 85.039-47.434 77.617-99.281-7.957-55.677-52.001-98.059-104.743-111.254-12.738-3.192-31.327-5.051-47.754-6.132-17.726-1.181-32.955-1.45-35.657-1.489-12.883-.185-24.117.683-33.885 2.486-71.654 13.149-66.088 75.166-66.088 120.673z" fill="#fff"/><path d="M155.692 460.723h204.536c.658 0 1.193-.526 1.198-1.187.011-.801 1.17-78.649-1.309-130.104.245.336.49.678.735 1.03 4.458 6.385 13.987 25.375 9.997 32.319-1.521 2.66-3.639 3.864-6.525 3.73-.295-.039-.669.106-.914.353-.24.241-.368.577-.345.918.406 7.493.479 15.16.551 22.575.05 5.258.1 10.702.273 15.988.413 12.449.786 24.915 1.115 37.359.016.65.54 1.165 1.187 1.176 22.701.235 43.391-9.022 58.247-26.069 17.057-19.573 24.551-46.761 20.573-74.589-7.606-53.235-50.062-98.35-105.64-112.25-10.838-2.716-26.975-4.788-47.966-6.166-17.681-1.182-32.854-1.45-35.713-1.495-12.627-.179-24.1.661-34.119 2.503-67.921 12.472-67.486 68.026-67.135 112.665.028 3.125.05 6.199.05 9.201v110.839c0 .661.535 1.204 1.204 1.204zm203.355-2.414H156.89V348.674c0-3.007-.023-6.087-.051-9.223-.345-43.738-.774-98.166 65.163-110.274 9.863-1.82 21.163-2.649 33.651-2.464 2.853.045 17.965.314 35.596 1.49 20.851 1.366 36.844 3.416 47.543 6.098 54.642 13.671 96.378 57.979 103.845 110.257 3.884 27.128-3.405 53.611-19.999 72.657-14.137 16.218-33.724 25.162-55.26 25.251a6079.197 6079.197 0 00-1.082-36.205c-.172-5.258-.222-10.685-.273-15.932-.066-7.029-.133-14.281-.49-21.421 3.171-.219 5.656-1.871 7.406-4.928 4.914-8.557-5.695-28.584-10.114-34.912a96.36 96.36 0 00-3.154-4.223 1.2 1.2 0 00-2.14.812c2.547 47.86 1.65 122.359 1.516 132.652z" fill="#1A1A1A"/><path d="M351.267 361.998c1.511 15.955.736 32.537 1.249 48.296.351 10.764.685 21.533.98 32.302-.858-.135-1.705-.241-2.574-.403-20.456-3.859-62.409-33.54-82.932-64.33l48.846-49.091c11.284 12.449 23.872 25.822 34.431 33.226z" fill="#fff"/><path d="M353.51 443.779c.29 0 .574-.106.791-.296.268-.236.418-.583.407-.941-.295-10.769-.63-21.538-.975-32.308-.184-5.661-.206-11.558-.223-17.259-.033-10.249-.067-20.85-1.036-31.104a1.24 1.24 0 00-.507-.879c-10.337-7.247-22.557-20.166-34.225-33.052a1.206 1.206 0 00-.859-.392 1.136 1.136 0 00-.874.353l-48.847 49.091a1.21 1.21 0 00-.151 1.523c20.707 31.075 62.728 60.879 83.707 64.839.574.112 1.148.196 1.722.28l.886.134c.062.006.123.011.184.011zm-3.371-81.129c.908 9.979.942 20.323.975 30.33.017 5.724.033 11.637.223 17.333.334 10.282.652 20.569.936 30.857a38.838 38.838 0 01-1.109-.185c-20.222-3.814-61.557-33.5-81.606-62.991l47.259-47.495c11.334 12.488 23.147 24.893 33.322 32.151zM209.361 132.67c-16.667-2.834-27.237-20.335-20.422-36.3 8.771-20.554 31.45-17.664 48.624-10.96 16.455-1.563 35.562 2.884 45.498 15.904 13.78 18.066 16.098 39.392 15.201 61.126 14.61 8.624 31.188 25.52 16.355 42.102-14.076 15.737-44.451 17.714-63.887 17.635-19.336-.084-43.464-5.342-49.432-26.92-3.99-14.415 6.113-29.166 20.066-29.972-1.644-11.268-5.912-22.518-7.617-33.825-1.109.963-2.597 1.512-4.386 1.21z" fill="#1A1A1A"/><path d="M269.242 148.952c-1.71.331-3.421.667-5.132 1.003-1.855.358-3.371 1.753-3.204 3.797.045.543.29 1.075.608 1.573-.513 1.092-.552 2.347.234 3.456 1.019 1.439 3.443 2.066 4.881.817 1.644-1.422 6.364-8.103 5.801-9.654-.485-1.339-1.7-1.283-3.188-.992zm-71.525-27.107c4.843 1.635 40.873.744 50.252.476 7.751 3.539 13.953 5.449 19.581 5.695v-.93c-.101-18.665-14.656-32.85-33.451-33.657-11.356-.498-22.178 3.108-29.059 10.898-3.94 4.447-6.598 10.288-7.323 17.518z" fill="#1A1A1A"/><path d="M197.486 127.171c1.276-23.51 17.229-34.593 36.604-33.742 18.099.79 32.397 15.205 33.512 32.974.312-.022.579-.084.886-.061 14.571.644 22.155 23.157-4.224 24.215-.763 1.159-1.505 2.318-2.391 3.377l19.292 72.5c3.237.146 6.659.353 10.158.582-2.268 8.205-7.071 15.367-13.602 20.301-5.834 4.391-13.028 7-21.063 7-4.965 0-9.874-1.159-14.388-3.208-9.668-4.391-17.558-12.903-20.489-23.096a139.305 139.305 0 0111.975-1.635L219.1 168.606c-12.794-5.729-22.874-18.239-21.614-41.435z" fill="#fff"/><path d="M256.655 255.505c7.957 0 15.491-2.503 21.782-7.241 6.726-5.074 11.708-12.511 14.037-20.939.1-.353.033-.728-.179-1.02a1.19 1.19 0 00-.902-.504 600.79 600.79 0 00-9.306-.543l-18.907-71.049c.63-.807 1.198-1.652 1.739-2.481 16.7-.885 18.026-9.929 18.032-12.707.011-6.362-5.706-13.418-14.254-13.877-1.711-18.067-16.372-32.129-34.565-32.924-21.777-.896-36.649 12.741-37.853 34.884-1.404 25.901 10.944 37.325 21.799 42.354l14.165 55.845c-3.594.37-7.177.879-10.677 1.512a1.219 1.219 0 00-.808.549 1.212 1.212 0 00-.134.969c2.948 10.265 10.855 19.186 21.147 23.862 4.848 2.19 9.852 3.31 14.884 3.31zm33.083-27.396c-2.335 7.33-6.821 13.759-12.739 18.228-5.873 4.419-12.911 6.76-20.344 6.76-4.619 0-9.423-1.07-13.892-3.103-9.227-4.189-16.399-11.995-19.43-21.045 3.46-.594 6.998-1.053 10.531-1.384a1.2 1.2 0 001.053-1.495l-14.655-57.771a1.207 1.207 0 00-.674-.807c-10.286-4.592-22.261-15.305-20.907-40.26 1.142-21.011 14.644-33.595 35.356-32.604 17.363.756 31.277 14.449 32.37 31.848.022.32.167.622.406.835.24.213.558.325.875.297l.362-.04c.123-.011.24-.033.363-.022 7.188.314 12.164 6.3 12.153 11.475-.011 6.059-6.124 9.923-16.344 10.332a1.206 1.206 0 00-.953.543l-.189.286c-.697 1.058-1.354 2.061-2.123 2.979a1.22 1.22 0 00-.24 1.087l19.292 72.494c.133.51.585.868 1.108.891 2.753.112 5.651.28 8.621.476z" fill="#1A1A1A"/><path d="M205.038 104.322c11.172 8.289 35.139 8.681 42.583 8.205 7.707 12.449 14.633 14 19.932 14.56-.1-18.665-14.655-32.85-33.45-33.657-11.362-.504-22.183 3.103-29.065 10.892zm10.594 42.446a1.21 1.21 0 001.198-1.115 1.205 1.205 0 00-1.109-1.294l-7.366-.565c1.27-7.202 6.686-15.989 6.742-16.078a1.211 1.211 0 00-.384-1.663 1.193 1.193 0 00-1.655.386c-.262.42-6.414 10.388-7.278 18.335a1.23 1.23 0 00.268.902c.206.252.507.408.83.431l8.648.666c.045-.005.073-.005.106-.005z" fill="#1A1A1A"/><path d="M316.845 328.746c-8.866-13.328-46.195-56.842-83.022-64.346-36.827-7.505-75.649 6.003-76.145 13.003-.496 7.001 26 3.069 26 3.069s-5.594 11.436 9.339 16.941c0 0 3.985 9.005 10.454 9.504 0 0 5.517 9.783 15.43 7.504 0 0 34.007 45.311 49.103 63.422 27.471-24.742 48.841-49.097 48.841-49.097z" fill="#fff"/><path d="M267.97 379.03c.296 0 .58-.107.803-.308 27.215-24.496 48.735-48.951 48.947-49.192a1.218 1.218 0 00.1-1.473c-7.294-10.965-45.136-56.987-83.779-64.856-32.437-6.602-65.269 2.722-74.535 9.806-1.951 1.49-2.948 2.896-3.048 4.296-.078 1.136.334 2.167 1.203 2.979 4.029 3.763 18.667 2.335 24.217 1.635-.49 1.865-.852 4.816.385 7.919 1.477 3.696 4.786 6.558 9.846 8.518.931 1.898 4.698 8.786 10.621 9.682 1.371 2.061 6.832 9.246 15.63 7.701 4.101 5.454 34.688 46.072 48.685 62.861.206.252.507.404.831.432h.094zm47.331-50.402c-3.666 4.111-23.097 25.654-47.203 47.456-15.279-18.475-47.938-61.966-48.267-62.414a1.196 1.196 0 00-1.226-.448c-8.926 2.044-14.064-6.832-14.12-6.922a1.191 1.191 0 00-.953-.61c-5.667-.443-9.411-8.708-9.445-8.792a1.214 1.214 0 00-.685-.644c-4.659-1.714-7.656-4.178-8.91-7.326-1.622-4.06.217-7.907.234-7.946a1.217 1.217 0 00-.106-1.243 1.224 1.224 0 00-1.148-.482c-7.801 1.159-21.264 1.982-24.184-.75-.34-.314-.473-.628-.44-1.036.017-.236.217-1.109 2.106-2.549 8.71-6.653 41.33-15.736 72.607-9.363 37.012 7.543 73.426 51.046 81.74 63.069z" fill="#1A1A1A"/><path d="M204.193 308.296c.072 0 .145-.006.212-.017a1.206 1.206 0 00.969-1.4c-1.432-8.019 7.534-12.645 11.106-13.748.635-.196.992-.868.791-1.506-.195-.639-.858-1.008-1.499-.796-5.143 1.591-14.438 7.085-12.761 16.476.106.582.613.991 1.182.991zm-11.182-9.685c.056 0 .112-.006.168-.011.657-.09 1.114-.7 1.025-1.361-.686-5.018 5.645-14.387 15.797-17.047a1.21 1.21 0 00.859-1.473 1.19 1.19 0 00-1.466-.863c-11.763 3.086-18.366 13.906-17.57 19.708.084.61.602 1.047 1.187 1.047zm-9.361-16.948a1.2 1.2 0 001.12-.773c2.78-7.202 15.897-12.455 16.031-12.505.618-.247.919-.947.68-1.563a1.197 1.197 0 00-1.555-.683c-.579.229-14.231 5.695-17.391 13.883-.24.622.067 1.322.685 1.562.14.056.285.079.43.079zm35.227 33.951c.212 0 .429-.055.624-.179.129-.078 3.149-1.954 3.645-5.169.306-1.976-.385-3.953-2.057-5.885a1.196 1.196 0 00-1.694-.118 1.212 1.212 0 00-.117 1.703c1.182 1.366 1.689 2.688 1.494 3.931-.323 2.089-2.497 3.466-2.519 3.483a1.206 1.206 0 00.624 2.234zM100.53 369.003h94.394c5.327 0 9.011-5.354 7.133-10.366l-45.905-122.314a7.621 7.621 0 00-7.132-4.956H54.626c-5.328 0-9.01 5.354-7.133 10.366l45.904 122.314a7.63 7.63 0 007.133 4.956z" fill="#1A1A1A"/><path d="M109.891 295.725c-5.404 0-9.785-4.403-9.785-9.834s4.381-9.834 9.785-9.834 9.785 4.403 9.785 9.834-4.381 9.834-9.785 9.834z" fill="#fff"/><path d="M109.873 296.93c6.057 0 10.983-4.951 10.983-11.038 0-6.088-4.926-11.038-10.983-11.038s-10.983 4.95-10.983 11.038c0 6.087 4.926 11.038 10.983 11.038zm0-19.663c4.731 0 8.581 3.87 8.581 8.625s-3.85 8.624-8.581 8.624-8.582-3.869-8.582-8.624c0-4.755 3.851-8.625 8.582-8.625z" fill="#1A1A1A"/><path d="M104.176 371.867c14.711-36.978 32.007-49.064 25.298-62.05 0 0 2.574-11.363-4.592-11.419 0 0 .898-14.768-14.56-4.788-15.457 9.979-24.468 18.43-24.468 18.43s27.165-29.239 20.774-34.912c-6.392-5.673-28.062 25.128-31.54 26.943-12.916 6.748-4.313-24.21-8.386-29.216-2.797-3.433-7.02-2.89-11.78 19.572-4.363 20.609-10.236 58.774-10.236 58.774s36.226 11.615 59.49 18.666z" fill="#fff"/><path d="M104.181 373.065a1.2 1.2 0 001.114-.756c6.052-15.204 12.466-26.052 17.62-34.766 7.289-12.32 11.735-19.842 7.829-27.9.307-1.619 1.137-7.269-1.304-10.366-.847-1.076-1.972-1.742-3.354-1.983-.095-1.949-.663-5.779-3.594-7.51-2.937-1.73-7.239-.789-12.811 2.812a224.726 224.726 0 00-13.752 9.621c6.196-7.689 13.128-17.546 12.871-22.888-.061-1.311-.523-2.358-1.37-3.108-.831-.74-1.878-1.081-3.065-.986-5.544.386-14.182 9.985-23.292 20.642-2.814 3.293-5.723 6.698-6.537 7.124-1.655.862-2.897 1.047-3.683.543-2.468-1.574-2.15-9.436-1.894-15.748.25-6.171.462-11.503-1.327-13.703-1.65-2.033-3.226-2.157-4.268-1.905-2.246.549-5.678 3.422-9.612 21.992-4.319 20.408-10.192 58.461-10.248 58.842a1.205 1.205 0 00.82 1.333c.362.117 36.51 11.699 59.512 18.665.111.028.228.045.345.045zm14.995-81.718c.814 0 1.51.168 2.095.509 2.636 1.557 2.419 6.413 2.419 6.463-.023.33.094.655.323.896.223.241.54.381.869.387 1.187.011 2.062.392 2.675 1.17 1.744 2.206 1.137 7.084.758 8.775-.062.281-.028.572.105.824 3.622 7.017-.59 14.14-7.567 25.946-5.082 8.59-11.373 19.231-17.374 34.077-20.857-6.34-51.588-16.157-57.445-18.027.964-6.211 6.157-39.224 10.07-57.688 3.671-17.361 6.697-19.875 7.828-20.15.519-.128 1.148.236 1.845 1.087 1.209 1.484.98 7.112.785 12.074-.323 8.003-.63 15.563 3.004 17.881 1.566 1.003 3.61.852 6.08-.436 1.17-.611 3.293-3.058 7.249-7.69 6.219-7.28 16.633-19.46 21.631-19.808.558-.039.97.084 1.31.387.351.308.535.773.563 1.417.323 6.798-15.352 25.24-21.42 31.77a1.204 1.204 0 00.028 1.674 1.195 1.195 0 001.666.028c.09-.084 9.122-8.501 24.295-18.296 3.366-2.167 6.146-3.27 8.208-3.27z" fill="#1A1A1A"/><path d="M95.942 324.449c.278 0 .551-.095.78-.291l28.936-24.859a1.215 1.215 0 00.134-1.702 1.202 1.202 0 00-1.694-.135l-28.936 24.859a1.217 1.217 0 00-.134 1.703c.24.285.58.425.914.425zm10.116 12.316c.279 0 .552-.096.781-.292 2.858-2.458 22.701-24.909 23.543-25.862a1.21 1.21 0 00-.101-1.702 1.19 1.19 0 00-1.694.101c-7.104 8.042-21.119 23.75-23.309 25.632a1.217 1.217 0 00-.133 1.703c.239.28.579.42.913.42zm192.344 122.654a1.2 1.2 0 001.198-1.204v-42.007a1.199 1.199 0 10-2.396 0v42.007c0 .661.534 1.204 1.198 1.204zm1.198-231.833v78.627a1.199 1.199 0 11-2.396 0v-79.098c0-.033.005-.067.011-.1.802.128 1.604.308 2.385.571zm-84.183 35.043c.663 0 1.198-.537 1.198-1.204v-31.927a1.2 1.2 0 00-1.198-1.204 1.2 1.2 0 00-1.198 1.204v31.927a1.199 1.199 0 001.198 1.204zm0 197.277c.663 0 1.198-.537 1.198-1.204V315.079a1.2 1.2 0 00-1.198-1.204 1.2 1.2 0 00-1.198 1.204v143.623a1.195 1.195 0 001.198 1.204zm143.325-133.087c.251 0 .507-.078.724-.241.53-.403.636-1.159.234-1.691-4.586-6.104-12.214-10.612-12.538-10.803a1.196 1.196 0 00-1.643.432 1.214 1.214 0 00.429 1.652c.072.045 7.539 4.463 11.83 10.175.245.314.602.476.964.476z" fill="#1A1A1A"/><path d="M250.768 514.339v24.652h2.401v-24.652c0-.667-.535-1.204-1.198-1.204-.668 0-1.203.543-1.203 1.204z" fill="#fff"/><path d="M56.68 165.01h94.963c.663 0 1.198-.537 1.198-1.204v-24.215a1.2 1.2 0 00-1.198-1.204H56.68a1.2 1.2 0 00-1.198 1.204v24.215c0 .667.535 1.204 1.198 1.204zm93.765-2.413H57.878v-21.802h92.567v21.802zm-93.761-46.715h77.957c.663 0 1.198-.537 1.198-1.204a1.2 1.2 0 00-1.198-1.204H56.684a1.2 1.2 0 00-1.198 1.204c0 .661.535 1.204 1.198 1.204zm94.986 6.395c4.179 0 7.578-3.416 7.578-7.616 0-4.2-3.399-7.617-7.578-7.617s-7.579 3.417-7.579 7.617 3.4 7.616 7.579 7.616zm0-12.819c2.853 0 5.176 2.335 5.176 5.203 0 2.867-2.323 5.202-5.176 5.202s-5.177-2.335-5.177-5.202c0-2.868 2.324-5.203 5.177-5.203zM23.376 198.437a1.2 1.2 0 00.847-.353l9.177-9.223a1.214 1.214 0 000-1.708l-9.177-9.224a1.2 1.2 0 00-.847-.353 1.2 1.2 0 00-.847.353l-9.178 9.224a1.214 1.214 0 000 1.708l9.178 9.223c.223.23.529.353.847.353zm7.483-10.428l-7.483 7.521-7.478-7.521 7.478-7.521 7.483 7.521zm-7.483 37.562c.206 0 .413-.051.602-.163a1.21 1.21 0 00.435-1.652l-7.796-13.53a1.199 1.199 0 00-1.644-.437 1.21 1.21 0 00-.434 1.652l7.795 13.53c.229.381.63.6 1.042.6zm413.202 237.883c.306 0 .613-.118.847-.353a1.214 1.214 0 000-1.708l-12.048-12.108a1.2 1.2 0 00-1.699 0 1.214 1.214 0 000 1.708l12.047 12.108c.234.235.541.353.853.353zm-13.499 4.27c.307 0 .613-.117.847-.353a1.214 1.214 0 000-1.708l-12.047-12.108a1.201 1.201 0 00-1.7 0 1.216 1.216 0 000 1.709l12.053 12.107c.234.236.541.353.847.353zm5.844-379.601c.307 0 .613-.118.847-.353l14.093-14.162a1.215 1.215 0 000-1.709 1.2 1.2 0 00-1.7 0l-14.092 14.163a1.214 1.214 0 000 1.708c.239.236.546.353.852.353zM78.18 324.235c.362 0 .724-.168.958-.482l3.104-4.155a1.203 1.203 0 00-.24-1.685 1.185 1.185 0 00-1.677.24l-3.104 4.155a1.205 1.205 0 00.24 1.686c.212.168.468.241.719.241z" fill="#1A1A1A"/><path d="M279.07 284.889c4.519 3.634 23.487 21.337 39.446 41.621 19.096 21.09 40.237 47.047 50.646 39.946l47.125 58.869c-16.494 14.516-39.151 21.791-65.391 16.834-20.456-3.858-53.081-19.735-85.768-62.1-13.613-17.159-30.782-40.697-30.782-40.697l44.724-54.473z" fill="#fff"/><path d="M366.973 444.898c18.801 0 36.192-6.396 50.128-18.666a1.21 1.21 0 00.112-1.702 1.196 1.196 0 00-1.694-.112c-17.319 15.243-40.193 21.118-64.377 16.554-13.189-2.487-47.871-13.474-85.044-61.658-12.092-15.244-27.154-35.746-30.207-39.918l43.358-52.816c5.449 4.665 23.275 21.516 38.343 40.674a1289.74 1289.74 0 016.358 7.09c18.394 20.581 35.768 40.008 45.898 33.109a1.218 1.218 0 00.324-1.675 1.204 1.204 0 00-1.667-.325c-8.408 5.735-26.663-14.695-42.767-32.722a1477.64 1477.64 0 00-6.313-7.039c-15.993-20.334-34.883-37.969-39.586-41.755a1.2 1.2 0 00-1.677.173l-44.723 54.479a1.216 1.216 0 00-.045 1.484c.173.235 17.336 23.751 30.81 40.736 37.663 48.823 73.03 59.995 86.487 62.537 5.516 1.042 10.961 1.552 16.282 1.552z" fill="#1A1A1A"/><path d="M371.77 219.821c.306 0 .613-.118.847-.353a1.214 1.214 0 000-1.708l-9.339-9.386a1.201 1.201 0 00-1.7 0 1.214 1.214 0 000 1.708l9.339 9.386c.24.235.546.353.853.353z" fill="#fff"/><path d="M305.6 310.644c.663 0 1.198-.537 1.198-1.204v-79.69a1.199 1.199 0 10-2.396 0v79.69c0 .661.535 1.204 1.198 1.204zm-.581 108.86c.289.275.568.56.83.863.128.145.25.291.373.442.017.022.106.14.162.207.072.101.161.23.161.23l.251.364c0 .005.006.005.006.011v78.627a1.199 1.199 0 11-2.396 0v-79.691a1.178 1.178 0 01.613-1.053zm-95.261-105.466v147.291a1.199 1.199 0 11-2.396 0V312.734c.774.47 1.577.89 2.396 1.304zm-1.202-50.978a1.2 1.2 0 001.198-1.204v-30.443a1.2 1.2 0 10-2.397 0v30.437c0 .672.535 1.21 1.199 1.21z" fill="#1A1A1A"/><defs><linearGradient id="paint0_linear" x1="269.605" y1="-13.022" x2="111.262" y2="400.024" gradientUnits="userSpaceOnUse"><stop offset=".016" stop-color="#FF7B2E"/><stop offset="1" stop-color="#F7B654" stop-opacity=".51"/></linearGradient></defs></svg>