<svg width="483" height="468" viewBox="0 0 483 468" fill="none" xmlns="http://www.w3.org/2000/svg"><path d="M368.616 235.154c59.212 0 107.212-48.241 107.212-107.749 0-59.508-48-107.75-107.212-107.75-59.211 0-107.212 48.242-107.212 107.75s48.001 107.749 107.212 107.749z" fill="url(#paint0_linear)"/><path d="M116.155 57.734L67.771 74.398l3.163 9.277 48.384-16.665-3.163-9.276z" fill="#1A1A1A"/><path d="M259.91 18.675L1.108 107.757 119.52 454.796l258.803-89.082L259.91 18.675z" fill="#fff"/><path d="M119.432 455.886a1.05 1.05 0 01-.477-.112 1.074 1.074 0 01-.547-.626L.058 108.105a1.109 1.109 0 01.05-.835 1.1 1.1 0 01.624-.555L259.5 17.587a1.07 1.07 0 01.831.05c.259.128.457.352.548.627l118.344 347.043a1.086 1.086 0 01-.674 1.385l-258.767 89.133a1.032 1.032 0 01-.35.061zM2.466 108.432l117.64 344.974 256.715-88.42-117.64-344.974-256.715 88.42z" fill="#1A1A1A"/><path d="M253.918 1.116L113.373 49.493l5.978 17.52 140.545-48.377-5.978-17.52z" fill="#fff"/><path d="M119.333 68.113c-.451 0-.872-.285-1.029-.738l-5.976-17.523a1.11 1.11 0 01.051-.836c.127-.26.355-.458.624-.555L253.537.059a1.084 1.084 0 011.379.677l5.975 17.523a1.11 1.11 0 01-.05.836 1.1 1.1 0 01-.624.555L119.688 68.057a1.23 1.23 0 01-.355.056zm-4.597-17.935l5.271 15.454 138.482-47.694-5.271-15.455-138.482 47.695z" fill="#1A1A1A"/><path d="M191.228 43.516c-.451 0-.871-.285-1.029-.739L184.67 26.57a1.087 1.087 0 01.674-1.386 1.079 1.079 0 011.378.678l5.53 16.208a1.087 1.087 0 01-1.024 1.447zM63.654 243.569c-.451 0-.872-.285-1.03-.738l-37.086-108.75a1.108 1.108 0 01.051-.835 1.1 1.1 0 01.624-.556l88.699-30.553a1.083 1.083 0 011.378.678l37.086 108.749a1.087 1.087 0 01-.674 1.386l-88.699 30.553a.923.923 0 01-.35.066zM27.946 134.407l36.382 106.687 86.646-29.845-36.382-106.687-86.646 29.845zm199.667 244.868c-.451 0-.872-.285-1.029-.738L130.86 97.822a1.089 1.089 0 01.674-1.386l125.208-43.125a1.07 1.07 0 01.831.051c.259.128.456.352.547.627l95.729 280.715c.092.275.076.575-.05.835a1.1 1.1 0 01-.624.555l-125.207 43.125a1.217 1.217 0 01-.355.056zM133.268 98.148l95.019 278.646 123.155-42.416-95.025-278.652-123.149 42.422zm-10.985 317.397a1.09 1.09 0 01-1.028-.738L99.86 352.075a1.098 1.098 0 01.674-1.39l88.705-30.554a1.083 1.083 0 011.378.678l21.395 62.731c.091.275.076.576-.051.836a1.12 1.12 0 01-.624.555l-88.704 30.553a1.045 1.045 0 01-.35.061zm-20.015-63.144l20.69 60.663 86.651-29.845-20.69-60.663-86.651 29.845zm-15.465-74.605c-.45 0-.871-.285-1.028-.739l-8.039-23.574a1.11 1.11 0 01.05-.836c.127-.26.355-.458.624-.555l78.44-27.018a1.084 1.084 0 011.379.678l8.039 23.574c.091.275.076.576-.051.835-.127.26-.35.459-.623.556l-78.44 27.018a1.08 1.08 0 01-.35.061zm-6.66-23.992l7.335 21.511 76.387-26.31-7.334-21.511-76.388 26.31z" fill="#1A1A1A"/><path d="M108.434 288.451a1.05 1.05 0 01-.477-.112 1.074 1.074 0 01-.547-.626l-5.525-16.209a1.09 1.09 0 01.674-1.386l62.313-21.46a1.09 1.09 0 01.831.051c.258.127.456.351.547.626l5.53 16.209a1.097 1.097 0 01-.674 1.391l-62.312 21.46a1.1 1.1 0 01-.36.056zm-4.146-16.621l4.82 14.141 60.259-20.753-4.825-14.141-60.254 20.753z" fill="#1A1A1A"/><path d="M108.434 288.451a1.05 1.05 0 01-.477-.112 1.074 1.074 0 01-.547-.626l-5.525-16.209a1.09 1.09 0 01.674-1.386l62.313-21.46a1.09 1.09 0 01.831.051c.258.127.456.351.547.626l5.53 16.209a1.097 1.097 0 01-.674 1.391l-62.312 21.46a1.1 1.1 0 01-.36.056zm-4.146-16.621l4.82 14.141 60.259-20.753-4.825-14.141-60.254 20.753z" fill="#1A1A1A"/><path d="M113.973 304.648c-.451 0-.872-.285-1.029-.739l-5.529-16.208a1.111 1.111 0 01.05-.836 1.1 1.1 0 01.624-.555l62.312-21.46a1.076 1.076 0 011.378.677l5.53 16.209c.091.275.076.575-.05.835-.127.26-.35.459-.624.555l-62.312 21.461a1.049 1.049 0 01-.35.061zm-4.151-16.621l4.825 14.14 60.26-20.752-4.825-14.141-60.26 20.753z" fill="#1A1A1A"/><path d="M119.448 320.703c-.451 0-.872-.286-1.029-.739l-5.53-16.209a1.098 1.098 0 01.674-1.39l62.313-21.461a1.079 1.079 0 011.378.677l5.53 16.209c.091.275.076.576-.051.836-.126.259-.35.458-.623.555l-62.312 21.46a1.033 1.033 0 01-.35.062zm-4.146-16.622l4.825 14.141 60.26-20.753-4.826-14.14-60.259 20.752zm33.351-55.658l2.332-11.946-11.46 3.948 9.128 7.998zm-27.664 119.754c-.451 0-.872-.285-1.029-.739a1.087 1.087 0 01.674-1.385l41.516-14.299a1.084 1.084 0 011.379.678 1.086 1.086 0 01-.674 1.385l-41.516 14.299a1.028 1.028 0 01-.35.061zm4.737 13.917a1.093 1.093 0 01-.355-2.124l35.5-12.231a1.083 1.083 0 011.378.678 1.086 1.086 0 01-.674 1.385l-35.5 12.231a.952.952 0 01-.349.061zm17.538-252.266c-.451 0-.872-.285-1.029-.739a1.088 1.088 0 01.674-1.385l123.277-42.463a1.083 1.083 0 011.378.677 1.087 1.087 0 01-.674 1.386l-123.276 42.463a1.028 1.028 0 01-.35.061zm30.923 35.532c-.451 0-.872-.286-1.029-.739a1.087 1.087 0 01.674-1.386l33.097-11.4a1.084 1.084 0 011.379.678 1.087 1.087 0 01-.674 1.385l-33.098 11.4a1.045 1.045 0 01-.349.062zm7.862 22.988a1.092 1.092 0 01-.355-2.124l24.071-8.288a1.087 1.087 0 011.378.678 1.086 1.086 0 01-.674 1.385l-24.07 8.288a.937.937 0 01-.35.061zm77.483 22.925l-61.378 21.14 3.092 9.069 61.379-21.14-3.093-9.069zm7.77 22.894l-61.379 21.14 3.093 9.069 61.378-21.14-3.092-9.069zm-25.067 164.112a7.384 7.384 0 01-3.249-.759 7.358 7.358 0 01-3.741-4.268 7.44 7.44 0 01.35-5.68 7.368 7.368 0 014.247-3.764 7.28 7.28 0 015.647.356 7.36 7.36 0 013.745 4.269 7.436 7.436 0 01-.35 5.68 7.368 7.368 0 01-4.247 3.764 7.384 7.384 0 01-2.402.402zm.01-12.689c-.573 0-1.141.097-1.698.286a5.191 5.191 0 00-3.001 2.659 5.222 5.222 0 00-.248 4.009 5.218 5.218 0 002.646 3.015 5.145 5.145 0 003.989.25 5.193 5.193 0 003-2.659 5.218 5.218 0 00.248-4.009 5.233 5.233 0 00-2.645-3.016 5.188 5.188 0 00-2.291-.535zM99.777 260.068a1.093 1.093 0 01-.355-2.124l23.822-8.207a1.084 1.084 0 011.379.678 1.088 1.088 0 01-.675 1.385l-23.822 8.207a1.07 1.07 0 01-.35.061z" fill="#1A1A1A"/><path d="M249.024 131.515l-1.799 3.708-3.705-1.823c-3.766-1.849-8.307-.286-10.152 3.494-1.84 3.785-.284 8.349 3.477 10.203l17.334 8.527 6.65-13.692 1.815-3.729c1.839-3.779.283-8.344-3.477-10.193-3.761-1.849-8.308-.28-10.143 3.505z" fill="#9274FF"/><path d="M149.242 202.871l3.092 9.067-88.699 30.553-3.959-11.614a448.948 448.948 0 0117.046-7.269c11.576-4.63 23.381-8.721 35.444-12.185 1.247-.361 2.519-.713 3.776-1.054 10.928-3.082 22.063-5.894 33.3-7.498z" fill="#1A1A1A"/><path d="M63.632 243.573c-.451 0-.872-.286-1.03-.739L58.64 231.22a1.092 1.092 0 01.583-1.35 459.07 459.07 0 0117.086-7.289c11.81-4.727 23.771-8.838 35.546-12.221a320.75 320.75 0 013.786-1.059c9.797-2.756 21.44-5.807 33.437-7.524a1.09 1.09 0 011.181.729l3.092 9.067a1.088 1.088 0 01-.675 1.385l-88.699 30.554a1 1 0 01-.344.061zm-2.61-12.119l3.284 9.638 86.646-29.845-2.448-7.178c-11.561 1.717-22.783 4.666-32.276 7.336-1.257.346-2.524.692-3.766 1.054-11.714 3.367-23.6 7.452-35.343 12.149a466.37 466.37 0 00-16.097 6.846z" fill="#1A1A1A"/><path d="M107.18 150.944s-5.15-8.16-18.886-15.449c-13.73-7.269-38.546 3.988-32.063 25.087 2.945 9.541 7.283 15.333 12.696 18.292l12.616 42.83a434.767 434.767 0 00-4.81 1.9 19.793 19.793 0 006.194 2.802 20.02 20.02 0 003.908.698c7.36.708 15.367-1.804 21.237-6.317.37-.28.735-.565 1.079-.861 3.158-2.664 5.586-5.924 6.797-9.561a248.6 248.6 0 00-3.776 1.054c-1.713.479-3.416.999-5.099 1.513l-10.664-36.014c13.193-6.831 6.939-21.211 6.939-21.211l3.832-4.763z" fill="#fff"/><path d="M89.364 228.313c-.887 0-1.764-.041-2.635-.127a20.935 20.935 0 01-4.1-.734 20.645 20.645 0 01-6.509-2.944 1.103 1.103 0 01-.471-1.024 1.09 1.09 0 01.68-.896c1.292-.52 2.579-1.035 3.887-1.544L68.01 179.605c-5.763-3.321-9.96-9.444-12.814-18.705-2.686-8.73-.36-16.957 6.377-22.581 7.612-6.352 19.32-7.982 27.228-3.795 13.837 7.341 19.083 15.486 19.301 15.827a1.1 1.1 0 01-.071 1.273l-3.442 4.279c1.029 2.909 4.471 15.053-6.883 21.548l10.102 34.113c1.409-.428 2.742-.83 4.08-1.202a200.62 200.62 0 013.781-1.054c.39-.102.801.01 1.074.305.274.296.365.714.239 1.096-1.227 3.677-3.69 7.151-7.132 10.05-.329.285-.699.57-1.064.85-5.591 4.295-12.666 6.704-19.423 6.704zm-10.187-4.508a18.84 18.84 0 004.019 1.543c1.227.347 2.468.571 3.72.668 6.898.667 14.739-1.671 20.497-6.093.385-.295.72-.55 1.029-.82 2.504-2.114 4.435-4.533 5.667-7.096-.548.153-1.095.306-1.632.464-1.658.464-3.295.963-4.912 1.457-.273.081-.664.081-.917-.056-.254-.138-.532-.347-.613-.622l-10.664-36.013a1.1 1.1 0 01.542-1.284c12.144-6.291 6.68-19.255 6.442-19.805a1.094 1.094 0 01.152-1.126l3.32-4.121c-1.5-2.017-6.924-8.542-18.034-14.436-7.172-3.8-17.846-2.277-24.826 3.545-3.542 2.955-8.991 9.516-5.691 20.254 2.747 8.899 6.73 14.675 12.174 17.655.254.138.441.372.522.647l12.616 42.83a1.09 1.09 0 01-.654 1.329c-.928.352-1.845.713-2.757 1.08z" fill="#1A1A1A"/><path d="M87.56 126.245c4.13 8.705-9.696 26.758-15.875 30.528-4.653 2.837-1.003 9.184 3.483 9.097 4.014-.081-1.166 10.209-3.037 11.721-.81.652-1.682 1.162-2.574 1.62-5.708-2.847-10.274-8.715-13.33-18.628-3.057-9.928 3.578-21.257 10.43-30.019 6.914-8.837 14.09-15.016 20.903-4.319z" fill="#1A1A1A"/><path d="M400.433 113.399c-1.155 5.588-3.314 9.133-6.219 11.125l3.731 26.636-14.775 2.389-4.156-28.429c-7.871-3.163-5.662-11.864-5.662-11.864l-2.427-2.491s2.468-4.92 9.883-9.836c7.41-4.92 22.155.122 19.625 12.47z" fill="#fff"/><path d="M383.172 154.629c-.228 0-.456-.072-.644-.209a1.092 1.092 0 01-.431-.724l-4.07-27.828c-5.975-2.76-6.502-8.873-5.864-12.281l-2.017-2.068a1.096 1.096 0 01-.193-1.258c.107-.214 2.687-5.237 10.254-10.254 4.41-2.924 11.384-2.65 16.214.642 4.313 2.934 6.158 7.661 5.074 12.969-1.09 5.272-3.148 9.102-6.118 11.395l3.639 25.989a1.094 1.094 0 01-.902 1.232l-14.775 2.389c-.055.006-.111.006-.167.006zm-10.887-44.042l1.845 1.89c.263.27.37.662.274 1.034-.077.315-1.861 7.819 5.012 10.58.36.142.614.468.674.855l3.994 27.334 12.636-2.042-3.583-25.577c-.056-.412.121-.82.466-1.054 2.788-1.905 4.729-5.42 5.768-10.443 1.232-6.016-2.078-9.296-4.161-10.717-4.146-2.822-10.082-3.092-13.802-.622-5.494 3.642-8.191 7.305-9.123 8.762zm28.145 2.806h.021-.021z" fill="#1A1A1A"/><path d="M380.753 96.875c-1.87 5.18.877 13.193 4.602 14.991 2.803 1.355 1.08 5.17-1.48 5.369.147 7.126 9.433 7.295 9.965 7.509 3.087-1.936 5.363-5.527 6.554-11.334.74-3.607 3.766-10.438-2.469-12.297-2.407-4.559-5.955-7.442-8.561-4.31-3.056-5.027-6.462-4.569-8.611.072z" fill="#1A1A1A"/><path d="M375.978 146.798l2.605-4.905 22.063.112 3.477 6.82-13.862 5.42-14.283-7.447z" fill="#fff"/><path d="M390.256 155.333c-.172 0-.345-.041-.502-.123l-14.283-7.447a1.078 1.078 0 01-.537-.647 1.12 1.12 0 01.076-.84l2.605-4.906a1.08 1.08 0 01.958-.575h.005l22.063.117c.406 0 .776.229.963.596l3.477 6.816c.142.275.157.596.051.886-.112.29-.335.519-.623.632l-13.863 5.419a1.123 1.123 0 01-.39.072zm-12.808-8.996l12.869 6.709 12.286-4.804-2.626-5.15-20.75-.112-1.779 3.357z" fill="#1A1A1A"/><path d="M424.603 182.737c7.248 1.65 15.337 5.822 19.397 10.065 8.591 8.981-2.19 15.766-12.697 19.107-1.52-2.063-4.344-8.129-9.873-10.442l-1.967 12.516c-3.533.565-6.66.952-8.829 1.207-21.511 2.516-11.8 9.403 5.575 22.377 10.482 7.83 40.057-.723 53.311-12.851 12.073-11.054 15.57-26.631 7.334-40.563-15.981-27.033-62.627-37.751-95.643-36.946-32.849.8-75.86 10.911-83.747 41.174-8.11 31.123 24.613 57.27 61.704 53.16 20.867-2.313 14.496-28.17-5.489-27.599.345-5.863-.112-10.728-2.524-10.937-6.027-.529-6.508 7.794-11.475 9.042-8.652-4.218-12.93-13.83-6.812-21.746 3.735-4.834 11.845-8.242 19.179-9.984" fill="#fff"/><path d="M351.432 243.062c-18.439 0-35.733-7.188-46.427-19.637-8.804-10.244-11.856-22.785-8.586-35.316 7.719-29.621 48.85-41.113 84.771-41.989 36.488-.882 81.364 11.7 96.6 37.481 8.287 14.023 5.398 30.084-7.537 41.927-13.527 12.379-43.609 21.206-54.689 12.924l-.988-.739c-11.475-8.568-18.404-13.738-17.238-18.114.76-2.858 4.703-4.498 13.173-5.491 2.098-.245 4.861-.586 8.003-1.075l1.84-11.731c.051-.331.253-.616.542-.785a1.09 1.09 0 01.948-.056c4.79 2.002 7.643 6.566 9.351 9.297.198.316.376.606.543.866 7.932-2.649 13.188-6.398 14.131-10.107.557-2.195-.34-4.533-2.651-6.953-3.872-4.044-11.8-8.15-18.85-9.755a1.09 1.09 0 01-.821-1.304c.132-.59.705-.957 1.298-.825 7.542 1.717 15.742 5.986 19.939 10.371 2.869 3.001 3.943 6.032 3.193 9.006-1.606 6.342-10.927 10.178-16.341 11.9a1.086 1.086 0 01-1.201-.393c-.304-.412-.659-.978-1.074-1.64-1.49-2.389-3.67-5.873-7.081-7.819l-1.733 11.059c-.076.464-.436.83-.903.907-3.507.565-6.584.942-8.875 1.212-8.778 1.029-11.003 2.679-11.328 3.887-.78 2.939 7.198 8.899 16.432 15.796l.989.738c10.091 7.539 39.113-1.054 51.932-12.785 12.129-11.1 14.861-26.122 7.131-39.198-14.81-25.062-58.82-37.307-94.68-36.416-35.13.856-75.308 11.904-82.723 40.354-3.076 11.818-.187 23.656 8.13 33.339 11.744 13.667 31.825 20.738 52.403 18.461 9.296-1.029 12.241-6.74 11.896-11.742-.476-6.953-7.121-13.998-17.233-13.682a1.144 1.144 0 01-.811-.331 1.084 1.084 0 01-.304-.825c.542-9.332-1.323-9.77-1.536-9.786-1.064-.091-1.824-.035-2.574.464-.137.092-.376.402-.507.509-.938.764-1.713 1.9-2.54 3.123-1.414 2.099-2.873 4.263-5.489 4.921a1.078 1.078 0 01-.735-.077c-5.114-2.491-8.829-6.841-9.944-11.639-.958-4.121-.01-8.186 2.752-11.757 4.851-6.281 15.454-9.347 19.788-10.376a1.081 1.081 0 011.307.815 1.094 1.094 0 01-.806 1.314c-8.56 2.027-15.504 5.613-18.576 9.587-2.341 3.03-3.152 6.459-2.347 9.922.943 4.05 4.07 7.758 8.404 9.99 1.607-.581 2.702-2.206 3.857-3.918 1.703-2.526 3.604-5.414 7.613-5.043 3.482.306 3.781 6.083 3.573 10.932 10.817.234 17.76 8.013 18.293 15.715.395 5.735-2.991 12.862-13.827 14.064a76.342 76.342 0 01-7.877.423z" fill="#1A1A1A"/><path d="M305.009 466.9h47.68l4.485-35.137-34.577 5.654-4.029 15.083c-.006 0-13.3 2.964-13.559 14.4z" fill="#fff"/><path d="M352.696 468h-47.68c-.294 0-.572-.117-.775-.326a1.106 1.106 0 01-.309-.79c.243-10.625 10.968-14.451 13.751-15.266l3.867-14.477c.111-.412.451-.723.872-.794l34.582-5.655c.34-.061.684.056.928.296.248.239.365.58.324.922l-4.486 35.137a1.08 1.08 0 01-1.074.953zm-46.519-2.18h45.561l4.182-32.734-32.449 5.308-3.847 14.406a1.08 1.08 0 01-.811.779c-.497.107-11.612 2.725-12.636 12.241z" fill="#1A1A1A"/><path d="M326.621 452.416h-.04l-8.495-.321a1.085 1.085 0 01-1.044-1.131c.025-.601.583-1.085 1.125-1.049l8.495.321c.598.02 1.069.53 1.044 1.131a1.083 1.083 0 01-1.085 1.049z" fill="#1A1A1A"/><path d="M408.018 466.9h51.415l-7.74-33.222-34.577 5.654 4.46 13.168c-.005 0-13.295 2.964-13.558 14.4z" fill="#fff"/><path d="M459.433 467.997h-51.415c-.294 0-.573-.117-.776-.326a1.11 1.11 0 01-.309-.79c.228-10.06 9.858-14.023 13.244-15.108l-4.09-12.078a1.108 1.108 0 01.096-.912 1.09 1.09 0 01.755-.514l34.583-5.654a1.08 1.08 0 011.232.83l7.739 33.222c.076.326 0 .668-.208.927-.207.25-.522.403-.851.403zm-50.254-2.18h48.885l-7.197-30.89-32.312 5.288 4.045 11.945c.101.295.066.616-.081.886-.147.27-.411.464-.71.53-.491.107-11.607 2.725-12.63 12.241z" fill="#1A1A1A"/><path d="M426.448 452.136h-.05l-5.414-.265a1.088 1.088 0 01-1.029-1.146c.031-.601.558-1.085 1.136-1.039l5.413.265c.598.03 1.059.54 1.029 1.146a1.085 1.085 0 01-1.085 1.039zM357.035 228.99c-1.409 0-2.56-.392-3.498-1.003a2499.382 2499.382 0 00-34.42 215.558c-.045.397-.071.795-.106 1.192h40.32a2502.9 2502.9 0 0127.963-178.623c5.788 60.282 15.296 120.018 28.556 178.623h41.785a1365.93 1365.93 0 01-33.108-215.747h-67.492z" fill="#1A1A1A"/><path d="M352.039 180.319c-1.207 20.065-1.84 36.309-3.178 57.352l77.989 1.778c-.771-18.812-1.855-47.124-2.864-66.196" fill="#fff"/><path d="M426.878 240.535h-.025l-77.994-1.778a1.084 1.084 0 01-1.06-1.156c.735-11.548 1.268-21.817 1.779-31.745.431-8.283.857-16.555 1.399-25.607.036-.601.497-1.049 1.151-1.024a1.092 1.092 0 011.019 1.156c-.543 9.042-.968 17.309-1.399 25.587-.497 9.607-1.009 19.53-1.708 30.635l75.703 1.727-.431-10.631c-.699-17.376-1.571-38.999-2.387-54.393a1.087 1.087 0 011.029-1.146 1.068 1.068 0 011.14 1.034c.816 15.409 1.688 37.038 2.387 54.418l.482 11.792a1.083 1.083 0 01-1.085 1.131z" fill="#1A1A1A"/><path d="M392.858 267.228h-5.56a1.089 1.089 0 01-1.085-1.09c0-.601.487-1.09 1.085-1.09h5.56c.598 0 1.085.489 1.085 1.09 0 .601-.482 1.09-1.085 1.09zm-44.443-63.771c.213 2.853.467 5.7.72 8.548 1.47-2.665 3.132-4.738 3.654-6.062.867-2.181-1.023-4.641-4.374-2.486z" fill="#fff"/><path d="M341.826 229.318a1.094 1.094 0 01-.608-1.997c.152-.107 3.821-2.72 4.429-8.349.502-4.65 2.915-8.308 4.674-10.977.659-1.003 1.231-1.864 1.459-2.45.259-.652.122-1.345-.324-1.651-.588-.402-1.738-.499-3.639 1.33-.431.418-1.343.683-1.754.25-.416-.433-.228-1.36.203-1.778 3.558-3.433 5.758-2.043 6.401-1.61 1.308.887 1.774 2.639 1.131 4.269-.315.794-.913 1.701-1.673 2.852-1.637 2.481-3.877 5.884-4.323 10.005-.715 6.663-5.175 9.785-5.368 9.918a1.036 1.036 0 01-.608.188zm-16.727 8.132a1.095 1.095 0 01-.994-1.528l11.293-26.163c.238-.555.872-.81 1.429-.565.548.239.801.881.563 1.436l-11.293 26.163a1.086 1.086 0 01-.998.657zm113.462 2.134c-.502 0-.953-.351-1.059-.866l-5.51-26.182a1.09 1.09 0 01.836-1.294 1.09 1.09 0 011.288.84l5.509 26.183a1.09 1.09 0 01-1.064 1.319zm-100.315-52.381a1.07 1.07 0 01-.811-.367l-20.102-22.683a1.099 1.099 0 01.087-1.543 1.084 1.084 0 011.535.091l20.102 22.683c.401.449.36 1.141-.086 1.544a1.114 1.114 0 01-.725.275zm92.813-2.282c-.187 0-.375-.046-.547-.148a1.095 1.095 0 01-.391-1.493l13.827-23.859a1.077 1.077 0 011.485-.393c.517.306.695.973.391 1.493l-13.827 23.86c-.198.346-.563.54-.938.54z" fill="#1A1A1A"/><path d="M326.192 83.53a1.092 1.092 0 01-.771-1.864l7.537-7.575a1.08 1.08 0 011.536 0 1.092 1.092 0 010 1.544l-7.537 7.574a1.064 1.064 0 01-.765.321z" fill="#fff"/><path d="M61.623 331.024c-.253 0-.507-.087-.71-.265l-9.853-8.578a1.094 1.094 0 01-.111-1.539 1.086 1.086 0 011.53-.112l9.854 8.578c.456.398.502 1.085.111 1.539a1.086 1.086 0 01-.82.377zm2.629 10.548c-.254 0-.507-.087-.71-.265l-9.853-8.583a1.095 1.095 0 01-.111-1.539 1.086 1.086 0 011.53-.112l9.853 8.584c.457.397.502 1.085.112 1.538-.213.25-.517.377-.821.377z" fill="#1A1A1A"/><defs><linearGradient id="paint0_linear" x1="368.616" y1="271.316" x2="381.036" y2="127.029" gradientUnits="userSpaceOnUse"><stop stop-color="#6A46F0" stop-opacity="0"/><stop offset="1" stop-color="#825FFF"/></linearGradient></defs></svg>