<svg width="801" height="733" viewBox="0 0 801 733" fill="none" xmlns="http://www.w3.org/2000/svg">
<g filter="url(#filter0_d)">
<path d="M540.266 389C463.222 389 400.766 326.544 400.766 249.5C400.766 172.456 463.222 110 540.266 110C617.309 110 679.766 172.456 679.766 249.5C679.766 326.544 617.309 389 540.266 389Z" fill="url(#paint0_linear)"/>
<path d="M382.266 379C305.222 379 242.766 316.544 242.766 239.5C242.766 162.456 305.222 100 382.266 100C459.309 100 521.766 162.456 521.766 239.5C521.766 316.544 459.309 379 382.266 379Z" fill="url(#paint1_linear)"/>
<path d="M462.266 503C385.222 503 322.766 440.544 322.766 363.5C322.766 286.456 385.222 224 462.266 224C539.309 224 601.766 286.456 601.766 363.5C601.766 440.544 539.309 503 462.266 503Z" fill="url(#paint2_linear)"/>
<path d="M456.269 375.942H515.416C515.115 368.316 514.708 360.101 514.4 350.934C514.4 350.934 512.384 302.068 505.612 300.562C502.558 299.883 501.571 305.786 501.41 312.467C500.64 304.008 499.148 295.555 496.256 295.093C491.137 294.281 490.45 309.673 490.429 320.178C490.198 309.862 489.169 294.54 485.135 293.335C478.356 291.311 479.071 304.281 480.345 328.994C480.345 328.994 477.194 312.446 468.636 310.899C462.159 309.729 456.927 311.963 459.056 316.753C461.185 321.543 468.986 318.14 470.051 328.784C471.115 339.429 454.735 337.293 454.812 327.65C454.84 324.008 460.352 319.764 457.628 317.208C450.849 310.85 437.886 327.082 455.331 352.412C456.164 360.269 456.493 368.113 456.269 375.942Z" fill="white"/>
<path d="M515.417 377.203H456.27C455.927 377.203 455.605 377.063 455.367 376.817C455.129 376.572 455.002 376.243 455.009 375.9C455.227 368.337 454.918 360.592 454.106 352.874C441.452 334.338 444.652 320.892 449.918 316.361C452.257 314.351 455.058 314.043 457.362 315.444C457.187 314.127 457.489 312.923 458.266 311.928C460.038 309.673 464.099 308.812 468.854 309.666C473.462 310.5 476.592 315.017 478.595 319.449C477.888 304.078 477.979 295.366 481.333 292.726C482.454 291.844 483.855 291.648 485.486 292.131C486.551 292.446 488.834 293.125 490.332 302.313C491.047 298.399 492.104 295.906 493.512 294.708C494.366 293.98 495.388 293.686 496.446 293.854C498.049 294.113 499.933 295.527 501.383 302.845C501.957 301.151 502.629 300.38 503.211 299.925C503.988 299.316 504.905 299.113 505.886 299.33C513.05 300.92 515.179 339.191 515.662 350.879C515.858 356.663 516.089 362.069 516.313 367.181C516.446 370.172 516.572 373.071 516.677 375.886C516.691 376.229 516.565 376.558 516.327 376.811C516.089 377.063 515.76 377.203 515.417 377.203ZM457.559 374.675H514.1C514.002 372.28 513.897 369.822 513.785 367.294C513.561 362.174 513.33 356.761 513.134 350.977C512.188 327.951 508.932 302.593 505.333 301.795C505.094 301.739 504.94 301.774 504.758 301.914C504.198 302.355 502.86 304.267 502.664 312.503C502.65 313.168 502.111 313.707 501.446 313.735C500.655 313.749 500.206 313.252 500.15 312.587C498.729 296.949 496.159 296.361 496.054 296.347C495.71 296.291 495.444 296.382 495.15 296.627C493.869 297.719 491.719 302.229 491.684 320.185C491.684 320.878 491.124 321.438 490.437 321.445C490.437 321.445 490.43 321.445 490.423 321.445C489.737 321.445 489.177 320.899 489.163 320.213C488.624 296.382 485.164 294.666 484.772 294.554C483.693 294.232 483.182 294.491 482.902 294.715C479.954 297.033 480.64 310.241 481.579 328.511L481.6 328.938C481.635 329.597 481.151 330.178 480.493 330.255C479.891 330.36 479.233 329.891 479.107 329.24C479.079 329.078 476.018 313.525 468.413 312.152C464.695 311.473 461.417 312.012 460.255 313.49C460.052 313.749 459.442 314.526 460.206 316.256C460.78 317.552 461.928 318.042 463.763 318.742C466.634 319.842 470.57 321.34 471.305 328.672C471.62 331.824 470.577 334.38 468.35 335.857C465.738 337.594 461.795 337.58 458.539 335.815C455.339 334.086 453.525 331.109 453.553 327.657C453.567 325.808 454.61 324.043 455.612 322.349C456.977 320.038 457.538 318.875 456.767 318.154C455.227 316.718 453.336 316.76 451.571 318.287C447.145 322.097 444.54 334.534 456.375 351.719C456.494 351.894 456.564 352.09 456.592 352.3C457.383 359.779 457.713 367.307 457.559 374.675ZM459.596 319.456C459.4 320.878 458.532 322.342 457.769 323.63C456.935 325.045 456.067 326.508 456.06 327.678C456.039 330.171 457.376 332.328 459.722 333.602C462.145 334.912 465.108 334.975 466.935 333.756C468.364 332.811 468.994 331.137 468.777 328.924C468.196 323.14 465.598 322.153 462.846 321.102C461.76 320.682 460.584 320.234 459.596 319.456Z" fill="#1A1A1A"/>
<path d="M490.751 329.974C490.079 329.974 489.519 329.442 489.491 328.763L489.161 320.233C489.133 319.533 489.68 318.952 490.373 318.924C490.387 318.924 490.408 318.924 490.422 318.924C491.094 318.924 491.654 319.456 491.682 320.135L492.012 328.665C492.04 329.365 491.493 329.946 490.8 329.974C490.779 329.974 490.765 329.974 490.751 329.974Z" fill="#1A1A1A"/>
<path d="M501.739 333.385C501.053 333.385 500.493 332.839 500.479 332.146L500.136 312.495C500.122 311.795 500.675 311.221 501.375 311.214C501.957 311.207 502.65 311.753 502.657 312.453L503 332.104C503.014 332.804 502.461 333.378 501.76 333.385C501.753 333.385 501.746 333.385 501.739 333.385Z" fill="#1A1A1A"/>
<path d="M507.959 448.583C494.107 479.971 465.598 500.349 432.075 505.545C409.469 509.026 385.729 504.46 365.323 493.892V631.206H188.576C188.576 631.206 187.238 453.149 188.576 422.568C188.674 420.172 188.8 417.623 188.954 414.976C186.706 415.831 184.514 416.741 182.322 417.672C167.966 423.877 139.765 433.387 147.231 456.826C148.617 461.217 151.747 464.396 155.529 467.043C151.768 489.446 148.337 511.897 144.758 534.348C137.594 531.575 130.683 528.144 124.121 523.802C93.5951 503.62 75.0513 469.361 81.564 432.449C87.3905 399.297 116.053 377.399 144.758 363.855C177.959 348.189 257.177 336.985 260.804 338.448C265.244 337.972 269.964 337.643 274.957 337.517C285.202 337.237 309.292 339.155 328.487 346.046C344.685 351.698 359.307 363.484 366.646 380.886C372.396 394.507 374.252 415.214 385.884 426.013C398.146 437.414 410.884 440.747 425.541 437.897C435.429 435.978 444.561 428.135 448.602 413.625C453.196 397.154 454.785 380.501 454.155 363.778C454.435 363.806 454.659 363.855 454.94 363.855H517.63C519.107 398.253 520.368 420.481 507.959 448.583Z" fill="white"/>
<path d="M365.322 632.474H188.568C187.875 632.474 187.314 631.914 187.307 631.22C187.293 629.441 185.984 452.778 187.307 422.519C187.384 420.712 187.475 418.821 187.581 416.867C185.977 417.505 184.387 418.163 182.805 418.835C181.67 419.325 180.438 419.844 179.142 420.383C164.31 426.595 141.9 435.971 148.42 456.448C149.555 460.034 152.034 463.073 156.242 466.014C156.642 466.294 156.845 466.777 156.761 467.254C154.17 482.709 151.684 498.459 149.288 513.69C148.196 520.644 147.097 527.598 145.99 534.552C145.927 534.923 145.703 535.259 145.374 535.448C145.045 535.637 144.646 535.672 144.288 535.532C136.585 532.549 129.757 529.061 123.413 524.867C90.5759 503.158 74.056 467.667 80.3026 432.246C86.5422 396.769 118.497 374.857 144.197 362.728C175.865 347.783 252.974 335.773 260.852 337.188C265.439 336.698 270.166 336.39 274.907 336.271C285.699 335.97 309.894 338.049 328.9 344.87C346.708 351.089 360.889 364.037 367.794 380.41C369.657 384.829 371.092 389.878 372.605 395.221C375.777 406.419 379.062 417.995 386.716 425.103C398.292 435.859 410.547 439.543 425.274 436.672C435.743 434.641 443.79 426.125 447.361 413.303C451.731 397.63 453.531 381.454 452.866 363.834C452.852 363.47 452.999 363.12 453.258 362.875C453.524 362.623 453.86 362.518 454.238 362.532L454.567 362.567C454.679 362.581 454.784 362.602 454.903 362.602H517.594C518.266 362.602 518.826 363.134 518.854 363.806L518.945 365.977C520.395 399.297 521.347 421.307 509.078 449.081C495.296 480.321 467.285 501.351 432.235 506.785C410.624 510.112 387.374 506.26 366.554 495.938V631.199C366.582 631.907 366.015 632.474 365.322 632.474ZM189.821 629.953H364.054V493.893C364.054 493.452 364.286 493.045 364.664 492.814C365.035 492.583 365.511 492.569 365.896 492.772C386.716 503.557 410.148 507.646 431.878 504.299C466.059 499.005 493.371 478.507 506.802 448.072C518.833 420.838 517.881 399.059 516.452 366.096L516.41 365.13H455.45C455.982 382.476 454.133 398.471 449.805 413.982C445.975 427.764 437.214 436.938 425.771 439.151C410.176 442.169 397.22 438.31 385.014 426.952C376.842 419.36 373.459 407.441 370.189 395.908C368.69 390.641 367.283 385.669 365.476 381.384C358.753 365.438 345.469 353.316 328.059 347.237C309.368 340.528 285.601 338.512 274.977 338.785C270.236 338.904 265.509 339.219 260.922 339.709C260.719 339.723 260.509 339.702 260.313 339.625C255.684 338.428 178.337 349.401 145.276 364.997C120.107 376.874 88.8392 398.254 82.7816 432.673C76.7171 467.085 92.8098 501.603 124.792 522.752C130.584 526.582 136.788 529.811 143.735 532.598C144.758 526.162 145.773 519.727 146.788 513.291C149.148 498.312 151.585 482.828 154.135 467.604C149.842 464.466 147.251 461.147 146.004 457.197C138.784 434.522 163.427 424.207 178.155 418.044C179.436 417.505 180.662 416.993 181.796 416.503C184.016 415.565 186.222 414.648 188.477 413.786C188.869 413.632 189.324 413.695 189.674 413.947C190.025 414.199 190.214 414.612 190.193 415.033C190.039 417.673 189.912 420.215 189.814 422.61C188.568 451.483 189.709 613.972 189.821 629.953Z" fill="#1A1A1A"/>
<path d="M247.267 631.234C246.567 631.234 246.007 630.667 246.007 629.973V339.681C246.007 338.981 246.574 338.42 247.267 338.42C247.96 338.42 248.528 338.988 248.528 339.681V629.973C248.528 630.667 247.967 631.234 247.267 631.234Z" fill="#1A1A1A"/>
<path d="M297.883 542.815H247.637V630.464H297.883V542.815Z" fill="#1A1A1A"/>
<path d="M296.98 631.234C296.279 631.234 295.719 630.667 295.719 629.974V340.291C295.719 339.59 296.286 339.03 296.98 339.03C297.673 339.03 298.24 339.598 298.24 340.291V629.974C298.24 630.667 297.68 631.234 296.98 631.234Z" fill="#1A1A1A"/>
<path d="M277.855 538.543C277.155 538.543 276.595 537.976 276.595 537.283V438.366C276.595 437.666 277.162 437.106 277.855 437.106C278.549 437.106 279.116 437.673 279.116 438.366V537.283C279.116 537.976 278.549 538.543 277.855 538.543Z" fill="#1A1A1A"/>
<path d="M294.171 291.382C292.75 291.151 291.321 290.927 289.9 290.696C288.359 290.451 286.783 291.095 286.335 292.72C286.216 293.154 286.258 293.637 286.363 294.106C285.656 294.807 285.271 295.766 285.565 296.845C285.95 298.245 287.659 299.422 289.129 298.868C290.81 298.238 296.37 294.414 296.37 293.056C296.37 291.879 295.411 291.585 294.171 291.382Z" fill="#1A1A1A"/>
<path d="M285.201 264.75C277.826 262.299 249.584 252.733 246.271 250.093C253.435 235.309 268.94 232.795 282.581 238.468C297.197 244.546 304.501 260.051 298.793 274.722C294.493 272.929 290.215 269.701 285.201 264.75Z" fill="#1A1A1A"/>
<path d="M282.589 238.468C296.427 244.224 303.458 259.434 299.312 273.489C299.55 273.566 299.774 273.601 300.012 273.699C311.154 278.328 310.678 297.894 289.872 291.221C288.962 291.9 288.051 292.586 287.071 293.153L291.357 338.392L261.496 385.48L253.177 337.972L249.682 292.334C241.356 284.274 237.063 271.745 244.605 254.154C252.231 236.332 267.764 232.305 282.589 238.468Z" fill="white"/>
<path d="M261.484 386.734C261.4 386.734 261.323 386.727 261.239 386.706C260.727 386.608 260.335 386.202 260.244 385.683L251.925 338.168L248.451 292.88C241.385 285.849 234.957 273.405 243.43 253.629C250.685 236.703 266.239 230.295 283.067 237.284C297.024 243.089 304.503 258.146 300.833 272.67C307.318 275.576 309.741 282.712 307.913 287.684C307.108 289.883 303.459 296.648 290.098 292.6C289.537 293.013 288.977 293.427 288.389 293.798L292.598 338.252C292.626 338.533 292.556 338.813 292.409 339.044L262.548 386.132C262.317 386.517 261.911 386.734 261.484 386.734ZM269.81 236.997C259.39 236.997 250.678 243.166 245.755 254.644C237.709 273.412 243.92 285.002 250.552 291.424C250.776 291.641 250.909 291.928 250.937 292.236L254.432 337.874L262.17 382.056L290.056 338.084L285.812 293.273C285.763 292.782 286.008 292.313 286.435 292.061C287.339 291.536 288.186 290.906 289.075 290.24C289.397 289.995 289.867 289.897 290.252 290.016C298.165 292.558 303.879 291.361 305.546 286.83C306.975 282.95 304.846 277.082 299.517 274.862C299.159 274.764 299.026 274.729 298.9 274.687C298.256 274.47 297.899 273.783 298.095 273.132C302.115 259.497 295.238 245.092 282.1 239.63C277.843 237.858 273.704 236.997 269.81 236.997Z" fill="#1A1A1A"/>
<path d="M290.151 258.972C283.848 257.109 260.879 247.305 255.865 236.78C250.122 206.723 276.993 226.247 289.472 234.168C302.833 242.648 314.444 257.732 304.15 275.842C300.214 273.349 294.248 264.707 290.151 258.972Z" fill="#1A1A1A"/>
<path d="M261.754 299.75C261.691 299.75 261.621 299.743 261.551 299.736C257.532 299.092 252.924 296.151 248.953 293.356C248.379 292.957 248.246 292.166 248.645 291.599C249.044 291.025 249.835 290.891 250.403 291.291C253.925 293.763 258.421 296.676 261.957 297.243C262.644 297.355 263.113 297.999 263.008 298.693C262.896 299.309 262.364 299.75 261.754 299.75Z" fill="#1A1A1A"/>
<path d="M272.723 434.5H176.083V560.434H272.723V434.5Z" fill="white"/>
<path d="M272.723 561.695H176.082C175.382 561.695 174.822 561.128 174.822 560.435V434.501C174.822 433.801 175.389 433.24 176.082 433.24H272.723C273.423 433.24 273.983 433.808 273.983 434.501V560.428C273.99 561.128 273.423 561.695 272.723 561.695ZM177.343 559.167H271.462V435.761H177.343V559.167Z" fill="#1A1A1A"/>
<path d="M219.765 480.314C244.296 478.738 267.434 477.821 267.434 484.137C267.434 490.454 251.397 486.084 247.027 491.911C242.65 497.744 248 498.71 258.204 498.227C268.407 497.744 281.236 498.689 281.04 503.087C280.795 508.704 274.724 510.377 274.724 510.377C274.724 510.377 281.846 518.27 272.777 522.527C272.777 522.527 275.207 528.361 269.864 531.274C269.864 531.274 270.039 541.911 222.328 542.185C174.617 542.458 210.094 482.197 210.094 482.197L219.765 480.314Z" fill="white"/>
<path d="M222.013 543.446C210.647 543.446 202.909 540.021 199.022 533.256C189.029 515.889 208.189 482.947 209.009 481.554C209.191 481.246 209.499 481.021 209.856 480.958L219.527 479.082C219.583 479.075 219.632 479.068 219.688 479.061C246.551 477.338 262.966 477.156 267.406 481.316C268.246 482.107 268.695 483.087 268.695 484.145C268.695 488.571 263.491 489.054 258.463 489.516C254.402 489.894 249.801 490.314 248.036 492.674C247.013 494.04 246.558 495.16 246.831 495.665C247.266 496.491 249.591 497.38 258.141 496.974C262.525 496.757 277.126 496.4 281.167 500.427C281.951 501.211 282.343 502.149 282.301 503.151C282.105 507.654 278.8 509.951 276.72 510.952C277.749 512.514 279.073 515.182 278.513 517.962C278.085 520.084 276.671 521.835 274.311 523.165C274.955 525.693 274.815 529.678 270.992 532.087C270.809 532.696 270.382 533.585 269.402 534.587C265.543 538.537 254.241 543.27 222.335 543.453C222.223 543.446 222.118 543.446 222.013 543.446ZM210.899 483.325C208.56 487.478 192.566 516.981 201.207 532.003C204.618 537.92 211.614 540.925 222.013 540.925C222.111 540.925 222.216 540.925 222.321 540.925C267.105 540.672 268.597 531.324 268.604 531.225C268.597 530.756 268.849 530.392 269.262 530.168C273.45 527.885 271.818 523.501 271.615 523.011C271.363 522.388 271.636 521.673 272.245 521.393C274.444 520.364 275.719 519.033 276.041 517.458C276.636 514.488 273.821 511.26 273.786 511.232C273.492 510.91 273.394 510.455 273.513 510.035C273.632 509.614 273.961 509.285 274.381 509.173C274.591 509.117 279.577 507.654 279.78 503.046C279.787 502.85 279.752 502.583 279.388 502.219C277.287 500.125 268.611 499.012 258.26 499.502C249.661 499.908 245.823 499.173 244.597 496.862C243.414 494.635 245.375 492.03 246.012 491.176C248.456 487.919 253.645 487.443 258.232 487.023C263.169 486.568 266.174 486.148 266.174 484.159C266.174 483.914 266.117 483.578 265.683 483.171C261.18 478.949 234.387 480.657 219.933 481.589L210.899 483.325Z" fill="#1A1A1A"/>
<path d="M253.479 274.771C253.304 274.771 253.129 274.736 252.954 274.659L246.42 271.69C246.112 271.55 245.867 271.284 245.755 270.968C245.636 270.646 245.664 270.289 245.811 269.988C248.752 264.036 256.399 258.041 256.722 257.789C257.275 257.362 258.059 257.46 258.493 258.006C258.92 258.552 258.822 259.351 258.276 259.778C258.206 259.834 251.763 264.89 248.703 269.96L253.997 272.369C254.628 272.656 254.915 273.405 254.621 274.043C254.418 274.498 253.955 274.771 253.479 274.771Z" fill="#1A1A1A"/>
<path d="M299.431 263.553C299.116 262.124 297.715 261.116 296.328 261.179C296.552 260.555 296.777 259.925 296.994 259.302C298.247 255.779 292.652 254.267 291.405 257.761C289.753 262.404 287.918 267.026 286.44 271.732C285.523 274.652 285.25 278.049 288.079 280.059C294.921 284.912 299.634 271.088 301.027 266.837C301.567 265.205 300.663 264.036 299.431 263.553Z" fill="#1A1A1A"/>
<path d="M100.791 502.841C107.332 510.839 115.21 517.933 124.118 523.815C152.718 542.709 188.061 545.258 221.465 544.691V479.809C201.71 480.285 179.812 480.117 163.614 471.762C158.131 468.933 152.64 465.831 149.384 461.146" fill="white"/>
<path d="M213.413 546.028C183.538 546.028 150.54 542.786 123.425 524.872C114.412 518.92 106.471 511.77 99.8179 503.639C99.3767 503.1 99.4538 502.309 99.993 501.868C100.532 501.426 101.324 501.503 101.765 502.043C108.256 509.977 116.009 516.952 124.811 522.764C153.439 541.679 188.993 543.892 220.205 543.451V481.104C200.835 481.538 179.091 481.167 163.04 472.883C157.501 470.025 151.801 466.818 148.355 461.86C147.956 461.286 148.103 460.501 148.67 460.102C149.245 459.71 150.029 459.85 150.428 460.417C153.537 464.899 158.937 467.924 164.196 470.635C180.079 478.828 202.054 479.01 221.431 478.541C221.739 478.506 222.096 478.66 222.341 478.898C222.579 479.136 222.719 479.458 222.719 479.801V544.684C222.719 545.37 222.166 545.93 221.48 545.944C218.826 546 216.13 546.028 213.413 546.028Z" fill="#1A1A1A"/>
<path d="M248.31 513.115C247.645 513.115 247.084 512.59 247.049 511.918C247.014 511.217 247.547 510.629 248.247 510.594C248.436 510.587 267.239 509.642 274.627 509.116C275.264 509.067 275.93 509.593 275.972 510.286C276.021 510.979 275.495 511.581 274.802 511.63C267.393 512.156 248.562 513.101 248.373 513.108C248.352 513.115 248.331 513.115 248.31 513.115Z" fill="#1A1A1A"/>
<path d="M247.996 526.68C247.337 526.68 246.784 526.169 246.742 525.503C246.693 524.81 247.218 524.208 247.912 524.159C248.094 524.145 266.168 522.884 272.471 521.302C273.15 521.133 273.83 521.54 274.005 522.219C274.173 522.898 273.767 523.585 273.087 523.753C266.56 525.391 248.836 526.624 248.087 526.68C248.052 526.68 248.024 526.68 247.996 526.68Z" fill="#1A1A1A"/>
<path d="M249.764 535.552C248.889 535.552 248.427 535.51 248.357 535.503C247.664 535.44 247.159 534.824 247.222 534.131C247.285 533.438 247.923 532.94 248.595 532.989C248.658 532.996 255.248 533.536 269.289 529.873C269.968 529.684 270.654 530.104 270.829 530.776C271.004 531.449 270.605 532.142 269.926 532.317C258.959 535.174 252.433 535.552 249.764 535.552Z" fill="#1A1A1A"/>
<path d="M253.242 425.669H195.573V434.129H253.242V425.669Z" fill="#1A1A1A"/>
<path d="M253.24 435.389H195.571C194.87 435.389 194.31 434.822 194.31 434.129V425.669C194.31 424.969 194.877 424.409 195.571 424.409H253.24C253.94 424.409 254.5 424.976 254.5 425.669V434.129C254.5 434.829 253.94 435.389 253.24 435.389ZM196.831 432.868H251.979V426.937H196.831V432.868Z" fill="black"/>
<path d="M365 586.318C364.888 586.318 364.776 586.304 364.664 586.269L328.158 576.143C327.485 575.961 327.093 575.26 327.282 574.588C327.471 573.916 328.15 573.517 328.837 573.713L365.343 583.839C366.015 584.021 366.408 584.721 366.218 585.393C366.064 585.954 365.553 586.318 365 586.318Z" fill="#1A1A1A"/>
<path d="M188.492 586.318C187.981 586.318 187.498 586.003 187.309 585.498C187.064 584.847 187.4 584.119 188.051 583.874L215.208 573.748C215.86 573.502 216.588 573.832 216.833 574.49C217.078 575.141 216.742 575.869 216.091 576.115L188.933 586.241C188.786 586.297 188.639 586.318 188.492 586.318Z" fill="#1A1A1A"/>
<path d="M365.307 495.16C364.607 495.16 364.047 494.592 364.047 493.899V421.58C364.047 420.88 364.614 420.319 365.307 420.319C366.001 420.319 366.568 420.887 366.568 421.58V493.899C366.568 494.599 366.008 495.16 365.307 495.16Z" fill="#1A1A1A"/>
<path d="M188.953 416.244C188.253 416.244 187.693 415.677 187.693 414.984V405.439C187.693 404.738 188.26 404.178 188.953 404.178C189.653 404.178 190.214 404.745 190.214 405.439V414.984C190.214 415.684 189.646 416.244 188.953 416.244Z" fill="#1A1A1A"/>
<path d="M119.756 257.526C119.434 257.526 119.111 257.4 118.866 257.155L105.134 243.422C104.643 242.932 104.643 242.134 105.134 241.637L118.866 227.904C119.356 227.414 120.155 227.414 120.652 227.904L134.385 241.637C134.875 242.127 134.875 242.925 134.385 243.422L120.652 257.155C120.407 257.407 120.078 257.526 119.756 257.526ZM107.809 242.533L119.756 254.48L131.703 242.533L119.756 230.586L107.809 242.533Z" fill="#1A1A1A"/>
<path d="M567.503 547.394C567.181 547.394 566.859 547.268 566.614 547.023L554.254 534.663C553.764 534.172 553.764 533.374 554.254 532.877C554.744 532.387 555.542 532.387 556.04 532.877L568.4 545.237C568.89 545.727 568.89 546.526 568.4 547.023C568.148 547.275 567.826 547.394 567.503 547.394Z" fill="#1A1A1A"/>
<path d="M538.813 560.638C534.71 560.638 531.376 557.298 531.376 553.201C531.376 549.104 534.717 545.764 538.813 545.764C542.91 545.764 546.251 549.104 546.251 553.201C546.251 557.298 542.917 560.638 538.813 560.638ZM538.813 548.278C536.103 548.278 533.897 550.484 533.897 553.194C533.897 555.904 536.103 558.11 538.813 558.11C541.523 558.11 543.729 555.904 543.729 553.194C543.729 550.484 541.523 548.278 538.813 548.278Z" fill="#1A1A1A"/>
<path d="M198.407 466.238C200.766 466.238 202.678 464.326 202.678 461.967C202.678 459.607 200.766 457.695 198.407 457.695C196.047 457.695 194.135 459.607 194.135 461.967C194.135 464.326 196.047 466.238 198.407 466.238Z" fill="#1A1A1A"/>
<path d="M251.784 463.241H213.541C212.84 463.241 212.28 462.674 212.28 461.981C212.28 461.287 212.847 460.72 213.541 460.72H251.784C252.484 460.72 253.044 461.287 253.044 461.981C253.044 462.674 252.484 463.241 251.784 463.241Z" fill="#1A1A1A"/>
<path d="M330.334 466.42C330.222 466.42 330.11 466.406 329.998 466.371L312.659 461.539C312.112 461.392 311.734 460.888 311.734 460.328V421.966C311.734 421.265 312.302 420.705 312.995 420.705H347.106C347.806 420.705 348.367 421.272 348.367 421.966V460.328C348.367 460.888 347.995 461.385 347.456 461.539L330.684 466.371C330.572 466.399 330.453 466.42 330.334 466.42ZM314.262 459.368L330.334 463.843L345.853 459.375V423.226H314.262V459.368ZM347.113 460.328H347.141H347.113Z" fill="#1A1A1A"/>
<path d="M441.533 305.359C441.316 305.359 441.099 305.303 440.896 305.184L430.665 299.218C430.062 298.867 429.859 298.097 430.21 297.495C430.56 296.893 431.33 296.689 431.932 297.04L442.164 303.006C442.766 303.356 442.969 304.127 442.619 304.729C442.395 305.135 441.967 305.359 441.533 305.359Z" fill="white"/>
<path d="M452.312 297.496C451.815 297.496 451.339 297.194 451.143 296.704L441.268 272.019C441.009 271.375 441.324 270.639 441.969 270.38C442.613 270.114 443.348 270.436 443.607 271.081L453.482 295.766C453.741 296.41 453.426 297.145 452.781 297.405C452.627 297.468 452.466 297.496 452.312 297.496Z" fill="white"/>
<path d="M309.936 528.516H303.927C303.227 528.516 302.667 527.949 302.667 527.256C302.667 526.562 303.234 525.995 303.927 525.995H309.936C310.629 525.995 311.196 526.562 311.196 527.256C311.196 527.949 310.629 528.516 309.936 528.516Z" fill="#1A1A1A"/>
<path d="M309.936 593.034H303.927C303.227 593.034 302.667 592.467 302.667 591.774C302.667 591.08 303.234 590.513 303.927 590.513H309.936C310.629 590.513 311.196 591.08 311.196 591.774C311.196 592.467 310.629 593.034 309.936 593.034Z" fill="#1A1A1A"/>
<path d="M479.519 347.86C479.029 347.86 478.552 347.566 478.356 347.083C478.223 346.767 474.988 339.267 464.273 337.327C463.587 337.201 463.132 336.543 463.258 335.857C463.384 335.171 464.049 334.722 464.729 334.841C476.858 337.047 480.541 345.752 480.695 346.123C480.961 346.767 480.653 347.503 480.009 347.762C479.841 347.832 479.68 347.86 479.519 347.86Z" fill="#1A1A1A"/>
</g>
<defs>
<filter id="filter0_d" x="0" y="0" width="800.766" height="732.474" filterUnits="userSpaceOnUse" color-interpolation-filters="sRGB">
<feFlood flood-opacity="0" result="BackgroundImageFix"/>
<feColorMatrix in="SourceAlpha" type="matrix" values="0 0 0 0 0 0 0 0 0 0 0 0 0 0 0 0 0 0 127 0"/>
<feOffset dx="21"/>
<feGaussianBlur stdDeviation="50"/>
<feColorMatrix type="matrix" values="0 0 0 0 0.0949583 0 0 0 0 0.0739063 0 0 0 0 0.179167 0 0 0 1 0"/>
<feBlend mode="normal" in2="BackgroundImageFix" result="effect1_dropShadow"/>
<feBlend mode="normal" in="SourceGraphic" in2="effect1_dropShadow" result="shape"/>
</filter>
<linearGradient id="paint0_linear" x1="540.266" y1="435.818" x2="540.266" y2="128.053" gradientUnits="userSpaceOnUse">
<stop stop-color="white" stop-opacity="0.56"/>
<stop offset="1" stop-color="#FFBC26"/>
</linearGradient>
<linearGradient id="paint1_linear" x1="382.266" y1="425.818" x2="382.266" y2="118.053" gradientUnits="userSpaceOnUse">
<stop stop-color="#13AB50"/>
<stop offset="1" stop-color="#5FAE62"/>
</linearGradient>
<linearGradient id="paint2_linear" x1="462.266" y1="549.818" x2="446.266" y2="363" gradientUnits="userSpaceOnUse">
<stop stop-color="#6A46F0" stop-opacity="0"/>
<stop offset="1" stop-color="#825FFF"/>
</linearGradient>
</defs>
</svg>
