<svg width="66" height="45" viewBox="0 0 66 45" fill="none" xmlns="http://www.w3.org/2000/svg"><path d="M63.089 39.484H2.745a2.748 2.748 0 00-2.744 2.758A2.753 2.753 0 002.745 45h60.348a2.75 2.75 0 002.744-2.758 2.754 2.754 0 00-2.748-2.758z" fill="#E2E2E2"/><path d="M54.859 6.403h-4.115v5.512h4.115v27.57h5.484v-27.57c.005-3.039-2.456-5.512-5.484-5.512zm-39.769 0h-4.115c-3.024 0-5.485 2.473-5.485 5.512v27.57h5.485v-27.57h4.114V6.403z" fill="#E2E2E2"/><path d="M42.955 13.41H22.882a1.65 1.65 0 01-1.644-1.656 1.65 1.65 0 011.644-1.654h20.073a1.65 1.65 0 011.644 1.654 1.65 1.65 0 01-1.644 1.655z" fill="#603FD5"/><path d="M32.92 23.509a1.65 1.65 0 01-1.644-1.655v-20.2A1.65 1.65 0 0132.921 0a1.65 1.65 0 011.644 1.655v20.199a1.65 1.65 0 01-1.644 1.655z" fill="#603FD5"/></svg>