<svg width="41" height="45" viewBox="0 0 41 45" fill="none" xmlns="http://www.w3.org/2000/svg"><g filter="url(#filter0_b)"><path d="M18.229 24.404a2.02 2.02 0 00-1.872 1.255 2.042 2.042 0 00.44 2.216 2.024 2.024 0 002.207.441 2.027 2.027 0 001.25-1.878c0-.54-.213-1.057-.593-1.438a2.021 2.021 0 00-1.433-.596zm-8.102 0a2.02 2.02 0 00-1.871 1.255 2.041 2.041 0 00.439 2.216 2.023 2.023 0 002.207.441 2.027 2.027 0 001.25-1.878c0-.54-.213-1.057-.593-1.438a2.021 2.021 0 00-1.432-.596zM40.507 6.1c0-1.618-.64-3.17-1.779-4.314A6.063 6.063 0 0034.432 0H6.076A6.064 6.064 0 001.78 1.787 6.114 6.114 0 000 6.1v8.135a6.115 6.115 0 001.58 4.067A6.115 6.115 0 000 22.37v8.135c0 1.618.64 3.17 1.78 4.314a6.064 6.064 0 004.296 1.787h12.152v4.067H2.026a2.02 2.02 0 00-1.432.596 2.038 2.038 0 000 2.876c.38.381.895.595 1.432.595h36.457c.538 0 1.053-.214 1.432-.595a2.038 2.038 0 000-2.876 2.021 2.021 0 00-1.432-.596H22.28v-4.067h12.153a6.063 6.063 0 004.296-1.787 6.113 6.113 0 001.78-4.314V22.37a6.115 6.115 0 00-1.58-4.067 6.115 6.115 0 001.58-4.067V6.1zm-4.05 24.404c0 .54-.213 1.056-.593 1.438-.38.381-.895.595-1.432.595H6.076a2.021 2.021 0 01-1.432-.595 2.038 2.038 0 01-.593-1.438V22.37c0-.54.213-1.056.593-1.438.38-.381.895-.595 1.432-.595h28.356c.537 0 1.052.214 1.432.595.38.382.593.899.593 1.438v8.135zm0-16.27a2.04 2.04 0 01-.593 1.439c-.38.381-.895.595-1.432.595H6.076a2.021 2.021 0 01-1.432-.595 2.038 2.038 0 01-.593-1.438V6.1c0-.54.213-1.057.593-1.438s.895-.596 1.432-.596h28.356c.537 0 1.052.215 1.432.596.38.381.593.899.593 1.438v8.135zm-18.229-6.1a2.02 2.02 0 00-1.87 1.255 2.042 2.042 0 00.438 2.216 2.023 2.023 0 003.458-1.438c0-.54-.213-1.056-.593-1.438a2.021 2.021 0 00-1.433-.595zm-8.101 0A2.02 2.02 0 008.256 9.39a2.041 2.041 0 00.439 2.216 2.022 2.022 0 003.457-1.438c0-.54-.213-1.056-.593-1.438a2.021 2.021 0 00-1.432-.595z" fill="#E9484C"/></g><defs><filter id="filter0_b" x="-15" y="-15" width="70.508" height="74.74" filterUnits="userSpaceOnUse" color-interpolation-filters="sRGB"><feFlood flood-opacity="0" result="BackgroundImageFix"/><feGaussianBlur in="BackgroundImage" stdDeviation="7.5"/><feComposite in2="SourceAlpha" operator="in" result="effect1_backgroundBlur"/><feBlend in="SourceGraphic" in2="effect1_backgroundBlur" result="shape"/></filter></defs></svg>