<svg width="63" height="45" viewBox="0 0 63 45" fill="none" xmlns="http://www.w3.org/2000/svg"><path d="M51.103 43.533h-8.76V12.228c0-.54.436-.978.973-.978h6.814c.537 0 .973.438.973.978v31.305z" fill="#95CFFF"/><path d="M47.697 11.25h-4.38a.976.976 0 00-.974.978v31.305h4.38V12.228c0-.54.436-.978.974-.978z" fill="#95CFFF"/><path d="M12.105 17.059L28.69.472l2.07 2.07-16.587 16.586-2.07-2.07z" fill="#186DB4"/><path d="M31.148 9.783h-2.92V2.935h-6.813V0h8.273c.806 0 1.46.657 1.46 1.467v8.316zM0 42.065h62.297V45H0v-2.935z" fill="#186DB4"/><path d="M19.954 45h-8.76c-.806 0-1.46-.658-1.46-1.468V27.88a2.443 2.443 0 012.433-2.445h6.814a2.443 2.443 0 012.433 2.445v15.652c0 .81-.654 1.468-1.46 1.468zm-7.3-2.935h5.84V28.369h-5.84v13.696zM35.529 45h-8.76c-.807 0-1.46-.657-1.46-1.467V20.054a2.443 2.443 0 012.433-2.445h6.813a2.443 2.443 0 012.434 2.445v23.479c0 .81-.654 1.467-1.46 1.467zm-7.3-2.935h5.84V20.544h-5.84v21.521zM51.103 45h-8.76c-.807 0-1.46-.657-1.46-1.467V12.228a2.443 2.443 0 012.432-2.445h6.814a2.443 2.443 0 012.434 2.445v31.305c0 .81-.654 1.467-1.46 1.467zm-7.3-2.935h5.84V12.718h-5.84v29.347z" fill="#186DB4"/></svg>