<svg width="34" height="50" viewBox="0 0 34 50" fill="none" xmlns="http://www.w3.org/2000/svg"><path d="M28.292 0H6.511C3.366 0 .808 2.569.808 5.728v38.544C.808 47.431 3.366 50 6.51 50h21.781c3.146 0 5.704-2.569 5.704-5.728V5.728c0-3.16-2.558-5.728-5.704-5.728zm1.556 43.753a2.08 2.08 0 01-2.075 2.084H7.028a2.079 2.079 0 01-2.072-2.084V6.25A2.08 2.08 0 017.03 4.166h1.036a2.08 2.08 0 012.076 2.084 2.08 2.08 0 002.075 2.085h10.37a2.08 2.08 0 002.076-2.085 2.08 2.08 0 012.076-2.084h1.036c1.145 0 2.072.934 2.072 2.084v37.503z" fill="#A3E0E4"/></svg>