<svg width="53" height="45" viewBox="0 0 53 45" fill="none" xmlns="http://www.w3.org/2000/svg"><path d="M29.763 23.082a13.019 13.019 0 003.305-4.433 13.079 13.079 0 001.172-5.414 13.27 13.27 0 00-3.857-9.358A13.136 13.136 0 0021.071 0a13.136 13.136 0 00-9.312 3.877 13.269 13.269 0 00-3.857 9.358c0 1.868.4 3.715 1.172 5.414a13.019 13.019 0 003.305 4.433 21.1 21.1 0 00-9.01 7.805A21.253 21.253 0 000 42.353c0 .702.277 1.375.771 1.872a2.627 2.627 0 003.725 0c.494-.497.772-1.17.772-1.872 0-4.212 1.665-8.252 4.628-11.23a15.763 15.763 0 0111.175-4.652c4.191 0 8.21 1.673 11.174 4.651a15.923 15.923 0 014.63 11.23c0 .703.277 1.376.77 1.873a2.627 2.627 0 003.725 0c.494-.497.772-1.17.772-1.872a21.254 21.254 0 00-3.369-11.466 21.101 21.101 0 00-9.01-7.805zm-8.692-1.905a7.874 7.874 0 01-4.39-1.339 7.932 7.932 0 01-2.91-3.564 7.979 7.979 0 01-.45-4.588 7.954 7.954 0 012.163-4.066 7.89 7.89 0 014.045-2.173 7.865 7.865 0 014.566.452 7.91 7.91 0 013.546 2.924 7.969 7.969 0 01-.983 10.028 7.882 7.882 0 01-5.587 2.326zm30.842-6.274a2.634 2.634 0 00-1.87-.783 2.622 2.622 0 00-1.87.783l-5.267 5.294-1.633-1.668a2.632 2.632 0 00-1.87-.783 2.622 2.622 0 00-1.87.783 2.654 2.654 0 000 3.733l3.529 3.547a2.627 2.627 0 003.714 0l7.032-7.068a2.647 2.647 0 00.873-1.896 2.66 2.66 0 00-.767-1.942z" fill="#E9A62C"/></svg>