<svg width="49" height="45" viewBox="0 0 49 45" fill="none" xmlns="http://www.w3.org/2000/svg"><path d="M24.424 22.16a6.583 6.583 0 00-3.674 1.12 6.64 6.64 0 00-2.437 2.983 6.678 6.678 0 001.434 7.244 6.584 6.584 0 007.209 1.441 6.622 6.622 0 002.968-2.448 6.672 6.672 0 00-.822-8.394 6.598 6.598 0 00-4.678-1.947zm0 8.863a2.198 2.198 0 01-2.037-1.368 2.226 2.226 0 01.478-2.415 2.201 2.201 0 012.403-.48c.403.167.747.451.99.816a2.224 2.224 0 01-.275 2.798 2.2 2.2 0 01-1.559.649zM22.86 17.085c.21.201.457.36.727.465a2.064 2.064 0 001.676 0c.27-.105.518-.264.728-.465l5.049-4.986a2.294 2.294 0 000-3.235 2.27 2.27 0 00-3.22 0l-1.19 1.307V2.216a2.22 2.22 0 00-.646-1.567 2.2 2.2 0 00-3.118 0c-.413.416-.645.98-.645 1.567v7.955L21.03 8.864a2.27 2.27 0 00-3.22 0 2.293 2.293 0 000 3.235l5.05 4.986zm17 11.722c0-.438-.13-.867-.372-1.231a2.207 2.207 0 00-2.264-.942c-.427.085-.82.296-1.129.606a2.22 2.22 0 001.56 3.783 2.2 2.2 0 001.559-.65c.413-.415.645-.979.645-1.566zm2.204-15.512H35.45a2.2 2.2 0 00-1.56.65 2.221 2.221 0 000 3.133 2.2 2.2 0 001.56.65h6.614a2.2 2.2 0 011.56.648c.413.416.645.98.645 1.567V37.67c0 .588-.232 1.152-.646 1.567a2.2 2.2 0 01-1.559.65H6.785a2.2 2.2 0 01-1.559-.65 2.222 2.222 0 01-.645-1.567V19.943c0-.588.232-1.151.645-1.567a2.2 2.2 0 011.56-.649H13.4a2.2 2.2 0 001.56-.649 2.221 2.221 0 000-3.133 2.2 2.2 0 00-1.56-.65H6.785c-1.754 0-3.436.7-4.677 1.947a6.665 6.665 0 00-1.937 4.701V37.67c0 1.764.697 3.454 1.937 4.701a6.598 6.598 0 004.677 1.947h35.278c1.755 0 3.437-.7 4.677-1.947a6.665 6.665 0 001.938-4.7V19.942a6.665 6.665 0 00-1.938-4.7 6.598 6.598 0 00-4.677-1.948zM8.99 28.807c0 .438.13.867.372 1.23a2.207 2.207 0 002.263.943c.428-.085.82-.296 1.13-.606a2.22 2.22 0 00-1.56-3.783 2.2 2.2 0 00-1.559.649c-.413.416-.646.98-.646 1.567z" fill="#13AB50"/></svg>