<svg width="24" height="24" viewBox="0 0 24 24" fill="none" xmlns="http://www.w3.org/2000/svg">
<path d="M19.71 11.2902L15.71 7.29019C15.6168 7.19695 15.5061 7.12299 15.3842 7.07253C15.2624 7.02207 15.1319 6.99609 15 6.99609C14.8681 6.99609 14.7376 7.02207 14.6158 7.07253C14.4939 7.12299 14.3832 7.19695 14.29 7.29019C14.1968 7.38342 14.1228 7.49411 14.0723 7.61594C14.0219 7.73776 13.9959 7.86833 13.9959 8.00019C13.9959 8.13204 14.0219 8.26261 14.0723 8.38444C14.1228 8.50626 14.1968 8.61695 14.29 8.71019L16.59 11.0002H5C4.73478 11.0002 4.48043 11.1055 4.29289 11.2931C4.10536 11.4806 4 11.735 4 12.0002C4 12.2654 4.10536 12.5198 4.29289 12.7073C4.48043 12.8948 4.73478 13.0002 5 13.0002H16.59L14.29 15.2902C14.1963 15.3831 14.1219 15.4937 14.0711 15.6156C14.0203 15.7375 13.9942 15.8682 13.9942 16.0002C13.9942 16.1322 14.0203 16.2629 14.0711 16.3848C14.1219 16.5066 14.1963 16.6172 14.29 16.7102C14.383 16.8039 14.4936 16.8783 14.6154 16.9291C14.7373 16.9798 14.868 17.006 15 17.006C15.132 17.006 15.2627 16.9798 15.3846 16.9291C15.5064 16.8783 15.617 16.8039 15.71 16.7102L19.71 12.7102C19.801 12.6151 19.8724 12.5029 19.92 12.3802C20.02 12.1367 20.02 11.8636 19.92 11.6202C19.8724 11.4974 19.801 11.3853 19.71 11.2902Z" fill="white"/>
</svg>
