<svg width="155" height="25" viewBox="0 0 155 25" fill="none" xmlns="http://www.w3.org/2000/svg">
<mask id="mask0" mask-type="alpha" maskUnits="userSpaceOnUse" x="0" y="0" width="16" height="25">
<path d="M0 0L8.57933 24.5571H15.3527L6.77335 0H0Z" fill="#C4C4C4"/>
</mask>
<g mask="url(#mask0)">
<path d="M10.4386 -7.04077L27.0105 16.6939L4.91471 31.5979L-11.6571 7.8632L10.4386 -7.04077Z" fill="url(#paint0_linear)"/>
</g>
<mask id="mask1" mask-type="alpha" maskUnits="userSpaceOnUse" x="8" y="7" width="13" height="18">
<path d="M8.57935 24.5572H15.3527C15.3527 17.535 17.4654 11.5064 20.4905 8.87914C19.4531 7.97858 18.3059 7.4762 17.1019 7.4762C12.3957 7.4762 8.57935 15.1236 8.57935 24.5572Z" fill="#C4C4C4"/>
</mask>
<g mask="url(#mask1)">
<path d="M0.269165 18.5099L12.7974 1.87927L28.8013 13.5233L16.2731 30.154L0.269165 18.5099Z" fill="url(#paint1_linear)"/>
</g>
<mask id="mask2" mask-type="alpha" maskUnits="userSpaceOnUse" x="17" y="7" width="16" height="18">
<path d="M17.1025 7.4762C18.3065 7.4762 19.4499 7.97486 20.4873 8.87914C23.5086 11.5027 25.6251 17.535 25.6251 24.5534H32.3984C32.3984 15.1198 28.582 7.4762 23.8759 7.4762H17.1025Z" fill="#C4C4C4"/>
</mask>
<g mask="url(#mask2)">
<path d="M28.7745 1.08295L39.7921 20.5084L20.729 30.9504L9.71143 11.5288L28.7745 1.08295Z" fill="url(#paint2_linear)"/>
</g>
<path d="M25.6243 24.5572L34.2074 6.10352e-05H40.9807L32.4014 24.5572H25.6243Z" fill="#F7C654"/>
<path d="M83.8813 7.07806C81.2121 7.07806 79.1449 7.93025 77.4449 9.66812C75.7449 11.3725 74.8779 13.4825 74.8779 16.0391C74.8779 18.6291 75.7449 20.7763 77.479 22.477C79.213 24.1479 81.4544 25 84.2637 25C87.6258 25 90.1435 23.4594 91.6466 20.8545L88.4322 19.3176C87.5387 20.7838 86.2741 21.6285 84.2978 21.6285C81.4203 21.6285 79.0464 20.1586 78.7966 17.6095H92.3433C92.7597 15.786 92.3508 11.9232 90.2723 9.70533C88.6404 7.96374 86.4104 7.07806 83.8813 7.07806ZM78.7625 14.6063C79.1184 11.9307 81.072 10.4161 83.8472 10.4161C86.3082 10.4161 88.6972 11.8265 89.0986 14.6063H78.7625Z" fill="white"/>
<path d="M120.361 7.07806C117.832 7.07806 115.648 7.93025 113.879 9.66812C112.111 11.406 111.21 13.5197 111.21 16.0391C111.21 18.5621 112.111 20.6721 113.879 22.41C115.648 24.1479 117.832 25 120.361 25C122.924 25 125.075 24.1479 126.843 22.41C128.611 20.6721 129.512 18.5584 129.512 16.0391C129.512 13.5197 128.611 11.406 126.843 9.66812C125.075 7.93025 122.924 7.07806 120.361 7.07806ZM124.208 19.8906C123.167 20.914 121.883 21.4238 120.361 21.4238C118.835 21.4238 117.552 20.914 116.515 19.8906C115.473 18.8673 114.955 17.5722 114.955 16.0391C114.955 14.5059 115.473 13.2108 116.515 12.1875C117.556 11.1641 118.835 10.6543 120.361 10.6543C121.887 10.6543 123.171 11.1641 124.208 12.1875C125.249 13.2108 125.768 14.5059 125.768 16.0391C125.768 17.5722 125.249 18.8673 124.208 19.8906Z" fill="white"/>
<path d="M100.359 24.5572C99.9688 23.4817 99.7681 22.0602 99.7681 19.9986V6.10352e-05H96.0237V19.4069C96.0237 21.1745 96.3114 23.4743 97.2087 24.5572H100.359Z" fill="white"/>
<path d="M108.434 24.5572C108.045 23.4817 107.844 22.0602 107.844 19.9986V6.10352e-05H104.099V19.4069C104.099 21.1745 104.387 23.4743 105.284 24.5572H108.434Z" fill="white"/>
<path d="M70.3499 7.52094L67.4952 19.299C67.4952 19.299 66.4351 12.4294 63.1942 7.52094H60.4985C57.2576 12.4294 56.1974 19.299 56.1974 19.299L53.3427 7.52094H49.39L54.4899 24.5572H58.3101C58.3101 24.5572 59.5822 16.4708 61.8463 11.8005C64.1104 16.4708 65.3825 24.5572 65.3825 24.5572H69.2027L74.3026 7.52094H70.3499Z" fill="white"/>
<path d="M134.04 7.52094L136.894 19.299C136.894 19.299 137.954 12.4294 141.195 7.52094H143.891C147.132 12.4294 148.192 19.299 148.192 19.299L151.047 7.52094H155L149.9 24.5572H146.223C146.223 24.5572 144.804 16.4708 142.543 11.8005C140.279 16.4708 138.863 24.5572 138.863 24.5572H135.187L130.087 7.52094H134.04Z" fill="white"/>
<defs>
<linearGradient id="paint0_linear" x1="5.28778" y1="8.87175" x2="10.8936" y2="17.1825" gradientUnits="userSpaceOnUse">
<stop stop-color="#9274FF"/>
<stop offset="0.8188" stop-color="#6A46F0"/>
<stop offset="1" stop-color="#6A46F0"/>
</linearGradient>
<linearGradient id="paint1_linear" x1="7.26253" y1="25.6681" x2="19.4494" y2="8.91859" gradientUnits="userSpaceOnUse">
<stop stop-color="#9274FF"/>
<stop offset="1" stop-color="#FF9354"/>
</linearGradient>
<linearGradient id="paint2_linear" x1="21.6049" y1="10.468" x2="29.5964" y2="25.0528" gradientUnits="userSpaceOnUse">
<stop stop-color="#F7C654"/>
<stop offset="0.7145" stop-color="#FF7B2E"/>
<stop offset="1" stop-color="#FF7B2E"/>
</linearGradient>
</defs>
</svg>
