<svg width="731" height="554" viewBox="0 0 731 554" fill="none" xmlns="http://www.w3.org/2000/svg">
<path d="M549.626 276.985C549.626 293.543 548.152 309.77 545.355 325.526C531.329 404.777 483.499 472.302 417.407 512.46C381.513 534.285 340.257 548.056 296.058 551.259C290.751 551.675 285.45 551.884 280.058 551.939C278.705 552 277.347 552 275.994 552C265.355 552 254.833 551.406 244.493 550.194C241.605 549.838 238.686 549.483 235.798 549.012C198.844 543.592 164.309 530.708 133.721 511.934C64.3826 469.467 15.3459 396.847 4.59164 312.207C3.11713 300.658 2.37988 288.932 2.37988 276.997C2.37379 125.114 124.874 2 275.988 2C337.546 2 394.394 22.4343 440.098 56.9345C444.991 60.6392 449.761 64.4848 454.423 68.5141C491.7 100.736 520.197 142.879 535.929 190.857C544.825 217.96 549.626 246.894 549.626 276.985Z" fill="url(#paint0_radial)" stroke="white" stroke-width="3"/>
<path d="M137.452 171.721C139.572 163.717 126.387 160.533 122.92 168.843C107.157 206.649 56.4018 208.291 29.367 234.548C8.11443 255.191 1.26585 291.902 29.0136 310.315C55.6951 328.018 88.1893 314.981 106.109 291.228C130.731 258.583 127.556 214.824 138.006 177.067C138.585 174.972 138.274 173.172 137.452 171.721Z" fill="#1A1A1A"/>
<path d="M213.606 91.1162C196.546 71.2881 170.12 78.422 154.973 95.6844C107.082 93.6391 81.6919 156.461 121.833 186.791C138.954 199.73 163.735 199.209 181.094 186.956C197.795 175.168 203.083 156.008 204.881 136.626C220.912 128.666 226.913 106.584 213.606 91.1162Z" fill="#1A1A1A"/>
<path d="M369.524 486.221C366.929 478.713 363.309 472.112 358.429 466.056L358.88 464.433C358.88 464.433 341.192 446.081 315.509 448.947C289.833 451.812 278.988 473.037 261.3 459.84C244.495 447.312 248.26 344.815 221.792 307.033C211.666 287.848 194.812 274.939 166.327 268.742C159.54 267.248 152.118 266.152 143.941 265.442C125.766 263.868 109.79 263.537 95.7088 264.376C46.1662 267.267 20.0392 284.443 4.59332 312.189C17.9127 417.006 89.9509 503.33 186.483 536.899C204.104 525.283 294.97 486.796 294.97 486.796C294.97 486.796 296.968 517.763 308.094 514.322C315.515 512.025 308.094 493.673 309.806 485.076C322.401 488.842 333.106 519.435 342.142 513.93C343.824 513.109 345 511.021 345.816 508.039C347.4 509.998 350.356 512.736 352.835 513.826C358.941 516.508 361.963 510.158 360.854 503.489C360.184 499.46 371.084 503.881 370.42 499.852C375.441 500.813 371.693 492.51 369.524 486.221Z" fill="white"/>
<path d="M186.475 538.357C186.316 538.357 186.152 538.332 186 538.277C88.0296 504.212 16.2535 415.536 3.14127 312.373C3.09862 312.06 3.15955 311.748 3.31188 311.473C20.4943 280.616 48.9548 265.638 95.6093 262.913C109.812 262.068 126.111 262.429 144.049 263.984C152.36 264.707 159.745 265.791 166.624 267.309C194.243 273.317 212.175 285.723 223.064 306.341C237.541 326.984 242.951 366.211 247.722 400.828C251.445 427.814 254.961 453.3 262.15 458.665C271.893 465.927 279.217 462.069 289.344 456.73C296.491 452.964 304.595 448.689 315.337 447.489C341.427 444.574 359.164 462.639 359.907 463.41C360.267 463.784 360.401 464.317 360.261 464.819L360.011 465.725C364.745 471.726 368.31 478.285 370.881 485.737C371.911 488.719 371.496 491.493 369.723 493.563C368.096 495.455 365.482 496.533 362.722 496.533C362.68 496.533 362.637 496.533 362.6 496.533C362.643 497.745 362.485 498.639 362.338 499.448C362.149 500.538 361.979 501.474 362.277 503.244C363.082 508.088 361.881 512.558 359.225 514.64C357.336 516.122 354.856 516.306 352.242 515.155C350.274 514.291 348.099 512.552 346.387 510.844C345.467 513.06 344.266 514.505 342.761 515.24C336.912 518.804 331.13 510.788 325.006 502.289C320.692 496.3 315.861 489.595 311.004 487.133C310.846 490.054 311.394 493.845 311.924 497.537C313.082 505.596 314.283 513.93 308.506 515.718C306.429 516.361 304.393 516.055 302.62 514.83C296.253 510.415 294.218 494.794 293.664 488.927C280.655 494.469 203.188 527.628 187.261 538.118C187.029 538.277 186.755 538.357 186.475 538.357ZM6.0842 312.483C19.1903 414.116 89.8453 501.462 186.286 535.289C205.132 523.311 290.721 487.005 294.395 485.449C294.827 485.265 295.321 485.308 295.723 485.553C296.125 485.804 296.381 486.227 296.412 486.704C296.795 492.608 298.952 508.737 304.278 512.43C305.332 513.158 306.404 513.317 307.659 512.932C311.059 511.878 310.042 504.8 309.061 497.953C308.378 493.214 307.678 488.315 308.378 484.788C308.458 484.384 308.701 484.035 309.055 483.82C309.408 483.612 309.828 483.557 310.218 483.673C316.555 485.572 322.057 493.195 327.37 500.58C332.684 507.953 337.692 514.916 341.384 512.674C342.67 512.038 343.681 510.323 344.413 507.647C344.559 507.12 344.979 506.716 345.515 506.606C346.052 506.502 346.6 506.692 346.941 507.114C348.477 509.013 351.267 511.536 353.418 512.479C355.057 513.195 356.416 513.152 357.452 512.338C359.225 510.948 360.041 507.408 359.426 503.722C359.048 501.462 359.286 500.121 359.493 498.939C359.682 497.849 359.846 496.912 359.554 495.143C359.475 494.671 359.633 494.194 359.974 493.857C360.315 493.52 360.797 493.379 361.26 493.465C363.679 493.93 366.201 493.202 367.542 491.646C368.626 490.385 368.84 488.67 368.157 486.686C365.604 479.313 362.058 472.859 357.299 466.962C357.007 466.595 356.903 466.105 357.031 465.652L357.251 464.868C354.015 461.843 337.777 447.918 315.672 450.386C305.472 451.525 297.63 455.664 290.702 459.314C280.478 464.703 271.643 469.363 260.432 461.004C252.261 454.911 248.996 431.219 244.858 401.226C240.13 366.946 234.774 328.086 220.608 307.866C210.055 287.909 192.745 275.974 166.02 270.163C159.263 268.675 152 267.603 143.817 266.893C126.02 265.35 109.861 264.995 95.7921 265.828C50.4415 268.479 22.7548 282.876 6.0842 312.483Z" fill="#1A1A1A"/>
<path d="M120.431 162.254C122.533 162.664 124.635 163.074 126.731 163.478C129.01 163.919 130.868 165.634 130.667 168.138C130.612 168.806 130.314 169.461 129.917 170.067C130.545 171.408 130.594 172.951 129.631 174.311C128.376 176.081 125.403 176.846 123.636 175.315C121.619 173.57 115.824 165.364 116.519 163.466C117.116 161.819 118.603 161.898 120.431 162.254Z" fill="#1A1A1A"/>
<path d="M210.738 131.746C204.73 133.559 160.561 131.017 149.064 130.313C139.413 134.349 131.729 136.437 124.814 136.516L124.85 135.371C125.715 112.475 144.135 95.6476 167.233 95.4149C181.186 95.2618 194.323 100.118 202.457 109.952C207.106 115.574 210.135 122.848 210.738 131.746Z" fill="#1A1A1A"/>
<path d="M210.806 138.286C210.172 109.389 191.04 95.1516 167.234 95.415C145.001 95.6538 126.874 112.769 124.803 134.532C124.425 134.496 124.096 134.41 123.718 134.422C105.817 134.624 95.6109 161.947 127.941 164.305C128.83 165.756 129.695 167.214 130.737 168.543L105.549 264.364C101.588 264.291 97.5729 264.731 93.8744 264.836L156.194 343.254L164.675 268.357C163.95 268.173 163.183 268.008 162.439 267.83L182.632 188.254C198.559 181.751 211.421 166.803 210.806 138.286Z" fill="white"/>
<path d="M156.185 344.711C155.753 344.711 155.332 344.515 155.052 344.166L92.7325 265.742C92.3852 265.307 92.3182 264.719 92.5498 264.217C92.7813 263.715 93.2748 263.391 93.8293 263.372C95.249 263.335 96.7174 263.244 98.2163 263.152C100.245 263.029 102.335 262.901 104.431 262.894L129.151 168.855C128.395 167.826 127.731 166.748 127.085 165.695C106.643 163.944 105.376 152.805 105.479 149.4C105.717 141.605 113.01 133.179 123.515 132.965C126.317 110.865 144.865 94.1965 167.214 93.9577C193.981 93.5964 211.656 111.049 212.254 138.256C212.948 170.061 197.356 183.582 183.854 189.32L164.204 266.74C164.478 266.801 164.752 266.869 165.02 266.936C165.721 267.114 166.19 267.793 166.105 268.516L157.623 343.413C157.556 343.995 157.148 344.491 156.581 344.65C156.46 344.687 156.319 344.711 156.185 344.711ZM96.7844 266.164L155.137 339.592L163.077 269.477C163.034 269.465 162.997 269.459 162.955 269.453L162.096 269.251C161.718 269.159 161.389 268.92 161.188 268.589C160.987 268.253 160.926 267.855 161.023 267.475L181.216 187.899C181.331 187.452 181.648 187.085 182.075 186.907C194.882 181.678 210.011 169.008 209.341 138.329C208.781 112.708 192.92 96.8786 167.902 96.8786C167.683 96.8786 167.464 96.8786 167.238 96.8847C145.894 97.1113 128.267 113.363 126.238 134.679C126.202 135.065 126.013 135.42 125.714 135.671C125.416 135.916 125.038 136.033 124.648 135.996L124.197 135.935C124.051 135.91 123.911 135.88 123.752 135.886C114.917 135.99 108.562 143.142 108.367 149.498C108.142 156.951 115.49 161.941 128.03 162.854C128.493 162.884 128.913 163.142 129.163 163.546L129.413 163.95C130.217 165.26 130.972 166.503 131.868 167.642C132.148 168.004 132.246 168.475 132.13 168.922L106.948 264.738C106.777 265.387 106.265 265.822 105.516 265.822C103.17 265.773 100.733 265.926 98.3869 266.066C97.8507 266.103 97.3145 266.134 96.7844 266.164Z" fill="#1A1A1A"/>
<path d="M202.451 109.952C188.412 119.67 174.258 110.448 169.17 105.451C161.743 121.648 140.917 142.56 123.844 135.53C124.709 112.634 144.128 95.6537 167.227 95.4149C181.186 95.2618 194.316 100.118 202.451 109.952Z" fill="#1A1A1A"/>
<path d="M187.834 161.574C187.06 161.574 186.42 160.962 186.384 160.178C186.347 159.37 186.969 158.69 187.773 158.653L196.858 158.255C195.59 149.358 189.284 138.335 189.217 138.219C188.815 137.521 189.052 136.627 189.747 136.223C190.442 135.818 191.331 136.057 191.733 136.755C192.038 137.282 199.185 149.756 199.929 159.535C199.959 159.927 199.825 160.319 199.569 160.613C199.307 160.907 198.941 161.084 198.545 161.103L187.907 161.568C187.876 161.574 187.852 161.574 187.834 161.574Z" fill="#1A1A1A"/>
<path d="M143.427 504.837C142.763 504.837 142.166 504.377 142.014 503.698L87.7246 263.195C87.5479 262.411 88.0353 261.627 88.8213 261.449C89.6134 261.272 90.3812 261.762 90.5579 262.552L144.847 503.061C145.024 503.845 144.536 504.628 143.75 504.806C143.64 504.824 143.531 504.837 143.427 504.837Z" fill="#1A1A1A"/>
<path d="M216.489 482.761C215.818 482.761 215.221 482.296 215.069 481.61C205.411 437.122 195.864 393.632 186.255 349.861C180.521 323.732 174.763 297.505 168.945 270.898C168.774 270.108 169.268 269.33 170.054 269.159C170.833 268.987 171.613 269.483 171.784 270.273C177.603 296.88 183.361 323.107 189.094 349.237C198.709 393.014 208.257 436.504 217.908 480.997C218.079 481.781 217.585 482.565 216.799 482.736C216.696 482.749 216.592 482.761 216.489 482.761Z" fill="#1A1A1A"/>
<path d="M235.609 479.65C234.92 479.65 234.311 479.154 234.183 478.45L218.207 390.699C218.091 390.062 218.408 389.42 218.987 389.132C223.6 386.811 225.226 372.488 215.959 339.219C215.74 338.441 216.19 337.639 216.964 337.418C217.732 337.21 218.536 337.657 218.756 338.429C223.526 355.556 230.009 384.625 221.248 391.152L237.047 477.923C237.193 478.713 236.669 479.479 235.877 479.62C235.786 479.644 235.694 479.65 235.609 479.65Z" fill="#1A1A1A"/>
<path d="M494.441 279.324C492.418 277.897 491.005 275.57 491.005 272.325V106.94C480.062 92.9839 467.815 80.0999 454.416 68.5142L302.967 145.169C298.349 147.508 295.436 152.26 295.436 157.459V443.595C295.436 453.839 306.184 460.496 315.287 455.885L494.441 365.189V279.324Z" fill="#1A1A1A"/>
<path d="M394.321 521.089V438.261H359.615V534.897C371.241 530.519 382.805 525.914 394.321 521.089Z" fill="#1A1A1A"/>
<path d="M87.5487 476.68C87.0978 476.68 86.6469 476.472 86.3666 476.068C86.1046 475.7 60.3128 438.708 57.1078 373.639C57.0652 372.837 57.6867 372.151 58.4849 372.108C59.2831 371.998 59.9655 372.69 60.0081 373.492C63.1704 437.716 88.4748 474.004 88.7307 474.365C89.1999 475.027 89.0476 475.933 88.3956 476.404C88.1397 476.588 87.8411 476.68 87.5487 476.68Z" fill="#1A1A1A"/>
<path d="M234.854 495.045C250.227 504.23 271.76 523.978 260.902 528.412C252.731 531.749 227.537 504.524 217.489 502.748C217.489 502.748 244.609 523.011 245.243 535.007C245.798 545.05 238.126 546.066 238.126 546.066C238.126 546.066 237.548 547.487 235.805 549.012C198.857 543.586 164.303 530.696 133.71 511.927C203.926 464.163 262.255 480.881 268.768 489.987C274.648 498.223 235.64 492.81 234.854 495.045Z" fill="white"/>
<path d="M235.804 550.463C235.737 550.463 235.664 550.457 235.597 550.451C199.063 545.08 164.527 532.539 132.953 513.164C132.533 512.907 132.271 512.448 132.259 511.952C132.246 511.456 132.49 510.99 132.898 510.709C203.675 462.565 262.881 479.24 269.949 489.123C271.15 490.807 270.9 492.105 270.479 492.901C268.603 496.441 259.524 496.441 245.9 496.049C243.597 495.982 241.007 495.92 238.96 495.914C249.934 503.177 265.891 516.74 265.282 524.909C265.166 526.459 264.405 528.553 261.449 529.759C256.106 531.951 246.327 524.34 235.974 516.293C234.707 515.308 233.434 514.316 232.166 513.348C239.204 520.108 246.357 528.498 246.692 534.927C247.204 544.174 241.288 546.709 239.1 547.328C238.71 547.995 237.979 549.03 236.748 550.108C236.492 550.34 236.151 550.463 235.804 550.463ZM136.414 511.86C166.922 530.237 200.184 542.208 235.329 547.462C236.389 546.403 236.785 545.509 236.791 545.497C236.992 545.025 237.431 544.682 237.943 544.615C238.192 544.578 244.273 543.586 243.804 535.087C243.317 525.809 224.026 509.441 216.635 503.918C216.093 503.514 215.904 502.791 216.166 502.166C216.428 501.548 217.08 501.187 217.75 501.309C222.533 502.154 229.93 507.898 237.76 513.985C246.138 520.5 256.587 528.608 260.365 527.059C262.077 526.361 262.345 525.375 262.394 524.695C262.857 518.498 247.576 504.34 234.122 496.3C233.525 495.945 233.263 495.216 233.495 494.561C234.073 492.914 235.907 492.834 245.998 493.134C251.786 493.306 267.171 493.753 267.932 491.53C267.932 491.53 267.945 491.322 267.603 490.832C261.151 481.83 203.608 467.146 136.414 511.86Z" fill="#1A1A1A"/>
<path d="M234.853 496.502C234.549 496.502 234.244 496.41 233.988 496.215C226.256 490.397 223.794 489.191 223.77 489.179C223.051 488.836 222.74 487.966 223.082 487.237C223.423 486.515 224.282 486.203 225.001 486.533C225.104 486.582 227.627 487.782 235.731 493.875C236.37 494.359 236.504 495.272 236.023 495.921C235.737 496.3 235.298 496.502 234.853 496.502Z" fill="#1A1A1A"/>
<path d="M417.407 512.46C381.513 534.284 340.257 548.056 296.058 551.259C290.751 551.675 285.45 551.884 280.058 551.939L407.737 490.048L417.407 512.46Z" fill="#1A1A1A"/>
<path d="M238.125 547.524C237.413 547.524 236.785 546.991 236.688 546.262C236.029 541.418 224.404 522.711 206.886 515.283C206.149 514.971 205.802 514.113 206.112 513.372C206.423 512.625 207.276 512.282 208.013 512.595C225.854 520.164 238.686 539.422 239.563 545.87C239.673 546.672 239.119 547.407 238.32 547.517C238.253 547.517 238.186 547.524 238.125 547.524Z" fill="#1A1A1A"/>
<path d="M224.927 548.185C224.5 548.185 224.08 547.995 223.794 547.64C223.672 547.487 211.449 532.27 199.147 527.396C198.398 527.102 198.032 526.25 198.325 525.503C198.617 524.756 199.464 524.377 200.207 524.683C213.234 529.839 225.536 545.166 226.054 545.815C226.554 546.446 226.45 547.364 225.829 547.867C225.567 548.081 225.244 548.185 224.927 548.185Z" fill="#1A1A1A"/>
<path d="M345.808 509.496C345.205 509.496 344.645 509.116 344.438 508.51C344.383 508.351 338.82 492.381 327.225 479.521C326.689 478.921 326.731 478.003 327.328 477.458C327.925 476.913 328.845 476.962 329.382 477.556C341.391 490.874 346.954 506.881 347.185 507.555C347.447 508.32 347.045 509.147 346.284 509.41C346.125 509.472 345.961 509.496 345.808 509.496Z" fill="#1A1A1A"/>
<path d="M361.064 509.349C360.473 509.349 359.918 508.982 359.699 508.394C359.614 508.168 351.248 485.449 339.635 472.571C339.099 471.971 339.141 471.053 339.738 470.508C340.329 469.969 341.256 470.012 341.792 470.606C353.795 483.912 362.088 506.435 362.429 507.384C362.703 508.137 362.319 508.976 361.564 509.257C361.399 509.319 361.234 509.349 361.064 509.349Z" fill="#1A1A1A"/>
<path d="M285.716 490.25C284.912 490.25 284.266 489.595 284.266 488.793V461.359C284.266 460.551 284.918 459.902 285.716 459.902C286.514 459.902 287.166 460.557 287.166 461.359V488.793C287.166 489.601 286.52 490.25 285.716 490.25Z" fill="#1A1A1A"/>
<path d="M726.32 375.782C714.975 442.982 672.598 497.09 616.462 525.755C585.284 541.719 549.865 549.832 513.149 547.995C505.015 547.579 496.85 546.722 488.63 545.301C453.827 539.349 422.564 524.983 396.571 504.61C391.708 500.789 386.992 496.759 382.514 492.528C340.844 453.374 316.033 397.521 317.093 337.724C317.123 334.528 317.27 331.295 317.477 328.068C317.922 320.903 318.775 313.677 319.981 306.421C335.275 215.853 406.88 149.1 492.579 136.216C513.618 133.02 535.541 133.106 557.677 136.896C581.604 140.98 603.856 149.039 623.865 160.325C682.097 193.049 721.525 252.901 728.215 320.223C728.483 322.477 728.66 324.755 728.806 327.033C729.86 342.997 729.123 359.316 726.32 375.782Z" fill="#FEFFFE"/>
<path d="M523.268 549.71C519.868 549.71 516.474 549.624 513.074 549.453C504.629 549.024 496.318 548.112 488.379 546.74C454.55 540.953 422.495 526.783 395.673 505.761C390.634 501.799 385.869 497.703 381.513 493.588C338.606 453.27 314.593 396.449 315.635 337.694C315.659 334.81 315.787 331.625 316.019 327.97C316.451 320.952 317.298 313.622 318.541 306.176C333.597 217.017 403.448 148.139 492.351 134.771C514 131.483 536.051 131.709 557.906 135.457C581.529 139.493 603.958 147.429 624.558 159.051C683.636 192.253 722.918 252.454 729.639 320.076C729.907 322.324 730.084 324.632 730.236 326.941C731.327 343.358 730.486 359.88 727.744 376.027C716.807 440.809 675.447 497.268 617.113 527.053C588.031 541.951 555.78 549.71 523.268 549.71ZM522.914 135.39C512.824 135.39 502.764 136.149 492.796 137.662C405.13 150.839 336.26 218.756 321.417 306.666C320.193 314.008 319.358 321.24 318.931 328.16C318.7 331.76 318.578 334.895 318.554 337.737C317.524 395.678 341.201 451.702 383.511 491.457C387.801 495.51 392.499 499.546 397.471 503.459C423.914 524.187 455.519 538.155 488.878 543.862C496.708 545.215 504.897 546.115 513.226 546.538C548.663 548.283 584.137 540.672 615.809 524.45C673.333 495.076 714.108 439.406 724.892 375.531C727.604 359.604 728.432 343.321 727.354 327.125C727.208 324.865 727.031 322.612 726.775 320.389C720.146 253.685 681.412 194.335 623.157 161.592C602.843 150.135 580.731 142.309 557.437 138.329C545.952 136.376 534.418 135.39 522.914 135.39Z" fill="#1A1A1A"/>
<path d="M729.145 334.418C729.145 334.412 729.145 334.412 729.145 334.418C729.151 334.332 729.138 334.246 729.138 334.16C729.071 332.115 728.974 330.082 728.852 328.049C728.834 327.706 728.822 327.363 728.803 327.027C728.657 324.749 728.487 322.471 728.225 320.223C728.164 319.55 728.078 318.852 727.993 318.178C721.516 322.005 715.07 325.826 708.617 329.654C706.935 330.646 705.954 331.98 705.473 333.426C673.332 345.171 618.867 373.155 614.638 419.896C609.959 471.61 615.82 521.303 616.472 525.742C672.607 497.084 714.966 442.976 726.317 375.795C728.681 361.851 729.571 348.012 729.145 334.418Z" fill="white"/>
<path d="M616.474 527.2C616.242 527.2 616.017 527.145 615.81 527.034C615.395 526.82 615.109 526.416 615.036 525.95C614.969 525.467 608.254 474.323 613.19 419.762C617.723 369.591 677.94 342.017 704.348 332.281C705.048 330.676 706.255 329.341 707.876 328.392C714.322 324.571 720.768 320.744 727.251 316.923C727.666 316.672 728.19 316.653 728.622 316.868C729.061 317.082 729.36 317.504 729.427 317.988C729.518 318.68 729.603 319.403 729.664 320.095C729.926 322.33 730.097 324.632 730.249 326.935L730.298 327.97C730.42 330.009 730.523 332.066 730.584 334.124C730.584 334.136 730.597 334.405 730.597 334.418C730.597 334.448 730.597 334.473 730.597 334.503C731.023 348.373 730.066 362.353 727.757 376.04C716.808 440.827 675.448 497.28 617.132 527.047C616.925 527.151 616.699 527.2 616.474 527.2ZM726.801 320.572C720.97 324.02 715.163 327.461 709.35 330.909C708.101 331.644 707.26 332.648 706.846 333.885C706.706 334.307 706.383 334.644 705.962 334.797C680.408 344.136 620.501 371.135 616.084 420.031C611.733 468.113 616.474 513.477 617.656 523.489C674.181 493.894 714.206 438.739 724.887 375.544C727.178 362.004 728.123 348.183 727.69 334.461C727.69 334.418 727.69 334.369 727.69 334.326C727.617 332.127 727.52 330.125 727.398 328.141L727.349 327.112C727.209 324.932 727.044 322.74 726.801 320.572Z" fill="#1A1A1A"/>
<path d="M655.489 218.302C656.245 214.996 652.9 207.617 653.077 204.096C616.396 181.432 584.658 160.851 551.579 133.167C535.225 142.915 522.332 158.249 518.201 175.242C507.038 221.364 515.154 249.582 515.154 249.582L533.677 250.402C533.677 250.402 553.656 293.671 595.71 277.248L677.619 412.946L722.72 327.192L655.489 218.302Z" fill="white"/>
<path d="M677.616 414.404C677.111 414.404 676.635 414.14 676.373 413.699L595.092 279.036C556.243 293.353 535.825 257.702 532.766 251.817L515.09 251.033C514.469 251.009 513.933 250.58 513.762 249.98C513.427 248.81 505.665 220.862 516.797 174.893C520.836 158.273 533.565 142.211 550.844 131.905C551.375 131.587 552.039 131.642 552.514 132.04C583.808 158.23 613.365 177.832 653.841 202.847C654.292 203.128 654.56 203.631 654.53 204.163C654.463 205.529 655.09 207.868 655.7 210.134C656.492 213.085 657.247 215.884 657.016 217.99L723.96 326.408C724.234 326.849 724.252 327.4 724.009 327.859L678.902 413.626C678.658 414.091 678.183 414.385 677.659 414.404C677.647 414.404 677.628 414.404 677.616 414.404ZM595.708 275.784C596.201 275.784 596.682 276.042 596.951 276.489L677.531 409.988L721.047 327.247L654.256 219.074C654.054 218.743 653.988 218.352 654.073 217.978C654.402 216.527 653.598 213.538 652.891 210.905C652.3 208.713 651.739 206.619 651.636 204.923C611.732 180.251 582.4 160.778 551.442 134.955C535.265 144.875 523.401 160 519.612 175.591C509.838 215.97 515.036 242.766 516.297 248.173L533.741 248.945C534.278 248.969 534.765 249.294 534.99 249.79C535.789 251.511 554.921 291.608 595.177 275.895C595.354 275.815 595.531 275.784 595.708 275.784Z" fill="#1A1A1A"/>
<path d="M654.962 220.409C652.105 221.56 649.198 222.522 646.103 223.067C638.919 224.292 605.164 215.412 613.42 206.399C622.681 196.307 615.632 175.174 599.839 180.092C578.86 186.644 506.255 185.064 498.712 154.918C494.794 129.125 540.047 130.675 568.472 123.534C600.954 117.044 621.213 126.094 639.608 152.401C655.907 179.332 659.995 201.628 654.962 220.409Z" fill="#1A1A1A"/>
<path d="M581.988 162.603C578.826 157.796 572.866 160.116 571.173 164.28C567.145 164.47 563.361 167.985 565.634 172.584C569.107 179.602 572.58 186.613 576.053 193.631C578.783 199.148 586.954 198.75 588.16 192.271C590.104 181.8 587.807 171.445 581.988 162.603Z" fill="#1A1A1A"/>
<path d="M569.436 544.811C569.064 544.811 568.693 544.67 568.406 544.382C568.077 544.052 535.169 510.672 516.457 473.49C498.293 437.392 460.486 362.274 408.391 355.575C407.598 355.471 407.032 354.742 407.135 353.94C407.239 353.137 407.97 352.574 408.762 352.678C462.387 359.573 500.658 435.628 519.052 472.173C537.545 508.933 570.143 541.994 570.472 542.319C571.038 542.894 571.038 543.813 570.472 544.389C570.179 544.67 569.808 544.811 569.436 544.811Z" fill="#1A1A1A"/>
<path d="M482.997 485.302L396.568 504.61C391.705 500.789 386.989 496.759 382.511 492.528C340.841 453.374 316.03 397.521 317.09 337.724C317.121 334.528 317.267 331.294 317.474 328.067L380.36 314.032C384.601 313.083 389.025 314.889 391.413 318.564L489.511 469.222C493.52 475.406 490.163 483.704 482.997 485.302Z" fill="#1A1A1A"/>
<path d="M471.63 472.626L382.519 492.528C340.849 453.374 316.038 397.521 317.098 337.724L382.075 323.211C385.816 322.385 389.648 323.952 391.738 327.149L477.315 458.585C480.825 463.98 477.876 471.23 471.63 472.626Z" fill="white"/>
<path d="M382.079 494.12L381.518 493.593C338.611 453.276 314.598 396.455 315.64 337.7L315.659 336.549L381.75 321.785C386.1 320.817 390.499 322.611 392.949 326.347L478.526 457.783C480.433 460.716 480.786 464.402 479.47 467.648C478.154 470.893 475.339 473.282 471.939 474.041L382.079 494.12ZM318.528 338.9C317.834 396.168 341.262 451.476 382.944 490.936L471.305 471.2C473.816 470.642 475.808 468.946 476.777 466.558C477.746 464.164 477.496 461.549 476.088 459.387L390.524 327.951C388.751 325.238 385.552 323.946 382.384 324.638L318.528 338.9Z" fill="#1A1A1A"/>
<path d="M320.954 365.017C320.29 365.017 319.687 364.558 319.534 363.872C319.364 363.088 319.857 362.305 320.637 362.133L382 348.429C382.792 348.263 383.56 348.753 383.731 349.537C383.901 350.321 383.408 351.105 382.628 351.276L321.265 364.981C321.161 365.011 321.058 365.017 320.954 365.017Z" fill="#1A1A1A"/>
<path d="M321.903 389.628C321.239 389.628 320.636 389.169 320.484 388.483C320.313 387.699 320.806 386.915 321.586 386.744L394.093 370.553C394.879 370.381 395.653 370.877 395.824 371.661C395.994 372.445 395.501 373.229 394.721 373.4L322.214 389.591C322.11 389.616 322.007 389.628 321.903 389.628Z" fill="#1A1A1A"/>
<path d="M461.077 394.184C439.02 383.241 421.009 380.938 409.591 384.649C400.427 387.631 401.584 396.039 412.308 398.935C447.629 408.482 455.538 436.32 473.336 439.945" fill="white"/>
<path d="M473.341 441.402C473.243 441.402 473.146 441.396 473.048 441.372C465.042 439.737 459.034 433.589 452.082 426.461C443.064 417.221 431.841 405.72 411.929 400.338C405.884 398.703 402.07 395.182 401.966 391.146C401.881 387.693 404.562 384.741 409.138 383.253C421.879 379.114 441.047 382.61 461.715 392.867C462.434 393.222 462.727 394.098 462.373 394.821C462.02 395.543 461.142 395.837 460.429 395.482C440.438 385.562 422.074 382.108 410.04 386.027C406.756 387.099 404.824 388.979 404.879 391.073C404.946 393.724 408.011 396.253 412.69 397.521C433.364 403.112 444.898 414.924 454.16 424.416C460.777 431.201 466.492 437.055 473.633 438.512C474.419 438.671 474.925 439.443 474.766 440.233C474.626 440.931 474.017 441.402 473.341 441.402Z" fill="#1A1A1A"/>
<path d="M456.056 538.338C455.733 538.338 455.404 538.228 455.135 538.008C454.508 537.487 439.622 524.885 429.197 492.607C428.947 491.842 429.368 491.015 430.13 490.77C430.891 490.525 431.714 490.942 431.957 491.707C442.09 523.084 456.835 535.632 456.982 535.754C457.597 536.268 457.682 537.187 457.177 537.812C456.884 538.161 456.47 538.338 456.056 538.338Z" fill="#1A1A1A"/>
<path d="M446.246 525.62C445.741 525.62 445.247 525.35 444.979 524.879C444.583 524.175 444.833 523.287 445.527 522.889L520.112 480.544C520.807 480.146 521.696 480.391 522.092 481.095C522.488 481.8 522.239 482.687 521.544 483.085L446.959 525.43C446.734 525.559 446.49 525.62 446.246 525.62Z" fill="#1A1A1A"/>
<path d="M107.516 484.114C107.126 484.114 106.736 483.955 106.449 483.649C105.901 483.061 105.938 482.136 106.523 481.585L121.249 467.844L107.455 395.316L72.7732 401.654C71.9872 401.777 71.2255 401.274 71.0854 400.478C70.9392 399.682 71.4632 398.923 72.2553 398.782L108.35 392.187C109.124 392.058 109.886 392.561 110.038 393.351L124.259 468.101C124.351 468.597 124.186 469.099 123.821 469.442L108.509 483.728C108.229 483.985 107.875 484.114 107.516 484.114Z" fill="#1A1A1A"/>
<path d="M106.993 468.854C104.945 468.854 103.117 467.397 102.715 465.303L87.6166 386.278C87.1657 383.902 88.7073 381.606 91.0775 381.153C93.4294 380.687 95.7204 382.249 96.1774 384.625L111.276 463.649C111.727 466.025 110.185 468.322 107.815 468.775C107.541 468.83 107.267 468.854 106.993 468.854Z" fill="#1A1A1A"/>
<path d="M100.934 396.431C100.245 396.431 99.6296 395.935 99.5078 395.225L98.5207 389.646L93.043 390.779C92.251 390.938 91.4893 390.43 91.3309 389.64C91.1725 388.85 91.6782 388.078 92.4642 387.913L99.4042 386.48C99.788 386.4 100.184 386.48 100.513 386.701C100.836 386.921 101.061 387.27 101.128 387.656L102.371 394.71C102.512 395.5 101.988 396.259 101.196 396.4C101.104 396.419 101.019 396.431 100.934 396.431Z" fill="#1A1A1A"/>
<path d="M408.311 303.641C407.97 303.641 407.628 303.518 407.354 303.279C406.751 302.747 406.69 301.828 407.22 301.222L421.856 284.413C422.386 283.8 423.3 283.751 423.903 284.278C424.506 284.811 424.567 285.729 424.037 286.335L409.401 303.145C409.115 303.469 408.713 303.641 408.311 303.641Z" fill="#1A1A1A"/>
<path d="M430.61 322.556C430.153 322.556 429.696 322.336 429.416 321.925C428.959 321.264 429.123 320.352 429.787 319.898L459.064 299.581C459.722 299.121 460.63 299.287 461.081 299.954C461.538 300.615 461.373 301.528 460.709 301.981L431.432 322.299C431.183 322.47 430.896 322.556 430.61 322.556Z" fill="#1A1A1A"/>
<path d="M630.036 518.853C629.298 518.853 628.671 518.296 628.598 517.543L624.625 478.438C624.54 477.635 625.125 476.919 625.923 476.839C626.703 476.754 627.434 477.335 627.513 478.144L631.486 517.249C631.571 518.051 630.986 518.768 630.188 518.847C630.133 518.847 630.084 518.853 630.036 518.853Z" fill="#1A1A1A"/>
<path d="M135.013 170.153C134.702 166.166 131.85 162.75 127.646 162.75C124.277 162.75 120.779 165.505 120.334 168.977C121.76 170.637 122.662 172.762 122.65 174.942C122.638 177.275 122.449 179.595 122.242 181.916C122.01 184.451 121.291 186.503 119.579 188.377C118.97 189.044 118.226 189.528 117.44 189.932C119.64 191.089 122.376 191.187 124.587 189.834C131.284 185.756 135.634 178.114 135.013 170.153Z" fill="#1A1A1A"/>
<path d="M461.107 111.042C460.735 111.042 460.363 110.902 460.077 110.614L443.376 93.8291C442.809 93.2597 442.809 92.335 443.376 91.7655C443.942 91.196 444.863 91.196 445.429 91.7655L462.13 108.55C462.697 109.12 462.697 110.044 462.13 110.614C461.85 110.902 461.478 111.042 461.107 111.042Z" fill="white"/>
<path d="M523.273 549.704C519.873 549.704 516.48 549.618 513.08 549.446C504.421 549.012 496.342 548.124 488.384 546.74C454.525 540.947 422.47 526.777 395.685 505.761C390.695 501.848 385.924 497.751 381.525 493.587C338.605 453.276 314.593 396.468 315.653 337.712C315.677 334.785 315.805 331.601 316.031 327.982C316.463 320.872 317.31 313.53 318.547 306.17C333.621 217.004 403.472 148.127 492.363 134.771C513.896 131.483 535.953 131.709 557.918 135.445C581.529 139.474 603.951 147.416 624.558 159.051C682.905 191.843 722.114 251.266 729.425 318.013C729.511 318.674 729.596 319.396 729.663 320.082C729.925 322.317 730.095 324.62 730.248 326.922C730.394 329.402 730.54 331.901 730.595 334.369C731.04 348.232 730.083 362.243 727.756 376.015C716.807 440.784 675.447 497.243 617.124 527.034C588.03 541.945 555.774 549.704 523.273 549.704ZM522.871 135.39C512.775 135.39 502.728 136.149 492.802 137.661C405.147 150.827 336.278 218.743 321.411 306.659C320.192 313.916 319.357 321.154 318.931 328.165C318.705 331.735 318.584 334.871 318.559 337.755C317.517 395.696 341.195 451.714 383.517 491.456C387.855 495.559 392.553 499.601 397.476 503.458C423.877 524.181 455.488 538.148 488.878 543.862C496.72 545.227 504.683 546.097 513.226 546.532C548.657 548.32 584.118 540.665 615.82 524.444C673.333 495.063 714.107 439.394 724.904 375.531C727.201 361.955 728.14 348.134 727.701 334.46C727.646 332.011 727.5 329.543 727.36 327.112C727.214 324.871 727.043 322.617 726.781 320.395C726.72 319.703 726.635 319.029 726.549 318.374C719.335 252.533 680.675 193.943 623.144 161.611C602.824 150.141 580.718 142.309 557.443 138.335C545.909 136.369 534.356 135.39 522.871 135.39Z" fill="#1A1A1A"/>
<path d="M409.37 459.32C409.175 459.32 408.986 459.283 408.804 459.204L387.417 450.086C386.68 449.773 386.332 448.916 386.649 448.175C386.96 447.428 387.819 447.085 388.55 447.403L408.097 455.732L411.807 412.799C411.881 411.997 412.587 411.434 413.38 411.47C414.178 411.538 414.775 412.248 414.702 413.05L410.814 457.991C410.772 458.457 410.516 458.873 410.114 459.118C409.888 459.253 409.632 459.32 409.37 459.32Z" fill="#1A1A1A"/>
<path d="M294.267 531.737C293.725 531.737 293.201 531.431 292.951 530.904C292.604 530.176 292.915 529.306 293.64 528.957L306.965 522.613C307.684 522.276 308.556 522.583 308.897 523.311C309.244 524.04 308.933 524.909 308.208 525.259L294.883 531.603C294.688 531.694 294.481 531.737 294.267 531.737Z" fill="#1A1A1A"/>
<path d="M267 544.443C266.458 544.443 265.934 544.137 265.684 543.611C265.337 542.882 265.648 542.012 266.373 541.663L279.698 535.319C280.423 534.982 281.289 535.282 281.63 536.017C281.977 536.746 281.666 537.616 280.941 537.965L267.622 544.302C267.421 544.4 267.207 544.443 267 544.443Z" fill="#1A1A1A"/>
<path d="M271.131 512.956C270.576 512.956 270.052 512.638 269.808 512.099C269.479 511.364 269.796 510.501 270.527 510.164L294.65 499.117C295.381 498.786 296.24 499.105 296.575 499.839C296.904 500.574 296.587 501.438 295.856 501.774L271.734 512.821C271.539 512.913 271.332 512.956 271.131 512.956Z" fill="#1A1A1A"/>
<path d="M365.824 493.95C365.227 493.95 364.672 493.577 364.459 492.989C364.398 492.824 358.592 476.798 351.865 469.817C351.31 469.236 351.323 468.317 351.901 467.754C352.474 467.196 353.394 467.203 353.955 467.79C361.114 475.218 366.951 491.317 367.195 491.997C367.469 492.756 367.079 493.589 366.324 493.865C366.159 493.92 365.988 493.95 365.824 493.95Z" fill="#1A1A1A"/>
<path d="M54.1761 532.662C53.8227 532.662 53.4693 532.533 53.189 532.276C52.598 531.725 52.5675 530.8 53.1098 530.213L69.628 512.295C70.1703 511.701 71.0904 511.67 71.6814 512.215C72.2724 512.767 72.3029 513.691 71.7606 514.279L55.2423 532.197C54.956 532.503 54.566 532.662 54.1761 532.662Z" fill="#1A1A1A"/>
<path d="M60.6046 509C60.2329 509 59.8612 508.859 59.5749 508.571L49.7712 498.719C49.2045 498.149 49.2045 497.224 49.7712 496.655L59.5749 486.802C60.1415 486.233 61.0616 486.233 61.6282 486.802L71.4319 496.655C71.7061 496.93 71.8584 497.298 71.8584 497.69C71.8584 498.082 71.7061 498.449 71.4319 498.725L61.6282 508.577C61.3479 508.859 60.9763 509 60.6046 509ZM52.8542 497.684L60.6046 505.473L68.3549 497.684L60.6046 489.895L52.8542 497.684Z" fill="#1A1A1A"/>
<path d="M691.133 133.577C690.328 133.577 689.682 132.922 689.682 132.12V115.139C689.682 114.331 690.334 113.682 691.133 113.682C691.937 113.682 692.583 114.337 692.583 115.139V132.12C692.583 132.922 691.937 133.577 691.133 133.577Z" fill="#1A1A1A"/>
<defs>
<radialGradient id="paint0_radial" cx="0" cy="0" r="1" gradientUnits="userSpaceOnUse" gradientTransform="translate(474.5 544) rotate(-128.639) scale(644.607 616.105)">
<stop offset="0.682682" stop-color="white"/>
<stop offset="1" stop-color="#DFD9F3"/>
</radialGradient>
</defs>
</svg>
