<svg width="601" height="533" viewBox="0 0 601 533" fill="none" xmlns="http://www.w3.org/2000/svg">
<path d="M461.266 289C384.222 289 321.766 226.544 321.766 149.5C321.766 72.4563 384.222 10 461.266 10C538.309 10 600.766 72.4563 600.766 149.5C600.766 226.544 538.309 289 461.266 289Z" fill="url(#paint0_linear)"/>
<path d="M303.266 279C226.222 279 163.766 216.544 163.766 139.5C163.766 62.4563 226.222 0 303.266 0C380.309 0 442.766 62.4563 442.766 139.5C442.766 216.544 380.309 279 303.266 279Z" fill="url(#paint1_linear)"/>
<path d="M383.266 403C306.222 403 243.766 340.544 243.766 263.5C243.766 186.456 306.222 124 383.266 124C460.309 124 522.766 186.456 522.766 263.5C522.766 340.544 460.309 403 383.266 403Z" fill="url(#paint2_linear)"/>
<path d="M377.269 275.942H436.416C436.115 268.316 435.708 260.101 435.4 250.934C435.4 250.934 433.384 202.068 426.612 200.562C423.558 199.883 422.571 205.786 422.41 212.467C421.64 204.008 420.148 195.555 417.256 195.093C412.137 194.281 411.45 209.673 411.429 220.178C411.198 209.862 410.169 194.54 406.135 193.335C399.356 191.311 400.071 204.281 401.345 228.994C401.345 228.994 398.194 212.446 389.636 210.899C383.159 209.729 377.927 211.963 380.056 216.753C382.185 221.543 389.986 218.14 391.051 228.784C392.115 239.429 375.735 237.293 375.812 227.65C375.84 224.008 381.352 219.764 378.628 217.208C371.849 210.85 358.886 227.082 376.331 252.412C377.164 260.269 377.493 268.113 377.269 275.942Z" fill="white"/>
<path d="M436.417 277.203H377.27C376.927 277.203 376.605 277.063 376.367 276.817C376.129 276.572 376.002 276.243 376.009 275.9C376.227 268.337 375.918 260.592 375.106 252.874C362.452 234.338 365.652 220.892 370.918 216.361C373.257 214.351 376.058 214.043 378.362 215.444C378.187 214.127 378.489 212.923 379.266 211.928C381.038 209.673 385.099 208.812 389.854 209.666C394.462 210.5 397.592 215.017 399.595 219.449C398.888 204.078 398.979 195.366 402.333 192.726C403.454 191.844 404.855 191.648 406.486 192.131C407.551 192.446 409.834 193.125 411.332 202.313C412.047 198.399 413.104 195.906 414.512 194.708C415.366 193.98 416.388 193.686 417.446 193.854C419.049 194.113 420.933 195.527 422.383 202.845C422.957 201.151 423.629 200.38 424.211 199.925C424.988 199.316 425.905 199.113 426.886 199.33C434.05 200.92 436.179 239.191 436.662 250.879C436.858 256.663 437.089 262.069 437.313 267.181C437.446 270.172 437.572 273.071 437.677 275.886C437.691 276.229 437.565 276.558 437.327 276.811C437.089 277.063 436.76 277.203 436.417 277.203ZM378.559 274.675H435.1C435.002 272.28 434.897 269.822 434.785 267.294C434.561 262.174 434.33 256.761 434.134 250.977C433.188 227.951 429.932 202.593 426.333 201.795C426.094 201.739 425.94 201.774 425.758 201.914C425.198 202.355 423.86 204.267 423.664 212.503C423.65 213.168 423.111 213.707 422.446 213.735C421.655 213.749 421.206 213.252 421.15 212.587C419.729 196.949 417.159 196.361 417.054 196.347C416.71 196.291 416.444 196.382 416.15 196.627C414.869 197.719 412.719 202.229 412.684 220.185C412.684 220.878 412.124 221.438 411.437 221.445C411.437 221.445 411.43 221.445 411.423 221.445C410.737 221.445 410.177 220.899 410.163 220.213C409.624 196.382 406.164 194.666 405.772 194.554C404.693 194.232 404.182 194.491 403.902 194.715C400.954 197.033 401.64 210.241 402.579 228.511L402.6 228.938C402.635 229.597 402.151 230.178 401.493 230.255C400.891 230.36 400.233 229.891 400.107 229.24C400.079 229.078 397.018 213.525 389.413 212.152C385.695 211.473 382.417 212.012 381.255 213.49C381.052 213.749 380.442 214.526 381.206 216.256C381.78 217.552 382.928 218.042 384.763 218.742C387.634 219.842 391.57 221.34 392.305 228.672C392.62 231.824 391.577 234.38 389.35 235.857C386.738 237.594 382.795 237.58 379.539 235.815C376.339 234.086 374.525 231.109 374.553 227.657C374.567 225.808 375.61 224.043 376.612 222.349C377.977 220.038 378.538 218.875 377.767 218.154C376.227 216.718 374.336 216.76 372.571 218.287C368.145 222.097 365.54 234.534 377.375 251.719C377.494 251.894 377.564 252.09 377.592 252.3C378.383 259.779 378.713 267.307 378.559 274.675ZM380.596 219.456C380.4 220.878 379.532 222.342 378.769 223.63C377.935 225.045 377.067 226.508 377.06 227.678C377.039 230.171 378.376 232.328 380.722 233.602C383.145 234.912 386.108 234.975 387.935 233.756C389.364 232.811 389.994 231.137 389.777 228.924C389.196 223.14 386.598 222.153 383.846 221.102C382.76 220.682 381.584 220.234 380.596 219.456Z" fill="#1A1A1A"/>
<path d="M411.751 229.974C411.079 229.974 410.519 229.442 410.491 228.763L410.161 220.233C410.133 219.533 410.68 218.952 411.373 218.924C411.387 218.924 411.408 218.924 411.422 218.924C412.094 218.924 412.654 219.456 412.682 220.135L413.012 228.665C413.04 229.365 412.493 229.946 411.8 229.974C411.779 229.974 411.765 229.974 411.751 229.974Z" fill="#1A1A1A"/>
<path d="M422.739 233.385C422.053 233.385 421.493 232.839 421.479 232.146L421.136 212.495C421.122 211.795 421.675 211.221 422.375 211.214C422.957 211.207 423.65 211.753 423.657 212.453L424 232.104C424.014 232.804 423.461 233.378 422.76 233.385C422.753 233.385 422.746 233.385 422.739 233.385Z" fill="#1A1A1A"/>
<path d="M428.959 348.583C415.107 379.971 386.598 400.349 353.075 405.545C330.469 409.026 306.729 404.46 286.323 393.892V531.206H109.576C109.576 531.206 108.238 353.149 109.576 322.568C109.674 320.172 109.8 317.623 109.954 314.976C107.706 315.831 105.514 316.741 103.322 317.672C88.9662 323.877 60.7654 333.387 68.2306 356.826C69.6171 361.217 72.7474 364.396 76.529 367.043C72.7684 389.446 69.337 411.897 65.7585 434.348C58.5945 431.575 51.6826 428.144 45.1209 423.802C14.5951 403.62 -3.9487 369.361 2.56403 332.449C8.39047 299.297 37.0535 277.399 65.7585 263.855C98.9594 248.189 178.177 236.985 181.804 238.448C186.244 237.972 190.964 237.643 195.957 237.517C206.202 237.237 230.292 239.155 249.487 246.046C265.685 251.698 280.307 263.484 287.646 280.886C293.396 294.507 295.252 315.214 306.884 326.013C319.146 337.414 331.884 340.747 346.541 337.897C356.429 335.978 365.561 328.135 369.602 313.625C374.196 297.154 375.785 280.501 375.155 263.778C375.435 263.806 375.659 263.855 375.94 263.855H438.63C440.107 298.253 441.368 320.481 428.959 348.583Z" fill="white"/>
<path d="M286.322 532.474H109.568C108.875 532.474 108.314 531.914 108.307 531.22C108.293 529.441 106.984 352.778 108.307 322.519C108.384 320.712 108.475 318.821 108.581 316.867C106.977 317.505 105.387 318.163 103.805 318.835C102.67 319.325 101.438 319.844 100.142 320.383C85.3098 326.595 62.9004 335.971 69.4201 356.448C70.5546 360.034 73.0336 363.073 77.2424 366.014C77.6416 366.294 77.8447 366.777 77.7606 367.254C75.1695 382.709 72.6835 398.459 70.2885 413.69C69.196 420.644 68.0966 427.598 66.9901 434.552C66.9271 434.923 66.703 435.259 66.3738 435.448C66.0447 435.637 65.6455 435.672 65.2884 435.532C57.5852 432.549 50.7573 429.061 44.4127 424.867C11.5759 403.158 -4.94401 367.667 1.3026 332.246C7.54222 296.769 39.4966 274.857 65.1973 262.728C96.8646 247.783 173.974 235.773 181.852 237.188C186.439 236.698 191.166 236.39 195.907 236.271C206.699 235.97 230.894 238.049 249.9 244.87C267.708 251.089 281.889 264.037 288.794 280.41C290.657 284.829 292.092 289.878 293.605 295.221C296.777 306.419 300.062 317.995 307.716 325.103C319.292 335.859 331.547 339.543 346.274 336.672C356.743 334.641 364.79 326.125 368.361 313.303C372.731 297.63 374.531 281.454 373.866 263.834C373.852 263.47 373.999 263.12 374.258 262.875C374.524 262.623 374.86 262.518 375.238 262.532L375.567 262.567C375.679 262.581 375.784 262.602 375.903 262.602H438.594C439.266 262.602 439.826 263.134 439.854 263.806L439.945 265.977C441.395 299.297 442.347 321.307 430.078 349.081C416.296 380.321 388.285 401.351 353.235 406.785C331.624 410.112 308.374 406.26 287.554 395.938V531.199C287.582 531.907 287.015 532.474 286.322 532.474ZM110.821 529.953H285.054V393.893C285.054 393.452 285.286 393.045 285.664 392.814C286.035 392.583 286.511 392.569 286.896 392.772C307.716 403.557 331.148 407.646 352.878 404.299C387.059 399.005 414.371 378.507 427.802 348.072C439.833 320.838 438.881 299.059 437.452 266.096L437.41 265.13H376.45C376.982 282.476 375.133 298.471 370.805 313.982C366.975 327.764 358.214 336.938 346.771 339.151C331.176 342.169 318.22 338.31 306.014 326.952C297.842 319.36 294.459 307.441 291.189 295.908C289.69 290.641 288.283 285.669 286.476 281.384C279.753 265.438 266.469 253.316 249.059 247.237C230.368 240.528 206.601 238.512 195.977 238.785C191.236 238.904 186.509 239.219 181.922 239.709C181.719 239.723 181.509 239.702 181.313 239.625C176.684 238.428 99.3366 249.401 66.2758 264.997C41.1073 276.874 9.83916 298.254 3.78163 332.673C-2.28291 367.085 13.8098 401.603 45.7922 422.752C51.5836 426.582 57.7883 429.811 64.7352 432.598C65.7576 426.162 66.773 419.727 67.7884 413.291C70.1484 398.312 72.5854 382.828 75.1345 367.604C70.8417 364.466 68.2506 361.147 67.0041 357.197C59.7841 334.522 84.4274 324.207 99.1546 318.044C100.436 317.505 101.662 316.993 102.796 316.503C105.016 315.565 107.222 314.648 109.477 313.786C109.869 313.632 110.324 313.695 110.674 313.947C111.025 314.199 111.214 314.612 111.193 315.033C111.039 317.673 110.912 320.215 110.814 322.61C109.568 351.483 110.709 513.972 110.821 529.953Z" fill="#1A1A1A"/>
<path d="M168.267 531.234C167.567 531.234 167.007 530.667 167.007 529.973V239.681C167.007 238.981 167.574 238.42 168.267 238.42C168.96 238.42 169.528 238.988 169.528 239.681V529.973C169.528 530.667 168.967 531.234 168.267 531.234Z" fill="#1A1A1A"/>
<path d="M218.883 442.815H168.637V530.464H218.883V442.815Z" fill="#1A1A1A"/>
<path d="M217.98 531.234C217.279 531.234 216.719 530.667 216.719 529.974V240.291C216.719 239.59 217.286 239.03 217.98 239.03C218.673 239.03 219.24 239.598 219.24 240.291V529.974C219.24 530.667 218.68 531.234 217.98 531.234Z" fill="#1A1A1A"/>
<path d="M198.855 438.543C198.155 438.543 197.595 437.976 197.595 437.283V338.366C197.595 337.666 198.162 337.106 198.855 337.106C199.549 337.106 200.116 337.673 200.116 338.366V437.283C200.116 437.976 199.549 438.543 198.855 438.543Z" fill="#1A1A1A"/>
<path d="M215.171 191.382C213.75 191.151 212.321 190.927 210.9 190.696C209.359 190.451 207.783 191.095 207.335 192.72C207.216 193.154 207.258 193.637 207.363 194.106C206.656 194.807 206.271 195.766 206.565 196.845C206.95 198.245 208.659 199.422 210.129 198.868C211.81 198.238 217.37 194.414 217.37 193.056C217.37 191.879 216.411 191.585 215.171 191.382Z" fill="#1A1A1A"/>
<path d="M206.201 164.75C198.826 162.299 170.584 152.733 167.271 150.093C174.435 135.309 189.94 132.795 203.581 138.468C218.197 144.546 225.501 160.051 219.793 174.722C215.493 172.929 211.215 169.701 206.201 164.75Z" fill="#1A1A1A"/>
<path d="M203.589 138.468C217.427 144.224 224.458 159.434 220.312 173.489C220.55 173.566 220.774 173.601 221.012 173.699C232.154 178.328 231.678 197.894 210.872 191.221C209.962 191.9 209.051 192.586 208.071 193.153L212.357 238.392L182.496 285.48L174.177 237.972L170.682 192.334C162.356 184.274 158.063 171.745 165.605 154.154C173.231 136.332 188.764 132.305 203.589 138.468Z" fill="white"/>
<path d="M182.484 286.734C182.4 286.734 182.323 286.727 182.239 286.706C181.727 286.608 181.335 286.202 181.244 285.683L172.925 238.168L169.451 192.88C162.385 185.849 155.957 173.405 164.43 153.629C171.685 136.703 187.239 130.295 204.067 137.284C218.024 143.089 225.503 158.146 221.833 172.67C228.318 175.576 230.741 182.712 228.913 187.684C228.108 189.883 224.459 196.648 211.098 192.6C210.537 193.013 209.977 193.427 209.389 193.798L213.598 238.252C213.626 238.533 213.556 238.813 213.409 239.044L183.548 286.132C183.317 286.517 182.911 286.734 182.484 286.734ZM190.81 136.997C180.39 136.997 171.678 143.166 166.755 154.644C158.709 173.412 164.92 185.002 171.552 191.424C171.776 191.641 171.909 191.928 171.937 192.236L175.432 237.874L183.17 282.056L211.056 238.084L206.812 193.273C206.763 192.782 207.008 192.313 207.435 192.061C208.339 191.536 209.186 190.906 210.075 190.24C210.397 189.995 210.867 189.897 211.252 190.016C219.165 192.558 224.879 191.361 226.546 186.83C227.975 182.95 225.846 177.082 220.517 174.862C220.159 174.764 220.026 174.729 219.9 174.687C219.256 174.47 218.899 173.783 219.095 173.132C223.115 159.497 216.238 145.092 203.1 139.63C198.843 137.858 194.704 136.997 190.81 136.997Z" fill="#1A1A1A"/>
<path d="M211.151 158.972C204.848 157.109 181.879 147.305 176.865 136.78C171.122 106.723 197.993 126.247 210.472 134.168C223.833 142.648 235.444 157.732 225.15 175.842C221.214 173.349 215.248 164.707 211.151 158.972Z" fill="#1A1A1A"/>
<path d="M182.754 199.75C182.691 199.75 182.621 199.743 182.551 199.736C178.532 199.092 173.924 196.151 169.953 193.356C169.379 192.957 169.246 192.166 169.645 191.599C170.044 191.025 170.835 190.891 171.403 191.291C174.925 193.763 179.421 196.676 182.957 197.243C183.644 197.355 184.113 197.999 184.008 198.693C183.896 199.309 183.364 199.75 182.754 199.75Z" fill="#1A1A1A"/>
<path d="M193.723 334.5H97.0825V460.434H193.723V334.5Z" fill="white"/>
<path d="M193.723 461.695H97.0823C96.382 461.695 95.8218 461.128 95.8218 460.435V334.501C95.8218 333.801 96.389 333.24 97.0823 333.24H193.723C194.423 333.24 194.983 333.808 194.983 334.501V460.428C194.99 461.128 194.423 461.695 193.723 461.695ZM98.3429 459.167H192.462V335.761H98.3429V459.167Z" fill="#1A1A1A"/>
<path d="M140.765 380.314C165.296 378.738 188.434 377.821 188.434 384.137C188.434 390.454 172.397 386.084 168.027 391.911C163.65 397.744 169 398.71 179.204 398.227C189.407 397.744 202.236 398.689 202.04 403.087C201.795 408.704 195.724 410.377 195.724 410.377C195.724 410.377 202.846 418.27 193.777 422.527C193.777 422.527 196.207 428.361 190.864 431.274C190.864 431.274 191.039 441.911 143.328 442.185C95.6167 442.458 131.094 382.197 131.094 382.197L140.765 380.314Z" fill="white"/>
<path d="M143.013 443.446C131.647 443.446 123.909 440.021 120.022 433.256C110.029 415.889 129.189 382.947 130.009 381.554C130.191 381.246 130.499 381.021 130.856 380.958L140.527 379.082C140.583 379.075 140.632 379.068 140.688 379.061C167.551 377.338 183.966 377.156 188.406 381.316C189.246 382.107 189.695 383.087 189.695 384.145C189.695 388.571 184.491 389.054 179.463 389.516C175.402 389.894 170.801 390.314 169.036 392.674C168.013 394.04 167.558 395.16 167.831 395.665C168.266 396.491 170.591 397.38 179.141 396.974C183.525 396.757 198.126 396.4 202.167 400.427C202.951 401.211 203.343 402.149 203.301 403.151C203.105 407.654 199.8 409.951 197.72 410.952C198.749 412.514 200.073 415.182 199.513 417.962C199.085 420.084 197.671 421.835 195.311 423.165C195.955 425.693 195.815 429.678 191.992 432.087C191.809 432.696 191.382 433.585 190.402 434.587C186.543 438.537 175.241 443.27 143.335 443.453C143.223 443.446 143.118 443.446 143.013 443.446ZM131.899 383.325C129.56 387.478 113.566 416.981 122.207 432.003C125.618 437.92 132.614 440.925 143.013 440.925C143.111 440.925 143.216 440.925 143.321 440.925C188.105 440.672 189.597 431.324 189.604 431.225C189.597 430.756 189.849 430.392 190.262 430.168C194.45 427.885 192.818 423.501 192.615 423.011C192.363 422.388 192.636 421.673 193.245 421.393C195.444 420.364 196.719 419.033 197.041 417.458C197.636 414.488 194.821 411.26 194.786 411.232C194.492 410.91 194.394 410.455 194.513 410.035C194.632 409.614 194.961 409.285 195.381 409.173C195.591 409.117 200.577 407.654 200.78 403.046C200.787 402.85 200.752 402.583 200.388 402.219C198.287 400.125 189.611 399.012 179.26 399.502C170.661 399.908 166.823 399.173 165.597 396.862C164.414 394.635 166.375 392.03 167.012 391.176C169.456 387.919 174.645 387.443 179.232 387.023C184.169 386.568 187.174 386.148 187.174 384.159C187.174 383.914 187.117 383.578 186.683 383.171C182.18 378.949 155.387 380.657 140.933 381.589L131.899 383.325Z" fill="#1A1A1A"/>
<path d="M174.479 174.771C174.304 174.771 174.129 174.736 173.954 174.659L167.42 171.69C167.112 171.55 166.867 171.284 166.755 170.968C166.636 170.646 166.664 170.289 166.811 169.988C169.752 164.036 177.399 158.041 177.722 157.789C178.275 157.362 179.059 157.46 179.493 158.006C179.92 158.552 179.822 159.351 179.276 159.778C179.206 159.834 172.763 164.89 169.703 169.96L174.997 172.369C175.628 172.656 175.915 173.405 175.621 174.043C175.418 174.498 174.955 174.771 174.479 174.771Z" fill="#1A1A1A"/>
<path d="M220.431 163.553C220.116 162.124 218.715 161.116 217.328 161.179C217.552 160.555 217.777 159.925 217.994 159.302C219.247 155.779 213.652 154.267 212.405 157.761C210.753 162.404 208.918 167.026 207.44 171.732C206.523 174.652 206.25 178.049 209.079 180.059C215.921 184.912 220.634 171.088 222.027 166.837C222.567 165.205 221.663 164.036 220.431 163.553Z" fill="#1A1A1A"/>
<path d="M21.7908 402.841C28.3315 410.839 36.2098 417.933 45.1175 423.815C73.7175 442.709 109.061 445.258 142.465 444.691V379.809C122.71 380.285 100.812 380.117 84.6141 371.762C79.1308 368.933 73.6405 365.831 70.3841 361.146" fill="white"/>
<path d="M134.413 446.028C104.538 446.028 71.5402 442.786 44.4248 424.872C35.412 418.92 27.4707 411.77 20.8179 403.639C20.3767 403.1 20.4538 402.309 20.993 401.868C21.5322 401.426 22.3235 401.503 22.7647 402.043C29.2564 409.977 37.0087 416.952 45.8114 422.764C74.4394 441.679 109.993 443.892 141.205 443.451V381.104C121.835 381.538 100.091 381.167 84.0404 372.883C78.5011 370.025 72.8007 366.818 69.3553 361.86C68.9561 361.286 69.1032 360.501 69.6704 360.102C70.2446 359.71 71.029 359.85 71.4281 360.417C74.5374 364.899 79.9367 367.924 85.1959 370.635C101.079 378.828 123.054 379.01 142.431 378.541C142.739 378.506 143.096 378.66 143.341 378.898C143.579 379.136 143.719 379.458 143.719 379.801V444.684C143.719 445.37 143.166 445.93 142.48 445.944C139.826 446 137.13 446.028 134.413 446.028Z" fill="#1A1A1A"/>
<path d="M169.31 413.115C168.645 413.115 168.084 412.59 168.049 411.918C168.014 411.217 168.547 410.629 169.247 410.594C169.436 410.587 188.239 409.642 195.627 409.116C196.264 409.067 196.93 409.593 196.972 410.286C197.021 410.979 196.495 411.581 195.802 411.63C188.393 412.156 169.562 413.101 169.373 413.108C169.352 413.115 169.331 413.115 169.31 413.115Z" fill="#1A1A1A"/>
<path d="M168.996 426.68C168.337 426.68 167.784 426.169 167.742 425.503C167.693 424.81 168.218 424.208 168.912 424.159C169.094 424.145 187.168 422.884 193.471 421.302C194.15 421.133 194.83 421.54 195.005 422.219C195.173 422.898 194.767 423.585 194.087 423.753C187.56 425.391 169.836 426.624 169.087 426.68C169.052 426.68 169.024 426.68 168.996 426.68Z" fill="#1A1A1A"/>
<path d="M170.764 435.552C169.889 435.552 169.427 435.51 169.357 435.503C168.664 435.44 168.159 434.824 168.222 434.131C168.285 433.438 168.923 432.94 169.595 432.989C169.658 432.996 176.248 433.536 190.289 429.873C190.968 429.684 191.654 430.104 191.829 430.776C192.004 431.449 191.605 432.142 190.926 432.317C179.959 435.174 173.433 435.552 170.764 435.552Z" fill="#1A1A1A"/>
<path d="M174.242 325.669H116.573V334.129H174.242V325.669Z" fill="#1A1A1A"/>
<path d="M174.24 335.389H116.571C115.87 335.389 115.31 334.822 115.31 334.129V325.669C115.31 324.969 115.877 324.409 116.571 324.409H174.24C174.94 324.409 175.5 324.976 175.5 325.669V334.129C175.5 334.829 174.94 335.389 174.24 335.389ZM117.831 332.868H172.979V326.937H117.831V332.868Z" fill="black"/>
<path d="M286 486.318C285.888 486.318 285.776 486.304 285.664 486.269L249.158 476.143C248.485 475.961 248.093 475.26 248.282 474.588C248.471 473.916 249.15 473.517 249.837 473.713L286.343 483.839C287.015 484.021 287.408 484.721 287.218 485.393C287.064 485.954 286.553 486.318 286 486.318Z" fill="#1A1A1A"/>
<path d="M109.492 486.318C108.981 486.318 108.498 486.003 108.309 485.498C108.064 484.847 108.4 484.119 109.051 483.874L136.208 473.748C136.86 473.502 137.588 473.832 137.833 474.49C138.078 475.141 137.742 475.869 137.091 476.115L109.933 486.241C109.786 486.297 109.639 486.318 109.492 486.318Z" fill="#1A1A1A"/>
<path d="M286.307 395.16C285.607 395.16 285.047 394.592 285.047 393.899V321.58C285.047 320.88 285.614 320.319 286.307 320.319C287.001 320.319 287.568 320.887 287.568 321.58V393.899C287.568 394.599 287.008 395.16 286.307 395.16Z" fill="#1A1A1A"/>
<path d="M109.953 316.244C109.253 316.244 108.693 315.677 108.693 314.984V305.439C108.693 304.738 109.26 304.178 109.953 304.178C110.653 304.178 111.214 304.745 111.214 305.439V314.984C111.214 315.684 110.646 316.244 109.953 316.244Z" fill="#1A1A1A"/>
<path d="M40.7556 157.526C40.4335 157.526 40.1114 157.4 39.8663 157.155L26.1335 143.422C25.6433 142.932 25.6433 142.134 26.1335 141.637L39.8663 127.904C40.3565 127.414 41.1548 127.414 41.652 127.904L55.3848 141.637C55.875 142.127 55.875 142.925 55.3848 143.422L41.652 157.155C41.4069 157.407 41.0778 157.526 40.7556 157.526ZM28.8086 142.533L40.7556 154.48L52.7026 142.533L40.7556 130.586L28.8086 142.533Z" fill="#1A1A1A"/>
<path d="M488.503 447.394C488.181 447.394 487.859 447.268 487.614 447.023L475.254 434.663C474.764 434.172 474.764 433.374 475.254 432.877C475.744 432.387 476.542 432.387 477.04 432.877L489.4 445.237C489.89 445.727 489.89 446.526 489.4 447.023C489.148 447.275 488.826 447.394 488.503 447.394Z" fill="#1A1A1A"/>
<path d="M459.813 460.638C455.71 460.638 452.376 457.298 452.376 453.201C452.376 449.104 455.717 445.764 459.813 445.764C463.91 445.764 467.251 449.104 467.251 453.201C467.251 457.298 463.917 460.638 459.813 460.638ZM459.813 448.278C457.103 448.278 454.897 450.484 454.897 453.194C454.897 455.904 457.103 458.11 459.813 458.11C462.523 458.11 464.729 455.904 464.729 453.194C464.729 450.484 462.523 448.278 459.813 448.278Z" fill="#1A1A1A"/>
<path d="M119.407 366.238C121.766 366.238 123.678 364.326 123.678 361.967C123.678 359.607 121.766 357.695 119.407 357.695C117.047 357.695 115.135 359.607 115.135 361.967C115.135 364.326 117.047 366.238 119.407 366.238Z" fill="#1A1A1A"/>
<path d="M172.784 363.241H134.541C133.84 363.241 133.28 362.674 133.28 361.981C133.28 361.287 133.847 360.72 134.541 360.72H172.784C173.484 360.72 174.044 361.287 174.044 361.981C174.044 362.674 173.484 363.241 172.784 363.241Z" fill="#1A1A1A"/>
<path d="M251.334 366.42C251.222 366.42 251.11 366.406 250.998 366.371L233.659 361.539C233.112 361.392 232.734 360.888 232.734 360.328V321.966C232.734 321.265 233.302 320.705 233.995 320.705H268.106C268.806 320.705 269.367 321.272 269.367 321.966V360.328C269.367 360.888 268.995 361.385 268.456 361.539L251.684 366.371C251.572 366.399 251.453 366.42 251.334 366.42ZM235.262 359.368L251.334 363.843L266.853 359.375V323.226H235.262V359.368ZM268.113 360.328H268.141H268.113Z" fill="#1A1A1A"/>
<path d="M362.533 205.359C362.316 205.359 362.099 205.303 361.896 205.184L351.665 199.218C351.062 198.867 350.859 198.097 351.21 197.495C351.56 196.893 352.33 196.689 352.932 197.04L363.164 203.006C363.766 203.356 363.969 204.127 363.619 204.729C363.395 205.135 362.967 205.359 362.533 205.359Z" fill="white"/>
<path d="M373.312 197.496C372.815 197.496 372.339 197.194 372.143 196.704L362.268 172.019C362.009 171.375 362.324 170.639 362.969 170.38C363.613 170.114 364.348 170.436 364.607 171.081L374.482 195.766C374.741 196.41 374.426 197.145 373.781 197.405C373.627 197.468 373.466 197.496 373.312 197.496Z" fill="white"/>
<path d="M230.936 428.516H224.927C224.227 428.516 223.667 427.949 223.667 427.256C223.667 426.562 224.234 425.995 224.927 425.995H230.936C231.629 425.995 232.196 426.562 232.196 427.256C232.196 427.949 231.629 428.516 230.936 428.516Z" fill="#1A1A1A"/>
<path d="M230.936 493.034H224.927C224.227 493.034 223.667 492.467 223.667 491.774C223.667 491.08 224.234 490.513 224.927 490.513H230.936C231.629 490.513 232.196 491.08 232.196 491.774C232.196 492.467 231.629 493.034 230.936 493.034Z" fill="#1A1A1A"/>
<path d="M400.519 247.86C400.029 247.86 399.552 247.566 399.356 247.083C399.223 246.767 395.988 239.267 385.273 237.327C384.587 237.201 384.132 236.543 384.258 235.857C384.384 235.171 385.049 234.722 385.729 234.841C397.858 237.047 401.541 245.752 401.695 246.123C401.961 246.767 401.653 247.503 401.009 247.762C400.841 247.832 400.68 247.86 400.519 247.86Z" fill="#1A1A1A"/>
<defs>
<linearGradient id="paint0_linear" x1="461.266" y1="335.818" x2="461.266" y2="28.0534" gradientUnits="userSpaceOnUse">
<stop stop-color="white" stop-opacity="0.56"/>
<stop offset="1" stop-color="#FFBC26"/>
</linearGradient>
<linearGradient id="paint1_linear" x1="303.266" y1="325.818" x2="303.266" y2="18.0534" gradientUnits="userSpaceOnUse">
<stop stop-color="#5FAE62" stop-opacity="0.28"/>
<stop offset="1" stop-color="#5FAE62"/>
</linearGradient>
<linearGradient id="paint2_linear" x1="383.266" y1="449.818" x2="367.266" y2="263" gradientUnits="userSpaceOnUse">
<stop stop-color="#6A46F0" stop-opacity="0"/>
<stop offset="1" stop-color="#825FFF"/>
</linearGradient>
</defs>
</svg>
