<svg width="217" height="35" viewBox="0 0 217 35" fill="none" xmlns="http://www.w3.org/2000/svg">
<mask id="mask0" mask-type="alpha" maskUnits="userSpaceOnUse" x="0" y="0" width="22" height="35">
<path d="M0 0L12.0111 34.38H21.4937L9.48269 0H0Z" fill="#C4C4C4"/>
</mask>
<g mask="url(#mask0)">
<path d="M14.6141 -9.85693L37.8146 23.3717L6.88058 44.2372L-16.3199 11.0086L14.6141 -9.85693Z" fill="url(#paint0_linear)"/>
</g>
<mask id="mask1" mask-type="alpha" maskUnits="userSpaceOnUse" x="12" y="10" width="17" height="25">
<path d="M12.0111 34.3801H21.4938C21.4938 24.5491 24.4515 16.1091 28.6867 12.4309C27.2343 11.1701 25.6282 10.4668 23.9427 10.4668C17.3541 10.4668 12.0111 21.1731 12.0111 34.3801Z" fill="#C4C4C4"/>
</mask>
<g mask="url(#mask1)">
<path d="M0.376831 25.9143L17.9164 2.63135L40.3218 18.933L22.7823 42.216L0.376831 25.9143Z" fill="url(#paint1_linear)"/>
</g>
<mask id="mask2" mask-type="alpha" maskUnits="userSpaceOnUse" x="23" y="10" width="23" height="25">
<path d="M23.9436 10.4668C25.6292 10.4668 27.2299 11.1649 28.6823 12.4309C32.9121 16.1039 35.8752 24.5491 35.8752 34.3749H45.3579C45.3579 21.1679 40.0149 10.4668 33.4263 10.4668H23.9436Z" fill="#C4C4C4"/>
</mask>
<g mask="url(#mask2)">
<path d="M40.2844 1.51611L55.709 28.7117L29.0207 43.3306L13.5961 16.1402L40.2844 1.51611Z" fill="url(#paint2_linear)"/>
</g>
<path d="M35.8741 34.38L47.8905 0H57.3732L45.3621 34.38H35.8741Z" fill="#F7C654"/>
<path d="M117.434 9.90918C113.697 9.90918 110.803 11.1022 108.423 13.5353C106.043 15.9214 104.829 18.8754 104.829 22.4546C104.829 26.0806 106.043 29.0867 108.471 31.4677C110.898 33.8069 114.036 35 117.969 35C122.676 35 126.201 32.8431 128.305 29.1961L123.805 27.0445C122.554 29.0972 120.784 30.2798 118.017 30.2798C113.988 30.2798 110.665 28.2219 110.315 24.6531H129.281C129.864 22.1003 129.291 16.6924 126.381 13.5874C124.097 11.1491 120.975 9.90918 117.434 9.90918ZM110.267 20.4488C110.766 16.7029 113.501 14.5824 117.386 14.5824C120.831 14.5824 124.176 16.557 124.738 20.4488H110.267Z" fill="#1A1A1A"/>
<path d="M168.505 9.90918C164.965 9.90918 161.906 11.1022 159.431 13.5353C156.955 15.9683 155.694 18.9275 155.694 22.4546C155.694 25.9869 156.955 28.9409 159.431 31.3739C161.906 33.8069 164.965 35 168.505 35C172.094 35 175.104 33.8069 177.58 31.3739C180.055 28.9409 181.317 25.9817 181.317 22.4546C181.317 18.9275 180.055 15.9683 177.58 13.5353C175.104 11.1022 172.094 9.90918 168.505 9.90918ZM173.891 27.8468C172.433 29.2795 170.636 29.9933 168.505 29.9933C166.369 29.9933 164.572 29.2795 163.12 27.8468C161.662 26.4141 160.936 24.601 160.936 22.4546C160.936 20.3081 161.662 18.4951 163.12 17.0623C164.578 15.6296 166.369 14.9159 168.505 14.9159C170.641 14.9159 172.438 15.6296 173.891 17.0623C175.348 18.4951 176.074 20.3081 176.074 22.4546C176.074 24.601 175.348 26.4141 173.891 27.8468Z" fill="#1A1A1A"/>
<path d="M140.502 34.38C139.956 32.8743 139.675 30.8842 139.675 27.9979V0H134.433V27.1695C134.433 29.6442 134.836 32.8639 136.092 34.38H140.502Z" fill="#1A1A1A"/>
<path d="M151.808 34.38C151.262 32.8743 150.981 30.8842 150.981 27.9979V0H145.739V27.1695C145.739 29.6442 146.142 32.8639 147.398 34.38H151.808Z" fill="#1A1A1A"/>
<path d="M98.4898 10.5293L94.4932 27.0186C94.4932 27.0186 93.0091 17.4011 88.4718 10.5293H84.6978C80.1605 17.4011 78.6764 27.0186 78.6764 27.0186L74.6798 10.5293H69.146L76.2858 34.3801H81.6341C81.6341 34.3801 83.4151 23.0591 86.5848 16.5207C89.7545 23.0591 91.5355 34.3801 91.5355 34.3801H96.8838L104.024 10.5293H98.4898Z" fill="#1A1A1A"/>
<path d="M187.655 10.5293L191.652 27.0186C191.652 27.0186 193.136 17.4011 197.673 10.5293H201.447C205.985 17.4011 207.469 27.0186 207.469 27.0186L211.465 10.5293H216.999L209.859 34.3801H204.713C204.713 34.3801 202.725 23.0591 199.56 16.5207C196.391 23.0591 194.408 34.3801 194.408 34.3801H189.261L182.122 10.5293H187.655Z" fill="#1A1A1A"/>
<defs>
<linearGradient id="paint0_linear" x1="7.40289" y1="12.4206" x2="15.2511" y2="24.0556" gradientUnits="userSpaceOnUse">
<stop stop-color="#9274FF"/>
<stop offset="0.8188" stop-color="#6A46F0"/>
<stop offset="1" stop-color="#6A46F0"/>
</linearGradient>
<linearGradient id="paint1_linear" x1="10.1675" y1="35.9357" x2="27.2291" y2="12.4864" gradientUnits="userSpaceOnUse">
<stop stop-color="#9274FF"/>
<stop offset="1" stop-color="#FF9354"/>
</linearGradient>
<linearGradient id="paint2_linear" x1="30.247" y1="14.6552" x2="41.435" y2="35.0738" gradientUnits="userSpaceOnUse">
<stop stop-color="#F7C654"/>
<stop offset="0.7145" stop-color="#FF7B2E"/>
<stop offset="1" stop-color="#FF7B2E"/>
</linearGradient>
</defs>
</svg>
