<svg width="334" height="339" viewBox="0 0 334 339" fill="none" xmlns="http://www.w3.org/2000/svg">
<path d="M112 306C70.0264 306 36 271.974 36 230C36 188.026 70.0264 154 112 154C153.974 154 188 188.026 188 230C188 271.974 153.974 306 112 306Z" fill="url(#paint0_linear)"/>
<path d="M72.6268 227.154C64.052 225.764 58.5918 208.397 71.6737 204.131C71.6737 204.131 69.726 195.262 87.2661 189.348C104.806 183.434 210.504 192.923 210.504 192.923L231.058 171.132C271.32 185.289 300.865 208.942 314.889 281.853C316.747 291.515 319.816 311.255 319.816 325.209L203.198 338.197C203.198 327.676 201.648 312.81 196.593 301.743C184.014 274.208 151.846 277.723 132.235 275.387C110.465 272.792 76.6084 272.912 83.5096 253.604C68.8441 253.217 56.2764 234.491 72.6268 227.154Z" fill="white"/>
<path d="M203.198 339C203.644 339 204.001 338.64 204.001 338.196C204.001 332.996 203.521 314.972 197.321 301.408C186.686 278.127 162.598 276.644 143.241 275.454C139.335 275.213 135.642 274.984 132.325 274.59C129.225 274.222 125.938 273.91 122.459 273.584C107.02 272.13 89.5215 270.486 84.688 262.893C83.1194 260.422 82.9768 257.475 84.2639 253.877C84.3503 253.633 84.3165 253.363 84.1701 253.152C84.0238 252.938 83.7874 252.811 83.5284 252.803C74.5783 252.567 67.2042 245.59 65.9283 239.221C64.9601 234.385 67.4556 230.359 72.9533 227.892C73.2761 227.746 73.4675 227.408 73.4224 227.051C73.3736 226.698 73.1035 226.42 72.7545 226.364C68.7241 225.711 65.1065 220.855 64.6974 215.542C64.5098 213.113 64.8363 207.21 71.9213 204.904C72.3154 204.776 72.5481 204.371 72.458 203.965C72.443 203.89 70.9832 195.693 87.5213 190.117C104.701 184.323 209.375 193.635 210.429 193.729C210.688 193.752 210.917 193.662 211.086 193.478L231.279 172.07C271.028 186.151 300.317 210.353 314.097 282.006C315.921 291.491 319.013 311.269 319.013 325.208C319.013 325.655 319.374 326.011 319.816 326.011C320.263 326.011 320.619 325.651 320.619 325.208C320.619 311.149 317.512 291.244 315.677 281.698C301.695 208.997 271.842 184.616 231.32 170.369C231.02 170.26 230.686 170.343 230.469 170.576L210.182 192.077C202.098 191.36 104.142 182.794 87.0034 188.577C71.6662 193.752 70.698 201.224 70.7993 203.575C65.523 205.546 62.6522 210.018 63.0876 215.655C63.4928 220.893 66.585 225.606 70.4803 227.333C65.5681 230.175 63.3465 234.531 64.3447 239.525C65.8458 247.043 73.9778 253.618 82.4139 254.343C81.3481 257.955 81.6521 261.117 83.3258 263.749C88.5795 272.01 106.495 273.693 122.301 275.18C125.772 275.506 129.049 275.814 132.129 276.178C135.492 276.58 139.207 276.809 143.136 277.049C162.065 278.214 185.617 279.667 195.85 302.069C201.911 315.336 202.384 333.067 202.384 338.189C202.395 338.64 202.751 339 203.198 339Z" fill="#1A1A1A"/>
<path d="M139.863 201.949C114.727 201.145 85.6401 202.035 72.0891 204.131L139.863 201.949Z" fill="white"/>
<path d="M72.0843 204.938C72.1255 204.938 72.1668 204.934 72.2081 204.926C85.4325 202.88 114.505 201.941 139.835 202.752C140.297 202.733 140.65 202.414 140.665 201.971C140.68 201.528 140.331 201.156 139.884 201.141C114.475 200.334 85.2712 201.273 71.9604 203.334C71.5214 203.402 71.2211 203.815 71.2887 204.254C71.3525 204.652 71.694 204.938 72.0843 204.938Z" fill="#1A1A1A"/>
<path d="M216.776 241.948C216.885 241.948 216.998 241.926 217.106 241.877C217.512 241.693 217.692 241.216 217.512 240.811C217.384 240.525 204.775 212.013 211.271 193.182C211.417 192.761 211.192 192.303 210.772 192.157C210.352 192.01 209.894 192.236 209.747 192.656C203.045 212.096 215.508 240.281 216.041 241.471C216.176 241.772 216.468 241.948 216.776 241.948Z" fill="#1A1A1A"/>
<path d="M89.1132 215.325H232.379C239.307 215.325 244.399 208.822 242.737 202.089L200.962 32.7484C199.787 27.9795 195.509 24.63 190.604 24.63H47.3383C40.4109 24.63 35.3184 31.1337 36.9809 37.8665L78.7558 207.207C79.9304 211.976 84.2047 215.325 89.1132 215.325Z" fill="#1A1A1A"/>
<path d="M89.1153 216.128H232.382C235.932 216.128 239.226 214.525 241.414 211.724C243.606 208.926 244.371 205.344 243.52 201.893L201.748 32.5523C200.48 27.4117 195.898 23.8219 190.607 23.8219H47.3404C43.7904 23.8219 40.4955 25.4253 38.3077 28.2265C36.1161 31.024 35.3506 34.6063 36.2024 38.0572L77.9773 207.402C79.242 212.542 83.824 216.128 89.1153 216.128ZM190.61 25.4328C195.159 25.4328 199.099 28.5194 200.187 32.9391L241.962 202.283C242.694 205.25 242.033 208.329 240.15 210.736C238.266 213.143 235.436 214.521 232.382 214.521H89.1153C84.567 214.521 80.6267 211.434 79.5384 207.015L37.7636 37.6704C37.0318 34.704 37.6922 31.6248 39.5761 29.2179C41.4599 26.8109 44.2895 25.4328 47.3441 25.4328H190.61Z" fill="#1A1A1A"/>
<path d="M93.0215 208.398H231.083C237.759 208.398 242.667 202.13 241.065 195.642L200.81 32.4517C199.677 27.8556 195.556 24.63 190.828 24.63H52.7664C46.0904 24.63 41.1819 30.8972 42.7843 37.3859L83.0393 200.576C84.1726 205.168 88.2931 208.398 93.0215 208.398Z" fill="white"/>
<path d="M93.0178 209.2H231.079C234.509 209.2 237.691 207.649 239.808 204.946C241.921 202.242 242.664 198.78 241.842 195.445L201.587 32.2557C200.363 27.2915 195.935 23.8219 190.824 23.8219H52.7628C49.3328 23.8219 46.1505 25.3727 44.034 28.0763C41.9212 30.78 41.1782 34.2421 42 37.5766L82.2551 200.766C83.4822 205.73 87.9067 209.2 93.0178 209.2ZM190.824 25.4328C195.196 25.4328 198.979 28.3993 200.026 32.6425L240.281 195.836C240.983 198.686 240.348 201.645 238.539 203.954C236.731 206.264 234.014 207.589 231.079 207.589H93.0178C88.646 207.589 84.8632 204.623 83.8162 200.379L43.5612 37.1898C42.8594 34.3397 43.4936 31.3808 45.3024 29.0714C47.1112 26.7621 49.8282 25.4328 52.7628 25.4328H190.824Z" fill="#1A1A1A"/>
<path d="M66.288 107.626H71.6206L63.8713 76.2112H58.5387L66.288 107.626Z" fill="#1A1A1A"/>
<path d="M200.64 131.145H315.63C319.664 131.145 323.364 129.725 326.269 127.363C330.063 124.269 332.487 119.56 332.487 114.281V52.8221C332.487 48.241 330.663 44.0879 327.702 41.0501C324.64 37.9071 320.366 35.9583 315.633 35.9583H200.644C195.495 35.9583 190.883 38.2676 187.795 41.91C185.299 44.8502 183.79 48.6615 183.79 52.8221V114.285C183.79 117.777 184.852 121.021 186.669 123.713C189.693 128.197 194.823 131.145 200.64 131.145Z" fill="white"/>
<path d="M200.516 131.952H315.757C325.424 131.952 333.29 124.082 333.29 114.409V52.6945C333.29 43.0216 325.424 35.151 315.757 35.151H200.516C190.849 35.151 182.984 43.0216 182.984 52.6945V114.409C182.98 124.082 190.846 131.952 200.516 131.952ZM315.757 36.7619C324.539 36.7619 331.68 43.9078 331.68 52.6945V114.409C331.68 123.195 324.535 130.341 315.757 130.341H200.516C191.735 130.341 184.594 123.192 184.594 114.409V52.6945C184.594 43.9078 191.739 36.7619 200.516 36.7619H315.757Z" fill="#1A1A1A"/>
<path d="M183.787 55.6834V48.8981C183.787 41.7523 189.577 35.9583 196.719 35.9583H319.555C326.696 35.9583 332.487 41.7523 332.487 48.8981V55.6834H183.787Z" fill="#1A1A1A"/>
<path d="M183.786 56.4871H332.482C332.929 56.4871 333.285 56.1266 333.285 55.6835V48.8944C333.285 41.3168 327.123 35.151 319.55 35.151H196.714C189.141 35.151 182.979 41.3168 182.979 48.8944V55.6835C182.983 56.1266 183.343 56.4871 183.786 56.4871ZM331.679 54.8762H184.592V48.8944C184.592 42.203 190.03 36.7619 196.717 36.7619H319.554C326.241 36.7619 331.679 42.203 331.679 48.8944V54.8762Z" fill="#1A1A1A"/>
<path d="M289.538 80.6573H317.244C317.69 80.6573 318.047 80.2969 318.047 79.8538V68.3032C318.047 67.8564 317.687 67.4996 317.244 67.4996H289.538C289.091 67.4996 288.735 67.8601 288.735 68.3032V79.8538C288.735 80.2969 289.095 80.6573 289.538 80.6573ZM316.441 79.0464H290.345V69.1068H316.441V79.0464Z" fill="#1A1A1A"/>
<path d="M247.51 104.807H317.243V112.662H247.51V104.807Z" fill="#1A1A1A"/>
<path d="M241.513 80.6573H280.304C280.751 80.6573 281.107 80.2969 281.107 79.8538V68.3032C281.107 67.8564 280.747 67.4996 280.304 67.4996H241.513C241.066 67.4996 240.71 67.8601 240.71 68.3032V79.8538C240.71 80.2969 241.07 80.6573 241.513 80.6573ZM279.501 79.0464H242.319V69.1068H279.501V79.0464Z" fill="#1A1A1A"/>
<path d="M209.646 80.6573H236.429C236.875 80.6573 237.232 80.2969 237.232 79.8538V68.3032C237.232 67.8564 236.871 67.4996 236.429 67.4996H209.646C209.199 67.4996 208.843 67.8601 208.843 68.3032V79.8538C208.843 80.2969 209.203 80.6573 209.646 80.6573ZM235.626 79.0464H210.453V69.1068H235.626V79.0464Z" fill="#1A1A1A"/>
<path d="M83.5117 254.412C83.8194 254.412 84.1121 254.235 84.2434 253.939C87.2306 247.337 120.029 244.404 158.914 247.27C159.338 247.303 159.744 246.969 159.777 246.526C159.807 246.083 159.477 245.696 159.034 245.662C124.018 243.086 86.5776 244.874 82.7799 253.274C82.596 253.68 82.7761 254.156 83.1814 254.34C83.2865 254.385 83.3991 254.412 83.5117 254.412Z" fill="#1A1A1A"/>
<path d="M72.6279 227.956C72.6992 227.956 72.7743 227.945 72.8456 227.926C102.608 219.538 154.129 223.191 154.647 223.233C155.067 223.266 155.476 222.932 155.51 222.485C155.54 222.042 155.21 221.656 154.763 221.622C154.245 221.584 102.443 217.904 72.4066 226.372C71.9787 226.492 71.7311 226.939 71.8512 227.367C71.9525 227.727 72.2752 227.956 72.6279 227.956Z" fill="#1A1A1A"/>
<path d="M91.3625 68.0635H145.994C146.441 68.0635 146.797 67.703 146.797 67.26C146.797 66.817 146.437 66.4565 145.994 66.4565H91.3625C90.9159 66.4565 90.5594 66.817 90.5594 67.26C90.5594 67.703 90.9197 68.0635 91.3625 68.0635Z" fill="#1A1A1A"/>
<path d="M84.3918 100.924H141.928C142.374 100.924 142.731 100.564 142.731 100.121C142.731 99.6776 142.371 99.3171 141.928 99.3171H84.3918C83.9452 99.3171 83.5887 99.6776 83.5887 100.121C83.5887 100.564 83.9452 100.924 84.3918 100.924Z" fill="#1A1A1A"/>
<path d="M102.982 137.753H141.338C141.785 137.753 142.141 137.393 142.141 136.95C142.141 136.503 141.781 136.146 141.338 136.146H102.982C102.535 136.146 102.179 136.507 102.179 136.95C102.179 137.393 102.539 137.753 102.982 137.753Z" fill="#1A1A1A"/>
<path d="M134.372 175.378H198.881C199.328 175.378 199.684 175.018 199.684 174.575C199.684 174.128 199.324 173.771 198.881 173.771H134.369C133.922 173.771 133.566 174.132 133.566 174.575C133.566 175.018 133.926 175.378 134.372 175.378Z" fill="#1A1A1A"/>
<path d="M157.617 109.064C162.548 109.064 166.559 105.05 166.559 100.116C166.559 95.1818 162.548 91.1676 157.617 91.1676C152.686 91.1676 148.674 95.1818 148.674 100.116C148.674 105.05 152.689 109.064 157.617 109.064ZM157.617 92.7785C161.658 92.7785 164.949 96.068 164.949 100.116C164.949 104.164 161.662 107.453 157.617 107.453C153.571 107.453 150.284 104.164 150.284 100.116C150.284 96.068 153.575 92.7785 157.617 92.7785Z" fill="#1A1A1A"/>
<path d="M157.615 104.187C155.369 104.187 153.547 102.365 153.547 100.117C153.547 97.8687 155.369 96.0464 157.615 96.0464C159.862 96.0464 161.683 97.8687 161.683 100.117C161.683 102.365 159.862 104.187 157.615 104.187Z" fill="#1A1A1A"/>
<path d="M157.615 141.021C155.369 141.021 153.547 139.198 153.547 136.95C153.547 134.702 155.369 132.88 157.615 132.88C159.862 132.88 161.683 134.702 161.683 136.95C161.683 139.198 159.862 141.021 157.615 141.021Z" fill="#F7C757"/>
<path d="M211.213 178.646C208.966 178.646 207.145 176.824 207.145 174.576C207.145 172.328 208.966 170.505 211.213 170.505C213.459 170.505 215.281 172.328 215.281 174.576C215.281 176.824 213.459 178.646 211.213 178.646Z" fill="#F7C757"/>
<path d="M118.579 32.8406H138.127C138.573 32.8406 138.93 32.4801 138.93 32.037C138.93 31.5901 138.569 31.2334 138.127 31.2334H118.579C118.132 31.2334 117.776 31.5939 117.776 32.037C117.772 32.4801 118.132 32.8406 118.579 32.8406Z" fill="#1A1A1A"/>
<path d="M112.226 34.798C113.749 34.798 114.984 33.5588 114.984 32.038C114.984 30.5135 113.746 29.2743 112.226 29.2743C110.706 29.2743 109.464 30.5135 109.464 32.038C109.464 33.5588 110.702 34.798 112.226 34.798ZM112.226 30.8852C112.86 30.8852 113.374 31.3996 113.374 32.038C113.374 32.6726 112.86 33.187 112.226 33.187C111.591 33.187 111.074 32.6726 111.074 32.038C111.074 31.3996 111.591 30.8852 112.226 30.8852Z" fill="#1A1A1A"/>
<path d="M0.803169 12.737H36.8026C37.2492 12.737 37.6057 12.3765 37.6057 11.9334V0.803569C37.6057 0.356725 37.2454 0 36.8026 0H0.803169C0.356602 0 9.15527e-05 0.36048 9.15527e-05 0.803569V11.9334C9.15527e-05 12.3802 0.360352 12.737 0.803169 12.737ZM35.9996 11.1261H1.60996V1.60714H35.9996V11.1261Z" fill="#1A1A1A"/>
<path d="M95.523 51.9657C95.7294 51.9657 95.9358 51.8868 96.0934 51.7291C96.4086 51.4137 96.4086 50.903 96.0934 50.5913L56.8891 11.3625C56.739 11.2123 56.5326 11.126 56.3187 11.126H47.0195C46.573 11.126 46.2164 11.4865 46.2164 11.9296C46.2164 12.3726 46.5767 12.7331 47.0195 12.7331H55.9847L94.9526 51.7253C95.1102 51.8868 95.3166 51.9657 95.523 51.9657Z" fill="#1A1A1A"/>
<path d="M167.058 91.7174C167.265 91.7174 167.471 91.6386 167.629 91.4809L179.153 79.9491C179.468 79.6336 179.468 79.1229 179.153 78.8113C178.838 78.4959 178.328 78.4959 178.016 78.8113L166.492 90.3431C166.176 90.6585 166.176 91.1692 166.492 91.4809C166.646 91.6386 166.852 91.7174 167.058 91.7174Z" fill="#1A1A1A"/>
<path d="M162.64 73.0385L155.968 61.473H169.309L162.64 73.0385Z" fill="#1A1A1A"/>
<path d="M291.458 180.192C291.664 180.192 291.871 180.114 292.028 179.956L300.577 171.402C300.892 171.087 300.892 170.576 300.577 170.264C300.262 169.949 299.751 169.949 299.44 170.264L290.891 178.818C290.576 179.134 290.576 179.644 290.891 179.956C291.045 180.114 291.252 180.192 291.458 180.192Z" fill="white"/>
<path d="M37.1231 238.155C37.3295 238.155 37.5359 238.077 37.6935 237.919C38.0087 237.603 38.0087 237.093 37.6935 236.781L29.5164 228.599C29.2012 228.283 28.6909 228.283 28.3794 228.599C28.0642 228.914 28.0642 229.425 28.3794 229.737L36.5564 237.919C36.7141 238.077 36.9167 238.155 37.1231 238.155Z" fill="#1A1A1A"/>
<path d="M27.4644 249.312C30.778 249.312 33.4724 246.616 33.4724 243.3C33.4724 239.984 30.778 237.288 27.4644 237.288C24.1508 237.288 21.4563 239.984 21.4563 243.3C21.4563 246.616 24.1508 249.312 27.4644 249.312ZM27.4644 238.899C29.8886 238.899 31.8625 240.874 31.8625 243.3C31.8625 245.726 29.8886 247.701 27.4644 247.701C25.0401 247.701 23.0662 245.726 23.0662 243.3C23.0662 240.874 25.0364 238.899 27.4644 238.899Z" fill="#1A1A1A"/>
<path d="M229.269 11.5501C229.411 11.5501 229.554 11.5126 229.681 11.4337L241.225 4.50193C241.607 4.27287 241.731 3.77721 241.502 3.39796C241.273 3.01494 240.774 2.89478 240.399 3.12008L228.856 10.0518C228.473 10.2809 228.349 10.7766 228.578 11.1558C228.728 11.4112 228.995 11.5501 229.269 11.5501Z" fill="#1A1A1A"/>
<path d="M236.193 16.1729C236.336 16.1729 236.479 16.1354 236.606 16.0565L248.149 9.12473C248.532 8.89568 248.656 8.40001 248.427 8.02076C248.198 7.63775 247.699 7.51759 247.324 7.74289L235.781 14.6747C235.398 14.9037 235.274 15.3994 235.503 15.7786C235.653 16.0302 235.919 16.1729 236.193 16.1729Z" fill="#1A1A1A"/>
<defs>
<linearGradient id="paint0_linear" x1="112" y1="331.507" x2="112.077" y2="250.823" gradientUnits="userSpaceOnUse">
<stop stop-color="white"/>
<stop offset="1" stop-color="#F7C757"/>
</linearGradient>
</defs>
</svg>
