<svg width="483" height="468" viewBox="0 0 483 468" fill="none" xmlns="http://www.w3.org/2000/svg">
<path d="M368.616 235.154C427.828 235.154 475.828 186.913 475.828 127.405C475.828 67.8965 427.828 19.6556 368.616 19.6556C309.405 19.6556 261.404 67.8965 261.404 127.405C261.404 186.913 309.405 235.154 368.616 235.154Z" fill="url(#paint0_linear)"/>
<path d="M116.155 57.7337L67.7708 74.3984L70.934 83.6746L119.318 67.0099L116.155 57.7337Z" fill="#1A1A1A"/>
<path d="M259.91 18.6752L1.10783 107.757L119.521 454.796L378.324 365.714L259.91 18.6752Z" fill="white"/>
<path d="M119.432 455.886C119.27 455.886 119.107 455.851 118.955 455.774C118.697 455.647 118.499 455.423 118.408 455.148L0.0582557 108.105C-0.0329775 107.83 -0.0177689 107.53 0.108944 107.27C0.235657 107.01 0.458661 106.812 0.732361 106.715L259.5 17.5869C259.774 17.4902 260.073 17.5105 260.331 17.6379C260.59 17.7652 260.788 17.9894 260.879 18.2644L379.223 365.307C379.421 365.877 379.117 366.499 378.549 366.692L119.782 455.825C119.67 455.866 119.548 455.886 119.432 455.886ZM2.4658 108.432L120.106 453.406L376.821 364.986L259.181 20.0116L2.4658 108.432Z" fill="#1A1A1A"/>
<path d="M253.918 1.11616L113.373 49.4929L119.351 67.013L259.896 18.6363L253.918 1.11616Z" fill="white"/>
<path d="M119.333 68.1132C118.882 68.1132 118.461 67.8279 118.304 67.3746L112.328 49.8515C112.237 49.5765 112.252 49.2759 112.379 49.0161C112.506 48.7564 112.734 48.5577 113.003 48.4609L253.537 0.0586808C254.105 -0.134887 254.723 0.165654 254.916 0.73617L260.891 18.2592C260.983 18.5343 260.967 18.8348 260.841 19.0946C260.714 19.3544 260.491 19.553 260.217 19.6498L119.688 68.0572C119.571 68.0928 119.45 68.1132 119.333 68.1132ZM114.736 50.1776L120.007 65.6324L258.489 17.9383L253.218 2.48338L114.736 50.1776Z" fill="#1A1A1A"/>
<path d="M191.228 43.516C190.777 43.516 190.357 43.2307 190.199 42.7774L184.67 26.5688C184.472 25.9982 184.776 25.3768 185.344 25.1832C185.911 24.9846 186.53 25.2902 186.722 25.8607L192.252 42.0693C192.45 42.6398 192.146 43.2613 191.578 43.4548C191.461 43.4956 191.345 43.516 191.228 43.516Z" fill="#1A1A1A"/>
<path d="M63.6537 243.569C63.2026 243.569 62.7819 243.284 62.6248 242.831L25.5385 134.081C25.4472 133.806 25.4625 133.505 25.5892 133.246C25.7159 132.986 25.9389 132.787 26.2126 132.69L114.912 102.137C115.479 101.944 116.098 102.244 116.29 102.815L153.376 211.564C153.574 212.135 153.27 212.756 152.702 212.95L64.0034 243.503C63.8919 243.549 63.7703 243.569 63.6537 243.569ZM27.946 134.407L64.3278 241.094L150.974 211.249L114.592 104.562L27.946 134.407Z" fill="#1A1A1A"/>
<path d="M227.613 379.275C227.162 379.275 226.741 378.99 226.584 378.537L130.86 97.8219C130.663 97.2514 130.967 96.6299 131.534 96.4364L256.742 53.3114C257.016 53.2146 257.315 53.235 257.573 53.3624C257.832 53.4897 258.029 53.7139 258.12 53.9889L353.849 334.704C353.941 334.979 353.925 335.279 353.799 335.539C353.672 335.799 353.449 335.997 353.175 336.094L227.968 379.219C227.851 379.255 227.73 379.275 227.613 379.275ZM133.268 98.1479L228.287 376.794L351.442 334.378L256.417 55.7259L133.268 98.1479Z" fill="#1A1A1A"/>
<path d="M122.283 415.545C121.832 415.545 121.412 415.26 121.255 414.807L99.8604 352.075C99.7691 351.8 99.7844 351.5 99.9111 351.24C100.038 350.98 100.261 350.781 100.534 350.685L189.239 320.131C189.806 319.938 190.425 320.238 190.617 320.809L212.012 383.54C212.103 383.815 212.088 384.116 211.961 384.376C211.834 384.635 211.606 384.834 211.337 384.931L122.633 415.484C122.517 415.525 122.4 415.545 122.283 415.545ZM102.268 352.401L122.958 413.064L209.609 383.219L188.919 322.556L102.268 352.401Z" fill="#1A1A1A"/>
<path d="M86.8035 277.796C86.3524 277.796 85.9318 277.511 85.7746 277.057L77.736 253.483C77.6447 253.208 77.6599 252.907 77.7867 252.647C77.9134 252.387 78.1414 252.189 78.4101 252.092L156.85 225.074C157.418 224.88 158.036 225.181 158.229 225.752L166.268 249.326C166.359 249.601 166.344 249.902 166.217 250.161C166.09 250.421 165.867 250.62 165.594 250.717L87.1533 277.735C87.0367 277.775 86.9201 277.796 86.8035 277.796ZM80.1435 253.804L87.4777 275.315L163.865 249.005L156.531 227.494L80.1435 253.804Z" fill="#1A1A1A"/>
<path d="M108.434 288.451C108.272 288.451 108.109 288.416 107.957 288.339C107.699 288.212 107.501 287.988 107.41 287.713L101.885 271.504C101.688 270.933 101.992 270.312 102.559 270.118L164.872 248.658C165.145 248.566 165.439 248.581 165.703 248.709C165.961 248.836 166.159 249.06 166.25 249.335L171.78 265.544C171.871 265.819 171.856 266.12 171.729 266.379C171.603 266.639 171.38 266.838 171.106 266.935L108.794 288.395C108.672 288.436 108.556 288.451 108.434 288.451ZM104.288 271.83L109.108 285.971L169.367 265.218L164.542 251.077L104.288 271.83Z" fill="#1A1A1A"/>
<path d="M108.434 288.451C108.272 288.451 108.109 288.416 107.957 288.339C107.699 288.212 107.501 287.988 107.41 287.713L101.885 271.504C101.688 270.933 101.992 270.312 102.559 270.118L164.872 248.658C165.145 248.566 165.439 248.581 165.703 248.709C165.961 248.836 166.159 249.06 166.25 249.335L171.78 265.544C171.871 265.819 171.856 266.12 171.729 266.379C171.603 266.639 171.38 266.838 171.106 266.935L108.794 288.395C108.672 288.436 108.556 288.451 108.434 288.451ZM104.288 271.83L109.108 285.971L169.367 265.218L164.542 251.077L104.288 271.83Z" fill="#1A1A1A"/>
<path d="M113.973 304.648C113.522 304.648 113.101 304.363 112.944 303.909L107.415 287.701C107.323 287.426 107.339 287.125 107.465 286.865C107.592 286.605 107.815 286.407 108.089 286.31L170.401 264.85C170.974 264.651 171.587 264.956 171.779 265.527L177.309 281.736C177.4 282.011 177.385 282.311 177.259 282.571C177.132 282.831 176.909 283.03 176.635 283.126L114.323 304.587C114.206 304.628 114.09 304.648 113.973 304.648ZM109.822 288.027L114.647 302.167L174.907 281.415L170.082 267.274L109.822 288.027Z" fill="#1A1A1A"/>
<path d="M119.448 320.703C118.997 320.703 118.576 320.417 118.419 319.964L112.889 303.755C112.798 303.48 112.813 303.18 112.94 302.92C113.067 302.66 113.29 302.461 113.563 302.365L175.876 280.904C176.443 280.705 177.062 281.011 177.254 281.581L182.784 297.79C182.875 298.065 182.86 298.366 182.733 298.626C182.607 298.885 182.383 299.084 182.11 299.181L119.798 320.641C119.686 320.682 119.564 320.703 119.448 320.703ZM115.302 304.081L120.127 318.222L180.387 297.469L175.561 283.329L115.302 304.081Z" fill="#1A1A1A"/>
<path d="M148.653 248.423L150.985 236.477L139.525 240.425L148.653 248.423Z" fill="#1A1A1A"/>
<path d="M120.989 368.177C120.538 368.177 120.117 367.892 119.96 367.438C119.762 366.868 120.067 366.246 120.634 366.053L162.15 351.754C162.718 351.561 163.336 351.861 163.529 352.432C163.727 353.002 163.423 353.624 162.855 353.817L121.339 368.116C121.227 368.157 121.106 368.177 120.989 368.177Z" fill="#1A1A1A"/>
<path d="M125.726 382.094C125.275 382.094 124.854 381.808 124.697 381.355C124.499 380.785 124.803 380.163 125.371 379.97L160.871 367.739C161.438 367.546 162.057 367.846 162.249 368.417C162.447 368.987 162.143 369.609 161.575 369.802L126.075 382.033C125.959 382.078 125.842 382.094 125.726 382.094Z" fill="#1A1A1A"/>
<path d="M143.264 129.828C142.813 129.828 142.392 129.543 142.235 129.089C142.038 128.519 142.342 127.897 142.909 127.704L266.186 85.2409C266.753 85.0474 267.372 85.3479 267.564 85.9184C267.762 86.4889 267.458 87.1104 266.89 87.304L143.614 129.767C143.502 129.808 143.381 129.828 143.264 129.828Z" fill="#1A1A1A"/>
<path d="M174.187 165.36C173.736 165.36 173.315 165.074 173.158 164.621C172.96 164.05 173.264 163.429 173.832 163.235L206.929 151.835C207.497 151.642 208.115 151.942 208.308 152.513C208.506 153.083 208.201 153.705 207.634 153.898L174.536 165.298C174.42 165.339 174.303 165.36 174.187 165.36Z" fill="#1A1A1A"/>
<path d="M182.049 188.348C181.598 188.348 181.177 188.063 181.02 187.61C180.823 187.039 181.127 186.418 181.694 186.224L205.765 177.936C206.332 177.743 206.951 178.048 207.143 178.614C207.341 179.184 207.037 179.806 206.469 179.999L182.399 188.287C182.282 188.333 182.166 188.348 182.049 188.348Z" fill="#1A1A1A"/>
<path d="M259.532 211.273L198.154 232.413L201.246 241.482L262.625 220.342L259.532 211.273Z" fill="#1A1A1A"/>
<path d="M267.302 234.167L205.923 255.307L209.016 264.376L270.394 243.236L267.302 234.167Z" fill="#1A1A1A"/>
<path d="M242.235 398.279C241.125 398.279 240.02 398.025 238.986 397.52C237.212 396.649 235.884 395.131 235.245 393.252C234.607 391.372 234.728 389.355 235.595 387.572C236.462 385.789 237.972 384.455 239.842 383.808C241.707 383.161 243.715 383.288 245.489 384.164C247.263 385.035 248.596 386.553 249.234 388.433C249.873 390.313 249.751 392.33 248.884 394.113C248.018 395.895 246.507 397.23 244.637 397.877C243.851 398.147 243.041 398.279 242.235 398.279ZM242.245 385.59C241.672 385.59 241.104 385.687 240.547 385.876C239.229 386.329 238.16 387.271 237.546 388.535C236.933 389.793 236.842 391.219 237.298 392.544C237.749 393.868 238.692 394.943 239.944 395.559C241.196 396.176 242.61 396.267 243.933 395.809C245.25 395.356 246.32 394.413 246.933 393.15C247.546 391.892 247.638 390.465 247.181 389.141C246.73 387.816 245.788 386.747 244.536 386.125C243.811 385.769 243.03 385.59 242.245 385.59Z" fill="#1A1A1A"/>
<path d="M99.7767 260.068C99.3256 260.068 98.9049 259.782 98.7478 259.329C98.5501 258.759 98.8542 258.137 99.4219 257.944L123.244 249.737C123.812 249.544 124.43 249.844 124.623 250.415C124.82 250.985 124.516 251.607 123.948 251.8L100.126 260.007C100.01 260.047 99.8933 260.068 99.7767 260.068Z" fill="#1A1A1A"/>
<path d="M249.024 131.515L247.225 135.223L243.52 133.4C239.754 131.551 235.213 133.114 233.368 136.894C231.528 140.679 233.084 145.243 236.845 147.097L254.179 155.624L260.829 141.932L262.644 138.203C264.483 134.424 262.927 129.859 259.167 128.01C255.406 126.161 250.859 127.73 249.024 131.515Z" fill="#9274FF"/>
<path d="M149.242 202.871L152.334 211.938L63.635 242.491L59.6765 230.877C65.3127 228.335 70.9844 225.916 76.7219 223.608C88.2984 218.978 100.103 214.887 112.166 211.423C113.413 211.062 114.685 210.71 115.942 210.369C126.87 207.287 138.005 204.475 149.242 202.871Z" fill="#1A1A1A"/>
<path d="M63.6318 243.573C63.1807 243.573 62.76 243.287 62.6029 242.834L58.6393 231.22C58.4568 230.685 58.7103 230.099 59.2222 229.87C64.8533 227.333 70.601 224.878 76.3081 222.581C88.1178 217.854 100.079 213.743 111.854 210.36C113.105 209.999 114.383 209.647 115.64 209.301C125.437 206.545 137.08 203.494 149.077 201.777C149.594 201.706 150.09 202.011 150.258 202.506L153.35 211.573C153.547 212.143 153.243 212.765 152.675 212.958L63.9764 243.512C63.87 243.552 63.7484 243.573 63.6318 243.573ZM61.0215 231.454L64.3059 241.092L150.952 211.247L148.504 204.069C136.943 205.786 125.721 208.735 116.228 211.405C114.971 211.751 113.704 212.097 112.462 212.459C100.748 215.826 88.8628 219.911 77.1191 224.608C71.7465 226.773 66.3384 229.075 61.0215 231.454Z" fill="#1A1A1A"/>
<path d="M107.18 150.944C107.18 150.944 102.03 142.784 88.2943 135.495C74.5637 128.226 49.7483 139.483 56.2309 160.582C59.1757 170.123 63.5144 175.915 68.9275 178.874L81.5431 221.704C79.9211 222.331 78.3246 222.967 76.7331 223.604C78.6337 224.903 80.722 225.83 82.9268 226.406C84.199 226.767 85.5168 227.002 86.8346 227.104C94.1941 227.812 102.202 225.3 108.072 220.787C108.442 220.507 108.807 220.222 109.151 219.926C112.309 217.262 114.737 214.002 115.948 210.365C114.696 210.706 113.419 211.058 112.172 211.419C110.459 211.898 108.756 212.418 107.073 212.932L96.409 176.918C109.602 170.087 103.348 155.707 103.348 155.707L107.18 150.944Z" fill="white"/>
<path d="M89.3643 228.313C88.4773 228.313 87.6005 228.272 86.7287 228.186C85.3551 228.079 83.9663 227.834 82.6283 227.452C80.2815 226.846 78.0869 225.853 76.1203 224.508C75.7858 224.279 75.6084 223.886 75.6489 223.484C75.6945 223.082 75.953 222.735 76.3281 222.588C77.6205 222.068 78.908 221.553 80.2156 221.044L68.0107 179.605C62.2478 176.284 58.051 170.161 55.1974 160.9C52.5111 152.17 54.8376 143.943 61.5736 138.319C69.1865 131.967 80.8948 130.337 88.8017 134.524C102.639 141.865 107.885 150.01 108.103 150.351C108.351 150.748 108.326 151.258 108.032 151.624L104.59 155.903C105.619 158.812 109.061 170.956 97.7071 177.451L107.809 211.564C109.218 211.136 110.551 210.734 111.889 210.362C113.131 210 114.408 209.649 115.67 209.308C116.06 209.206 116.471 209.318 116.744 209.613C117.018 209.909 117.109 210.327 116.983 210.709C115.756 214.386 113.293 217.86 109.851 220.759C109.522 221.044 109.152 221.329 108.787 221.609C103.196 225.904 96.1206 228.313 89.3643 228.313ZM79.1766 223.805C80.4386 224.467 81.7869 224.982 83.1959 225.348C84.4225 225.695 85.6643 225.919 86.9162 226.016C93.8144 226.683 101.655 224.345 107.413 219.923C107.798 219.628 108.133 219.373 108.442 219.103C110.946 216.989 112.877 214.57 114.109 212.007C113.561 212.16 113.014 212.313 112.477 212.471C110.819 212.935 109.182 213.434 107.565 213.928C107.292 214.009 106.901 214.009 106.648 213.872C106.394 213.734 106.116 213.525 106.035 213.25L95.3705 177.237C95.2235 176.732 95.4516 176.192 95.9128 175.953C108.057 169.662 102.593 156.698 102.355 156.148C102.193 155.776 102.248 155.343 102.507 155.022L105.827 150.901C104.327 148.884 98.9032 142.359 87.793 136.465C80.6211 132.665 69.9468 134.188 62.9675 140.01C59.4246 142.965 53.9759 149.526 57.2756 160.264C60.0227 169.163 64.0065 174.939 69.4501 177.919C69.7036 178.057 69.8911 178.291 69.9722 178.566L82.5877 221.396C82.7499 221.941 82.466 222.521 81.9338 222.725C81.0063 223.077 80.0889 223.438 79.1766 223.805Z" fill="#1A1A1A"/>
<path d="M87.56 126.245C91.6909 134.95 77.864 153.003 71.6854 156.773C67.0325 159.61 70.6819 165.957 75.1675 165.87C79.1818 165.789 74.0018 176.079 72.1315 177.591C71.3205 178.243 70.4487 178.753 69.5567 179.211C63.8495 176.364 59.2828 170.496 56.2265 160.583C53.1702 150.655 59.8048 139.326 66.6575 130.564C73.5709 121.727 80.7479 115.548 87.56 126.245Z" fill="#1A1A1A"/>
<path d="M400.433 113.399C399.278 118.987 397.119 122.532 394.214 124.524L397.945 151.16L383.17 153.549L379.014 125.12C371.143 121.957 373.352 113.256 373.352 113.256L370.925 110.765C370.925 110.765 373.393 105.845 380.808 100.929C388.218 96.0083 402.963 101.051 400.433 113.399Z" fill="white"/>
<path d="M383.172 154.629C382.944 154.629 382.716 154.557 382.528 154.42C382.295 154.247 382.138 153.987 382.097 153.696L378.027 125.868C372.052 123.108 371.525 116.995 372.163 113.587L370.146 111.519C369.822 111.183 369.74 110.678 369.953 110.261C370.06 110.047 372.64 105.024 380.207 100.007C384.617 97.0828 391.591 97.3579 396.421 100.649C400.734 103.583 402.579 108.31 401.495 113.618C400.405 118.89 398.347 122.72 395.377 125.013L399.016 151.002C399.097 151.593 398.697 152.138 398.114 152.234L383.339 154.623C383.284 154.629 383.228 154.629 383.172 154.629ZM372.285 110.587L374.13 112.477C374.393 112.747 374.5 113.139 374.404 113.511C374.327 113.826 372.543 121.33 379.416 124.091C379.776 124.233 380.03 124.559 380.09 124.946L384.084 152.28L396.72 150.238L393.137 124.661C393.081 124.249 393.258 123.841 393.603 123.607C396.391 121.702 398.332 118.187 399.371 113.164C400.603 107.148 397.293 103.868 395.21 102.447C391.064 99.6247 385.128 99.3547 381.408 101.825C375.914 105.467 373.217 109.13 372.285 110.587ZM400.43 113.393H400.451H400.43Z" fill="#1A1A1A"/>
<path d="M380.753 96.8749C378.883 102.055 381.63 110.068 385.355 111.866C388.158 113.221 386.435 117.036 383.875 117.235C384.022 124.361 393.308 124.53 393.84 124.744C396.927 122.808 399.203 119.217 400.394 113.41C401.134 109.803 404.16 102.972 397.925 101.113C395.518 96.554 391.97 93.6708 389.364 96.8035C386.308 91.7759 382.902 92.2343 380.753 96.8749Z" fill="#1A1A1A"/>
<path d="M375.978 146.798L378.583 141.893L400.646 142.005L404.123 148.825L390.261 154.245L375.978 146.798Z" fill="white"/>
<path d="M390.256 155.333C390.084 155.333 389.911 155.292 389.754 155.21L375.471 147.763C375.212 147.631 375.02 147.396 374.934 147.116C374.847 146.836 374.878 146.536 375.01 146.276L377.615 141.37C377.802 141.014 378.172 140.795 378.573 140.795H378.578L400.641 140.912C401.047 140.912 401.417 141.141 401.604 141.508L405.081 148.324C405.223 148.599 405.238 148.92 405.132 149.21C405.02 149.5 404.797 149.729 404.509 149.842L390.646 155.261C390.524 155.307 390.388 155.333 390.256 155.333ZM377.448 146.337L390.317 153.046L402.603 148.242L399.977 143.092L379.227 142.98L377.448 146.337Z" fill="#1A1A1A"/>
<path d="M424.603 182.737C431.851 184.387 439.94 188.559 444 192.802C452.591 201.783 441.81 208.568 431.303 211.909C429.783 209.846 426.959 203.78 421.43 201.467L419.463 213.983C415.93 214.548 412.803 214.935 410.634 215.19C389.123 217.706 398.834 224.593 416.209 237.567C426.691 245.397 456.266 236.844 469.52 224.716C481.593 213.662 485.09 198.085 476.854 184.153C460.873 157.12 414.227 146.402 381.211 147.207C348.362 148.007 305.351 158.118 297.464 188.381C289.354 219.504 322.077 245.651 359.168 241.541C380.035 239.228 373.664 213.371 353.679 213.942C354.024 208.079 353.567 203.214 351.155 203.005C345.128 202.476 344.647 210.799 339.68 212.047C331.028 207.829 326.75 198.217 332.868 190.301C336.603 185.467 344.713 182.059 352.047 180.317" fill="white"/>
<path d="M351.432 243.062C332.993 243.062 315.699 235.874 305.005 223.425C296.201 213.181 293.149 200.64 296.419 188.109C304.138 158.488 345.269 146.996 381.19 146.12C417.678 145.238 462.554 157.82 477.79 183.601C486.077 197.624 483.188 213.685 470.253 225.528C456.726 237.907 426.644 246.734 415.564 238.452L414.576 237.713C403.101 229.145 396.172 223.975 397.338 219.599C398.098 216.741 402.041 215.101 410.511 214.108C412.609 213.863 415.372 213.522 418.514 213.033L420.354 201.302C420.405 200.971 420.607 200.686 420.896 200.517C421.19 200.354 421.54 200.334 421.844 200.461C426.634 202.463 429.487 207.027 431.195 209.758C431.393 210.074 431.571 210.364 431.738 210.624C439.67 207.975 444.926 204.226 445.869 200.517C446.426 198.322 445.529 195.984 443.218 193.564C439.346 189.52 431.418 185.414 424.368 183.809C423.78 183.677 423.415 183.091 423.547 182.505C423.679 181.915 424.252 181.548 424.845 181.68C432.387 183.397 440.587 187.666 444.784 192.051C447.653 195.052 448.727 198.083 447.977 201.057C446.371 207.399 437.05 211.235 431.636 212.957C431.195 213.094 430.709 212.941 430.435 212.564C430.131 212.152 429.776 211.586 429.361 210.924C427.871 208.535 425.691 205.051 422.28 203.105L420.547 214.164C420.471 214.628 420.111 214.994 419.644 215.071C416.137 215.636 413.06 216.013 410.769 216.283C401.991 217.312 399.766 218.962 399.441 220.17C398.661 223.109 406.639 229.069 415.873 235.966L416.862 236.704C426.953 244.243 455.975 235.65 468.794 223.919C480.923 212.819 483.655 197.797 475.925 184.721C461.115 159.659 417.105 147.414 381.245 148.305C346.115 149.161 305.937 160.209 298.522 188.659C295.446 200.477 298.335 212.315 306.652 221.998C318.396 235.665 338.477 242.736 359.055 240.459C368.351 239.43 371.296 233.719 370.951 228.717C370.475 221.764 363.83 214.719 353.718 215.035C353.439 215.04 353.12 214.923 352.907 214.704C352.694 214.485 352.583 214.184 352.603 213.879C353.145 204.547 351.28 204.109 351.067 204.093C350.003 204.002 349.243 204.058 348.493 204.557C348.356 204.649 348.117 204.959 347.986 205.066C347.048 205.83 346.273 206.966 345.446 208.189C344.032 210.288 342.573 212.452 339.957 213.11C339.709 213.171 339.45 213.145 339.222 213.033C334.108 210.542 330.393 206.192 329.278 201.394C328.32 197.273 329.268 193.208 332.03 189.637C336.881 183.356 347.484 180.29 351.818 179.261C352.426 179.128 352.988 179.49 353.125 180.076C353.262 180.661 352.902 181.252 352.319 181.39C343.759 183.417 336.815 187.003 333.743 190.977C331.402 194.007 330.591 197.436 331.396 200.899C332.339 204.949 335.466 208.657 339.8 210.889C341.407 210.308 342.502 208.683 343.657 206.971C345.36 204.445 347.261 201.557 351.27 201.928C354.752 202.234 355.051 208.011 354.843 212.86C365.66 213.094 372.603 220.873 373.136 228.575C373.531 234.31 370.145 241.437 359.309 242.639C356.658 242.914 354.032 243.062 351.432 243.062Z" fill="#1A1A1A"/>
<path d="M305.009 466.9H352.689L357.174 431.763L322.597 437.417L318.568 452.5C318.562 452.5 305.268 455.464 305.009 466.9Z" fill="white"/>
<path d="M352.696 468H305.016C304.722 468 304.444 467.883 304.241 467.674C304.038 467.465 303.927 467.18 303.932 466.884C304.175 456.259 314.9 452.433 317.683 451.618L321.55 437.141C321.661 436.729 322.001 436.418 322.422 436.347L357.004 430.692C357.344 430.631 357.688 430.748 357.932 430.988C358.18 431.227 358.297 431.568 358.256 431.91L353.77 467.047C353.705 467.593 353.243 468 352.696 468ZM306.177 465.82H351.738L355.92 433.086L323.471 438.394L319.624 452.8C319.518 453.192 319.208 453.493 318.813 453.579C318.316 453.686 307.201 456.304 306.177 465.82Z" fill="#1A1A1A"/>
<path d="M326.621 452.416C326.606 452.416 326.596 452.416 326.581 452.416L318.086 452.095C317.488 452.075 317.016 451.566 317.042 450.964C317.067 450.363 317.625 449.879 318.167 449.915L326.662 450.236C327.26 450.256 327.731 450.766 327.706 451.367C327.686 451.958 327.204 452.416 326.621 452.416Z" fill="#1A1A1A"/>
<path d="M408.018 466.9H459.433L451.693 433.678L417.116 439.332L421.576 452.5C421.571 452.5 408.281 455.464 408.018 466.9Z" fill="white"/>
<path d="M459.433 467.997H408.018C407.724 467.997 407.445 467.88 407.242 467.671C407.04 467.462 406.928 467.177 406.933 466.881C407.161 456.821 416.791 452.858 420.177 451.773L416.087 439.695C415.986 439.389 416.021 439.058 416.183 438.783C416.351 438.508 416.624 438.32 416.938 438.269L451.521 432.615C452.099 432.528 452.626 432.885 452.753 433.445L460.492 466.667C460.568 466.993 460.492 467.335 460.284 467.594C460.077 467.844 459.762 467.997 459.433 467.997ZM409.179 465.817H458.064L450.867 434.927L418.555 440.215L422.6 452.16C422.701 452.455 422.666 452.776 422.519 453.046C422.372 453.316 422.108 453.51 421.809 453.576C421.318 453.683 410.202 456.301 409.179 465.817Z" fill="#1A1A1A"/>
<path d="M426.448 452.136C426.433 452.136 426.413 452.136 426.398 452.136L420.984 451.871C420.386 451.841 419.925 451.331 419.955 450.725C419.986 450.124 420.513 449.64 421.091 449.686L426.504 449.951C427.102 449.981 427.563 450.491 427.533 451.097C427.508 451.683 427.026 452.136 426.448 452.136Z" fill="#1A1A1A"/>
<path d="M357.035 228.99C355.626 228.99 354.475 228.598 353.537 227.987C338.976 299.097 327.465 371.023 319.117 443.545C319.072 443.942 319.046 444.34 319.011 444.737H359.331C366.523 384.741 375.844 325.153 387.294 266.114C393.082 326.396 402.59 386.132 415.85 444.737H457.635C440.944 374.136 429.808 302.011 424.527 228.99H357.035Z" fill="#1A1A1A"/>
<path d="M352.039 180.319C350.832 200.384 350.199 216.628 348.861 237.671L426.85 239.449C426.079 220.637 424.995 192.325 423.986 173.253" fill="white"/>
<path d="M426.878 240.535C426.868 240.535 426.863 240.535 426.853 240.535L348.859 238.757C348.565 238.752 348.286 238.625 348.083 238.406C347.881 238.187 347.779 237.897 347.799 237.601C348.534 226.053 349.067 215.784 349.578 205.856C350.009 197.573 350.435 189.301 350.977 180.249C351.013 179.648 351.474 179.2 352.128 179.225C352.726 179.261 353.182 179.78 353.147 180.381C352.604 189.423 352.179 197.69 351.748 205.968C351.251 215.575 350.739 225.498 350.04 236.603L425.743 238.33L425.312 227.699C424.613 210.323 423.741 188.7 422.925 173.306C422.894 172.705 423.351 172.19 423.954 172.16C424.592 172.134 425.064 172.593 425.094 173.194C425.91 188.603 426.782 210.232 427.481 227.612L427.963 239.404C427.973 239.705 427.862 240 427.649 240.214C427.451 240.418 427.167 240.535 426.878 240.535Z" fill="#1A1A1A"/>
<path d="M392.858 267.228H387.298C386.7 267.228 386.213 266.739 386.213 266.138C386.213 265.537 386.7 265.048 387.298 265.048H392.858C393.456 265.048 393.943 265.537 393.943 266.138C393.943 266.739 393.461 267.228 392.858 267.228Z" fill="white"/>
<path d="M348.415 203.457C348.628 206.31 348.882 209.157 349.135 212.005C350.605 209.34 352.267 207.267 352.789 205.943C353.656 203.762 351.766 201.302 348.415 203.457Z" fill="white"/>
<path d="M341.826 229.318C341.481 229.318 341.136 229.15 340.929 228.839C340.589 228.34 340.721 227.663 341.218 227.321C341.37 227.214 345.039 224.601 345.647 218.972C346.149 214.322 348.562 210.664 350.321 207.995C350.98 206.992 351.552 206.131 351.78 205.545C352.039 204.893 351.902 204.2 351.456 203.894C350.868 203.492 349.718 203.395 347.817 205.224C347.386 205.642 346.474 205.907 346.063 205.474C345.647 205.041 345.835 204.114 346.266 203.696C349.824 200.263 352.024 201.653 352.667 202.086C353.975 202.973 354.441 204.725 353.798 206.355C353.483 207.149 352.885 208.056 352.125 209.207C350.488 211.688 348.248 215.091 347.802 219.212C347.087 225.875 342.627 228.997 342.434 229.13C342.246 229.262 342.039 229.318 341.826 229.318Z" fill="#1A1A1A"/>
<path d="M325.099 237.45C324.957 237.45 324.81 237.419 324.668 237.358C324.12 237.119 323.867 236.477 324.105 235.922L335.398 209.759C335.636 209.204 336.27 208.949 336.827 209.194C337.375 209.433 337.628 210.075 337.39 210.63L326.097 236.793C325.92 237.205 325.519 237.45 325.099 237.45Z" fill="#1A1A1A"/>
<path d="M438.561 239.584C438.059 239.584 437.608 239.233 437.502 238.718L431.992 212.536C431.87 211.945 432.24 211.364 432.828 211.242C433.411 211.12 433.989 211.492 434.116 212.082L439.625 238.265C439.747 238.856 439.377 239.437 438.789 239.559C438.713 239.574 438.637 239.584 438.561 239.584Z" fill="#1A1A1A"/>
<path d="M338.246 187.203C337.947 187.203 337.648 187.081 337.435 186.836L317.333 164.153C316.933 163.705 316.974 163.012 317.42 162.61C317.871 162.212 318.555 162.248 318.955 162.701L339.057 185.384C339.458 185.833 339.417 186.525 338.971 186.928C338.758 187.111 338.5 187.203 338.246 187.203Z" fill="#1A1A1A"/>
<path d="M431.059 184.921C430.872 184.921 430.684 184.875 430.512 184.773C429.995 184.467 429.817 183.8 430.121 183.28L443.948 159.421C444.247 158.896 444.916 158.723 445.433 159.028C445.95 159.334 446.128 160.001 445.824 160.521L431.997 184.381C431.799 184.727 431.434 184.921 431.059 184.921Z" fill="#1A1A1A"/>
<path d="M326.192 83.5301C325.913 83.5301 325.634 83.4231 325.421 83.2092C324.995 82.7813 324.995 82.0936 325.421 81.6658L332.958 74.0912C333.384 73.6634 334.068 73.6634 334.494 74.0912C334.92 74.5191 334.92 75.2068 334.494 75.6347L326.957 83.2092C326.749 83.4231 326.47 83.5301 326.192 83.5301Z" fill="white"/>
<path d="M61.6232 331.024C61.3698 331.024 61.1163 330.937 60.9136 330.759L51.0604 322.181C50.6042 321.788 50.5586 321.096 50.9489 320.642C51.3391 320.189 52.0285 320.138 52.4796 320.53L62.3328 329.108C62.789 329.506 62.8346 330.193 62.4443 330.647C62.2263 330.896 61.9273 331.024 61.6232 331.024Z" fill="#1A1A1A"/>
<path d="M64.2518 341.572C63.9984 341.572 63.745 341.485 63.5422 341.307L53.6891 332.724C53.2329 332.326 53.1873 331.639 53.5775 331.185C53.9678 330.732 54.6571 330.681 55.1082 331.073L64.9614 339.657C65.4176 340.054 65.4632 340.742 65.0729 341.195C64.8601 341.445 64.556 341.572 64.2518 341.572Z" fill="#1A1A1A"/>
<defs>
<linearGradient id="paint0_linear" x1="368.616" y1="271.316" x2="381.036" y2="127.029" gradientUnits="userSpaceOnUse">
<stop stop-color="#6A46F0" stop-opacity="0"/>
<stop offset="1" stop-color="#825FFF"/>
</linearGradient>
</defs>
</svg>
