<svg width="41" height="45" viewBox="0 0 41 45" fill="none" xmlns="http://www.w3.org/2000/svg">
<g filter="url(#filter0_b)">
<path d="M18.2285 24.4038C17.8279 24.4038 17.4363 24.5231 17.1032 24.7466C16.7702 24.97 16.5106 25.2876 16.3573 25.6593C16.204 26.0309 16.1639 26.4398 16.242 26.8342C16.3202 27.2287 16.5131 27.5911 16.7963 27.8755C17.0796 28.1599 17.4405 28.3536 17.8333 28.4321C18.2262 28.5105 18.6335 28.4703 19.0036 28.3163C19.3736 28.1624 19.69 27.9018 19.9125 27.5673C20.1351 27.2329 20.2539 26.8397 20.2539 26.4375C20.2539 25.8981 20.0405 25.3809 19.6606 24.9995C19.2808 24.6181 18.7656 24.4038 18.2285 24.4038ZM10.1269 24.4038C9.72634 24.4038 9.33476 24.5231 9.00168 24.7466C8.66861 24.97 8.40901 25.2876 8.25572 25.6593C8.10242 26.0309 8.06231 26.4398 8.14046 26.8342C8.21861 27.2287 8.41151 27.5911 8.69476 27.8755C8.97802 28.1599 9.33891 28.3536 9.7318 28.4321C10.1247 28.5105 10.5319 28.4703 10.902 28.3163C11.2721 28.1624 11.5884 27.9018 11.811 27.5673C12.0335 27.2329 12.1523 26.8397 12.1523 26.4375C12.1523 25.8981 11.9389 25.3809 11.5591 24.9995C11.1793 24.6181 10.6641 24.4038 10.1269 24.4038ZM40.5077 6.10096C40.5077 4.48289 39.8675 2.93108 38.728 1.78693C37.5885 0.642778 36.0431 0 34.4316 0H6.07616C4.46466 0 2.91917 0.642778 1.77967 1.78693C0.640165 2.93108 0 4.48289 0 6.10096V14.2356C0.00893319 15.7406 0.571586 17.1892 1.5798 18.3029C0.571586 19.4166 0.00893319 20.8652 0 22.3702V30.5048C0 32.1229 0.640165 33.6747 1.77967 34.8188C2.91917 35.963 4.46466 36.6058 6.07616 36.6058H18.2285V40.6731H2.02539C1.48822 40.6731 0.973055 40.8873 0.593222 41.2687C0.213388 41.6501 0 42.1674 0 42.7067C0 43.2461 0.213388 43.7634 0.593222 44.1447C0.973055 44.5261 1.48822 44.7404 2.02539 44.7404H38.4823C39.0195 44.7404 39.5347 44.5261 39.9145 44.1447C40.2943 43.7634 40.5077 43.2461 40.5077 42.7067C40.5077 42.1674 40.2943 41.6501 39.9145 41.2687C39.5347 40.8873 39.0195 40.6731 38.4823 40.6731H22.2792V36.6058H34.4316C36.0431 36.6058 37.5885 35.963 38.728 34.8188C39.8675 33.6747 40.5077 32.1229 40.5077 30.5048V22.3702C40.4988 20.8652 39.9361 19.4166 38.9279 18.3029C39.9361 17.1892 40.4988 15.7406 40.5077 14.2356V6.10096ZM36.4569 30.5048C36.4569 31.0442 36.2436 31.5614 35.8637 31.9428C35.4839 32.3242 34.9687 32.5385 34.4316 32.5385H6.07616C5.53899 32.5385 5.02383 32.3242 4.64399 31.9428C4.26416 31.5614 4.05077 31.0442 4.05077 30.5048V22.3702C4.05077 21.8308 4.26416 21.3136 4.64399 20.9322C5.02383 20.5508 5.53899 20.3365 6.07616 20.3365H34.4316C34.9687 20.3365 35.4839 20.5508 35.8637 20.9322C36.2436 21.3136 36.4569 21.8308 36.4569 22.3702V30.5048ZM36.4569 14.2356C36.4569 14.7749 36.2436 15.2922 35.8637 15.6736C35.4839 16.055 34.9687 16.2692 34.4316 16.2692H6.07616C5.53899 16.2692 5.02383 16.055 4.64399 15.6736C4.26416 15.2922 4.05077 14.7749 4.05077 14.2356V6.10096C4.05077 5.5616 4.26416 5.04433 4.64399 4.66295C5.02383 4.28157 5.53899 4.06731 6.07616 4.06731H34.4316C34.9687 4.06731 35.4839 4.28157 35.8637 4.66295C36.2436 5.04433 36.4569 5.5616 36.4569 6.10096V14.2356ZM18.2285 8.13461C17.8279 8.13461 17.4363 8.25389 17.1032 8.47735C16.7702 8.70081 16.5106 9.01842 16.3573 9.39002C16.204 9.76162 16.1639 10.1705 16.242 10.565C16.3202 10.9595 16.5131 11.3219 16.7963 11.6063C17.0796 11.8907 17.4405 12.0844 17.8333 12.1628C18.2262 12.2413 18.6335 12.201 19.0036 12.0471C19.3736 11.8932 19.69 11.6325 19.9125 11.2981C20.1351 10.9637 20.2539 10.5705 20.2539 10.1683C20.2539 9.62891 20.0405 9.11164 19.6606 8.73026C19.2808 8.34887 18.7656 8.13461 18.2285 8.13461ZM10.1269 8.13461C9.72634 8.13461 9.33476 8.25389 9.00168 8.47735C8.66861 8.70081 8.40901 9.01842 8.25572 9.39002C8.10242 9.76162 8.06231 10.1705 8.14046 10.565C8.21861 10.9595 8.41151 11.3219 8.69476 11.6063C8.97802 11.8907 9.33891 12.0844 9.7318 12.1628C10.1247 12.2413 10.5319 12.201 10.902 12.0471C11.2721 11.8932 11.5884 11.6325 11.811 11.2981C12.0335 10.9637 12.1523 10.5705 12.1523 10.1683C12.1523 9.62891 11.9389 9.11164 11.5591 8.73026C11.1793 8.34887 10.6641 8.13461 10.1269 8.13461Z" fill="#E9484C"/>
</g>
<defs>
<filter id="filter0_b" x="-15" y="-15" width="70.5077" height="74.7404" filterUnits="userSpaceOnUse" color-interpolation-filters="sRGB">
<feFlood flood-opacity="0" result="BackgroundImageFix"/>
<feGaussianBlur in="BackgroundImage" stdDeviation="7.5"/>
<feComposite in2="SourceAlpha" operator="in" result="effect1_backgroundBlur"/>
<feBlend mode="normal" in="SourceGraphic" in2="effect1_backgroundBlur" result="shape"/>
</filter>
</defs>
</svg>
