<svg width="49" height="45" viewBox="0 0 49 45" fill="none" xmlns="http://www.w3.org/2000/svg">
<path d="M24.4244 22.1591C23.1161 22.1591 21.8373 22.549 20.7495 23.2794C19.6617 24.0099 18.8139 25.0481 18.3133 26.2628C17.8126 27.4775 17.6816 28.8142 17.9369 30.1037C18.1921 31.3932 18.8221 32.5777 19.7471 33.5074C20.6722 34.4371 21.8508 35.0703 23.1339 35.3268C24.417 35.5833 25.747 35.4516 26.9556 34.9485C28.1643 34.4453 29.1974 33.5933 29.9242 32.5001C30.651 31.4069 31.0389 30.1216 31.0389 28.8068C31.0389 27.0437 30.342 25.3528 29.1016 24.1061C27.8611 22.8595 26.1786 22.1591 24.4244 22.1591ZM24.4244 31.0227C23.9883 31.0227 23.562 30.8927 23.1994 30.6493C22.8368 30.4058 22.5542 30.0597 22.3873 29.6548C22.2204 29.2499 22.1768 28.8043 22.2619 28.3745C22.3469 27.9447 22.5569 27.5498 22.8653 27.2399C23.1736 26.93 23.5665 26.719 23.9942 26.6335C24.4219 26.548 24.8652 26.5918 25.2681 26.7596C25.671 26.9273 26.0154 27.2113 26.2576 27.5757C26.4999 27.9401 26.6292 28.3685 26.6292 28.8068C26.6292 29.3945 26.3969 29.9581 25.9834 30.3737C25.5699 30.7892 25.0091 31.0227 24.4244 31.0227ZM22.8589 17.0846C23.0686 17.2864 23.3159 17.4445 23.5865 17.55C23.8504 17.6672 24.1358 17.7278 24.4244 17.7278C24.7129 17.7278 24.9983 17.6672 25.2622 17.55C25.5329 17.4445 25.7801 17.2864 25.9898 17.0846L31.0389 12.0989C31.4658 11.6698 31.7056 11.088 31.7056 10.4812C31.7056 9.87452 31.4658 9.29265 31.0389 8.86363C30.6121 8.43461 30.0331 8.19359 29.4294 8.19359C28.8257 8.19359 28.2467 8.43461 27.8198 8.86363L26.6292 10.171V2.21591C26.6292 1.62821 26.3969 1.06459 25.9834 0.649024C25.5699 0.233461 25.0091 0 24.4244 0C23.8396 0 23.2788 0.233461 22.8653 0.649024C22.4518 1.06459 22.2195 1.62821 22.2195 2.21591V10.171L21.0289 8.86363C20.602 8.43461 20.023 8.19359 19.4193 8.19359C18.8156 8.19359 18.2367 8.43461 17.8098 8.86363C17.3829 9.29265 17.1431 9.87452 17.1431 10.4812C17.1431 11.088 17.3829 11.6698 17.8098 12.0989L22.8589 17.0846ZM39.8584 28.8068C39.8584 28.3685 39.7291 27.9401 39.4868 27.5757C39.2445 27.2113 38.9002 26.9273 38.4973 26.7596C38.0944 26.5918 37.6511 26.548 37.2234 26.6335C36.7957 26.719 36.4028 26.93 36.0944 27.2399C35.7861 27.5498 35.5761 27.9447 35.491 28.3745C35.4059 28.8043 35.4496 29.2499 35.6165 29.6548C35.7834 30.0597 36.066 30.4058 36.4286 30.6493C36.7911 30.8927 37.2174 31.0227 37.6535 31.0227C38.2383 31.0227 38.7991 30.7892 39.2126 30.3737C39.6261 29.9581 39.8584 29.3945 39.8584 28.8068ZM42.0632 13.2954H35.4487C34.8639 13.2954 34.3031 13.5289 33.8896 13.9445C33.4761 14.36 33.2438 14.9237 33.2438 15.5114C33.2438 16.099 33.4761 16.6627 33.8896 17.0782C34.3031 17.4938 34.8639 17.7273 35.4487 17.7273H42.0632C42.648 17.7273 43.2088 17.9607 43.6223 18.3763C44.0358 18.7918 44.2681 19.3555 44.2681 19.9432V37.6704C44.2681 38.2581 44.0358 38.8217 43.6223 39.2373C43.2088 39.6529 42.648 39.8863 42.0632 39.8863H6.78548C6.20071 39.8863 5.6399 39.6529 5.22641 39.2373C4.81291 38.8217 4.58062 38.2581 4.58062 37.6704V19.9432C4.58062 19.3555 4.81291 18.7918 5.22641 18.3763C5.6399 17.9607 6.20071 17.7273 6.78548 17.7273H13.4001C13.9848 17.7273 14.5456 17.4938 14.9591 17.0782C15.3726 16.6627 15.6049 16.099 15.6049 15.5114C15.6049 14.9237 15.3726 14.36 14.9591 13.9445C14.5456 13.5289 13.9848 13.2954 13.4001 13.2954H6.78548C5.03118 13.2954 3.34874 13.9958 2.10826 15.2425C0.86779 16.4892 0.170898 18.1801 0.170898 19.9432V37.6704C0.170898 39.4335 0.86779 41.1244 2.10826 42.3711C3.34874 43.6178 5.03118 44.3182 6.78548 44.3182H42.0632C43.8175 44.3182 45.5 43.6178 46.7404 42.3711C47.9809 41.1244 48.6778 39.4335 48.6778 37.6704V19.9432C48.6778 18.1801 47.9809 16.4892 46.7404 15.2425C45.5 13.9958 43.8175 13.2954 42.0632 13.2954ZM8.99034 28.8068C8.99034 29.2451 9.11965 29.6735 9.36192 30.0379C9.6042 30.4023 9.94855 30.6863 10.3514 30.854C10.7543 31.0217 11.1976 31.0656 11.6253 30.9801C12.053 30.8946 12.4459 30.6836 12.7543 30.3737C13.0626 30.0638 13.2726 29.6689 13.3577 29.2391C13.4428 28.8093 13.3991 28.3637 13.2322 27.9588C13.0653 27.5539 12.7827 27.2078 12.4201 26.9643C12.0576 26.7209 11.6313 26.5909 11.1952 26.5909C10.6104 26.5909 10.0496 26.8244 9.63613 27.2399C9.22263 27.6555 8.99034 28.2191 8.99034 28.8068Z" fill="#13AB50"/>
</svg>
