<svg width="34" height="50" viewBox="0 0 34 50" fill="none" xmlns="http://www.w3.org/2000/svg">
<path d="M28.2924 0H25.7004H9.10642H6.51137C3.36557 0 0.807861 2.56891 0.807861 5.72848V44.2715C0.807861 47.4311 3.36557 50 6.51137 50H28.2924C31.4382 50 33.9959 47.4311 33.9959 44.2715V5.72848C33.9959 2.56891 31.4382 0 28.2924 0ZM29.8482 43.7527C29.8482 44.9028 28.9209 45.8372 27.7727 45.8372H7.02789C5.88283 45.8372 4.95559 44.9028 4.95559 43.7527V6.25039C4.95559 5.10032 5.88283 4.16589 7.031 4.16589H8.06716C9.21221 4.16589 10.1426 5.09719 10.1426 6.25039C10.1426 7.40046 11.0698 8.3349 12.218 8.3349H22.5889C23.7339 8.3349 24.6643 7.40359 24.6643 6.25039C24.6643 5.10032 25.5915 4.16589 26.7397 4.16589H27.7758C28.9209 4.16589 29.8482 5.10032 29.8482 6.25039V43.7527Z" fill="#A3E0E4"/>
</svg>
