<svg width="63" height="45" viewBox="0 0 63 45" fill="none" xmlns="http://www.w3.org/2000/svg">
<path d="M51.1034 43.5326H42.343V12.2283C42.343 11.6883 42.7791 11.25 43.3164 11.25H50.1301C50.6674 11.25 51.1034 11.6883 51.1034 12.2283V43.5326Z" fill="#95CFFF"/>
<path d="M47.6966 11.25H43.3164C42.7791 11.25 42.343 11.6883 42.343 12.2283V43.5326H46.7232V12.2283C46.7232 11.6883 47.1593 11.25 47.6966 11.25Z" fill="#95CFFF"/>
<path d="M12.1047 17.0586L28.6914 0.471883L30.7612 2.5416L14.1745 19.1283L12.1047 17.0586Z" fill="#186DB4"/>
<path d="M31.1484 9.78261H28.2282V2.93478H21.4146V0H29.6883C30.4943 0 31.1484 0.657391 31.1484 1.46739V9.78261Z" fill="#186DB4"/>
<path d="M0 42.0649H62.2966V44.9997H0V42.0649Z" fill="#186DB4"/>
<path d="M19.9544 44.9998H11.194C10.388 44.9998 9.73389 44.3424 9.73389 43.5324V27.8802C9.73389 26.5322 10.826 25.4346 12.1673 25.4346H18.981C20.3224 25.4346 21.4145 26.5322 21.4145 27.8802V43.5324C21.4145 44.3424 20.7604 44.9998 19.9544 44.9998ZM12.654 42.065H18.4943V28.3694H12.654V42.065Z" fill="#186DB4"/>
<path d="M35.5286 45.0002H26.7682C25.9622 45.0002 25.3081 44.3428 25.3081 43.5328V20.0545C25.3081 18.7065 26.4002 17.6089 27.7416 17.6089H34.5552C35.8966 17.6089 36.9887 18.7065 36.9887 20.0545V43.5328C36.9887 44.3428 36.3346 45.0002 35.5286 45.0002ZM28.2283 42.0654H34.0686V20.5437H28.2283V42.0654Z" fill="#186DB4"/>
<path d="M51.1026 45.0001H42.3422C41.5362 45.0001 40.8821 44.3427 40.8821 43.5327V12.2284C40.8821 10.8803 41.9742 9.78271 43.3155 9.78271H50.1292C51.4706 9.78271 52.5627 10.8803 52.5627 12.2284V43.5327C52.5627 44.3427 51.9086 45.0001 51.1026 45.0001ZM43.8022 42.0653H49.6425V12.7175H43.8022V42.0653Z" fill="#186DB4"/>
</svg>
