<svg width="101" height="106" viewBox="0 0 101 106" fill="none" xmlns="http://www.w3.org/2000/svg"><ellipse cx="50.941" cy="50" rx="49.751" ry="50" fill="#F5F7FB"/><path d="M49.248 65.48H36.976a.635.635 0 01-.636-.608c-.433-9.77 7.619-23.333 8.507-24.795.245-1.874-1.835-4.175-4.615-5.077-1.215-.392-5.354-1.317-7.59 3.343a.636.636 0 11-1.147-.55c2.132-4.444 6.114-4.983 9.13-4.006 3.468 1.124 5.917 4.097 5.458 6.625a.638.638 0 01-.085.22c-.086.141-8.461 13.869-8.4 23.573H49.25a.637.637 0 11-.001 1.275z" fill="#603FD5"/><path d="M49.244 90.5a.64.64 0 01-.278-.064c-29.248-14.174-27.458-49.069-19.46-67.734a.637.637 0 011.17.501c-7.813 18.233-9.604 52.298 18.848 66.089a.635.635 0 01-.28 1.208z" fill="#1A1A1A"/><path d="M60.61 79.894a.637.637 0 01-.063-1.27c.288-.028 7.061-.793 8.146-8.38a.637.637 0 011.26.18c-1.229 8.594-9.203 9.458-9.283 9.466a.435.435 0 01-.06.004z" fill="#603FD5"/><path d="M18.858 84.394a.64.64 0 01-.45-.186l-3.78-3.777a.636.636 0 11.9-.9l3.779 3.778a.636.636 0 01-.45 1.085zm-1.888-6.038a.64.64 0 01-.45-.187l-1.89-1.889a.636.636 0 11.9-.9l1.89 1.89a.636.636 0 01-.45 1.086zM90.015 59.2a.638.638 0 01-.364-.114c-3.247-2.266-9.09-3.08-9.15-3.087a.639.639 0 01-.549-.582c-.372-4.79-1.21-12.835-1.872-14.03-4.017-7.246-13.158-9.356-36.89-11.666a.637.637 0 01.124-1.267c24.224 2.357 33.589 4.572 37.88 12.317.931 1.68 1.779 11.465 1.989 14.044 1.553.257 6.25 1.17 9.197 3.227a.636.636 0 01-.365 1.159zM71.837 25.023a.656.656 0 01-.22-.039c-14.994-5.513-30.177-5.571-30.366-5.571a.637.637 0 010-1.272c.19 0 15.6.058 30.805 5.65a.635.635 0 01-.219 1.232z" fill="#1A1A1A"/></svg>