<svg width="100" height="100" viewBox="0 0 100 100" fill="none" xmlns="http://www.w3.org/2000/svg"><circle cx="50" cy="50" r="50" fill="#F5F7FB"/><path d="M68.132 78.217l-1.727-6.466c-.124-.465-.89-.603-1.183-.221a.632.632 0 00-.11.547l.619 2.319a6.827 6.827 0 01-1.19 5.96 6.825 6.825 0 01-5.45 2.688H14.354a.63.63 0 00-.402 1.115l4.966 4.135a.629.629 0 00.404.147h40.965a8.067 8.067 0 006.442-3.172 8.079 8.079 0 001.403-7.052z" fill="#1A1A1A"/><path d="M59.09 84.303H14.354a.63.63 0 110-1.26h44.734c2.153 0 4.138-.98 5.45-2.688a6.826 6.826 0 001.19-5.96l-3.782-14.067A.63.63 0 0163.165 60l3.782 14.069a8.073 8.073 0 01-1.407 7.052 8.075 8.075 0 01-6.45 3.182zm-3.114-48.077a.63.63 0 01-.608-.466l-4.612-17.21a6.872 6.872 0 00-6.63-5.087h-24.81a.63.63 0 110-1.26h24.81a8.133 8.133 0 017.847 6.02l4.612 17.21a.632.632 0 01-.445.774.786.786 0 01-.164.02z" fill="#1A1A1A"/><path d="M72.184 37.167a.629.629 0 01-.349-.106c-7.014-4.672-12.264-5.009-15.606-.998a.631.631 0 01-.97-.81c3.825-4.585 9.635-4.33 17.276.757a.63.63 0 01.174.874.626.626 0 01-.525.283z" fill="#1A1A1A"/><path d="M50.605 54.022c-.027 0-.056 0-.082-.002-.547-.034-.993-.348-1.262-.885-1.84-3.71 1.555-11.845 3.608-15.628.817-1.504 2.046-2.425 3.655-2.739 3.01-.592 7.32 1.13 11.528 4.59a.63.63 0 01.191.7l-2.035 5.649a.63.63 0 01-.781.39l-5.512-1.729c-1.552 2.318-6.678 9.654-9.31 9.654zm7.152-18.107c-.349 0-.68.032-.99.092-1.222.236-2.16.945-2.788 2.102-2.175 4.007-5.072 11.478-3.587 14.466.09.18.157.185.208.188a.294.294 0 00.034.001c1.386 0 5.471-4.897 8.493-9.483a.633.633 0 01.715-.255l5.387 1.689 1.678-4.66c-3.293-2.627-6.664-4.14-9.15-4.14z" fill="#1A1A1A"/><path d="M46.904 63.848l-4.219-5.78-3.564 7.031 7.783-1.251z" fill="#fff"/><path d="M39.121 65.73a.631.631 0 01-.562-.916l3.564-7.031a.63.63 0 011.071-.088l4.22 5.782a.633.633 0 01-.41.995l-7.782 1.25a.866.866 0 01-.1.007zm3.662-6.46l-2.54 5.01 5.545-.89-3.005-4.12z" fill="#1A1A1A"/><path d="M86.33 30.645a3.58 3.58 0 00-5-.782l-1.393 1.016-37.252 27.189 4.219 5.78 4.574-3.339c-.67-.411-1.143-1.066-1.39-1.812a2.89 2.89 0 01.097-2.103c.293-.655.816-1.181 1.381-1.607.623-.469 1.325-.824 2.047-1.11.884-.352 1.811-.54 2.742-.727 1.122-.225 2.248-.43 3.356-.714.54-.138 1.08-.261 1.624-.379.56-.12 1.12-.25 1.674-.402.371-.103.733-.224 1.091-.358L84.155 36.66l1.392-1.015a3.578 3.578 0 00.782-5z" fill="#fff"/><path d="M86.839 30.272a4.177 4.177 0 00-2.75-1.677 4.175 4.175 0 00-3.13.758L42.314 57.557a.633.633 0 00-.138.882l4.219 5.781a.63.63 0 00.88.138l4.853-3.542a2.995 2.995 0 01-1.167-.708l-3.919 2.86-3.475-4.762 38.135-27.834a2.948 2.948 0 013.477 4.764L62.289 51.84c.243-.058.485-.12.724-.186 1.032-.285 1.997-.714 2.963-1.167.275-.129.552-.257.83-.382l19.116-13.954a4.215 4.215 0 00.917-5.88z" fill="#1A1A1A"/><path d="M33.015 75.016a.626.626 0 01-.439-.179l-4.506-4.372a.628.628 0 11.877-.903l3.974 3.856 5.681-8.138a.63.63 0 011.034.721l-6.105 8.746a.633.633 0 01-.457.267l-.059.002z" fill="#BA850B"/><path d="M44.017 79.522H26.39a.63.63 0 110-1.26h17.627a.63.63 0 110 1.26zm.925-49.168H12.341a.63.63 0 110-1.26h32.601a.629.629 0 110 1.26z" fill="#1A1A1A"/><path d="M31.955 46.126H12.341a.63.63 0 110-1.26h19.613c.349 0 .63.281.63.63 0 .35-.281.63-.629.63zM6.644 47.993a2.5 2.5 0 01-2.499-2.497 2.502 2.502 0 012.499-2.499 2.502 2.502 0 012.499 2.499 2.5 2.5 0 01-2.499 2.497zm0-3.735a1.238 1.238 0 100 2.474 1.238 1.238 0 000-2.474z" fill="#BA850B"/><path d="M75.547 34.715a.634.634 0 01-.458-.197c-2.401-2.538-7.151-4.52-12.633-1.748a.632.632 0 01-.847-.28.629.629 0 01.279-.846c6.102-3.08 11.418-.845 14.117 2.008a.63.63 0 01-.458 1.063z" fill="#1A1A1A"/><path d="M78.12 32.836a.624.624 0 01-.392-.137c-.04-.032-4.037-3.135-7.865-1.338a.631.631 0 01-.537-1.14c4.544-2.138 8.999 1.341 9.186 1.49a.632.632 0 01-.393 1.125zm19.304 13.29a.622.622 0 01-.373-.122l-12.192-8.96a.63.63 0 01.744-1.017l12.193 8.96a.63.63 0 01-.373 1.14zm-7.556 29.552a.623.623 0 01-.367-.118c-5.568-3.994-20.636-14.448-23.447-14.866-.9-.128-2.785.04-4.781.221-4.77.438-10.17.928-11.775-1.26-.574-.783-.608-1.796-.101-3.01 1.25-2.986 4.458-3.589 7.855-4.226 3.048-.573 6.504-1.221 9.233-3.64a.627.627 0 01.89.053c.23.26.207.659-.054.89-2.99 2.652-6.627 3.335-9.837 3.938-3.317.623-5.936 1.115-6.925 3.475-.49 1.17-.155 1.627-.045 1.776 1.185 1.612 6.875 1.094 10.643.75 2.163-.196 4.031-.37 5.082-.212 3.624.537 21.922 13.6 23.998 15.088a.63.63 0 01-.369 1.141z" fill="#1A1A1A"/></svg>