<svg width="100" height="100" viewBox="0 0 100 100" fill="none" xmlns="http://www.w3.org/2000/svg"><circle cx="50" cy="50" r="50" fill="#F5F7FB"/><path d="M18.512 64.434a.621.621 0 01-.424-.166.627.627 0 01-.206-.465V29.057a.63.63 0 01.573-.627l46.664-4.295a3.448 3.448 0 012.645.888 3.46 3.46 0 011.126 2.553v31.65a.629.629 0 01-.573.627l-49.746 4.58h-.059zm.63-34.801v33.479l48.486-4.464V27.574c0-.623-.254-1.2-.714-1.62a2.178 2.178 0 00-1.68-.563l-46.091 4.242zm49.117 29.59h.011-.011z" fill="#1A1A1A"/><path d="M83.306 38.435H47.518v23.53h35.788v-23.53z" fill="#fff"/><path d="M83.307 62.595h-35.79a.63.63 0 01-.63-.63v-23.53c0-.35.282-.63.63-.63h35.79c.349 0 .63.28.63.63v23.53a.63.63 0 01-.63.63zm-35.16-1.26h34.53v-22.27h-34.53v22.27z" fill="#1A1A1A"/><path d="M79.472 58.704a.629.629 0 01-.63-.63V41.69a.629.629 0 111.26 0v16.385a.63.63 0 01-.63.63z" fill="#1A1A1A"/><path d="M40.542 55.052h30.752a3.349 3.349 0 003.353-3.353V35.242a3.35 3.35 0 00-3.353-3.353H40.542a3.349 3.349 0 00-3.353 3.353V51.7a3.348 3.348 0 003.353 3.353z" fill="#fff"/><path d="M71.621 55.682H40.215a3.66 3.66 0 01-3.656-3.656V34.914a3.66 3.66 0 013.656-3.656H71.62a3.66 3.66 0 013.656 3.656v17.112a3.66 3.66 0 01-3.656 3.656zM40.215 32.52a2.399 2.399 0 00-2.396 2.396v17.112a2.399 2.399 0 002.396 2.396H71.62a2.399 2.399 0 002.396-2.396V34.914a2.399 2.399 0 00-2.396-2.396H40.215v.002z" fill="#1A1A1A"/><path d="M74.647 36.635H37.19v5.792h37.458v-5.792z" fill="#1A1A1A"/><path d="M74.647 43.057H37.19a.629.629 0 01-.63-.63v-5.792a.63.63 0 01.63-.63h37.457a.63.63 0 01.63.63v5.792a.628.628 0 01-.629.63zm-36.828-1.26h36.197v-4.531H37.819v4.53z" fill="#1A1A1A"/><path d="M60.873 75.152l-42.36-11.35V29.057l43.819 11.741a2.82 2.82 0 012.09 2.724v28.906a2.818 2.818 0 01-3.549 2.724z" fill="#fff"/><path d="M61.61 75.881c-.299 0-.602-.039-.9-.12L18.35 64.414a.631.631 0 01-.467-.61V29.057a.63.63 0 01.794-.61l43.82 11.742a3.456 3.456 0 012.556 3.333v28.906c0 1.082-.492 2.08-1.35 2.739a3.427 3.427 0 01-2.092.714zM19.143 63.32l41.892 11.224a2.17 2.17 0 001.9-.377c.544-.417.856-1.05.856-1.738V43.522c0-.988-.668-1.86-1.623-2.116L19.142 29.878v33.44z" fill="#1A1A1A"/><path d="M49.71 50.46l-5.582-1.496v-5.582l-8.66-2.32v5.581l-5.582-1.496v8.66l5.582 1.496v5.582l8.66 2.32v-5.581l5.583 1.496v-8.66z" fill="#fff"/><path d="M44.13 63.836a.69.69 0 01-.164-.02l-8.66-2.321a.631.631 0 01-.467-.61v-5.099l-5.116-1.37a.631.631 0 01-.468-.609v-8.66a.63.63 0 01.795-.61l4.789 1.285V41.06a.63.63 0 01.794-.61l8.66 2.322a.631.631 0 01.468.61v5.097l5.115 1.37a.631.631 0 01.468.61v8.66a.63.63 0 01-.794.61l-4.79-1.285v4.762a.63.63 0 01-.63.63zm-8.03-3.434l7.399 1.983v-4.761a.63.63 0 01.794-.61l4.79 1.285v-7.356l-5.117-1.37a.631.631 0 01-.467-.61v-5.097l-7.4-1.984v4.761a.63.63 0 01-.794.61l-4.79-1.284v7.355l5.117 1.37a.631.631 0 01.467.61v5.098z" fill="#BA850B"/><path d="M61.026 59.059c.683-.598.604-1.806-.177-2.698-.78-.893-1.968-1.132-2.65-.534-.684.597-.604 1.805.177 2.698.78.892 1.967 1.131 2.65.534z" fill="#fff"/><path d="M60.093 60.017c-.211 0-.429-.029-.645-.086-1.316-.353-2.345-1.667-2.345-2.99 0-.69.275-1.28.775-1.665.509-.39 1.202-.505 1.897-.32 1.315.353 2.345 1.666 2.345 2.99 0 .69-.275 1.28-.773 1.662a2.04 2.04 0 01-1.254.409zm-.972-3.89a.78.78 0 00-.479.148c-.18.14-.281.373-.281.664 0 .755.646 1.568 1.41 1.772.322.087.605.05.805-.103.183-.14.28-.37.28-.663 0-.755-.646-1.567-1.412-1.772a1.194 1.194 0 00-.323-.045zm-26.65 29.537a.63.63 0 01-.445-1.076l3.52-3.522a.63.63 0 11.891.891l-3.52 3.522a.624.624 0 01-.446.185z" fill="#1A1A1A"/></svg>