<svg width="101" height="100" viewBox="0 0 101 100" fill="none" xmlns="http://www.w3.org/2000/svg"><ellipse cx="50.941" cy="50" rx="49.751" ry="50" fill="#F5F7FB"/><path d="M51.242 88.676a.636.636 0 01-.63-.733l2.133-13.92a.636.636 0 01.625-.541c18.407-.123 19.39-18.362 19.422-19.138a.638.638 0 01.405-.567l6.383-2.483c-.982-6.366-3.937-18.075-12.803-28.48C57.482 11.9 43.045 11.625 32.86 16.195a.636.636 0 01-.52-1.161c10.618-4.766 25.683-4.461 35.407 6.953 9.31 10.928 12.246 23.253 13.168 29.625a.638.638 0 01-.4.685l-6.486 2.522c-.269 2.878-2.598 19.475-20.108 19.927l-2.05 13.39a.636.636 0 01-.628.54z" fill="#1A1A1A"/><path d="M45.772 59.777H21.575a.636.636 0 01-.636-.636V37.838c0-12.096 9.829-21.937 21.91-21.937h2.923c12.08 0 21.909 9.841 21.909 21.937 0 12.097-9.829 21.94-21.91 21.94zm-23.56-1.273h23.56c11.38 0 20.637-9.27 20.637-20.664 0-11.395-9.258-20.664-20.637-20.664h-2.924c-11.38 0-20.637 9.27-20.637 20.664v20.664z" fill="#1A1A1A"/><path d="M41.108 38.477a.636.636 0 01-.448-.184l-4.59-4.553a.638.638 0 01.896-.905l4.018 3.985 5.707-9.392a.637.637 0 011.087.662l-6.126 10.082a.635.635 0 01-.467.3c-.024.002-.05.005-.076.005zm0 11.381a.636.636 0 01-.636-.637v-6.414a.636.636 0 111.271 0v6.414a.636.636 0 01-.635.637zm-9.463-15.889h-4.71a.636.636 0 010-1.274h4.71a.636.636 0 010 1.274zm24.798 0h-5.871a.636.636 0 010-1.274h5.235v-4.123a.636.636 0 111.272 0v4.76a.636.636 0 01-.636.637z" fill="#603FD5"/><path d="M39.551 51.173c0-.86.7-1.56 1.556-1.56a1.561 1.561 0 010 3.12c-.855 0-1.556-.7-1.556-1.56zm16.893-26.705a1.557 1.557 0 011.554 1.562 1.558 1.558 0 01-1.558 1.557 1.558 1.558 0 01-1.554-1.562c.001-.863.7-1.559 1.558-1.557z" stroke="#603FD5" stroke-width="2.5"/><path d="M65.422 88.644a.636.636 0 01-.4-1.131l3.897-3.176a.636.636 0 01.802.988l-3.897 3.176a.639.639 0 01-.401.143zm-14.85-45.2H31.645a.636.636 0 01-.636-.637V23.855c0-.351.285-.636.636-.636h18.927c.351 0 .636.285.636.636v18.952a.636.636 0 01-.636.637zM32.28 42.171h17.655V24.492H32.281v17.679z" fill="#1A1A1A"/></svg>