<svg width="101" height="100" viewBox="0 0 101 100" fill="none" xmlns="http://www.w3.org/2000/svg"><path d="M39 70.575c-.022 0-.044 0-.066-.002a.638.638 0 01-.57-.697c.007-.064.618-6.428-.783-10.798-1.343-4.176-3.115-11.871.081-16.492 2.185-3.16 5.23-3.242 6.597-2.306.107.073.204.15.291.234a4.224 4.224 0 01-.016-.234c-.05-.85.314-1.538 1.023-1.938 1.906-1.075 5.938.116 7.767 1.377 2.562 1.765 2.325 3.976 2.315 4.07a.636.636 0 11-1.263-.154c.006-.056.125-1.558-1.772-2.867-1.683-1.16-5.167-2.022-6.422-1.316-.287.161-.4.388-.378.754.064 1.093.2 1.16.95 1.533.816.404 2.045 1.015 3.774 3.075 1.439 1.716 1.404 3.94-.1 6.104-1.714 2.467-4.857 4.256-6.446 3.686-1.314-.47-2.192-1.355-2.61-2.633-.96-2.941.9-7.315 2.297-9.38.359-.531.317-.956-.126-1.26-.82-.56-3.08-.556-4.832 1.979-2.885 4.172-1.186 11.425.081 15.377 1.486 4.625.866 11.045.84 11.316a.638.638 0 01-.633.572zm6.16-28.37a2.565 2.565 0 01-.438 1.098c-1.356 2.004-2.917 5.895-2.142 8.271.293.896.891 1.495 1.829 1.83.844.296 3.467-1.044 4.975-3.214.825-1.188 1.524-2.943.17-4.557-1.557-1.857-2.602-2.375-3.364-2.753-.421-.21-.767-.396-1.03-.674z" fill="#1A1A1A"/><path d="M53.045 52.12a.637.637 0 01-.615-.798c.221-.85.456-1.813.703-2.833 1.726-7.09 3.24-12.557 5.692-13.108 1.113-.248 1.796.13 2.177.49 1.359 1.293.886 4.32.827 4.661a.636.636 0 11-1.255-.215c.176-1.03.208-2.898-.45-3.523-.147-.138-.41-.306-1.02-.17-1.877.423-3.666 7.774-4.735 12.167a202.03 202.03 0 01-.709 2.852.636.636 0 01-.615.477z" fill="#1A1A1A"/><path d="M57.836 53.909a.636.636 0 01-.62-.777c2.045-9.078 3.654-14.583 5.815-15.86a2.043 2.043 0 011.641-.223c3.044.884 2.189 5.269 2.152 5.455a.637.637 0 01-1.247-.254c.008-.034.663-3.42-1.26-3.978a.764.764 0 00-.638.096c-1.856 1.097-3.606 7.878-5.223 15.043a.637.637 0 01-.62.498z" fill="#1A1A1A"/><path d="M62.707 70.576a.638.638 0 01-.6-.849c1.414-4.008 5.16-14.929 6.572-19.333 1.18-3.686 1.4-7.483.51-8.833-.205-.311-.452-.471-.774-.501-1.233-.14-2.196 2.898-3.893 8.377-.52 1.683-1.12 3.618-1.836 5.82a.633.633 0 01-.802.41.638.638 0 01-.407-.804 387.333 387.333 0 001.831-5.802c2.077-6.708 2.932-9.483 5.226-9.27.708.067 1.3.437 1.718 1.07 1.31 1.988.763 6.415-.36 9.923-1.415 4.414-5.168 15.353-6.583 19.367a.641.641 0 01-.602.425zM32.7 50.745H18.059a.636.636 0 01-.636-.637V31.613c0-.351.285-.636.636-.636h14.643c.35 0 .636.285.636.636v18.495a.636.636 0 01-.636.637zM18.695 49.47h13.37V32.25h-13.37v17.221z" fill="#1A1A1A"/><path d="M79.355 72.36H21.727a4.311 4.311 0 01-4.305-4.31V27.837a4.312 4.312 0 014.305-4.31h57.628a4.311 4.311 0 014.304 4.31V68.05a4.31 4.31 0 01-4.304 4.31zM21.727 24.801a3.038 3.038 0 00-3.033 3.037v40.21a3.037 3.037 0 003.033 3.036h57.628a3.038 3.038 0 003.032-3.036V27.84a3.038 3.038 0 00-3.032-3.037H21.727z" fill="#1A1A1A"/><path d="M56.71 71.727H44.37v11.87h12.34v-11.87z" fill="#1A1A1A"/><path d="M63.003 84.234H38.076a.636.636 0 010-1.273h24.927a.636.636 0 010 1.273z" fill="#1A1A1A"/><path d="M77.713 66.132h-6.387a.636.636 0 010-1.274h6.387a.636.636 0 010 1.274zm-3.155-30.826l-.048-.001a.635.635 0 01-.511-.332l-.145-.267c-.621-1.16-1.207-2.253-2.681-3.374a.635.635 0 01.13-1.09c1.145-.505 1.572-1.355 2.22-2.642.147-.293.301-.6.474-.922a.636.636 0 011.1-.037c.263.419.484.817.692 1.196.56 1.015 1.001 1.817 2.025 2.447a.636.636 0 01.044 1.053c-.83.616-1.248 1.305-1.778 2.177a17.23 17.23 0 01-1.015 1.542.64.64 0 01-.507.25zm-1.89-4.385c.936.856 1.49 1.703 1.955 2.532.128-.203.25-.404.372-.601.424-.7.83-1.369 1.459-1.987-.839-.711-1.298-1.543-1.778-2.414l-.082-.149c-.52 1.031-1.005 1.95-1.926 2.619z" fill="#603FD5"/><path d="M30.02 89.106a.638.638 0 01-.45-.187l-1.98-1.983a.636.636 0 11.9-.901l1.98 1.983a.638.638 0 01-.45 1.088z" fill="#1A1A1A"/><path d="M24.16 45.384a.636.636 0 01-.637-.637v-7.772a.636.636 0 111.272 0v7.772a.636.636 0 01-.636.637z" fill="#603FD5"/><path d="M28.04 41.498h-7.762a.636.636 0 010-1.274h7.762a.636.636 0 010 1.274z" fill="#603FD5"/></svg>