<svg width="101" height="100" viewBox="0 0 101 100" fill="none" xmlns="http://www.w3.org/2000/svg"><ellipse cx="50.737" cy="50" rx="49.833" ry="50" fill="#F5F7FB"/><path d="M61.926 47.215a1.758 1.758 0 100-3.516 1.758 1.758 0 000 3.516z" fill="#000"/><path d="M65.969 30.516h-2.285v-1.758a1.758 1.758 0 00-3.516 0v1.758H52.17v-1.758a1.758 1.758 0 00-3.516 0v1.758h-7.91v-1.758a1.758 1.758 0 10-3.516 0v1.758h-2.197A7.04 7.04 0 0028 37.546V64.97A7.04 7.04 0 0035.031 72h13.447a1.758 1.758 0 100-3.516H35.031a3.52 3.52 0 01-3.515-3.515V37.547a3.52 3.52 0 013.515-3.516h2.197v1.758a1.758 1.758 0 003.516 0v-1.758h7.91v1.758a1.758 1.758 0 003.516 0v-1.758h7.998v1.758a1.758 1.758 0 103.516 0v-1.758h2.285a3.52 3.52 0 013.515 3.516v10.02a1.758 1.758 0 103.516 0v-10.02a7.04 7.04 0 00-7.031-7.031z" fill="#000"/><path d="M62.365 50.73c-5.864 0-10.635 4.771-10.635 10.635S56.502 72 62.365 72 73 67.23 73 61.365c0-5.864-4.77-10.635-10.635-10.635zm0 17.754a7.127 7.127 0 01-7.119-7.119 7.127 7.127 0 017.12-7.119c3.925 0 7.118 3.194 7.118 7.12a7.127 7.127 0 01-7.119 7.118z" fill="#FF8034"/><path d="M64.914 59.607h-.791v-1.845a1.758 1.758 0 10-3.516 0v3.603c0 .971.787 1.758 1.758 1.758h2.55a1.758 1.758 0 100-3.516z" fill="#FF9C64"/><path d="M54.28 47.215a1.758 1.758 0 100-3.516 1.758 1.758 0 000 3.516zm-7.647 7.646a1.758 1.758 0 100-3.515 1.758 1.758 0 000 3.515zm-7.647-7.646a1.758 1.758 0 100-3.516 1.758 1.758 0 000 3.516zm0 7.646a1.758 1.758 0 100-3.515 1.758 1.758 0 000 3.515zm0 7.647a1.758 1.758 0 100-3.516 1.758 1.758 0 000 3.516zm7.647 0a1.758 1.758 0 100-3.516 1.758 1.758 0 000 3.516zm0-15.293a1.758 1.758 0 100-3.516 1.758 1.758 0 000 3.516z" fill="#000"/><path d="M83.999 67.582a.637.637 0 01-.45-1.087l3.318-3.32a.637.637 0 01.901.902l-3.319 3.319a.64.64 0 01-.45.186zM24.577 31.987a.64.64 0 01-.547-.309l-3.875-6.448a.637.637 0 111.092-.655l3.875 6.448a.637.637 0 01-.545.964z" fill="#1A1A1A"/></svg>