<svg width="101" height="100" viewBox="0 0 101 100" fill="none" xmlns="http://www.w3.org/2000/svg"><ellipse cx="50.737" cy="50" rx="49.833" ry="50" fill="#F5F7FB"/><path d="M64.926 49.215a1.758 1.758 0 100-3.516 1.758 1.758 0 000 3.516z" fill="#1A1A1A"/><path d="M55.08 63.365c0-5.67 4.614-10.285 10.285-10.285S75.65 57.694 75.65 63.365 71.036 73.65 65.365 73.65c-5.67 0-10.284-4.614-10.284-10.285zm2.816 0c0 4.12 3.35 7.47 7.47 7.47 4.118 0 7.468-3.35 7.468-7.47 0-4.119-3.35-7.469-7.469-7.469-4.118 0-7.469 3.35-7.469 7.47z" fill="#FF8034" stroke="#F5F7FB" stroke-width=".7"/><path d="M66.84 62.53h-.521v-1.295c0-.682-.52-1.235-1.16-1.235-.64 0-1.159.553-1.159 1.235v2.53c0 .682.52 1.235 1.16 1.235h1.68c.64 0 1.16-.553 1.16-1.235 0-.681-.52-1.234-1.16-1.234z" fill="#FF9C64"/><path d="M57.28 49.215a1.758 1.758 0 100-3.516 1.758 1.758 0 000 3.516zm-7.647 7.646a1.758 1.758 0 100-3.515 1.758 1.758 0 000 3.515zm-7.647-7.646a1.758 1.758 0 100-3.516 1.758 1.758 0 000 3.516zm0 7.646a1.758 1.758 0 100-3.515 1.758 1.758 0 000 3.515zm0 7.647a1.758 1.758 0 100-3.516 1.758 1.758 0 000 3.516zm7.647 0a1.758 1.758 0 100-3.516 1.758 1.758 0 000 3.516zm0-15.293a1.758 1.758 0 100-3.516 1.758 1.758 0 000 3.516zm15.064-7.699a1.758 1.758 0 100-3.516 1.758 1.758 0 000 3.516zm-7.647 0a1.758 1.758 0 100-3.516 1.758 1.758 0 000 3.516zm-15.292 0a1.758 1.758 0 100-3.516 1.758 1.758 0 000 3.516zm-7.772 7.699a1.758 1.758 0 100-3.516 1.758 1.758 0 000 3.516zm0 7.646a1.758 1.758 0 100-3.515 1.758 1.758 0 000 3.515zm0 7.647a1.758 1.758 0 100-3.516 1.758 1.758 0 000 3.516zm-.228-22.992a1.758 1.758 0 100-3.516 1.758 1.758 0 000 3.516zm15.646 0a1.758 1.758 0 100-3.516 1.758 1.758 0 000 3.516z" fill="#1A1A1A"/></svg>