<svg width="101" height="100" viewBox="0 0 101 100" fill="none" xmlns="http://www.w3.org/2000/svg"><ellipse cx="50.678" cy="50" rx="49.751" ry="50" fill="#F5F7FB"/><path d="M76.682 41H65.356a2.975 2.975 0 00-2.966 2.979V64.02A2.975 2.975 0 0065.356 67h11.326a2.975 2.975 0 002.966-2.979V43.98A2.975 2.975 0 0076.682 41zm.81 22.751c0 .599-.483 1.084-1.08 1.084H65.625a1.081 1.081 0 01-1.078-1.084v-19.5c0-.599.482-1.085 1.08-1.085h.538c.596 0 1.08.485 1.08 1.084 0 .598.482 1.084 1.079 1.084h5.392c.596 0 1.08-.484 1.08-1.084 0-.598.482-1.084 1.079-1.084h.539a1.08 1.08 0 011.077 1.084v19.501zm-17.71-14.674c0-3.28-2.68-5.951-5.961-5.951-3.282 0-5.962 2.67-5.962 5.95a5.938 5.938 0 004.96 5.86v6.25c0 4.87-3.953 8.824-8.824 8.824-4.87 0-8.825-3.954-8.825-8.825l-.022-7.159c2.31-.308 4.568-1.659 6.576-3.966.295-.34.385-.776.334-1.193 2.624-3.47 4.252-8.196 4.252-11.829 0-5.608-2.512-6.19-6.668-7.141l-.006-.01A1.559 1.559 0 0038.239 29c-.878 0-1.59.711-1.59 1.579 0 .878.712 1.59 1.59 1.59.348 0 .674-.145.933-.35l.037.013c4.034.926 5.123 1.177 5.123 5.206 0 3.195-1.512 7.474-3.823 10.563a1.52 1.52 0 00-1.044.506c-1.18 1.366-3.068 3.002-5.297 3.002-2.227 0-4.112-1.62-5.293-2.983a1.516 1.516 0 00-1.042-.505c-2.316-3.1-3.832-7.384-3.832-10.583 0-4.032 1.07-4.282 5.13-5.209l.014-.012c.279.205.582.35.952.35a1.59 1.59 0 001.59-1.589A1.589 1.589 0 0030.096 29c-.627 0-1.142.372-1.416.885h-.003c-4.16.96-6.677 1.532-6.677 7.153 0 3.637 1.634 8.38 4.282 11.849-.05.417.04.855.334 1.193 2.007 2.291 4.243 3.637 6.55 3.946l.003 7.159C33.169 67.149 38.032 72 43.995 72 49.96 72 54.8 67.149 54.8 61.185v-6.25c2.814-.47 4.982-2.905 4.982-5.858zm-5.961 3.982a3.99 3.99 0 01-3.982-3.98c0-2.188 1.795-3.971 3.982-3.971a3.97 3.97 0 013.961 3.97c0 2.196-1.774 3.98-3.961 3.98z" fill="#000"/><path d="M53.82 46.106a2.977 2.977 0 00-2.98 2.971 2.978 2.978 0 002.98 2.98 2.978 2.978 0 002.981-2.98 2.978 2.978 0 00-2.98-2.97z" fill="#FF8036"/></svg>