<svg width="100" height="100" viewBox="0 0 100 100" fill="none" xmlns="http://www.w3.org/2000/svg"><circle cx="50" cy="50" r="50" fill="#F5F7FB"/><path d="M68.132 78.217l-1.727-6.466c-.124-.465-.89-.603-1.183-.221a.632.632 0 00-.11.547l.619 2.319a6.827 6.827 0 01-1.19 5.96 6.825 6.825 0 01-5.45 2.688H14.354a.63.63 0 00-.402 1.115l4.966 4.135a.629.629 0 00.404.147h40.965a8.067 8.067 0 006.442-3.172 8.079 8.079 0 001.403-7.052z" fill="#1A1A1A"/><path d="M59.09 84.303H14.354a.63.63 0 110-1.26h44.734c2.153 0 4.138-.98 5.45-2.688a6.826 6.826 0 001.19-5.96l-3.782-14.067A.63.63 0 0163.165 60l3.782 14.069a8.073 8.073 0 01-1.407 7.052 8.075 8.075 0 01-6.45 3.182z" fill="#1A1A1A"/><path d="M63 60.5s-.924.28-1 0L50.756 18.55a6.872 6.872 0 00-6.63-5.087h-24.81a.63.63 0 110-1.26h24.81c3.672 0 6.95 2.653 7.9 6.199L63 59.5v1z" fill="#1A1A1A"/><path d="M33.015 75.016a.626.626 0 01-.439-.179l-4.506-4.372a.628.628 0 11.877-.903l3.974 3.856 5.681-8.138a.63.63 0 011.034.721l-6.105 8.746a.633.633 0 01-.457.267l-.059.002z" fill="#E16A00"/><path d="M44.017 79.522H26.39a.63.63 0 110-1.26h17.627a.63.63 0 110 1.26zm.925-49.168H12.341a.63.63 0 110-1.26h32.601a.629.629 0 110 1.26z" fill="#1A1A1A"/><path d="M31.955 46.126H12.341a.63.63 0 110-1.26h19.613c.349 0 .63.281.63.63 0 .35-.281.63-.629.63zM6.644 47.993a2.5 2.5 0 01-2.499-2.497 2.502 2.502 0 012.499-2.499 2.502 2.502 0 012.499 2.499 2.5 2.5 0 01-2.499 2.497zm0-3.735a1.238 1.238 0 100 2.474 1.238 1.238 0 000-2.474z" fill="#E16A00"/></svg>