<svg width="100" height="100" viewBox="0 0 100 100" fill="none" xmlns="http://www.w3.org/2000/svg"><g clip-path="url(#clip0)"><ellipse cx="49.737" cy="50" rx="49.833" ry="50" fill="#F5F7FB"/><path d="M53.842 27.853h0a.835.835 0 00.817.657h3.149v1.673a3.7 3.7 0 01-3.696 3.696h0-8.108 0a3.7 3.7 0 01-3.697-3.696v0-1.673h3.15a.836.836 0 00.816-.657h7.57zm0 0c-.38-1.734-1.979-2.971-3.784-2.971-1.805 0-3.404 1.237-3.785 2.971h7.57zm1.326-1.313l.131.298h8.914s0 0 0 0a5.376 5.376 0 015.369 5.37v38.07a5.376 5.376 0 01-5.37 5.37h-28.31a5.376 5.376 0 01-5.369-5.37v-38.07a5.376 5.376 0 015.37-5.37s0 0 0 0h8.913l.132-.298a5.585 5.585 0 0110.22 0zM67.91 70.28V32.206v0a3.7 3.7 0 00-3.696-3.697H59.48v1.672a5.375 5.375 0 01-5.37 5.369h-8.105a5.376 5.376 0 01-5.37-5.37v-1.67h-4.733 0a3.7 3.7 0 00-3.697 3.696v38.072h0a3.7 3.7 0 003.697 3.697h28.311a3.7 3.7 0 003.697-3.697z" fill="#000" stroke="#000"/><path d="M56.67 47.394l-8.771 8.563-4.454-4.347a1.336 1.336 0 00-1.884 1.893l.018.018 5.386 5.26c.52.506 1.348.506 1.867 0l9.704-9.475a1.336 1.336 0 00-1.867-1.912z" fill="#FF7F34"/><path d="M82.999 67.582a.637.637 0 01-.45-1.087l3.318-3.32a.637.637 0 01.901.902l-3.319 3.319a.64.64 0 01-.45.186zM15.513 48.721a.64.64 0 01-.547-.308l-3.875-6.448a.637.637 0 111.092-.655l3.875 6.448a.637.637 0 01-.545.963z" fill="#1A1A1A"/></g><defs><clipPath id="clip0"><path fill="#fff" d="M0 0h100v100H0z"/></clipPath></defs></svg>