<svg width="101" height="100" viewBox="0 0 101 100" fill="none" xmlns="http://www.w3.org/2000/svg"><circle cx="50.943" cy="50" r="50" fill="#F5F7FB"/><ellipse cx="50.68" cy="50" rx="49.833" ry="50" fill="#F5F7FB"/><path d="M78.52 67.841H23.382v-11.53a3.954 3.954 0 013.952-3.957h47.235a3.954 3.954 0 013.952 3.957v11.53h-.001z" fill="#1A1A1A"/><path d="M78.52 68.478H23.382a.636.636 0 01-.636-.637V56.027a4.312 4.312 0 014.303-4.31h47.804a4.311 4.311 0 014.303 4.31v11.814a.636.636 0 01-.636.637zm-54.502-1.273h53.866V56.026c0-.664-.215-1.278-.576-1.778a3.029 3.029 0 00-2.456-1.257H27.05c-.948 0-1.795.438-2.351 1.121a3.022 3.022 0 00-.68 1.914v11.177z" fill="#1A1A1A"/><path d="M77.942 76.49H23.96a5.004 5.004 0 01-3.551-1.473 5.015 5.015 0 01-1.471-3.556 5.02 5.02 0 011.47-3.556 5.001 5.001 0 013.552-1.473h53.983c1.353 0 2.582.535 3.484 1.408a5.017 5.017 0 011.538 3.62 5.018 5.018 0 01-1.37 3.454 5.004 5.004 0 01-3.652 1.575z" fill="#fff"/><path d="M78.106 77.127H23.794a5.502 5.502 0 01-5.493-5.5v-.329c0-3.032 2.464-5.5 5.493-5.5h54.312c3.028 0 5.493 2.468 5.493 5.5v.33c0 3.032-2.463 5.5-5.493 5.5zM23.794 67.07a4.228 4.228 0 00-4.221 4.227v.33a4.228 4.228 0 004.22 4.226h54.313a4.228 4.228 0 004.22-4.227v-.33a4.228 4.228 0 00-4.22-4.226H23.794z" fill="#1A1A1A"/><path d="M75.733 73.061a1.6 1.6 0 010-3.199c.877 0 1.596.718 1.596 1.599-.001.885-.72 1.6-1.596 1.6z" stroke="#1A7248" stroke-width="2.5"/><path d="M70.333 72.099h-9.565a.636.636 0 010-1.274h9.565a.636.636 0 010 1.274z" fill="#1A1A1A"/><path d="M70.334 17.182H31.566V62.84h38.768V17.182z" fill="#fff"/><path d="M70.333 63.475H31.566a.636.636 0 01-.636-.636V17.182c0-.351.285-.636.636-.636h38.767c.351 0 .636.285.636.636V62.84a.636.636 0 01-.636.636zm-38.131-1.273h37.495V17.819H32.202v44.383z" fill="#1A1A1A"/><path d="M39.591 31.78a.636.636 0 01-.636-.637V24.69a.636.636 0 111.272 0v6.453a.636.636 0 01-.636.637z" fill="#1A1A1A"/><path d="M38.187 28.7a2.715 2.715 0 01-2.71-2.714 2.715 2.715 0 012.71-2.714c.691 0 1.347.26 1.842.73a.642.642 0 01.2.462v3.044a.634.634 0 01-.2.462c-.497.47-1.15.73-1.842.73zm0-4.154a1.44 1.44 0 000 2.88c.278 0 .543-.078.768-.224V24.77a1.408 1.408 0 00-.768-.224z" fill="#1A1A1A"/><path d="M51.673 31.78c-1.305 0-2.368-1.125-2.368-2.506v-3.435c0-1.382 1.063-2.505 2.368-2.505 1.306 0 2.368 1.123 2.368 2.505v3.435c0 1.382-1.062 2.506-2.368 2.506zm0-7.173c-.605 0-1.096.553-1.096 1.232v3.435c0 .68.492 1.233 1.096 1.233.605 0 1.096-.554 1.096-1.233v-3.435c0-.679-.491-1.232-1.096-1.232z" fill="#1A7248"/><path d="M46.263 31.78a.636.636 0 01-.636-.637V24.69a.636.636 0 111.272 0v6.453a.636.636 0 01-.636.637z" fill="#1A1A1A"/><path d="M44.858 28.7a2.715 2.715 0 01-2.71-2.714 2.715 2.715 0 012.71-2.714c.692 0 1.348.26 1.843.73a.642.642 0 01.2.462v3.044a.635.635 0 01-.2.462c-.497.47-1.15.73-1.843.73zm0-4.154a1.44 1.44 0 000 2.88c.279 0 .544-.078.769-.224V24.77a1.408 1.408 0 00-.769-.224zM39.591 44.35a.636.636 0 01-.636-.636V37.26a.636.636 0 111.272 0v6.453a.636.636 0 01-.636.636z" fill="#1A1A1A"/><path d="M38.187 41.27a2.715 2.715 0 01-2.71-2.714 2.715 2.715 0 012.71-2.713c.691 0 1.347.259 1.842.729a.642.642 0 01.2.462v3.044a.635.635 0 01-.2.462c-.497.47-1.15.73-1.842.73zm0-4.154a1.44 1.44 0 000 2.88c.278 0 .543-.078.768-.224V37.34a1.408 1.408 0 00-.768-.224zM64.54 44.19a.636.636 0 01-.636-.636v-6.852a.636.636 0 111.272 0v6.852a.636.636 0 01-.636.636zm-.126-12.21a.636.636 0 01-.636-.637V24.49a.636.636 0 111.272 0v6.852a.636.636 0 01-.636.636zm-5.6 12.21a.636.636 0 01-.636-.636v-6.852a.636.636 0 111.272 0v6.852a.636.636 0 01-.636.636zm-12.551.16a.636.636 0 01-.636-.636V37.26a.636.636 0 111.272 0v6.453a.636.636 0 01-.636.636z" fill="#1A1A1A"/><path d="M44.858 41.27a2.715 2.715 0 01-2.71-2.714 2.715 2.715 0 012.71-2.713c.692 0 1.348.259 1.843.729a.642.642 0 01.2.462v3.044a.635.635 0 01-.2.462c-.497.47-1.15.73-1.843.73zm0-4.154a1.44 1.44 0 000 2.88c.279 0 .544-.078.769-.224V37.34a1.408 1.408 0 00-.769-.224z" fill="#1A1A1A"/><path d="M53.566 44.02h-3.368a.637.637 0 01-.528-.991l2.813-4.185a1.16 1.16 0 00.056-1.184c-.083-.16-.333-.535-.848-.543-.714 0-1.278.565-1.278 1.26a.636.636 0 11-1.272 0 2.535 2.535 0 012.53-2.533 2.243 2.243 0 011.995 1.228 2.433 2.433 0 01-.13 2.484l-2.145 3.191h2.173a.636.636 0 01.002 1.274z" fill="#1A7248"/><path d="M59.937 31.616H56.57a.637.637 0 01-.528-.992l2.813-4.185c.28-.417.213-.886.056-1.185-.083-.16-.334-.535-.847-.543h-.001c-.714 0-1.278.564-1.278 1.258a.636.636 0 11-1.272 0 2.535 2.535 0 012.53-2.533 2.24 2.24 0 011.994 1.228 2.432 2.432 0 01-.129 2.486l-2.145 3.191h2.173c.35 0 .636.285.636.637a.635.635 0 01-.634.638z" fill="#1A1A1A"/><path d="M39.591 56.61a.636.636 0 01-.636-.637V49.52a.636.636 0 111.272 0v6.453a.636.636 0 01-.636.636z" fill="#1A7248"/><path d="M38.187 53.529a2.715 2.715 0 01-2.71-2.714 2.715 2.715 0 012.71-2.713c.691 0 1.347.259 1.842.729a.642.642 0 01.2.462v3.044a.638.638 0 01-.198.462 2.677 2.677 0 01-1.844.73zm0-4.155a1.44 1.44 0 000 2.88c.278 0 .543-.078.768-.224v-2.432a1.419 1.419 0 00-.768-.224z" fill="#1A7248"/><path d="M64.54 56.448a.636.636 0 01-.636-.637V48.96a.636.636 0 111.272 0v6.851a.636.636 0 01-.636.637z" fill="#1A1A1A"/><path d="M58.814 56.61c-1.305 0-2.368-1.126-2.368-2.507v-3.435c0-1.382 1.063-2.505 2.368-2.505 1.306 0 2.368 1.123 2.368 2.505v3.435c0 1.381-1.062 2.506-2.368 2.506zm0-7.174c-.604 0-1.096.554-1.096 1.232v3.435c0 .68.492 1.233 1.096 1.233.605 0 1.096-.553 1.096-1.233v-3.435c0-.68-.491-1.232-1.096-1.232z" fill="#1A7248"/><path d="M46.263 56.61a.636.636 0 01-.636-.637V49.52a.636.636 0 111.272 0v6.453a.636.636 0 01-.636.636z" fill="#1A1A1A"/><path d="M44.858 53.529a2.715 2.715 0 01-2.71-2.714 2.715 2.715 0 012.71-2.713c.692 0 1.348.259 1.843.729a.642.642 0 01.2.462v3.044a.639.639 0 01-.199.462 2.677 2.677 0 01-1.844.73zm0-4.155a1.44 1.44 0 000 2.88c.279 0 .544-.078.769-.224v-2.432a1.42 1.42 0 00-.769-.224zm8.708 6.905h-3.368a.637.637 0 01-.528-.993l2.813-4.183c.28-.417.213-.886.056-1.185-.083-.16-.334-.535-.848-.543-.714 0-1.278.565-1.278 1.26a.636.636 0 11-1.272 0 2.535 2.535 0 012.53-2.533 2.243 2.243 0 011.995 1.227 2.438 2.438 0 01-.128 2.486l-2.146 3.192h2.173a.636.636 0 01.001 1.272zM36.111 87.406a.617.617 0 01-.334-.096l-3.566-2.212a.637.637 0 01.67-1.082l3.566 2.212a.637.637 0 01-.336 1.178z" fill="#1A1A1A"/></svg>