<svg width="101" height="100" viewBox="0 0 101 100" fill="none" xmlns="http://www.w3.org/2000/svg"><g clip-path="url(#clip0)"><circle cx="50.943" cy="50" r="50" fill="#F5F7FB"/><path d="M68.672 73.508h-36.76c-2.63 0-4.77-2.14-4.77-4.77V25.643c0-2.63 2.14-4.77 4.77-4.77h36.76c2.63 0 4.77 2.14 4.77 4.77v43.095a4.776 4.776 0 01-4.77 4.77zm-36.76-51.36a3.5 3.5 0 00-3.495 3.495v43.095a3.501 3.501 0 003.496 3.496h36.76a3.5 3.5 0 003.494-3.496V25.643a3.5 3.5 0 00-3.495-3.496h-36.76z" fill="#1A1A1A"/><path d="M52.872 39.608H36.925a.637.637 0 010-1.273h15.947a.637.637 0 010 1.273zm0-5.358H36.925a.637.637 0 010-1.273h15.947a.637.637 0 010 1.273z" fill="#1A1A1A"/><path d="M72.256 44.546h-3.673a5.234 5.234 0 01-5.228-5.23V20.644a.637.637 0 011.273 0v18.672a3.958 3.958 0 003.955 3.955h3.673a3.959 3.959 0 003.954-3.955V19.848a3.16 3.16 0 00-3.156-3.157h-.678a3.162 3.162 0 00-3.158 3.157v14.534a.637.637 0 01-1.273 0V19.848a4.436 4.436 0 014.43-4.43h.679a4.434 4.434 0 014.43 4.43v19.47a5.234 5.234 0 01-5.228 5.228z" fill="#136D42"/><path d="M50.895 86.074a.637.637 0 01-.245-.048l-17.64-7.332a.639.639 0 01.49-1.177l17.39 7.23 16.705-7.226a.637.637 0 01.505 1.17l-16.953 7.331a.665.665 0 01-.252.052zM15.667 40.156a.64.64 0 01-.45-.186l-3.158-3.158a.637.637 0 01.9-.9l3.158 3.157a.637.637 0 01-.45 1.087z" fill="#1A1A1A"/><path d="M56.777 66.767V60.32h10.456v6.447H56.777z" stroke="#136D42" stroke-width="2.5"/><path d="M67.846 87.744H33.253a.637.637 0 010-1.274h34.593a.637.637 0 010 1.274zm15.291-21.68a2.523 2.523 0 01-2.521-2.521c0-1.39 1.13-2.52 2.52-2.52 1.39 0 2.52 1.13 2.52 2.52 0 1.39-1.13 2.52-2.52 2.52zm0-3.767c-.688 0-1.248.559-1.248 1.246a1.247 1.247 0 101.247-1.246z" fill="#1A1A1A"/></g><defs><clipPath id="clip0"><path fill="#fff" transform="translate(.943)" d="M0 0h100v100H0z"/></clipPath></defs></svg>