<svg width="101" height="100" viewBox="0 0 101 100" fill="none" xmlns="http://www.w3.org/2000/svg"><g clip-path="url(#clip0)"><circle cx="50.943" cy="50" r="50" fill="#F5F7FB"/><path d="M49.168 66.096a29.89 29.89 0 01-7.862-1.048.636.636 0 11.336-1.228 28.614 28.614 0 007.526 1.003 28.552 28.552 0 0025.026-14.816.637.637 0 011.117.613 29.83 29.83 0 01-26.143 15.476zm-29.065-26.66a.636.636 0 01-.633-.583c-.071-.837-.108-1.7-.108-2.565 0-16.436 13.371-29.808 29.808-29.808a29.726 29.726 0 0123 10.847.638.638 0 01-.984.811A28.46 28.46 0 0049.168 7.754c-15.733 0-28.532 12.8-28.532 28.534 0 .83.035 1.655.103 2.457.03.35-.23.659-.58.689l-.056.002z" fill="#1A1A1A"/><path d="M62.565 27.727c-.018 0-.039 0-.059-.003a.635.635 0 01-.466-.273c-2.586-3.76-6.644-6.2-11.135-6.697a.638.638 0 01-.568-.633v-9.07c0-.177.073-.347.203-.466a.633.633 0 01.48-.17c7.243.513 13.992 4.088 18.516 9.806.2.253.18.617-.05.845l-6.47 6.473a.631.631 0 01-.451.188zM51.612 19.56a16.875 16.875 0 0111.031 6.55l5.538-5.538a24.746 24.746 0 00-16.57-8.828v7.816z" fill="#1A1A1A"/><path d="M34.27 28.34c-2.68-.37-5.36-.76-8.04-1.16 3.443-8.665 11.462-14.653 20.73-15.48v7.85c-5.42.705-10.108 3.952-12.69 8.79z" stroke="#136D42" stroke-width="2.5"/><path d="M33.604 41.681h-9.298a.638.638 0 01-.627-.517 26.07 26.07 0 01-.47-4.87c0-1.793.202-3.636.6-5.479.068-.33.39-.54.716-.496 2.99.45 5.979.887 8.974 1.305a.63.63 0 01.44.276c.1.15.133.337.088.513a15.724 15.724 0 00-.501 3.881c0 1.537.23 3.073.685 4.565a.64.64 0 01-.098.566.628.628 0 01-.509.256zm-8.764-1.273h7.928a16.815 16.815 0 01-.513-4.115c0-1.155.126-2.332.378-3.505-2.568-.36-5.133-.736-7.697-1.12a24.573 24.573 0 00-.452 4.625c0 1.346.12 2.728.356 4.115z" fill="#1A1A1A"/><path d="M59.806 17.383a.636.636 0 00-.835.27L46.11 41.282a.637.637 0 00.288.88l2.499 1.182a.642.642 0 00.501.02.637.637 0 00.358-.35l10.362-24.812a.635.635 0 00-.311-.82z" fill="#136D42"/><path d="M47.573 74.745a.636.636 0 01-.597-.412c-4.194-11.113-10.186-12.34-14.15-13.15-.87-.18-1.622-.333-2.248-.571-1.626-.619-3.08-4.026-5.323-9.534-2.186-5.378-4.91-12.07-7.54-12.893-1.168-.366-2.008-.305-2.49.18-.7.696-1.495 3.074 1.013 11.165 1.05 3.392 1.335 6.667 1.608 9.834.366 4.228.711 8.223 2.73 12.524a.637.637 0 01-1.154.542c-2.114-4.507-2.486-8.801-2.845-12.955-.269-3.1-.546-6.306-1.556-9.568-2.123-6.846-2.344-10.8-.696-12.443.845-.844 2.111-1.014 3.77-.493 3.204 1.002 5.815 7.42 8.34 13.628 1.596 3.923 3.405 8.371 4.595 8.824.531.202 1.235.346 2.05.513 3.981.815 10.645 2.18 15.088 13.95a.635.635 0 01-.595.859zm29.618-39.399c-2.59 0-5.133-2.872-5.5-6.273a118.83 118.83 0 01-.65-11.309.637.637 0 01.063-1.26c3.157-.303 5.674.366 7.469 1.993 1.993 1.811 3.005 4.702 3.005 8.591 0 7.244-2.937 8.184-4.2 8.252a2.278 2.278 0 01-.187.006zM72.315 17.71v.024c0 .052.002 5.301.642 11.202.324 3.005 2.579 5.23 4.354 5.133 1.875-.1 2.993-2.711 2.993-6.98 0-3.516-.87-6.09-2.588-7.649-1.313-1.191-3.143-1.763-5.401-1.73z" fill="#1A1A1A"/><path d="M76.237 45.9a3.488 3.488 0 01-1.703-.434c-1.232-.684-3.816-3.2-1.21-11.784a.637.637 0 011.218.37c-1.906 6.286-.935 9.444.61 10.302 1.072.596 2.53.2 3.547-.962 2.399-2.737 7.283-11.767 1.817-16.647a.637.637 0 11.849-.95c6.065 5.413 1.367 14.926-1.707 18.435-.95 1.085-2.211 1.67-3.42 1.67z" fill="#1A1A1A"/><path d="M77.489 53.878a3.046 3.046 0 01-2.184-.875c-1.688-1.675-1.587-5.175.224-7.798a.635.635 0 111.047.722c-1.578 2.29-1.464 5.09-.375 6.172.83.823 2.199.64 3.853-.518 2.983-2.089 5.23-5.985 5.593-9.695.2-2.049-.075-5.027-2.526-7.579a.637.637 0 11.918-.882c2.206 2.295 3.2 5.264 2.877 8.583-.397 4.06-2.861 8.325-6.13 10.616-1.346.943-2.44 1.254-3.297 1.254z" fill="#1A1A1A"/><path d="M78.327 59.927a2.47 2.47 0 01-1.576-.545c-2.368-1.894-1.783-4.714-1.144-5.94a.638.638 0 011.13.59c-.055.106-1.324 2.649.81 4.355.931.743 2.502-.2 3.663-1.336 2.745-2.688 4.581-7.309 2.927-9.471a.637.637 0 011.013-.774c2.332 3.048-.272 8.438-3.048 11.155-1.323 1.294-2.643 1.966-3.775 1.966z" fill="#1A1A1A"/><path d="M66.145 78.43a.637.637 0 01-.444-1.094c3.02-2.918 6.312-7.762 9.218-12.034 2.529-3.72 4.714-6.934 6.275-8.238a.636.636 0 11.816.978c-1.424 1.19-3.665 4.487-6.039 7.976-2.938 4.324-6.272 9.225-9.385 12.234a.637.637 0 01-.441.179zm-8.033-35.562a.642.642 0 01-.233-.044l-3.026-1.187a.638.638 0 01-.36-.826.64.64 0 01.825-.36l3.026 1.187a.638.638 0 01-.232 1.23zm2.933-2.244a.644.644 0 01-.233-.045l-3.027-1.187a.638.638 0 01.465-1.186l3.027 1.187a.638.638 0 01-.232 1.23z" fill="#1A1A1A"/></g><defs><clipPath id="clip0"><path fill="#fff" transform="translate(.943)" d="M0 0h100v100H0z"/></clipPath></defs></svg>