<svg width="58" height="43" viewBox="0 0 58 43" fill="none" xmlns="http://www.w3.org/2000/svg"><path d="M54.682 12H43.356a2.975 2.975 0 00-2.966 2.979V35.02A2.975 2.975 0 0043.356 38h11.326a2.975 2.975 0 002.966-2.979V14.98A2.975 2.975 0 0054.682 12zm.81 22.751c0 .599-.483 1.084-1.08 1.084H43.625a1.081 1.081 0 01-1.078-1.084v-19.5c0-.599.482-1.085 1.08-1.085h.538c.596 0 1.08.484 1.08 1.084 0 .598.482 1.084 1.079 1.084h5.393c.595 0 1.079-.484 1.079-1.084 0-.598.482-1.084 1.079-1.084h.539a1.08 1.08 0 011.077 1.084v19.501zm-17.71-14.674c0-3.28-2.68-5.952-5.961-5.952-3.282 0-5.963 2.67-5.963 5.952a5.938 5.938 0 004.962 5.859v6.25c0 4.87-3.954 8.824-8.825 8.824-4.87 0-8.825-3.954-8.825-8.825l-.021-7.159c2.31-.308 4.567-1.659 6.575-3.966.295-.34.384-.776.334-1.193 2.625-3.47 4.253-8.196 4.253-11.829 0-5.608-2.513-6.19-6.669-7.141l-.006-.01A1.559 1.559 0 0016.239 0c-.878 0-1.59.711-1.59 1.579 0 .878.712 1.59 1.59 1.59.348 0 .674-.145.933-.35l.037.013c4.034.926 5.123 1.177 5.123 5.206 0 3.195-1.512 7.474-3.823 10.563a1.52 1.52 0 00-1.044.506c-1.18 1.366-3.068 3.002-5.297 3.002-2.227 0-4.112-1.62-5.293-2.984a1.516 1.516 0 00-1.042-.504c-2.316-3.1-3.832-7.384-3.832-10.583 0-4.032 1.07-4.282 5.13-5.209l.014-.013c.279.206.582.351.952.351a1.59 1.59 0 001.59-1.589A1.59 1.59 0 008.095 0C7.469 0 6.954.372 6.68.885h-.003C2.517 1.846 0 2.418 0 8.039c0 3.636 1.634 8.38 4.282 11.849-.05.417.04.854.334 1.192 2.007 2.292 4.243 3.638 6.55 3.947l.003 7.159C11.169 38.149 16.032 43 21.995 43 27.96 43 32.8 38.149 32.8 32.185v-6.25c2.814-.47 4.982-2.905 4.982-5.858zm-5.961 3.981a3.99 3.99 0 01-3.982-3.98c0-2.187 1.795-3.97 3.982-3.97a3.97 3.97 0 013.961 3.97c0 2.196-1.774 3.98-3.961 3.98z" fill="#000"/><path d="M31.82 17.106a2.977 2.977 0 00-2.98 2.971 2.978 2.978 0 002.98 2.98 2.978 2.978 0 002.981-2.98 2.978 2.978 0 00-2.98-2.97z" fill="#FF8036"/></svg>