<svg width="100" height="100" viewBox="0 0 100 100" fill="none" xmlns="http://www.w3.org/2000/svg">
<circle cx="50" cy="50" r="50" fill="#F5F7FB"/>
<path d="M18.5125 64.4336C18.3563 64.4336 18.2039 64.3763 18.0881 64.2682C17.9565 64.1484 17.8823 63.9805 17.8823 63.8034V29.0573C17.8823 28.7305 18.1297 28.4596 18.4552 28.4297L65.1193 24.1354C66.0828 24.043 67.0477 24.3698 67.7638 25.0234C68.48 25.6758 68.8901 26.6068 68.8901 27.5755V59.2252C68.8901 59.5521 68.6427 59.8229 68.3172 59.8529L18.5711 64.4323C18.5516 64.4323 18.5321 64.4336 18.5125 64.4336ZM19.1427 29.6328V63.112L67.6284 58.6484V27.5742C67.6284 26.9505 67.3745 26.3737 66.9136 25.9531C66.4526 25.5338 65.8524 25.3333 65.2339 25.3906L19.1427 29.6328ZM68.2586 59.2239H68.2704H68.2586Z" fill="#1A1A1A"/>
<path d="M83.3056 38.4349H47.5178V61.9649H83.3056V38.4349Z" fill="white"/>
<path d="M83.3067 62.5951H47.5177C47.1687 62.5951 46.8875 62.3138 46.8875 61.9649V38.4349C46.8875 38.0859 47.1687 37.8047 47.5177 37.8047H83.3067C83.6557 37.8047 83.9369 38.0859 83.9369 38.4349V61.9649C83.9369 62.3138 83.6544 62.5951 83.3067 62.5951ZM48.1479 61.3346H82.6765V39.0651H48.1479V61.3346Z" fill="#1A1A1A"/>
<path d="M79.472 58.7044C79.123 58.7044 78.8418 58.4232 78.8418 58.0742V41.6888C78.8418 41.3398 79.123 41.0586 79.472 41.0586C79.821 41.0586 80.1022 41.3398 80.1022 41.6888V58.0742C80.1022 58.4219 79.821 58.7044 79.472 58.7044Z" fill="#1A1A1A"/>
<path d="M40.5418 55.052H71.2944C72.4155 55.052 73.409 54.5013 74.0171 53.6562C74.4129 53.1054 74.6473 52.4296 74.6473 51.6992V35.2421C74.6473 34.1211 74.0965 33.1276 73.2502 32.5182C72.6994 32.1224 72.0236 31.8893 71.2944 31.8893H40.5418C39.4207 31.8893 38.4272 32.4401 37.8192 33.2851C37.4233 33.8359 37.189 34.5117 37.189 35.2421V51.6992C37.189 52.4296 37.422 53.1054 37.8192 53.6562C38.4272 54.5013 39.4207 55.052 40.5418 55.052Z" fill="white"/>
<path d="M71.6211 55.6823H40.2148C38.1992 55.6823 36.5586 54.043 36.5586 52.026V34.9141C36.5586 32.8971 38.1992 31.2578 40.2148 31.2578H71.6211C73.6367 31.2578 75.2773 32.8971 75.2773 34.9141V52.026C75.2773 54.043 73.6367 55.6823 71.6211 55.6823ZM40.2148 32.5195C38.8945 32.5195 37.819 33.5937 37.819 34.9154V52.0273C37.819 53.3477 38.8932 54.4232 40.2148 54.4232H71.6211C72.9414 54.4232 74.0169 53.349 74.0169 52.0273V34.9141C74.0169 33.5938 72.9427 32.5182 71.6211 32.5182H40.2148V32.5195Z" fill="#1A1A1A"/>
<path d="M74.6473 36.6354H37.189V42.427H74.6473V36.6354Z" fill="#1A1A1A"/>
<path d="M74.6471 43.0572H37.1888C36.8398 43.0572 36.5586 42.776 36.5586 42.427V36.6353C36.5586 36.2864 36.8398 36.0051 37.1888 36.0051H74.6458C74.9948 36.0051 75.276 36.2864 75.276 36.6353V42.427C75.2773 42.776 74.9948 43.0572 74.6471 43.0572ZM37.819 41.7968H74.0156V37.2655H37.819V41.7968Z" fill="#1A1A1A"/>
<path d="M60.8731 75.1523L18.5125 63.8021V29.0573L62.3315 40.7981C63.5645 41.1289 64.4213 42.2461 64.4213 43.5221V72.4284C64.4226 74.2825 62.6635 75.6328 60.8731 75.1523Z" fill="white"/>
<path d="M61.6107 75.8814C61.3112 75.8814 61.0078 75.8423 60.7096 75.7616L18.3503 64.4126C18.0742 64.3384 17.8828 64.0884 17.8828 63.8033V29.0572C17.8828 28.8619 17.974 28.677 18.1302 28.5572C18.2852 28.4361 18.4896 28.3996 18.6771 28.4478L62.4961 40.1887C64.0026 40.5936 65.0534 41.9634 65.0534 43.522V72.4283C65.0534 73.5103 64.5612 74.5077 63.7031 75.1665C63.0899 75.6366 62.3594 75.8814 61.6107 75.8814ZM19.1419 63.3189L61.0339 74.5428C61.6966 74.7225 62.388 74.5832 62.9336 74.1665C63.4779 73.7486 63.7904 73.1158 63.7904 72.4283V43.522C63.7904 42.5337 63.1224 41.6627 62.1667 41.4061L19.1419 29.8775V63.3189Z" fill="#1A1A1A"/>
<path d="M49.7105 50.4596L44.1284 48.9635V43.3815L35.4683 41.0612V46.6432L29.8862 45.1471V53.8073L35.4683 55.3033V60.8854L44.1284 63.2057V57.6237L49.7105 59.1198V50.4596Z" fill="white"/>
<path d="M44.1291 63.8359C44.0744 63.8359 44.0197 63.8281 43.9663 63.8151L35.3062 61.4948C35.0301 61.4206 34.8387 61.1706 34.8387 60.8854V55.7864L29.7228 54.4167C29.4468 54.3424 29.2554 54.0924 29.2554 53.8073V45.1471C29.2554 44.9518 29.3465 44.7669 29.5028 44.6471C29.6577 44.526 29.8634 44.4909 30.0496 44.5377L34.8387 45.8216V41.0599C34.8387 40.8646 34.9299 40.6797 35.0861 40.5599C35.2424 40.4388 35.4455 40.4023 35.633 40.4505L44.2931 42.7721C44.5692 42.8463 44.7606 43.0963 44.7606 43.3815V48.4792L49.8765 49.8489C50.1525 49.9232 50.3439 50.1732 50.3439 50.4583V59.1198C50.3439 59.3151 50.2528 59.5 50.0965 59.6198C49.9416 59.7409 49.7358 59.776 49.5496 59.7292L44.7606 58.444V63.2057C44.7606 63.401 44.6694 63.5859 44.5132 63.7057C44.4012 63.7917 44.2658 63.8359 44.1291 63.8359ZM36.0991 60.4023L43.4989 62.3854V57.6237C43.4989 57.4284 43.59 57.2435 43.7463 57.1237C43.9012 57.0026 44.1043 56.9674 44.2931 57.0143L49.0822 58.2995V50.9427L43.9663 49.5729C43.6903 49.4987 43.4989 49.2487 43.4989 48.9635V43.8659L36.0991 41.8815V46.6432C36.0991 46.8385 36.008 47.0234 35.8517 47.1432C35.6968 47.2643 35.4937 47.3008 35.3049 47.2526L30.5158 45.9687V53.3242L35.6317 54.694C35.9077 54.7682 36.0991 55.0182 36.0991 55.3034V60.4023Z" fill="#BA850B"/>
<path d="M61.0262 59.0585C61.7092 58.4609 61.6298 57.2529 60.849 56.3605C60.0681 55.468 58.8814 55.229 58.1984 55.8266C57.5154 56.4242 57.5947 57.6322 58.3756 58.5246C59.1564 59.4171 60.3431 59.6561 61.0262 59.0585Z" fill="white"/>
<path d="M60.0926 60.017C59.8817 60.017 59.6642 59.9883 59.4481 59.9311C58.1317 59.5782 57.103 58.2644 57.103 56.9402C57.103 56.2514 57.3778 55.6602 57.8778 55.2761C58.3869 54.8868 59.0796 54.7709 59.7749 54.9558C61.09 55.3087 62.12 56.6225 62.12 57.9467C62.12 58.6355 61.8452 59.2253 61.3465 59.6081C60.995 59.8777 60.5588 60.017 60.0926 60.017ZM59.1213 56.1277C58.9351 56.1277 58.771 56.1772 58.6421 56.2748C58.4611 56.4141 58.3608 56.6485 58.3608 56.9389C58.3608 57.6941 59.0067 58.5066 59.771 58.711C60.0926 58.7982 60.3765 58.7605 60.5757 58.6081C60.7593 58.4675 60.8556 58.2384 60.8556 57.9454C60.8556 57.1902 60.2098 56.3777 59.4442 56.1732C59.3335 56.142 59.2241 56.1277 59.1213 56.1277Z" fill="#1A1A1A"/>
<path d="M32.4712 85.664C32.3097 85.664 32.1483 85.6028 32.0259 85.4791C31.7798 85.233 31.7798 84.8346 32.0259 84.5885L35.5467 81.0664C35.7928 80.8203 36.1912 80.8203 36.4373 81.0664C36.6834 81.3125 36.6834 81.7109 36.4373 81.957L32.9165 85.4791C32.7941 85.6028 32.6327 85.664 32.4712 85.664Z" fill="#1A1A1A"/>
</svg>
