<svg width="101" height="100" viewBox="0 0 101 100" fill="none" xmlns="http://www.w3.org/2000/svg">
<ellipse cx="50.7367" cy="50" rx="49.8333" ry="50" fill="#F5F7FB"/>
<path d="M61.9258 47.2148C62.8966 47.2148 63.6836 46.4278 63.6836 45.457C63.6836 44.4862 62.8966 43.6992 61.9258 43.6992C60.955 43.6992 60.168 44.4862 60.168 45.457C60.168 46.4278 60.955 47.2148 61.9258 47.2148Z" fill="black"/>
<path d="M65.9688 30.5156H63.6836V28.7578C63.6836 27.787 62.8966 27 61.9258 27C60.9549 27 60.168 27.787 60.168 28.7578V30.5156H52.1699V28.7578C52.1699 27.787 51.3829 27 50.4121 27C49.4413 27 48.6543 27.787 48.6543 28.7578V30.5156H40.7441V28.7578C40.7441 27.787 39.9572 27 38.9863 27C38.0155 27 37.2285 27.787 37.2285 28.7578V30.5156H35.0312C31.1542 30.5156 28 33.6698 28 37.5469V64.9688C28 68.8458 31.1542 72 35.0312 72H48.4785C49.4494 72 50.2363 71.213 50.2363 70.2422C50.2363 69.2713 49.4494 68.4844 48.4785 68.4844H35.0312C33.0927 68.4844 31.5156 66.9073 31.5156 64.9688V37.5469C31.5156 35.6084 33.0927 34.0312 35.0312 34.0312H37.2285V35.7891C37.2285 36.7599 38.0155 37.5469 38.9863 37.5469C39.9572 37.5469 40.7441 36.7599 40.7441 35.7891V34.0312H48.6543V35.7891C48.6543 36.7599 49.4413 37.5469 50.4121 37.5469C51.3829 37.5469 52.1699 36.7599 52.1699 35.7891V34.0312H60.168V35.7891C60.168 36.7599 60.9549 37.5469 61.9258 37.5469C62.8966 37.5469 63.6836 36.7599 63.6836 35.7891V34.0312H65.9688C67.9073 34.0312 69.4844 35.6084 69.4844 37.5469V47.5664C69.4844 48.5372 70.2713 49.3242 71.2422 49.3242C72.213 49.3242 73 48.5372 73 47.5664V37.5469C73 33.6698 69.8458 30.5156 65.9688 30.5156Z" fill="black"/>
<path d="M62.3652 50.7305C56.5012 50.7305 51.7305 55.5012 51.7305 61.3652C51.7305 67.2293 56.5012 72 62.3652 72C68.2293 72 73 67.2293 73 61.3652C73 55.5012 68.2293 50.7305 62.3652 50.7305ZM62.3652 68.4844C58.4398 68.4844 55.2461 65.2908 55.2461 61.3652C55.2461 57.4397 58.4398 54.2461 62.3652 54.2461C66.2907 54.2461 69.4844 57.4397 69.4844 61.3652C69.4844 65.2908 66.2907 68.4844 62.3652 68.4844Z" fill="#FF8034"/>
<path d="M64.9141 59.6074H64.123V57.7617C64.123 56.7909 63.3361 56.0039 62.3652 56.0039C61.3944 56.0039 60.6074 56.7909 60.6074 57.7617V61.3652C60.6074 62.3361 61.3944 63.123 62.3652 63.123H64.9141C65.8849 63.123 66.6719 62.3361 66.6719 61.3652C66.6719 60.3944 65.8849 59.6074 64.9141 59.6074Z" fill="#FF9C64"/>
<path d="M54.2793 47.2148C55.2501 47.2148 56.0371 46.4278 56.0371 45.457C56.0371 44.4862 55.2501 43.6992 54.2793 43.6992C53.3085 43.6992 52.5215 44.4862 52.5215 45.457C52.5215 46.4278 53.3085 47.2148 54.2793 47.2148Z" fill="black"/>
<path d="M46.6328 54.8613C47.6036 54.8613 48.3906 54.0743 48.3906 53.1035C48.3906 52.1327 47.6036 51.3457 46.6328 51.3457C45.662 51.3457 44.875 52.1327 44.875 53.1035C44.875 54.0743 45.662 54.8613 46.6328 54.8613Z" fill="black"/>
<path d="M38.9863 47.2148C39.9571 47.2148 40.7441 46.4278 40.7441 45.457C40.7441 44.4862 39.9571 43.6992 38.9863 43.6992C38.0155 43.6992 37.2285 44.4862 37.2285 45.457C37.2285 46.4278 38.0155 47.2148 38.9863 47.2148Z" fill="black"/>
<path d="M38.9863 54.8613C39.9571 54.8613 40.7441 54.0743 40.7441 53.1035C40.7441 52.1327 39.9571 51.3457 38.9863 51.3457C38.0155 51.3457 37.2285 52.1327 37.2285 53.1035C37.2285 54.0743 38.0155 54.8613 38.9863 54.8613Z" fill="black"/>
<path d="M38.9863 62.5078C39.9571 62.5078 40.7441 61.7208 40.7441 60.75C40.7441 59.7792 39.9571 58.9922 38.9863 58.9922C38.0155 58.9922 37.2285 59.7792 37.2285 60.75C37.2285 61.7208 38.0155 62.5078 38.9863 62.5078Z" fill="black"/>
<path d="M46.6328 62.5078C47.6036 62.5078 48.3906 61.7208 48.3906 60.75C48.3906 59.7792 47.6036 58.9922 46.6328 58.9922C45.662 58.9922 44.875 59.7792 44.875 60.75C44.875 61.7208 45.662 62.5078 46.6328 62.5078Z" fill="black"/>
<path d="M46.6328 47.2148C47.6036 47.2148 48.3906 46.4278 48.3906 45.457C48.3906 44.4862 47.6036 43.6992 46.6328 43.6992C45.662 43.6992 44.875 44.4862 44.875 45.457C44.875 46.4278 45.662 47.2148 46.6328 47.2148Z" fill="black"/>
<path d="M83.9989 67.582C83.8361 67.582 83.6733 67.5195 83.5483 67.3958C83.2996 67.1471 83.2996 66.7435 83.5483 66.4948L86.8674 63.1758C87.1161 62.9271 87.5197 62.9271 87.7684 63.1758C88.0171 63.4245 88.0171 63.8281 87.7684 64.0768L84.4494 67.3958C84.3244 67.5195 84.1616 67.582 83.9989 67.582Z" fill="#1A1A1A"/>
<path d="M24.5767 31.9868C24.3606 31.9868 24.1496 31.8761 24.0299 31.6782L20.1549 25.2303C19.9739 24.9295 20.0715 24.5376 20.3736 24.3566C20.6731 24.1756 21.065 24.2719 21.2473 24.5753L25.1223 31.0232C25.3033 31.324 25.2056 31.7159 24.9036 31.8969C24.802 31.9568 24.6887 31.9868 24.5767 31.9868Z" fill="#1A1A1A"/>
</svg>
