<svg width="101" height="100" viewBox="0 0 101 100" fill="none" xmlns="http://www.w3.org/2000/svg">
<ellipse cx="50.6775" cy="50" rx="49.7508" ry="50" fill="#F5F7FB"/>
<path d="M76.6823 41H75.3345H66.7056H65.3562C63.7204 41 62.3904 42.3358 62.3904 43.9788V64.0212C62.3904 65.6642 63.7204 67 65.3562 67H76.6823C78.3181 67 79.6481 65.6642 79.6481 64.0212V43.9788C79.6481 42.3358 78.3181 41 76.6823 41ZM77.4913 63.7514C77.4913 64.3495 77.0092 64.8354 76.4121 64.8354H65.6248C65.0294 64.8354 64.5472 64.3495 64.5472 63.7514V44.2502C64.5472 43.6522 65.0294 43.1663 65.6264 43.1663H66.1652C66.7606 43.1663 67.2444 43.6505 67.2444 44.2502C67.2444 44.8482 67.7266 45.3341 68.3236 45.3341H73.7165C74.3119 45.3341 74.7957 44.8499 74.7957 44.2502C74.7957 43.6522 75.2779 43.1663 75.8749 43.1663H76.4137C77.0092 43.1663 77.4913 43.6522 77.4913 44.2502V63.7514Z" fill="black"/>
<path d="M59.7815 49.0767C59.7815 45.7967 57.1026 43.1255 53.8209 43.1255C50.5391 43.1255 47.8585 45.7958 47.8585 49.0767C47.8585 52.0308 50.005 54.4663 52.8198 54.9359V61.1855C52.8198 66.0565 48.8664 70.01 43.9954 70.01C39.1243 70.01 35.17 66.0557 35.17 61.1855L35.1485 54.026C37.4585 53.7181 39.716 52.3671 41.7241 50.0597C42.0191 49.7208 42.1085 49.284 42.0578 48.8669C44.6825 45.3968 46.3105 40.6711 46.3105 37.0384C46.3105 31.4304 43.7976 30.8481 39.642 29.897L39.636 29.8867C39.3806 29.3724 38.8646 29 38.2394 29C37.3613 29 36.6492 29.7112 36.6492 30.579C36.6492 31.457 37.3605 32.1682 38.2394 32.1682C38.5868 32.1682 38.9128 32.0238 39.1716 31.8182L39.2086 31.832C43.2429 32.7582 44.3316 33.0093 44.3316 37.0384C44.3316 40.2333 42.8197 44.5118 40.5089 47.6009C40.1262 47.6233 39.7478 47.7919 39.4649 48.1066C38.2841 49.4732 36.3973 51.1089 34.1681 51.1089C31.9407 51.1089 30.0556 49.4886 28.8748 48.1255C28.591 47.8108 28.2135 47.6422 27.8334 47.6207C25.5165 44.5204 24.0012 40.2368 24.0012 37.0376C24.0012 33.0059 25.0719 32.7556 29.1311 31.8294L29.1449 31.8165C29.4235 32.022 29.7271 32.1674 30.0969 32.1674C30.975 32.1674 31.6862 31.4553 31.6862 30.5781C31.6853 29.7112 30.975 29 30.096 29C29.4691 29 28.954 29.3724 28.6805 29.8849L28.677 29.8858C24.5172 30.8456 22 31.4175 22 37.0384C22 40.6745 23.634 45.4174 26.2819 48.8866C26.2312 49.3037 26.3215 49.7415 26.6165 50.0795C28.6229 52.3714 30.8589 53.7173 33.1662 54.026L33.1688 61.1846C33.1697 67.1487 38.0321 72 43.9954 72C49.9586 72 54.8004 67.1487 54.8004 61.1846V54.935C57.6143 54.4655 59.7815 52.0299 59.7815 49.0767ZM53.8209 53.0585C51.6339 53.0585 49.8391 51.2749 49.8391 49.0784C49.8391 46.8906 51.6339 45.1078 53.8209 45.1078C56.0078 45.1078 57.782 46.8906 57.782 49.0784C57.7829 51.274 56.0078 53.0585 53.8209 53.0585Z" fill="black"/>
<path d="M53.8206 46.1062C52.178 46.1062 50.8398 47.4349 50.8398 49.0775C50.8398 50.7296 52.178 52.0565 53.8206 52.0565C55.4623 52.0565 56.8014 50.7296 56.8014 49.0775C56.8014 47.4349 55.4623 46.1062 53.8206 46.1062Z" fill="#FF8036"/>
</svg>
