<svg width="101" height="100" viewBox="0 0 101 100" fill="none" xmlns="http://www.w3.org/2000/svg">
<circle cx="50.9434" cy="50" r="50" fill="#F5F7FB"/>
<ellipse cx="50.6803" cy="50" rx="49.8333" ry="50" fill="#F5F7FB"/>
<path d="M78.5199 67.8412H23.3821V56.3113C23.3821 54.1264 25.1506 52.3542 27.334 52.3542H74.5694C76.7514 52.3542 78.5212 54.1251 78.5212 56.3113V67.8412H78.5199Z" fill="#1A1A1A"/>
<path d="M78.5196 68.4779H23.3817C23.0306 68.4779 22.7458 68.1928 22.7458 67.8412V56.0274C22.7458 53.6511 24.6769 51.7175 27.0488 51.7175H74.8525C77.2257 51.7175 79.1555 53.6511 79.1555 56.0274V67.8412C79.1555 68.1941 78.8707 68.4779 78.5196 68.4779ZM24.0176 67.2045H77.8837V56.0274C77.8837 55.3634 77.6691 54.7488 77.3076 54.2488C76.7562 53.4884 75.8616 52.9923 74.8525 52.9923H27.0488C26.1009 52.9923 25.2543 53.4298 24.6977 54.1134C24.2725 54.6355 24.0176 55.3022 24.0176 56.0274V67.2045Z" fill="#1A1A1A"/>
<path d="M77.9422 76.4894H23.9591C22.5729 76.4894 21.3167 75.9269 20.4078 75.0168C19.4988 74.1066 18.937 72.8501 18.937 71.4608C18.937 70.0728 19.4988 68.8149 20.4078 67.9048C21.3167 66.9946 22.5716 66.4321 23.9591 66.4321H77.9422C79.2946 66.4321 80.5235 66.9673 81.426 67.8397C82.3739 68.7537 82.9643 70.0389 82.9643 71.4608C82.9643 72.798 82.4429 74.0129 81.5937 74.9139C80.6769 75.8853 79.3804 76.4894 77.9422 76.4894Z" fill="white"/>
<path d="M78.1057 77.1275H23.7936C20.765 77.1275 18.3008 74.6601 18.3008 71.6275V71.2981C18.3008 68.2655 20.765 65.7981 23.7936 65.7981H78.1057C81.1343 65.7981 83.5986 68.2655 83.5986 71.2981V71.6275C83.5986 74.6601 81.1357 77.1275 78.1057 77.1275ZM23.7936 67.0702C21.4659 67.0702 19.5726 68.9661 19.5726 71.2968V71.6262C19.5726 73.957 21.4659 75.8528 23.7936 75.8528H78.1057C80.4334 75.8528 82.3268 73.957 82.3268 71.6262V71.2968C82.3268 68.9661 80.4334 67.0702 78.1057 67.0702H23.7936Z" fill="#1A1A1A"/>
<path d="M75.7325 73.0613C74.8555 73.0613 74.1372 72.3446 74.1372 71.461C74.1372 70.5786 74.8557 69.8621 75.7325 69.8621C76.6104 69.8621 77.3288 70.5796 77.329 71.4605C77.328 72.3458 76.6094 73.0613 75.7325 73.0613Z" stroke="#1A7248" stroke-width="2.5"/>
<path d="M70.3334 72.0989H60.7677C60.4166 72.0989 60.1318 71.8137 60.1318 71.4622C60.1318 71.1106 60.4166 70.8254 60.7677 70.8254H70.3334C70.6845 70.8254 70.9693 71.1106 70.9693 71.4622C70.9693 71.8137 70.6858 72.0989 70.3334 72.0989Z" fill="#1A1A1A"/>
<path d="M70.3336 17.1824H31.5664V62.8386H70.3336V17.1824Z" fill="white"/>
<path d="M70.3333 63.4753H31.5661C31.215 63.4753 30.9302 63.1902 30.9302 62.8386V17.1824C30.9302 16.8308 31.215 16.5457 31.5661 16.5457H70.3333C70.6844 16.5457 70.9692 16.8308 70.9692 17.1824V62.8386C70.9692 63.1902 70.6857 63.4753 70.3333 63.4753ZM32.202 62.2019H69.6974V17.8191H32.202V62.2019Z" fill="#1A1A1A"/>
<path d="M39.591 31.78C39.2399 31.78 38.9551 31.4949 38.9551 31.1433V24.6902C38.9551 24.3386 39.2399 24.0535 39.591 24.0535C39.9421 24.0535 40.2269 24.3386 40.2269 24.6902V31.1433C40.2269 31.4949 39.9421 31.78 39.591 31.78Z" fill="#1A1A1A"/>
<path d="M38.1866 28.6993C36.6924 28.6993 35.4766 27.4819 35.4766 25.9858C35.4766 24.4897 36.6924 23.2722 38.1866 23.2722C38.8784 23.2722 39.5338 23.5313 40.0292 24.0014C40.1554 24.1225 40.2282 24.2891 40.2282 24.4636V27.5079C40.2282 27.6824 40.1567 27.8503 40.0292 27.9701C39.5325 28.4402 38.8784 28.6993 38.1866 28.6993ZM38.1866 24.5457C37.3933 24.5457 36.7483 25.1915 36.7483 25.9858C36.7483 26.78 37.3933 27.4259 38.1866 27.4259C38.4649 27.4259 38.7301 27.3477 38.9551 27.2019V24.7696C38.7301 24.6238 38.4649 24.5457 38.1866 24.5457Z" fill="#1A1A1A"/>
<path d="M51.6732 31.7801C50.3676 31.7801 49.3052 30.6551 49.3052 29.2736V25.8387C49.3052 24.4572 50.3676 23.3335 51.6732 23.3335C52.9788 23.3335 54.0412 24.4572 54.0412 25.8387V29.2736C54.0412 30.6564 52.9788 31.7801 51.6732 31.7801ZM51.6732 24.6069C51.0685 24.6069 50.577 25.1603 50.577 25.8387V29.2736C50.577 29.9533 51.0685 30.5067 51.6732 30.5067C52.2779 30.5067 52.7694 29.9533 52.7694 29.2736V25.8387C52.7694 25.1603 52.2779 24.6069 51.6732 24.6069Z" fill="#1A7248"/>
<path d="M46.2631 31.78C45.912 31.78 45.6272 31.4949 45.6272 31.1433V24.6902C45.6272 24.3386 45.912 24.0535 46.2631 24.0535C46.6142 24.0535 46.899 24.3386 46.899 24.6902V31.1433C46.899 31.4949 46.6142 31.78 46.2631 31.78Z" fill="#1A1A1A"/>
<path d="M44.8584 28.6993C43.3643 28.6993 42.1484 27.4819 42.1484 25.9858C42.1484 24.4897 43.3643 23.2722 44.8584 23.2722C45.5503 23.2722 46.2057 23.5313 46.7011 24.0014C46.8272 24.1225 46.9001 24.2891 46.9001 24.4636V27.5079C46.9001 27.6824 46.8285 27.8503 46.7011 27.9701C46.2044 28.4402 45.5503 28.6993 44.8584 28.6993ZM44.8584 24.5457C44.0652 24.5457 43.4202 25.1915 43.4202 25.9858C43.4202 26.78 44.0652 27.4259 44.8584 27.4259C45.1367 27.4259 45.402 27.3477 45.627 27.2019V24.7696C45.402 24.6238 45.1367 24.5457 44.8584 24.5457Z" fill="#1A1A1A"/>
<path d="M39.591 44.3503C39.2399 44.3503 38.9551 44.0652 38.9551 43.7136V37.2605C38.9551 36.9089 39.2399 36.6238 39.591 36.6238C39.9421 36.6238 40.2269 36.9089 40.2269 37.2605V43.7136C40.2269 44.0665 39.9421 44.3503 39.591 44.3503Z" fill="#1A1A1A"/>
<path d="M38.1866 41.2696C36.6924 41.2696 35.4766 40.0522 35.4766 38.5561C35.4766 37.06 36.6924 35.8425 38.1866 35.8425C38.8784 35.8425 39.5338 36.1016 40.0292 36.5717C40.1554 36.6928 40.2282 36.8595 40.2282 37.0339V40.0782C40.2282 40.2527 40.1567 40.4207 40.0292 40.5405C39.5325 41.0105 38.8784 41.2696 38.1866 41.2696ZM38.1866 37.116C37.3933 37.116 36.7483 37.7618 36.7483 38.5561C36.7483 39.3503 37.3933 39.9962 38.1866 39.9962C38.4649 39.9962 38.7301 39.9181 38.9551 39.7722V37.3399C38.7301 37.1941 38.4649 37.116 38.1866 37.116Z" fill="#1A1A1A"/>
<path d="M64.5399 44.1902C64.1888 44.1902 63.9041 43.905 63.9041 43.5535V36.7019C63.9041 36.3503 64.1888 36.0652 64.5399 36.0652C64.8911 36.0652 65.1758 36.3503 65.1758 36.7019V43.5535C65.1758 43.905 64.8911 44.1902 64.5399 44.1902Z" fill="#1A1A1A"/>
<path d="M64.414 31.9792C64.0629 31.9792 63.7781 31.6941 63.7781 31.3425V24.491C63.7781 24.1394 64.0629 23.8542 64.414 23.8542C64.7651 23.8542 65.0499 24.1394 65.0499 24.491V31.3425C65.0499 31.6954 64.7651 31.9792 64.414 31.9792Z" fill="#1A1A1A"/>
<path d="M58.8144 44.1902C58.4633 44.1902 58.1785 43.905 58.1785 43.5535V36.7019C58.1785 36.3503 58.4633 36.0652 58.8144 36.0652C59.1655 36.0652 59.4502 36.3503 59.4502 36.7019V43.5535C59.4502 43.905 59.1655 44.1902 58.8144 44.1902Z" fill="#1A1A1A"/>
<path d="M46.2631 44.3503C45.912 44.3503 45.6272 44.0652 45.6272 43.7136V37.2605C45.6272 36.9089 45.912 36.6238 46.2631 36.6238C46.6142 36.6238 46.899 36.9089 46.899 37.2605V43.7136C46.899 44.0665 46.6142 44.3503 46.2631 44.3503Z" fill="#1A1A1A"/>
<path d="M44.8584 41.2696C43.3643 41.2696 42.1484 40.0522 42.1484 38.5561C42.1484 37.06 43.3643 35.8425 44.8584 35.8425C45.5503 35.8425 46.2057 36.1016 46.7011 36.5717C46.8272 36.6928 46.9001 36.8595 46.9001 37.0339V40.0782C46.9001 40.2527 46.8285 40.4207 46.7011 40.5405C46.2044 41.0105 45.5503 41.2696 44.8584 41.2696ZM44.8584 37.116C44.0652 37.116 43.4202 37.7618 43.4202 38.5561C43.4202 39.3503 44.0652 39.9962 44.8584 39.9962C45.1367 39.9962 45.402 39.9181 45.627 39.7722V37.3399C45.402 37.1941 45.1367 37.116 44.8584 37.116Z" fill="#1A1A1A"/>
<path d="M53.5663 44.0208H50.1983C49.963 44.0208 49.7471 43.8906 49.6366 43.6836C49.526 43.4753 49.539 43.224 49.6704 43.0286L52.4831 38.8438C52.7627 38.4271 52.6964 37.9596 52.539 37.6602C52.4558 37.5 52.2061 37.125 51.6912 37.1172C50.9773 37.1172 50.4129 37.6823 50.4129 38.3763C50.4129 38.7279 50.1281 39.013 49.777 39.013C49.4259 39.013 49.1411 38.7279 49.1411 38.3763C49.1411 36.9805 50.2764 35.8438 51.6704 35.8438C52.5416 35.8581 53.2724 36.3164 53.6665 37.0716C54.0813 37.8685 54.0319 38.8203 53.5364 39.556L51.3908 42.7474H53.5637C53.9148 42.7474 54.1996 43.0325 54.1996 43.3841C54.2022 43.7357 53.9174 44.0208 53.5663 44.0208Z" fill="#1A7248"/>
<path d="M59.9372 31.616H56.5692C56.3338 31.616 56.1179 31.4858 56.0074 31.2787C55.8969 31.0717 55.9099 30.8191 56.0412 30.6238L58.854 26.4389C59.1336 26.0222 59.0672 25.5535 58.9099 25.254C58.8267 25.0938 58.5757 24.7188 58.0633 24.711C58.0633 24.711 58.0633 24.711 58.062 24.711C57.3481 24.711 56.7837 25.2748 56.7837 25.9688C56.7837 26.3204 56.499 26.6055 56.1479 26.6055C55.7968 26.6055 55.512 26.3204 55.512 25.9688C55.512 24.573 56.6472 23.4363 58.0412 23.4363C58.9125 23.4506 59.642 23.9089 60.036 24.6641C60.4522 25.461 60.4027 26.4128 59.9073 27.1498L57.7616 30.3412H59.9346C60.2857 30.3412 60.5705 30.6264 60.5705 30.9779C60.5705 31.3295 60.2883 31.616 59.9372 31.616Z" fill="#1A1A1A"/>
<path d="M39.591 56.6094C39.2399 56.6094 38.9551 56.3242 38.9551 55.9727V49.5195C38.9551 49.168 39.2399 48.8828 39.591 48.8828C39.9421 48.8828 40.2269 49.168 40.2269 49.5195V55.9727C40.2269 56.3242 39.9421 56.6094 39.591 56.6094Z" fill="#1A7248"/>
<path d="M38.1866 53.5286C36.6924 53.5286 35.4766 52.3112 35.4766 50.8151C35.4766 49.319 36.6924 48.1016 38.1866 48.1016C38.8784 48.1016 39.5338 48.3607 40.0292 48.8307C40.1554 48.9518 40.2282 49.1185 40.2282 49.293V52.3372C40.2282 52.5117 40.1567 52.6797 40.0305 52.7995C39.5338 53.2682 38.8784 53.5286 38.1866 53.5286ZM38.1866 49.3737C37.3933 49.3737 36.7483 50.0195 36.7483 50.8138C36.7483 51.6081 37.3933 52.2539 38.1866 52.2539C38.4649 52.2539 38.7301 52.1758 38.9551 52.0299V49.5976C38.7301 49.4531 38.4649 49.3737 38.1866 49.3737Z" fill="#1A7248"/>
<path d="M64.5399 56.448C64.1888 56.448 63.9041 56.1628 63.9041 55.8113V48.9597C63.9041 48.6082 64.1888 48.323 64.5399 48.323C64.8911 48.323 65.1758 48.6082 65.1758 48.9597V55.8113C65.1758 56.1628 64.8911 56.448 64.5399 56.448Z" fill="#1A1A1A"/>
<path d="M58.8143 56.6095C57.5087 56.6095 56.4463 55.4845 56.4463 54.1029V50.668C56.4463 49.2865 57.5087 48.1628 58.8143 48.1628C60.1199 48.1628 61.1823 49.2865 61.1823 50.668V54.1029C61.1823 55.4845 60.1199 56.6095 58.8143 56.6095ZM58.8143 49.4363C58.2096 49.4363 57.7181 49.9897 57.7181 50.668V54.1029C57.7181 54.7826 58.2096 55.336 58.8143 55.336C59.419 55.336 59.9105 54.7826 59.9105 54.1029V50.668C59.9105 49.9884 59.419 49.4363 58.8143 49.4363Z" fill="#1A7248"/>
<path d="M46.2631 56.6094C45.912 56.6094 45.6272 56.3242 45.6272 55.9727V49.5195C45.6272 49.168 45.912 48.8828 46.2631 48.8828C46.6142 48.8828 46.899 49.168 46.899 49.5195V55.9727C46.899 56.3242 46.6142 56.6094 46.2631 56.6094Z" fill="#1A1A1A"/>
<path d="M44.8584 53.5286C43.3643 53.5286 42.1484 52.3112 42.1484 50.8151C42.1484 49.319 43.3643 48.1016 44.8584 48.1016C45.5503 48.1016 46.2057 48.3607 46.7011 48.8307C46.8272 48.9518 46.9001 49.1185 46.9001 49.293V52.3372C46.9001 52.5117 46.8285 52.6797 46.7024 52.7995C46.2057 53.2682 45.5503 53.5286 44.8584 53.5286ZM44.8584 49.3737C44.0652 49.3737 43.4202 50.0195 43.4202 50.8138C43.4202 51.6081 44.0652 52.2539 44.8584 52.2539C45.1367 52.2539 45.402 52.1758 45.627 52.0299V49.5976C45.402 49.4531 45.1367 49.3737 44.8584 49.3737Z" fill="#1A1A1A"/>
<path d="M53.5663 56.2787H50.1983C49.963 56.2787 49.7471 56.1484 49.6366 55.9414C49.526 55.7344 49.539 55.4818 49.6704 55.2865L52.4831 51.1029C52.7627 50.6862 52.6964 50.2174 52.539 49.918C52.4558 49.7578 52.2048 49.3828 51.6912 49.375C50.9773 49.375 50.4129 49.9401 50.4129 50.6341C50.4129 50.9857 50.1281 51.2708 49.777 51.2708C49.4259 51.2708 49.1411 50.9857 49.1411 50.6341C49.1411 49.2383 50.2764 48.1016 51.6704 48.1016C52.5416 48.1159 53.2724 48.5742 53.6665 49.3294C54.0813 50.125 54.0319 51.0781 53.5377 51.8151L51.3921 55.0065H53.565C53.9161 55.0065 54.2009 55.2917 54.2009 55.6432C54.2009 55.9948 53.9174 56.2787 53.5663 56.2787Z" fill="#1A1A1A"/>
<path d="M36.111 87.4065C35.9965 87.4065 35.8808 87.3765 35.7768 87.3101L32.2111 85.0978C31.912 84.9129 31.821 84.5197 32.0056 84.2215C32.1903 83.9233 32.5817 83.8296 32.8808 84.0158L36.4465 86.2281C36.7456 86.4129 36.8366 86.8062 36.6519 87.1044C36.5323 87.2997 36.3242 87.4065 36.111 87.4065Z" fill="#1A1A1A"/>
</svg>
