<svg width="101" height="100" viewBox="0 0 101 100" fill="none" xmlns="http://www.w3.org/2000/svg">
<g clip-path="url(#clip0)">
<circle cx="50.9434" cy="50" r="50" fill="#F5F7FB"/>
<path d="M68.6721 73.5079H31.9129C29.2827 73.5079 27.1421 71.3686 27.1421 68.7384V25.6433C27.1421 23.0131 29.2814 20.8738 31.9129 20.8738H68.6721C71.3023 20.8738 73.4416 23.0131 73.4416 25.6433V68.7384C73.4403 71.3686 71.301 73.5079 68.6721 73.5079ZM31.9129 22.1472C29.9845 22.1472 28.4168 23.7162 28.4168 25.6433V68.7384C28.4168 70.6654 29.9858 72.2345 31.9129 72.2345H68.6721C70.5991 72.2345 72.1669 70.6654 72.1669 68.7384V25.6433C72.1669 23.7162 70.5978 22.1472 68.6721 22.1472H31.9129Z" fill="#1A1A1A"/>
<path d="M52.8721 39.6079H36.9255C36.574 39.6079 36.2888 39.3228 36.2888 38.9712C36.2888 38.6196 36.574 38.3345 36.9255 38.3345H52.8721C53.2237 38.3345 53.5089 38.6196 53.5089 38.9712C53.5089 39.3228 53.225 39.6079 52.8721 39.6079Z" fill="#1A1A1A"/>
<path d="M52.8721 34.25H36.9255C36.574 34.25 36.2888 33.9648 36.2888 33.6133C36.2888 33.2617 36.574 32.9766 36.9255 32.9766H52.8721C53.2237 32.9766 53.5089 33.2617 53.5089 33.6133C53.5102 33.9648 53.225 34.25 52.8721 34.25Z" fill="#1A1A1A"/>
<path d="M72.2558 44.5456H68.5826C65.6998 44.5456 63.3547 42.2005 63.3547 39.3164V20.6445C63.3547 20.293 63.6399 20.0078 63.9915 20.0078C64.343 20.0078 64.6282 20.293 64.6282 20.6445V39.3164C64.6282 41.4974 66.4016 43.2708 68.5826 43.2708H72.2558C74.4368 43.2708 76.2102 41.4961 76.2102 39.3164V19.8477C76.2102 18.1081 74.7948 16.6914 73.054 16.6914H72.3756C70.636 16.6914 69.218 18.1081 69.218 19.8477V34.3815C69.218 34.7331 68.9329 35.0182 68.5813 35.0182C68.2297 35.0182 67.9446 34.7331 67.9446 34.3815V19.8477C67.9446 17.4049 69.9329 15.418 72.3756 15.418H73.054C75.4967 15.418 77.4836 17.4049 77.4836 19.8477V39.3177C77.4836 42.2005 75.1386 44.5456 72.2558 44.5456Z" fill="#136D42"/>
<path d="M50.8946 86.0742C50.8113 86.0742 50.7279 86.0586 50.6498 86.0261L33.0092 78.694C32.685 78.5586 32.5313 78.1862 32.6654 77.8607C32.8008 77.5352 33.1719 77.3841 33.4988 77.5169L50.8894 84.7461L67.5951 77.5208C67.9154 77.3815 68.2917 77.5299 68.4324 77.8529C68.5717 78.1758 68.4232 78.5495 68.1003 78.6901L51.1472 86.0222C51.0652 86.056 50.9792 86.0742 50.8946 86.0742Z" fill="#1A1A1A"/>
<path d="M15.6667 40.1562C15.5039 40.1562 15.3411 40.0937 15.2161 39.97L12.0586 36.8124C11.8099 36.5637 11.8099 36.1601 12.0586 35.9114C12.3073 35.6627 12.7109 35.6627 12.9596 35.9114L16.1172 39.0689C16.3659 39.3176 16.3659 39.7213 16.1172 39.97C15.9935 40.0937 15.8307 40.1562 15.6667 40.1562Z" fill="#1A1A1A"/>
<path d="M56.7771 66.7669V60.3203H67.2328V66.7669H56.7771Z" stroke="#136D42" stroke-width="2.5"/>
<path d="M67.8464 87.7436H33.2527C32.9011 87.7436 32.616 87.4585 32.616 87.1069C32.616 86.7554 32.9011 86.4702 33.2527 86.4702H67.8464C68.198 86.4702 68.4832 86.7554 68.4832 87.1069C68.4832 87.4585 68.1993 87.7436 67.8464 87.7436Z" fill="#1A1A1A"/>
<path d="M83.1366 66.0638C81.7459 66.0638 80.6157 64.9336 80.6157 63.543C80.6157 62.1537 81.7459 61.0234 83.1366 61.0234C84.5259 61.0234 85.6561 62.1537 85.6561 63.543C85.6561 64.9336 84.5259 66.0638 83.1366 66.0638ZM83.1366 62.2969C82.4491 62.2969 81.8892 62.8555 81.8892 63.543C81.8892 64.2305 82.4491 64.7904 83.1366 64.7904C83.824 64.7904 84.3826 64.2318 84.3826 63.543C84.3826 62.8555 83.824 62.2969 83.1366 62.2969Z" fill="#1A1A1A"/>
</g>
<defs>
<clipPath id="clip0">
<rect width="100" height="100" fill="white" transform="translate(0.943359)"/>
</clipPath>
</defs>
</svg>
