<svg width="58" height="43" viewBox="0 0 58 43" fill="none" xmlns="http://www.w3.org/2000/svg">
<path d="M54.6823 12H53.3345H44.7056H43.3562C41.7204 12 40.3904 13.3358 40.3904 14.9788V35.0212C40.3904 36.6642 41.7204 38 43.3562 38H54.6823C56.3181 38 57.6481 36.6642 57.6481 35.0212V14.9788C57.6481 13.3358 56.3181 12 54.6823 12ZM55.4913 34.7514C55.4913 35.3495 55.0092 35.8354 54.4121 35.8354H43.6248C43.0294 35.8354 42.5472 35.3495 42.5472 34.7514V15.2502C42.5472 14.6522 43.0294 14.1663 43.6264 14.1663H44.1652C44.7606 14.1663 45.2444 14.6505 45.2444 15.2502C45.2444 15.8482 45.7266 16.3341 46.3236 16.3341H51.7165C52.3119 16.3341 52.7957 15.8499 52.7957 15.2502C52.7957 14.6522 53.2779 14.1663 53.8749 14.1663H54.4137C55.0092 14.1663 55.4913 14.6522 55.4913 15.2502V34.7514Z" fill="black"/>
<path d="M37.7815 20.0767C37.7815 16.7967 35.1026 14.1255 31.8209 14.1255C28.5391 14.1255 25.8585 16.7958 25.8585 20.0767C25.8585 23.0308 28.005 25.4663 30.8198 25.9359V32.1855C30.8198 37.0565 26.8664 41.01 21.9954 41.01C17.1243 41.01 13.17 37.0557 13.17 32.1855L13.1485 25.026C15.4585 24.7181 17.716 23.3671 19.7241 21.0597C20.0191 20.7208 20.1085 20.284 20.0578 19.8669C22.6825 16.3968 24.3105 11.6711 24.3105 8.03842C24.3105 2.43036 21.7976 1.84814 17.642 0.89698L17.636 0.88666C17.3806 0.37238 16.8646 0 16.2394 0C15.3613 0 14.6492 0.71122 14.6492 1.57896C14.6492 2.45702 15.3605 3.16824 16.2394 3.16824C16.5868 3.16824 16.9128 3.02376 17.1716 2.81822L17.2086 2.83198C21.2429 3.7582 22.3316 4.00932 22.3316 8.03842C22.3316 11.2333 20.8197 15.5118 18.5089 18.6009C18.1262 18.6233 17.7478 18.7919 17.4649 19.1066C16.2841 20.4732 14.3973 22.1089 12.1681 22.1089C9.94074 22.1089 8.05562 20.4886 6.87484 19.1255C6.59104 18.8108 6.2135 18.6422 5.83338 18.6207C3.51654 15.5204 2.00122 11.2368 2.00122 8.03756C2.00122 4.00588 3.07192 3.75562 7.13112 2.8294L7.14488 2.8165C7.42352 3.02204 7.7271 3.16738 8.0969 3.16738C8.97496 3.16738 9.68618 2.4553 9.68618 1.5781C9.68532 0.71122 8.97496 0 8.09604 0C7.4691 0 6.95396 0.37238 6.68048 0.88494L6.67704 0.8858C2.51722 1.84556 0 2.41746 0 8.03842C0 11.6745 1.634 16.4174 4.28194 19.8866C4.2312 20.3037 4.3215 20.7415 4.61648 21.0795C6.62286 23.3714 8.85886 24.7173 11.1662 25.026L11.1688 32.1846C11.1697 38.1487 16.0321 43 21.9954 43C27.9586 43 32.8004 38.1487 32.8004 32.1846V25.935C35.6143 25.4655 37.7815 23.0299 37.7815 20.0767ZM31.8209 24.0585C29.6339 24.0585 27.8391 22.2749 27.8391 20.0784C27.8391 17.8906 29.6339 16.1078 31.8209 16.1078C34.0078 16.1078 35.782 17.8906 35.782 20.0784C35.7829 22.274 34.0078 24.0585 31.8209 24.0585Z" fill="black"/>
<path d="M31.8206 17.1062C30.178 17.1062 28.8398 18.4349 28.8398 20.0775C28.8398 21.7296 30.178 23.0565 31.8206 23.0565C33.4623 23.0565 34.8014 21.7296 34.8014 20.0775C34.8014 18.4349 33.4623 17.1062 31.8206 17.1062Z" fill="#FF8036"/>
</svg>
