<svg width="53" height="45" viewBox="0 0 53 45" fill="none" xmlns="http://www.w3.org/2000/svg">
<path d="M29.7627 23.0824C31.168 21.8598 32.2953 20.3476 33.0678 18.6486C33.8404 16.9495 34.2402 15.1033 34.2402 13.2353C34.2402 9.72507 32.8527 6.35863 30.383 3.87653C27.9133 1.39443 24.5636 0 21.0709 0C17.5782 0 14.2285 1.39443 11.7588 3.87653C9.28907 6.35863 7.90159 9.72507 7.90159 13.2353C7.90157 15.1033 8.30142 16.9495 9.07399 18.6486C9.84657 20.3476 10.9738 21.8598 12.3792 23.0824C8.69212 24.7603 5.56395 27.4699 3.36866 30.8873C1.17337 34.3047 0.00387666 38.2852 0 42.3529C0 43.055 0.277495 43.7283 0.771441 44.2247C1.26539 44.7211 1.93532 45 2.63386 45C3.33241 45 4.00234 44.7211 4.49629 44.2247C4.99023 43.7283 5.26773 43.055 5.26773 42.3529C5.26773 38.1407 6.9327 34.1009 9.89637 31.1224C12.86 28.1439 16.8796 26.4706 21.0709 26.4706C25.2622 26.4706 29.2818 28.1439 32.2454 31.1224C35.2091 34.1009 36.8741 38.1407 36.8741 42.3529C36.8741 43.055 37.1516 43.7283 37.6455 44.2247C38.1395 44.7211 38.8094 45 39.508 45C40.2065 45 40.8764 44.7211 41.3704 44.2247C41.8643 43.7283 42.1418 43.055 42.1418 42.3529C42.1379 38.2852 40.9684 34.3047 38.7732 30.8873C36.5779 27.4699 33.4497 24.7603 29.7627 23.0824ZM21.0709 21.1765C19.5081 21.1765 17.9804 20.7107 16.681 19.8381C15.3816 18.9656 14.3688 17.7253 13.7708 16.2743C13.1727 14.8232 13.0163 13.2265 13.3211 11.686C13.626 10.1456 14.3786 8.73063 15.4836 7.62003C16.5887 6.50944 17.9966 5.75312 19.5294 5.44671C21.0621 5.14029 22.6509 5.29755 24.0947 5.8986C25.5385 6.49965 26.7726 7.51749 27.6408 8.82341C28.5091 10.1293 28.9725 11.6647 28.9725 13.2353C28.9725 15.3414 28.14 17.3613 26.6582 18.8506C25.1763 20.3398 23.1665 21.1765 21.0709 21.1765ZM51.9135 14.9029C51.6686 14.6548 51.3773 14.4579 51.0563 14.3235C50.7354 14.1891 50.3911 14.1199 50.0434 14.1199C49.6957 14.1199 49.3515 14.1891 49.0305 14.3235C48.7095 14.4579 48.4182 14.6548 48.1734 14.9029L42.9056 20.1971L41.2726 18.5294C41.0278 18.2813 40.7365 18.0844 40.4155 17.95C40.0946 17.8156 39.7503 17.7464 39.4026 17.7464C39.0549 17.7464 38.7106 17.8156 38.3897 17.95C38.0687 18.0844 37.7774 18.2813 37.5326 18.5294C37.042 19.0254 36.7667 19.6963 36.7667 20.3956C36.7667 21.0949 37.042 21.7658 37.5326 22.2618L41.0619 25.8088C41.5554 26.3018 42.223 26.5786 42.9188 26.5786C43.6146 26.5786 44.2822 26.3018 44.7757 25.8088L51.8081 18.7412C52.074 18.5011 52.2886 18.2092 52.4386 17.8832C52.5887 17.5572 52.6712 17.2039 52.681 16.8448C52.6909 16.4857 52.6279 16.1284 52.496 15.7945C52.364 15.4607 52.1658 15.1573 51.9135 14.9029Z" fill="#E9A62C"/>
</svg>
