<svg width="66" height="45" viewBox="0 0 66 45" fill="none" xmlns="http://www.w3.org/2000/svg">
<path d="M63.0885 39.4839H2.74534C1.2271 39.4839 0.000976562 40.7162 0.000976562 42.242C0.000976562 43.7637 1.23121 45.0001 2.74534 45.0001H63.0926C64.6068 45.0001 65.837 43.7679 65.837 42.242C65.8329 40.7162 64.6068 39.4839 63.0885 39.4839Z" fill="#E2E2E2"/>
<path d="M54.8589 6.40332H50.7444V11.9154H54.8589V39.4842H60.3434V11.9154C60.3476 8.87612 57.8871 6.40332 54.8589 6.40332Z" fill="#E2E2E2"/>
<path d="M15.0891 6.40332H10.9747C7.95064 6.40332 5.49023 8.87612 5.49023 11.9154V39.4842H10.9747V11.9154H15.0891V6.40332Z" fill="#E2E2E2"/>
<path d="M42.9549 13.4092H22.8824C21.9745 13.4092 21.238 12.6681 21.238 11.7544C21.238 10.8407 21.9745 10.0996 22.8824 10.0996H42.9549C43.8629 10.0996 44.5993 10.8407 44.5993 11.7544C44.5993 12.6681 43.8629 13.4092 42.9549 13.4092Z" fill="#603FD5"/>
<path d="M32.9208 23.5088C32.0128 23.5088 31.2764 22.7677 31.2764 21.854V1.65479C31.2764 0.741107 32.0128 0 32.9208 0C33.8288 0 34.5653 0.741107 34.5653 1.65479V21.854C34.5653 22.7677 33.8288 23.5088 32.9208 23.5088Z" fill="#603FD5"/>
</svg>
