<svg width="101" height="106" viewBox="0 0 101 106" fill="none" xmlns="http://www.w3.org/2000/svg">
<ellipse cx="50.9412" cy="50" rx="49.7507" ry="50" fill="#F5F7FB"/>
<path d="M49.2478 65.4801H36.9757C36.6346 65.4801 36.3546 65.2119 36.3403 64.872C35.9067 55.1012 43.9588 41.5387 44.8468 40.0765C45.0916 38.2028 43.0122 35.902 40.2322 34.9997C39.0174 34.6077 34.878 33.6833 32.6424 38.3434C32.49 38.6611 32.1124 38.7952 31.7934 38.6416C31.4757 38.4892 31.3429 38.109 31.4952 37.7926C33.6267 33.3486 37.6085 32.8096 40.6241 33.7874C44.0929 34.9111 46.5421 37.8838 46.0825 40.4124C46.0682 40.4905 46.0395 40.5648 45.9978 40.6325C45.9119 40.7731 37.5369 54.501 37.5981 64.2054H49.2491C49.6007 64.2054 49.8859 64.4905 49.8859 64.8421C49.8859 65.1937 49.6007 65.4801 49.2478 65.4801Z" fill="#603FD5"/>
<path d="M49.2436 90.4999C49.1498 90.4999 49.0561 90.4791 48.9662 90.4361C19.7175 76.2616 21.5079 41.3671 29.5066 22.7017C29.6446 22.3775 30.0196 22.2265 30.3425 22.3671C30.6654 22.5051 30.8152 22.8788 30.6772 23.203C22.8634 41.4361 21.0717 75.5012 49.5235 89.2916C49.8399 89.4439 49.9714 89.8254 49.8178 90.1418C49.7084 90.3684 49.4805 90.4999 49.2436 90.4999Z" fill="#1A1A1A"/>
<path d="M60.6097 79.8943C60.2855 79.8943 60.0094 79.6482 59.9769 79.32C59.943 78.9711 60.1982 78.6586 60.5472 78.6247C60.835 78.5961 67.6084 77.8305 68.6931 70.2432C68.7425 69.8956 69.0655 69.6573 69.4131 69.7028C69.7608 69.7523 70.003 70.0752 69.9535 70.4229C68.7243 79.018 60.7503 79.8825 60.6696 79.8904C60.6514 79.893 60.6305 79.8943 60.6097 79.8943Z" fill="#603FD5"/>
<path d="M18.8578 84.3945C18.6951 84.3945 18.5323 84.332 18.4073 84.2083L14.6287 80.431C14.38 80.1823 14.38 79.7799 14.6287 79.5313C14.8774 79.2826 15.2797 79.2826 15.5284 79.5313L19.307 83.3086C19.5557 83.5573 19.5557 83.9597 19.307 84.2083C19.1833 84.332 19.0206 84.3945 18.8578 84.3945Z" fill="#1A1A1A"/>
<path d="M16.97 78.3556C16.8072 78.3556 16.6444 78.2931 16.5194 78.1694L14.6301 76.2801C14.3814 76.0314 14.3814 75.6291 14.6301 75.3804C14.8788 75.1317 15.2812 75.1317 15.5299 75.3804L17.4192 77.2697C17.6679 77.5184 17.6679 77.9207 17.4192 78.1694C17.2955 78.2931 17.1327 78.3556 16.97 78.3556Z" fill="#1A1A1A"/>
<path d="M90.0146 59.2006C89.8896 59.2006 89.762 59.1628 89.6513 59.086C86.4039 56.8204 80.5615 56.0065 80.5016 55.9987C80.2047 55.9584 79.9768 55.7162 79.9521 55.4167C79.5797 50.6263 78.7412 42.5821 78.0797 41.3868C74.0628 34.1407 64.9222 32.0313 41.1891 29.7214C40.8388 29.6875 40.5823 29.3763 40.6175 29.0261C40.6513 28.6758 40.9625 28.4219 41.3128 28.4545C65.538 30.8112 74.9026 33.0261 79.1943 40.7709C80.1253 42.4519 80.9729 52.2357 81.1826 54.8151C82.736 55.0717 87.4326 55.9857 90.3805 58.0417C90.6695 58.2435 90.7399 58.6394 90.538 58.9284C90.4143 59.1055 90.2164 59.2006 90.0146 59.2006Z" fill="#1A1A1A"/>
<path d="M71.8374 25.0234C71.7645 25.0234 71.6903 25.0104 71.6173 24.9844C56.6226 19.4714 41.4403 19.4128 41.2515 19.4128C40.8999 19.4128 40.6147 19.1276 40.6147 18.7773C40.6147 18.4258 40.8999 18.1406 41.2502 18.1406C41.4416 18.1406 56.8517 18.1992 72.0562 23.7904C72.3869 23.9115 72.5549 24.2773 72.4338 24.6068C72.34 24.8646 72.0965 25.0234 71.8374 25.0234Z" fill="#1A1A1A"/>
</svg>
