<svg width="100" height="100" viewBox="0 0 100 100" fill="none" xmlns="http://www.w3.org/2000/svg">
<circle cx="50" cy="50" r="50" fill="#F5F7FB"/>
<path d="M68.1318 78.2174L66.4052 71.7512C66.2815 71.2864 65.5146 71.1484 65.2216 71.5299C65.1018 71.6848 65.0628 71.8866 65.1123 72.0767L65.7308 74.3958C66.2867 76.4752 65.8531 78.6471 64.5419 80.3567C63.2308 82.0637 61.2438 83.0442 59.0914 83.0442H14.3544C14.0888 83.0442 13.8518 83.2109 13.762 83.4609C13.6721 83.7109 13.7477 83.9908 13.9521 84.1588L18.9182 88.2942C19.0315 88.3892 19.1747 88.4413 19.3219 88.4413H60.2867C62.8323 88.4413 65.18 87.2851 66.7294 85.2695C68.2789 83.2486 68.7893 80.6796 68.1318 78.2174Z" fill="#1A1A1A"/>
<path d="M59.0892 84.3034H14.3548C14.0059 84.3034 13.7246 84.0222 13.7246 83.6732C13.7246 83.3242 14.0059 83.043 14.3548 83.043H59.0892C61.2416 83.043 63.2272 82.0625 64.5397 80.3555C65.8509 78.6472 66.2845 76.474 65.7285 74.3946L61.9473 60.3282C61.8574 59.9922 62.0567 59.6459 62.3926 59.556C62.7272 59.4662 63.0749 59.6628 63.1647 60L66.9473 74.069C67.6048 76.53 67.0918 79.1003 65.5397 81.1211C63.9876 83.1433 61.6361 84.3034 59.0892 84.3034Z" fill="#1A1A1A"/>
<path d="M55.9759 36.2264C55.6973 36.2264 55.4434 36.0402 55.3678 35.7603L50.7559 18.5507C49.9538 15.5546 47.2272 13.4634 44.1269 13.4634H19.3158C18.9668 13.4634 18.6855 13.1822 18.6855 12.8332C18.6855 12.4843 18.9668 12.203 19.3158 12.203H44.1269C47.7975 12.203 51.0241 14.6783 51.9733 18.2238L56.5853 35.4335C56.6751 35.7707 56.4759 36.1158 56.14 36.2069C56.0853 36.2186 56.0306 36.2264 55.9759 36.2264Z" fill="#1A1A1A"/>
<path d="M72.1843 37.1666C72.0645 37.1666 71.9434 37.1328 71.8354 37.0612C64.821 32.3893 59.5711 32.052 56.2286 36.0625C56.0047 36.3281 55.6088 36.3658 55.3406 36.1419C55.0737 35.9192 55.0372 35.5221 55.2599 35.2539C59.0841 30.6679 64.894 30.9231 72.5346 36.0104C72.8236 36.2031 72.9031 36.595 72.7091 36.8841C72.588 37.0677 72.3887 37.1666 72.1843 37.1666Z" fill="#1A1A1A"/>
<path d="M50.6051 54.0221C50.5777 54.0221 50.5491 54.0221 50.523 54.0195C49.9762 53.9857 49.5296 53.6719 49.2613 53.1354C47.4202 49.4258 50.816 41.2903 52.8694 37.5065C53.6858 36.0026 54.915 35.082 56.5243 34.7682C59.5335 34.1758 63.8434 35.8971 68.0517 39.358C68.2574 39.5273 68.3342 39.8073 68.2431 40.0573L66.2079 45.707C66.0947 46.0247 65.7509 46.1966 65.4267 46.0963L59.915 44.3685C58.3629 46.6862 53.2366 54.0221 50.6051 54.0221ZM57.7574 35.9153C57.4085 35.9153 57.0777 35.9466 56.7665 36.0065C55.5452 36.2435 54.6064 36.9518 53.9788 38.1094C51.8043 42.1159 48.9072 49.5872 50.3915 52.5755C50.4814 52.7552 50.5491 52.7604 50.5999 52.763C50.6116 52.7643 50.622 52.7643 50.6337 52.7643C52.0204 52.7643 56.1051 47.8672 59.1272 43.2812C59.2809 43.0456 59.5712 42.9453 59.8421 43.026L65.2288 44.7148L66.9072 40.0547C63.6142 37.4284 60.2431 35.9153 57.7574 35.9153Z" fill="#1A1A1A"/>
<path d="M46.9039 63.8477L42.6851 58.0677L39.1213 65.099L46.9039 63.8477Z" fill="white"/>
<path d="M39.1214 65.7293C38.9222 65.7293 38.7321 65.6342 38.6123 65.4702C38.473 65.2788 38.4521 65.0249 38.5589 64.8139L42.1227 57.7827C42.2217 57.5874 42.4157 57.4558 42.6344 57.4389C42.8558 57.422 43.0641 57.5183 43.1943 57.6954L47.4131 63.4767C47.542 63.6538 47.5706 63.8855 47.4873 64.0887C47.404 64.2918 47.2204 64.4363 47.0042 64.4715L39.2217 65.7228C39.1878 65.7267 39.1553 65.7293 39.1214 65.7293ZM42.7829 59.2697L40.2425 64.2801L45.7881 63.3894L42.7829 59.2697Z" fill="#1A1A1A"/>
<path d="M86.3294 30.6447C85.164 29.0483 82.9257 28.6994 81.3294 29.8634L79.9374 30.879L42.6848 58.0679L46.9036 63.8478L51.4778 60.5093C50.8085 60.0978 50.3346 59.4429 50.0885 58.6968C49.8593 58.0014 49.8853 57.2632 50.1848 56.5939C50.4778 55.9389 51.0012 55.4129 51.5663 54.9871C52.1887 54.5184 52.8905 54.1629 53.6132 53.8764C54.4973 53.5249 55.4244 53.3374 56.3554 53.1499C57.4765 52.9246 58.6028 52.7202 59.7109 52.4363C60.2512 52.2983 60.7903 52.1746 61.3346 52.0574C61.8958 51.9363 62.4557 51.8074 63.009 51.6551C63.3801 51.5522 63.7421 51.4311 64.1002 51.297L84.1549 36.6603L85.5468 35.6447C87.1445 34.4793 87.4947 32.2397 86.3294 30.6447Z" fill="white"/>
<path d="M86.839 30.2722C86.1763 29.3634 85.1997 28.7683 84.089 28.5951C82.9784 28.4207 81.8664 28.6902 80.9588 29.353L42.3143 57.5574C42.1789 57.6563 42.0891 57.8048 42.063 57.9701C42.037 58.1355 42.0786 58.3035 42.1763 58.4389L46.395 64.2201C46.5187 64.3894 46.7102 64.4793 46.9042 64.4793C47.0331 64.4793 47.1633 64.4402 47.2753 64.3582L52.1281 60.8165C51.9667 60.7592 51.8091 60.6941 51.6568 60.6147C51.3976 60.4793 51.1659 60.3061 50.9615 60.1082L47.0422 62.9688L43.5669 58.2058L81.7023 30.3725C82.339 29.909 83.119 29.7228 83.895 29.8412C84.6724 29.9636 85.3573 30.3803 85.8221 31.017C86.7804 32.3295 86.4914 34.1785 85.1789 35.1355L62.2896 51.8412C62.5318 51.7826 62.7739 51.7215 63.0135 51.655C64.0448 51.3699 65.0096 50.9415 65.9758 50.4884C66.2505 50.3595 66.5279 50.2306 66.8052 50.1056L85.9224 36.1524C87.7948 34.7853 88.2062 32.1472 86.839 30.2722Z" fill="#1A1A1A"/>
<path d="M33.0151 75.0157C32.8524 75.0157 32.6948 74.9532 32.5763 74.8373L28.0698 70.4649C27.8198 70.224 27.8133 69.823 28.0568 69.5743C28.299 69.3256 28.6987 69.3177 28.9474 69.5625L32.9214 73.418L38.6024 65.28C38.8016 64.9948 39.1935 64.9245 39.48 65.1237C39.7651 65.323 39.8355 65.7162 39.6362 66.0013L33.5308 74.7474C33.4253 74.8985 33.2586 74.9961 33.0737 75.0144C33.0555 75.0144 33.0347 75.0157 33.0151 75.0157Z" fill="#BA850B"/>
<path d="M44.0165 79.5221H26.3902C26.0413 79.5221 25.76 79.2409 25.76 78.8919C25.76 78.543 26.0413 78.2617 26.3902 78.2617H44.0165C44.3655 78.2617 44.6467 78.543 44.6467 78.8919C44.6467 79.2409 44.3642 79.5221 44.0165 79.5221Z" fill="#1A1A1A"/>
<path d="M44.9422 30.3542H12.3407C11.9917 30.3542 11.7104 30.0729 11.7104 29.724C11.7104 29.375 11.9917 29.0938 12.3407 29.0938H44.9422C45.2912 29.0938 45.5724 29.375 45.5724 29.724C45.5724 30.0729 45.2912 30.3542 44.9422 30.3542Z" fill="#1A1A1A"/>
<path d="M31.9552 46.1264H12.3407C11.9917 46.1264 11.7104 45.8451 11.7104 45.4962C11.7104 45.1472 11.9917 44.866 12.3407 44.866H31.9539C32.3029 44.866 32.5841 45.1472 32.5841 45.4962C32.5841 45.8451 32.3029 46.1264 31.9552 46.1264Z" fill="#BA850B"/>
<path d="M6.64396 47.9934C5.26636 47.9934 4.14526 46.8736 4.14526 45.496C4.14526 44.1184 5.26636 42.9973 6.64396 42.9973C8.02157 42.9973 9.14266 44.1184 9.14266 45.496C9.14266 46.8736 8.02157 47.9934 6.64396 47.9934ZM6.64396 44.2577C5.96167 44.2577 5.40568 44.8124 5.40568 45.496C5.40568 46.1783 5.96037 46.733 6.64396 46.733C7.32756 46.733 7.88224 46.1783 7.88224 45.496C7.88224 44.8124 7.32625 44.2577 6.64396 44.2577Z" fill="#BA850B"/>
<path d="M75.5469 34.7148C75.3802 34.7148 75.2136 34.6484 75.0886 34.5182C72.6875 31.9804 67.9375 29.9986 62.4558 32.7695C62.1433 32.9231 61.7657 32.802 61.6094 32.4908C61.4518 32.1796 61.5769 31.8007 61.888 31.6445C67.9896 28.5637 73.306 30.7994 76.0052 33.6523C76.2448 33.9062 76.2331 34.3046 75.9805 34.5429C75.8581 34.6575 75.7019 34.7148 75.5469 34.7148Z" fill="#1A1A1A"/>
<path d="M78.1191 32.8358C77.9823 32.8358 77.8443 32.7915 77.7284 32.6991C77.6881 32.6665 73.6907 29.5637 69.8626 31.3606C69.5475 31.5077 69.1712 31.3723 69.024 31.0585C68.8769 30.7434 69.011 30.3684 69.3261 30.2199C73.8704 28.0832 78.3248 31.5624 78.5123 31.7108C78.7844 31.927 78.8287 32.3241 78.6138 32.5962C78.4888 32.7538 78.304 32.8358 78.1191 32.8358Z" fill="#1A1A1A"/>
<path d="M97.4235 46.1263C97.2946 46.1263 97.1631 46.0872 97.0511 46.0039L84.8585 37.0443C84.5772 36.8373 84.5173 36.444 84.723 36.1628C84.9275 35.8815 85.3233 35.8216 85.6032 36.0274L97.7959 44.987C98.0772 45.194 98.1371 45.5872 97.9313 45.8685C97.809 46.0378 97.6176 46.1263 97.4235 46.1263Z" fill="#1A1A1A"/>
<path d="M89.868 75.6784C89.7404 75.6784 89.6128 75.6406 89.5008 75.5599C83.9331 71.5664 68.8654 61.112 66.0542 60.694C65.1544 60.5664 63.269 60.7344 61.2729 60.9154C56.5034 61.3529 51.1036 61.8425 49.4982 59.655C48.924 58.8724 48.8901 57.8594 49.3966 56.6458C50.6479 53.6589 53.8549 53.056 57.2521 52.4193C60.3003 51.8464 63.756 51.1979 66.4852 48.7787C66.7443 48.5456 67.1427 48.5703 67.3745 48.832C67.6049 49.0925 67.5815 49.4909 67.3211 49.7227C64.3315 52.3737 60.6935 53.0573 57.4838 53.6602C54.1674 54.2826 51.5476 54.7748 50.5594 57.1354C50.0698 58.3047 50.4044 58.7617 50.5138 58.9115C51.6987 60.5235 57.3888 60.0052 61.157 59.6615C63.3198 59.4649 65.1883 59.2904 66.2391 59.4492C69.8628 59.9857 88.1609 73.0482 90.2365 74.5365C90.519 74.7396 90.5841 75.1341 90.381 75.4154C90.2573 75.5886 90.0646 75.6784 89.868 75.6784Z" fill="#1A1A1A"/>
</svg>
