<svg width="101" height="100" viewBox="0 0 101 100" fill="none" xmlns="http://www.w3.org/2000/svg">
<ellipse cx="50.9412" cy="50" rx="49.7507" ry="50" fill="#F5F7FB"/>
<path d="M51.2415 88.6757C51.2103 88.6757 51.1765 88.6731 51.144 88.6679C50.7968 88.6145 50.5588 88.2903 50.6122 87.9426L52.7448 74.0221C52.7916 73.7135 53.0569 73.483 53.3703 73.4817C71.7773 73.3593 72.7591 55.1197 72.7916 54.3437C72.8033 54.0911 72.962 53.8684 73.1973 53.7773L79.5796 51.2942C78.5978 44.9283 75.6434 33.2187 66.7773 22.8137C57.4821 11.901 43.0452 11.625 32.8592 16.1953C32.5393 16.3385 32.1622 16.1953 32.0192 15.875C31.8748 15.5546 32.0192 15.177 32.3391 15.0338C42.9568 10.2682 58.0218 10.5729 67.7461 21.9869C77.0556 32.9153 79.9919 45.2395 80.9138 51.6119C80.9555 51.9049 80.7903 52.1901 80.5133 52.2968L74.0283 54.819C73.7591 57.6966 71.4301 74.2942 53.9203 74.746L51.8696 88.1354C51.8215 88.4505 51.551 88.6757 51.2415 88.6757Z" fill="#1A1A1A"/>
<path d="M45.7717 59.7772H21.5753C21.2242 59.7772 20.9395 59.492 20.9395 59.1405V37.8384C20.9395 25.742 30.7678 15.9009 42.8484 15.9009H45.7717C57.8523 15.9009 67.6807 25.742 67.6807 37.8384C67.6807 49.9347 57.8523 59.7772 45.7717 59.7772ZM22.2112 58.5037H45.7717C57.1514 58.5037 66.4089 49.2342 66.4089 37.8397C66.4089 26.4451 57.1514 17.1756 45.7717 17.1756H42.8484C31.4687 17.1756 22.2112 26.4451 22.2112 37.8397V58.5037Z" fill="#1A1A1A"/>
<path d="M41.1076 38.4767C40.9412 38.4767 40.7799 38.4116 40.6603 38.2931L36.0686 33.7397C35.8189 33.4923 35.8176 33.0887 36.0647 32.8387C36.3131 32.5887 36.7149 32.5874 36.9646 32.8348L40.9828 36.8204L46.6902 27.4285C46.8722 27.1277 47.2637 27.0314 47.5641 27.215C47.8644 27.3973 47.9594 27.7892 47.7773 28.09L41.6512 38.172C41.5497 38.3387 41.3781 38.4494 41.1843 38.4728C41.1596 38.4741 41.1336 38.4767 41.1076 38.4767Z" fill="#603FD5"/>
<path d="M41.1076 49.8579C40.7565 49.8579 40.4717 49.5728 40.4717 49.2212V42.8071C40.4717 42.4556 40.7565 42.1704 41.1076 42.1704C41.4587 42.1704 41.7435 42.4556 41.7435 42.8071V49.2212C41.7435 49.5728 41.4587 49.8579 41.1076 49.8579Z" fill="#603FD5"/>
<path d="M31.6445 33.9688H26.9345C26.5834 33.9688 26.2986 33.6836 26.2986 33.332C26.2986 32.9805 26.5834 32.6953 26.9345 32.6953H31.6445C31.9956 32.6953 32.2804 32.9805 32.2804 33.332C32.2804 33.6836 31.9956 33.9688 31.6445 33.9688Z" fill="#603FD5"/>
<path d="M56.443 33.9687H50.5717C50.2206 33.9687 49.9358 33.6835 49.9358 33.3319C49.9358 32.9804 50.2206 32.6952 50.5717 32.6952H55.8071V28.5715C55.8071 28.22 56.0919 27.9348 56.443 27.9348C56.7941 27.9348 57.0788 28.22 57.0788 28.5715V33.3319C57.0788 33.6835 56.7941 33.9687 56.443 33.9687Z" fill="#603FD5"/>
<path d="M39.5513 51.1732C39.5513 50.3125 40.2519 49.6133 41.1075 49.6133C41.9631 49.6133 42.6638 50.3125 42.6638 51.1732C42.6638 52.0338 41.9631 52.7331 41.1075 52.7331C40.2519 52.7331 39.5513 52.0338 39.5513 51.1732Z" stroke="#603FD5" stroke-width="2.5"/>
<path d="M56.4445 24.4677C57.3025 24.469 57.9996 25.167 57.9983 26.03C57.9969 26.8931 57.2975 27.5888 56.4396 27.5875C55.5816 27.5861 54.8844 26.8881 54.8858 26.0251C54.8872 25.1621 55.5865 24.4663 56.4445 24.4677Z" stroke="#603FD5" stroke-width="2.5"/>
<path d="M65.4225 88.6445C65.2391 88.6445 65.0545 88.5638 64.9296 88.4088C64.7073 88.1367 64.7489 87.7356 65.022 87.513L68.9192 84.3372C69.1897 84.1146 69.5915 84.1549 69.8139 84.4297C70.0363 84.7018 69.9946 85.1028 69.7216 85.3255L65.8243 88.5013C65.7047 88.5976 65.5629 88.6445 65.4225 88.6445Z" fill="#1A1A1A"/>
<path d="M50.5719 43.444H31.6447C31.2936 43.444 31.0088 43.1589 31.0088 42.8073V23.8555C31.0088 23.5039 31.2936 23.2188 31.6447 23.2188H50.5719C50.923 23.2188 51.2077 23.5039 51.2077 23.8555V42.8073C51.2077 43.1589 50.923 43.444 50.5719 43.444ZM32.2806 42.1706H49.936V24.4922H32.2806V42.1706Z" fill="#1A1A1A"/>
</svg>
