<svg width="101" height="100" viewBox="0 0 101 100" fill="none" xmlns="http://www.w3.org/2000/svg">
<ellipse cx="50.9412" cy="50" rx="49.7507" ry="50" fill="#F5F7FB"/>
<path d="M38.9992 70.5754C38.9784 70.5754 38.9563 70.5741 38.9342 70.5728C38.5857 70.5376 38.3295 70.2251 38.3646 69.8762C38.3711 69.8124 38.9823 63.4478 37.5805 59.078C36.2384 54.9022 34.466 47.2069 37.6624 42.5858C39.847 39.4256 42.8912 39.3436 44.2593 40.2798C44.3659 40.3527 44.4634 40.4308 44.5505 40.5142C44.5427 40.44 44.5375 40.3605 44.5336 40.2798C44.4842 39.4308 44.8483 38.742 45.557 38.3423C47.4634 37.2668 51.4946 38.4582 53.3243 39.7186C55.886 41.4842 55.6494 43.6952 55.639 43.7889C55.5974 44.1392 55.2749 44.3905 54.9303 44.3449C54.5831 44.3032 54.3334 43.9842 54.3763 43.6353C54.3815 43.5793 54.5011 42.0767 52.6039 40.7681C50.9212 39.6079 47.4374 38.7459 46.1825 39.4517C45.8951 39.6131 45.782 39.8397 45.8041 40.2056C45.8678 41.2993 46.0031 41.3657 46.7547 41.7394C47.57 42.1431 48.7989 42.7538 50.5284 44.8137C51.9667 46.5298 51.9316 48.7538 50.4283 50.9178C48.7144 53.3853 45.5714 55.1743 43.9823 54.604C42.6676 54.134 41.7898 53.2486 41.3724 51.9712C40.4114 49.0298 42.2723 44.6561 43.6689 42.591C44.0278 42.0598 43.9862 41.6353 43.5427 41.3306C42.7222 40.7707 40.4634 40.7746 38.7105 43.3098C35.8262 47.4816 37.5245 54.7355 38.7924 58.6874C40.2775 63.3124 39.6585 69.7316 39.6312 70.0025C39.5974 70.3306 39.3204 70.5754 38.9992 70.5754ZM45.1591 42.2056C45.111 42.5689 44.9667 42.9426 44.7222 43.3032C43.3659 45.3071 41.8054 49.1978 42.5805 51.5741C42.873 52.4699 43.4712 53.0689 44.4088 53.4035C45.2528 53.7004 47.8756 52.3605 49.3841 50.19C50.2085 49.0025 50.9081 47.2473 49.5544 45.6327C47.9966 43.7759 46.9524 43.2577 46.1903 42.8801C45.769 42.6704 45.4231 42.4842 45.1591 42.2056Z" fill="#1A1A1A"/>
<path d="M53.045 52.1196C52.9917 52.1196 52.9383 52.1131 52.8837 52.0988C52.5443 52.0103 52.3415 51.6613 52.4299 51.3215C52.651 50.4712 52.8863 49.509 53.1334 48.4894C54.859 41.3996 56.3727 35.9321 58.8252 35.3813C59.9384 35.1327 60.6211 35.5103 61.0021 35.8709C62.361 37.1639 61.8877 40.1912 61.8291 40.5324C61.7693 40.88 61.4338 41.1105 61.0944 41.0519C60.7472 40.9933 60.5157 40.6639 60.5743 40.3175C60.7498 39.2863 60.7823 37.4191 60.1243 36.7941C59.9774 36.6561 59.7147 36.4881 59.1035 36.6248C57.227 37.0467 55.4377 44.3983 54.3688 48.7915C54.1191 49.8175 53.8824 50.7863 53.6601 51.6431C53.5859 51.9295 53.3285 52.1196 53.045 52.1196Z" fill="#1A1A1A"/>
<path d="M57.836 53.9087C57.7905 53.9087 57.7424 53.9035 57.6956 53.8931C57.3523 53.8149 57.1377 53.4751 57.2157 53.1313C59.2612 44.0545 60.8698 38.5493 63.0311 37.272C63.5525 36.9647 64.1195 36.8892 64.6721 37.0493C67.7164 37.9334 66.8607 42.3175 66.8243 42.5037C66.7541 42.8475 66.4225 43.0727 66.074 42.9998C65.7307 42.9308 65.5083 42.5949 65.5772 42.2498C65.585 42.216 66.2404 38.8306 64.3171 38.272C64.0974 38.2095 63.8971 38.2381 63.6786 38.3683C61.823 39.4647 60.0727 46.2459 58.4563 53.4113C58.39 53.7082 58.126 53.9087 57.836 53.9087Z" fill="#1A1A1A"/>
<path d="M62.7072 70.5755C62.637 70.5755 62.5654 70.5638 62.4965 70.5391C62.1649 70.4219 61.9907 70.0573 62.1077 69.7266C63.5212 65.7188 67.2677 54.7982 68.6786 50.3945C69.8593 46.7083 70.0791 42.9115 69.1896 41.5612C68.9842 41.25 68.7371 41.0899 68.4146 41.0599C67.1818 40.9206 66.2195 43.9583 64.5225 49.4375C64.0024 51.1198 63.4029 53.0547 62.6864 55.2578C62.5771 55.5925 62.2247 55.7774 61.884 55.6667C61.5498 55.5573 61.3691 55.1979 61.477 54.8633C62.1922 52.6667 62.7904 50.737 63.308 49.0612C65.3847 42.3529 66.2403 39.5781 68.5342 39.7917C69.2417 39.8581 69.8346 40.2279 70.2521 40.8607C71.5616 42.849 71.0154 47.276 69.8918 50.7839C68.477 55.1979 64.7241 66.1367 63.3093 70.151C63.2156 70.4115 62.9699 70.5755 62.7072 70.5755Z" fill="#1A1A1A"/>
<path d="M32.7006 50.7448H18.0583C17.7071 50.7448 17.4224 50.4596 17.4224 50.1081V31.6133C17.4224 31.2617 17.7071 30.9766 18.0583 30.9766H32.7006C33.0517 30.9766 33.3365 31.2617 33.3365 31.6133V50.1081C33.3365 50.4596 33.053 50.7448 32.7006 50.7448ZM18.6941 49.4714H32.0647V32.25H18.6941V49.4714Z" fill="#1A1A1A"/>
<path d="M79.3547 72.3593H21.7267C19.3521 72.3593 17.4224 70.4257 17.4224 68.0494V27.8385C17.4224 25.4622 19.3534 23.5286 21.7267 23.5286H79.3547C81.7293 23.5286 83.659 25.4622 83.659 27.8385V68.0494C83.6603 70.427 81.7293 72.3593 79.3547 72.3593ZM21.7267 24.802C20.0543 24.802 18.6941 26.164 18.6941 27.8385V68.0494C18.6941 69.7226 20.0543 71.0846 21.7267 71.0846H79.3547C81.027 71.0846 82.3873 69.7226 82.3873 68.0494V27.8385C82.3873 26.164 81.027 24.802 79.3547 24.802H21.7267Z" fill="#1A1A1A"/>
<path d="M56.7107 71.7266H44.3687V83.5964H56.7107V71.7266Z" fill="#1A1A1A"/>
<path d="M63.0033 84.2344H38.0761C37.725 84.2344 37.4402 83.9492 37.4402 83.5977C37.4402 83.2461 37.725 82.9609 38.0761 82.9609H63.0033C63.3544 82.9609 63.6392 83.2461 63.6392 83.5977C63.6392 83.9492 63.3544 84.2344 63.0033 84.2344Z" fill="#1A1A1A"/>
<path d="M77.7133 66.1316H71.3258C70.9747 66.1316 70.6899 65.8464 70.6899 65.4949C70.6899 65.1433 70.9747 64.8582 71.3258 64.8582H77.7133C78.0644 64.8582 78.3492 65.1433 78.3492 65.4949C78.3492 65.8464 78.0644 66.1316 77.7133 66.1316Z" fill="#603FD5"/>
<path d="M74.5577 35.306C74.5421 35.306 74.5252 35.306 74.5096 35.3047C74.2951 35.2891 74.1026 35.1641 73.9986 34.9727L73.8542 34.7058C73.2326 33.5469 72.6475 32.4531 71.1728 31.3321C70.9934 31.1953 70.8997 30.974 70.927 30.75C70.953 30.5261 71.0961 30.3321 71.3028 30.2422C72.4485 29.737 72.875 28.8867 73.5226 27.6003C73.6696 27.3073 73.8243 27 73.9973 26.6784C74.1039 26.4792 74.3094 26.3516 74.5356 26.3438C74.7658 26.3347 74.9752 26.4492 75.0961 26.6406C75.3601 27.0599 75.5811 27.4584 75.7892 27.8373C76.3497 28.8516 76.7905 29.6537 77.8139 30.2839C77.9947 30.3945 78.1065 30.5873 78.1169 30.7982C78.126 31.0091 78.0285 31.2123 77.8581 31.3373C77.0272 31.9531 76.6098 32.6419 76.0805 33.5143C75.7853 34.0026 75.4784 34.5078 75.0649 35.056C74.9439 35.2136 74.7567 35.306 74.5577 35.306ZM72.6683 30.9206C73.6045 31.7774 74.1572 32.6237 74.6228 33.4531C74.7515 33.25 74.8737 33.0495 74.9947 32.8516C75.4186 32.1524 75.8243 31.4831 76.4537 30.8646C75.615 30.1537 75.1559 29.3216 74.6761 28.4505C74.6488 28.4011 74.6214 28.3516 74.5941 28.3021C74.074 29.3333 73.5889 30.2513 72.6683 30.9206Z" fill="#603FD5"/>
<path d="M30.0203 89.1055C29.8577 89.1055 29.6952 89.043 29.5703 88.9193L27.5898 86.9362C27.3415 86.6875 27.3415 86.2839 27.5898 86.0352C27.8382 85.7865 28.2413 85.7865 28.4897 86.0352L30.4702 88.0182C30.7186 88.2669 30.7186 88.6706 30.4702 88.9193C30.3454 89.043 30.1828 89.1055 30.0203 89.1055Z" fill="#1A1A1A"/>
<path d="M24.1593 45.3839C23.8082 45.3839 23.5234 45.0988 23.5234 44.7472V36.9751C23.5234 36.6235 23.8082 36.3384 24.1593 36.3384C24.5104 36.3384 24.7952 36.6235 24.7952 36.9751V44.7472C24.7952 45.0988 24.5104 45.3839 24.1593 45.3839Z" fill="#603FD5"/>
<path d="M28.0395 41.4976H20.2775C19.9264 41.4976 19.6416 41.2124 19.6416 40.8608C19.6416 40.5093 19.9264 40.2241 20.2775 40.2241H28.0395C28.3906 40.2241 28.6754 40.5093 28.6754 40.8608C28.6754 41.2124 28.3906 41.4976 28.0395 41.4976Z" fill="#603FD5"/>
</svg>
