<svg width="101" height="100" viewBox="0 0 101 100" fill="none" xmlns="http://www.w3.org/2000/svg">
<ellipse cx="50.7367" cy="50" rx="49.8333" ry="50" fill="#F5F7FB"/>
<path d="M64.9258 49.2148C65.8966 49.2148 66.6836 48.4278 66.6836 47.457C66.6836 46.4862 65.8966 45.6992 64.9258 45.6992C63.955 45.6992 63.168 46.4862 63.168 47.457C63.168 48.4278 63.955 49.2148 64.9258 49.2148Z" fill="#1A1A1A"/>
<path d="M55.0805 63.3652C55.0805 57.6945 59.6945 53.0805 65.3652 53.0805C71.036 53.0805 75.65 57.6945 75.65 63.3652C75.65 69.036 71.036 73.65 65.3652 73.65C59.6945 73.65 55.0805 69.036 55.0805 63.3652ZM57.8961 63.3652C57.8961 67.4841 61.2465 70.8344 65.3652 70.8344C69.484 70.8344 72.8344 67.4841 72.8344 63.3652C72.8344 59.2464 69.484 55.8961 65.3652 55.8961C61.2465 55.8961 57.8961 59.2464 57.8961 63.3652Z" fill="#FF8034" stroke="#F5F7FB" stroke-width="0.7"/>
<path d="M66.8406 62.5309H66.3188V61.2346C66.3188 60.5527 65.7998 60 65.1594 60C64.5191 60 64 60.5527 64 61.2346V63.7654C64 64.4473 64.5191 65 65.1594 65H66.8406C67.4809 65 68 64.4473 68 63.7654C68 63.0836 67.4809 62.5309 66.8406 62.5309Z" fill="#FF9C64"/>
<path d="M57.2793 49.2148C58.2501 49.2148 59.0371 48.4278 59.0371 47.457C59.0371 46.4862 58.2501 45.6992 57.2793 45.6992C56.3085 45.6992 55.5215 46.4862 55.5215 47.457C55.5215 48.4278 56.3085 49.2148 57.2793 49.2148Z" fill="#1A1A1A"/>
<path d="M49.6328 56.8613C50.6036 56.8613 51.3906 56.0743 51.3906 55.1035C51.3906 54.1327 50.6036 53.3457 49.6328 53.3457C48.662 53.3457 47.875 54.1327 47.875 55.1035C47.875 56.0743 48.662 56.8613 49.6328 56.8613Z" fill="#1A1A1A"/>
<path d="M41.9863 49.2148C42.9571 49.2148 43.7441 48.4278 43.7441 47.457C43.7441 46.4862 42.9571 45.6992 41.9863 45.6992C41.0155 45.6992 40.2285 46.4862 40.2285 47.457C40.2285 48.4278 41.0155 49.2148 41.9863 49.2148Z" fill="#1A1A1A"/>
<path d="M41.9863 56.8613C42.9571 56.8613 43.7441 56.0743 43.7441 55.1035C43.7441 54.1327 42.9571 53.3457 41.9863 53.3457C41.0155 53.3457 40.2285 54.1327 40.2285 55.1035C40.2285 56.0743 41.0155 56.8613 41.9863 56.8613Z" fill="#1A1A1A"/>
<path d="M41.9863 64.5078C42.9571 64.5078 43.7441 63.7208 43.7441 62.75C43.7441 61.7792 42.9571 60.9922 41.9863 60.9922C41.0155 60.9922 40.2285 61.7792 40.2285 62.75C40.2285 63.7208 41.0155 64.5078 41.9863 64.5078Z" fill="#1A1A1A"/>
<path d="M49.6328 64.5078C50.6036 64.5078 51.3906 63.7208 51.3906 62.75C51.3906 61.7792 50.6036 60.9922 49.6328 60.9922C48.662 60.9922 47.875 61.7792 47.875 62.75C47.875 63.7208 48.662 64.5078 49.6328 64.5078Z" fill="#1A1A1A"/>
<path d="M49.6328 49.2148C50.6036 49.2148 51.3906 48.4278 51.3906 47.457C51.3906 46.4862 50.6036 45.6992 49.6328 45.6992C48.662 45.6992 47.875 46.4862 47.875 47.457C47.875 48.4278 48.662 49.2148 49.6328 49.2148Z" fill="#1A1A1A"/>
<path d="M64.6973 41.5156C65.6681 41.5156 66.4551 40.7286 66.4551 39.7578C66.4551 38.787 65.6681 38 64.6973 38C63.7265 38 62.9395 38.787 62.9395 39.7578C62.9395 40.7286 63.7265 41.5156 64.6973 41.5156Z" fill="#1A1A1A"/>
<path d="M57.0508 41.5156C58.0216 41.5156 58.8086 40.7286 58.8086 39.7578C58.8086 38.787 58.0216 38 57.0508 38C56.08 38 55.293 38.787 55.293 39.7578C55.293 40.7286 56.08 41.5156 57.0508 41.5156Z" fill="#1A1A1A"/>
<path d="M41.7578 41.5156C42.7286 41.5156 43.5156 40.7286 43.5156 39.7578C43.5156 38.787 42.7286 38 41.7578 38C40.787 38 40 38.787 40 39.7578C40 40.7286 40.787 41.5156 41.7578 41.5156Z" fill="#1A1A1A"/>
<path d="M33.9863 49.2148C34.9571 49.2148 35.7441 48.4278 35.7441 47.457C35.7441 46.4862 34.9571 45.6992 33.9863 45.6992C33.0155 45.6992 32.2285 46.4862 32.2285 47.457C32.2285 48.4278 33.0155 49.2148 33.9863 49.2148Z" fill="#1A1A1A"/>
<path d="M33.9863 56.8613C34.9571 56.8613 35.7441 56.0743 35.7441 55.1035C35.7441 54.1327 34.9571 53.3457 33.9863 53.3457C33.0155 53.3457 32.2285 54.1327 32.2285 55.1035C32.2285 56.0743 33.0155 56.8613 33.9863 56.8613Z" fill="#1A1A1A"/>
<path d="M33.9863 64.5078C34.9571 64.5078 35.7441 63.7208 35.7441 62.75C35.7441 61.7792 34.9571 60.9922 33.9863 60.9922C33.0155 60.9922 32.2285 61.7792 32.2285 62.75C32.2285 63.7208 33.0155 64.5078 33.9863 64.5078Z" fill="#1A1A1A"/>
<path d="M33.7578 41.5156C34.7286 41.5156 35.5156 40.7286 35.5156 39.7578C35.5156 38.787 34.7286 38 33.7578 38C32.787 38 32 38.787 32 39.7578C32 40.7286 32.787 41.5156 33.7578 41.5156Z" fill="#1A1A1A"/>
<path d="M49.4043 41.5156C50.3751 41.5156 51.1621 40.7286 51.1621 39.7578C51.1621 38.787 50.3751 38 49.4043 38C48.4335 38 47.6465 38.787 47.6465 39.7578C47.6465 40.7286 48.4335 41.5156 49.4043 41.5156Z" fill="#1A1A1A"/>
</svg>
