<svg width="100" height="100" viewBox="0 0 100 100" fill="none" xmlns="http://www.w3.org/2000/svg">
<g clip-path="url(#clip0)">
<ellipse cx="49.7367" cy="50" rx="49.8333" ry="50" fill="#F5F7FB"/>
<path d="M53.8423 27.8533L53.8423 27.8536C53.9264 28.2372 54.2658 28.5102 54.659 28.5102H57.3079H57.8079V29.0102V30.1825V30.183C57.8055 32.2234 56.1522 33.8767 54.1118 33.8791H54.1112H46.0042H46.0036C43.9628 33.8767 42.3095 32.2235 42.3071 30.183V30.1825V29.0102V28.5102H42.8071H45.4569C45.849 28.5102 46.1886 28.2374 46.2731 27.8533L53.8423 27.8533ZM53.8423 27.8533C53.4614 26.1193 51.8631 24.8818 50.0579 24.8818C48.2529 24.8818 46.6542 26.1191 46.2732 27.8532L53.8423 27.8533ZM55.1676 26.5402L55.2992 26.8383H55.625L64.2125 26.8383C64.2126 26.8383 64.2127 26.8383 64.2129 26.8383C67.1766 26.8419 69.5785 29.244 69.582 32.2078V70.278C69.5785 73.242 67.1764 75.6441 64.2125 75.6475H35.9026C32.9387 75.6441 30.537 73.2422 30.5334 70.2783V32.2075C30.537 29.2438 32.9385 26.8419 35.9022 26.8383C35.9023 26.8383 35.9024 26.8383 35.9026 26.8383L44.4904 26.8383H44.8163L44.9478 26.5402C45.841 24.5162 47.845 23.21 50.0579 23.21C52.2704 23.21 54.2744 24.5162 55.1676 26.5402ZM67.9101 70.2791V70.2786V32.2072V32.2066C67.9077 30.1659 66.2544 28.5126 64.2136 28.5102H64.213H59.9798H59.4798V29.0102V30.1819C59.4763 33.1458 57.0746 35.5476 54.1107 35.551H46.0048C43.0408 35.5475 40.6387 33.1458 40.6352 30.1819V29.0102V28.5102H40.1352L35.902 28.5102L35.9014 28.5102C33.861 28.5126 32.2077 30.1659 32.2053 32.2066V32.2072L32.2053 70.2786L32.2053 70.2792C32.2077 72.3198 33.8609 73.9737 35.9015 73.9757H35.902H64.213H64.2135C66.2544 73.9737 67.9082 72.3199 67.9101 70.2791Z" fill="black" stroke="black"/>
<path d="M56.6694 47.3936L47.899 55.9569L43.4453 51.6097C42.9214 51.097 42.0822 51.1033 41.565 51.6226C41.0481 52.1424 41.046 52.9815 41.5608 53.5034L41.5787 53.5209L46.9651 58.7804C47.4844 59.2872 48.3131 59.2872 48.8321 58.7804L58.5356 49.306C59.0604 48.79 59.0687 47.9471 58.5552 47.4207C58.0409 46.8943 57.1984 46.8826 56.6694 47.3944V47.3936Z" fill="#FF7F34"/>
<path d="M82.9989 67.582C82.8361 67.582 82.6733 67.5195 82.5483 67.3958C82.2996 67.1471 82.2996 66.7435 82.5483 66.4948L85.8674 63.1758C86.1161 62.9271 86.5197 62.9271 86.7684 63.1758C87.0171 63.4245 87.0171 63.8281 86.7684 64.0768L83.4494 67.3958C83.3244 67.5195 83.1616 67.582 82.9989 67.582Z" fill="#1A1A1A"/>
<path d="M15.5128 48.7214C15.2966 48.7214 15.0857 48.6107 14.9659 48.4128L11.0909 41.9649C10.9099 41.6641 11.0076 41.2722 11.3096 41.0912C11.6091 40.9102 12.001 41.0066 12.1833 41.3099L16.0583 47.7579C16.2393 48.0586 16.1417 48.4506 15.8396 48.6316C15.738 48.6915 15.6247 48.7214 15.5128 48.7214Z" fill="#1A1A1A"/>
</g>
<defs>
<clipPath id="clip0">
<rect width="100" height="100" fill="white"/>
</clipPath>
</defs>
</svg>
