<svg width="100" height="100" viewBox="0 0 100 100" fill="none" xmlns="http://www.w3.org/2000/svg">
<circle cx="50" cy="50" r="50" fill="#F5F7FB"/>
<path d="M68.1318 78.2174L66.4052 71.7512C66.2815 71.2864 65.5146 71.1484 65.2216 71.5299C65.1018 71.6848 65.0628 71.8866 65.1123 72.0767L65.7308 74.3958C66.2867 76.4752 65.8531 78.6471 64.5419 80.3567C63.2308 82.0637 61.2438 83.0442 59.0914 83.0442H14.3544C14.0888 83.0442 13.8518 83.2109 13.762 83.4609C13.6721 83.7109 13.7477 83.9908 13.9521 84.1588L18.9182 88.2942C19.0315 88.3892 19.1747 88.4413 19.3219 88.4413H60.2867C62.8323 88.4413 65.18 87.2851 66.7294 85.2695C68.2789 83.2486 68.7893 80.6796 68.1318 78.2174Z" fill="#1A1A1A"/>
<path d="M59.0892 84.3033H14.3548C14.0059 84.3033 13.7246 84.022 13.7246 83.6731C13.7246 83.3241 14.0059 83.0429 14.3548 83.0429H59.0892C61.2416 83.0429 63.2272 82.0624 64.5397 80.3554C65.8509 78.647 66.2845 76.4739 65.7285 74.3944L61.9473 60.328C61.8574 59.9921 62.0567 59.6458 62.3926 59.5559C62.7272 59.4661 63.0749 59.6627 63.1647 59.9999L66.9473 74.0689C67.6048 76.5299 67.0918 79.1002 65.5397 81.121C63.9876 83.1431 61.6361 84.3033 59.0892 84.3033Z" fill="#1A1A1A"/>
<path d="M63 60.5001C63 60.5001 62.0756 60.78 62 60.5001L50.7559 18.5508C49.9538 15.5547 47.2272 13.4635 44.1269 13.4635H19.3158C18.9668 13.4635 18.6855 13.1823 18.6855 12.8333C18.6855 12.4844 18.9668 12.2031 19.3158 12.2031H44.1269C47.7975 12.2031 51.0764 14.8561 52.0256 18.4017L63 59.5001V60.5001Z" fill="#1A1A1A"/>
<path d="M33.0151 75.0155C32.8524 75.0155 32.6948 74.953 32.5763 74.8371L28.0698 70.4648C27.8198 70.2239 27.8133 69.8228 28.0568 69.5741C28.299 69.3254 28.6987 69.3176 28.9474 69.5624L32.9214 73.4179L38.6024 65.2799C38.8016 64.9947 39.1935 64.9244 39.48 65.1236C39.7651 65.3228 39.8355 65.7161 39.6362 66.0012L33.5308 74.7473C33.4253 74.8983 33.2586 74.996 33.0737 75.0142C33.0555 75.0142 33.0347 75.0155 33.0151 75.0155Z" fill="#E16A00"/>
<path d="M44.0165 79.5221H26.3902C26.0413 79.5221 25.76 79.2409 25.76 78.8919C25.76 78.543 26.0413 78.2617 26.3902 78.2617H44.0165C44.3655 78.2617 44.6467 78.543 44.6467 78.8919C44.6467 79.2409 44.3642 79.5221 44.0165 79.5221Z" fill="#1A1A1A"/>
<path d="M44.9422 30.3542H12.3407C11.9917 30.3542 11.7104 30.0729 11.7104 29.724C11.7104 29.375 11.9917 29.0938 12.3407 29.0938H44.9422C45.2912 29.0938 45.5724 29.375 45.5724 29.724C45.5724 30.0729 45.2912 30.3542 44.9422 30.3542Z" fill="#1A1A1A"/>
<path d="M31.9552 46.1264H12.3407C11.9917 46.1264 11.7104 45.8451 11.7104 45.4962C11.7104 45.1472 11.9917 44.866 12.3407 44.866H31.9539C32.3029 44.866 32.5841 45.1472 32.5841 45.4962C32.5841 45.8451 32.3029 46.1264 31.9552 46.1264Z" fill="#E16A00"/>
<path d="M6.64396 47.9934C5.26636 47.9934 4.14526 46.8736 4.14526 45.496C4.14526 44.1184 5.26636 42.9973 6.64396 42.9973C8.02157 42.9973 9.14266 44.1184 9.14266 45.496C9.14266 46.8736 8.02157 47.9934 6.64396 47.9934ZM6.64396 44.2577C5.96167 44.2577 5.40568 44.8124 5.40568 45.496C5.40568 46.1783 5.96037 46.733 6.64396 46.733C7.32756 46.733 7.88224 46.1783 7.88224 45.496C7.88224 44.8124 7.32625 44.2577 6.64396 44.2577Z" fill="#E16A00"/>
</svg>
