<svg width="101" height="100" viewBox="0 0 101 100" fill="none" xmlns="http://www.w3.org/2000/svg">
<g clip-path="url(#clip0)">
<circle cx="50.9434" cy="50" r="50" fill="#F5F7FB"/>
<path d="M49.1684 66.0964C46.5017 66.0964 43.8559 65.7435 41.3064 65.0482C40.9665 64.9557 40.7673 64.6055 40.8598 64.2669C40.9522 63.9284 41.3012 63.724 41.6423 63.8203C44.0824 64.4857 46.615 64.8229 49.1684 64.8229C59.5863 64.8229 69.1749 59.1458 74.1944 50.0065C74.3637 49.6979 74.7517 49.5872 75.0603 49.7552C75.3676 49.9245 75.4809 50.3112 75.3116 50.6198C70.0681 60.1654 60.0499 66.0964 49.1684 66.0964Z" fill="#1A1A1A"/>
<path d="M20.1032 39.4362C19.7764 39.4362 19.499 39.1862 19.4704 38.8529C19.3988 38.0156 19.3623 37.1536 19.3623 36.2878C19.3623 19.8516 32.7334 6.48047 49.1696 6.48047C58.098 6.48047 66.4821 10.4336 72.1696 17.3268C72.3936 17.5977 72.3545 18 72.0837 18.224C71.8102 18.4466 71.4105 18.4089 71.1865 18.138C65.7412 11.5391 57.7152 7.75391 49.1683 7.75391C33.4352 7.75391 20.6357 20.5534 20.6357 36.2878C20.6357 37.1172 20.6709 37.9427 20.7386 38.7448C20.7686 39.095 20.5081 39.4036 20.1592 39.4336C20.1396 39.4349 20.1214 39.4362 20.1032 39.4362Z" fill="#1A1A1A"/>
<path d="M62.565 27.7265C62.5468 27.7265 62.526 27.7265 62.5064 27.7239C62.3189 27.707 62.147 27.6067 62.0403 27.4505C59.4543 23.6914 55.3958 21.2513 50.9049 20.7539C50.582 20.7174 50.3372 20.4453 50.3372 20.121V11.0507C50.3372 10.8737 50.4101 10.7044 50.5403 10.5846C50.6692 10.4648 50.8437 10.401 51.0195 10.4153C58.2629 10.9283 65.0116 14.5026 69.5364 20.2213C69.7369 20.4739 69.7161 20.8385 69.4869 21.0664L63.0155 27.539C62.897 27.6601 62.733 27.7265 62.565 27.7265ZM51.6119 19.5612C55.9934 20.1979 59.9543 22.5507 62.6431 26.1106L68.1809 20.5729C64.0299 15.5664 58.052 12.3828 51.6119 11.7447V19.5612Z" fill="#1A1A1A"/>
<path d="M34.2704 28.3394C31.5891 27.9691 28.9095 27.5794 26.2292 27.1797C29.6734 18.5145 37.6919 12.5269 46.9604 11.7006V19.5493C41.5399 20.2548 36.8517 23.5023 34.2704 28.3394Z" stroke="#136D42" stroke-width="2.5"/>
<path d="M33.604 41.681H24.3058C23.9998 41.681 23.7368 41.4636 23.6795 41.1641C23.367 39.5261 23.2095 37.8868 23.2095 36.2943C23.2095 34.5014 23.4113 32.6576 23.8084 30.8152C23.8774 30.4858 24.1991 30.2748 24.5246 30.3191C27.5142 30.7683 30.5037 31.2058 33.4985 31.6238C33.6782 31.6485 33.8384 31.7488 33.9386 31.8998C34.0389 32.0509 34.0715 32.237 34.0272 32.4128C33.6952 33.7136 33.5259 35.0196 33.5259 36.2943C33.5259 37.8308 33.7563 39.3672 34.2108 40.8594C34.2694 41.0521 34.2329 41.2618 34.1131 41.4245C33.9959 41.586 33.8058 41.681 33.604 41.681ZM24.8397 40.4076H32.7681C32.4269 39.0548 32.255 37.6745 32.255 36.293C32.255 35.1381 32.3813 33.961 32.6327 32.7878C30.0649 32.4272 27.4998 32.0522 24.936 31.668C24.6366 33.2266 24.4842 34.78 24.4842 36.293C24.4842 37.6394 24.604 39.0209 24.8397 40.4076Z" fill="#1A1A1A"/>
<path d="M59.8059 17.3829C59.5039 17.2344 59.1341 17.3542 58.9713 17.6524L46.1093 41.2839C46.026 41.4376 46.0104 41.6198 46.0638 41.7865C46.1185 41.9532 46.2395 42.0899 46.3971 42.1641L48.8958 43.3451C48.9817 43.3855 49.0755 43.4063 49.1679 43.4063C49.2448 43.4063 49.3216 43.392 49.3971 43.3646C49.5586 43.3021 49.6888 43.1758 49.7552 43.0157L60.1171 18.2032C60.2487 17.8894 60.1119 17.5287 59.8059 17.3829Z" fill="#136D42"/>
<path d="M47.5727 74.7448C47.3149 74.7448 47.0727 74.5885 46.9764 74.3333C42.7824 63.22 36.7902 61.9935 32.8253 61.1823C31.9556 61.0039 31.2042 60.8502 30.5779 60.6119C28.9516 59.9935 27.4972 56.5859 25.255 51.0781C23.0688 45.7005 20.3449 39.0078 17.7147 38.1849C16.5467 37.819 15.7069 37.8802 15.2251 38.3645C14.5259 39.0612 13.7303 41.4388 16.2381 49.5299C17.2889 52.9218 17.5727 56.1966 17.8462 59.3645C18.2121 63.5924 18.5571 67.5872 20.5766 71.888C20.7264 72.207 20.5884 72.5859 20.2694 72.7356C19.9529 72.8841 19.5727 72.7487 19.4217 72.4296C17.3084 67.9231 16.936 63.6289 16.5766 59.4752C16.3084 56.375 16.0311 53.1692 15.0207 49.9075C12.8983 43.0612 12.6769 39.1067 14.3253 37.4635C15.1704 36.6198 16.436 36.4505 18.0949 36.9713C21.2993 37.9726 23.91 44.3919 26.4347 50.5989C28.0311 54.5221 29.8397 58.97 31.0298 59.4231C31.561 59.625 32.2654 59.7695 33.0805 59.9362C37.061 60.7513 43.7251 62.1158 48.1678 73.8854C48.2928 74.2148 48.1261 74.582 47.7967 74.7057C47.7238 74.7317 47.6483 74.7448 47.5727 74.7448Z" fill="#1A1A1A"/>
<path d="M77.191 35.3463C74.6011 35.3463 72.0582 32.4739 71.691 29.0728C71.0699 23.3398 71.0425 18.2122 71.0412 17.7643C70.773 17.7109 70.5595 17.4869 70.5308 17.2005C70.497 16.8502 70.7535 16.539 71.1038 16.5051C74.2613 16.2005 76.7782 16.8697 78.5725 18.4973C80.566 20.3085 81.5777 23.1991 81.5777 27.0885C81.5777 34.3319 78.6415 35.2721 77.3785 35.3398C77.316 35.345 77.2522 35.3463 77.191 35.3463ZM72.3147 17.7096C72.3147 17.7174 72.3147 17.7252 72.3147 17.7343C72.3147 17.7864 72.3173 23.0351 72.9566 28.9361C73.2808 31.9413 75.536 34.1666 77.3108 34.0689C79.1858 33.9687 80.3042 31.358 80.3042 27.0885C80.3042 23.5728 79.4332 20.9999 77.7157 19.44C76.4032 18.2486 74.5725 17.677 72.3147 17.7096Z" fill="#1A1A1A"/>
<path d="M76.2372 45.8996C75.6435 45.8996 75.0615 45.759 74.5341 45.466C73.3023 44.7824 70.7177 42.2655 73.3232 33.6822C73.4247 33.3462 73.7776 33.1574 74.1174 33.2577C74.4534 33.3593 74.6435 33.716 74.5419 34.052C72.6357 40.3384 73.607 43.496 75.1526 44.354C76.2242 44.9504 77.6826 44.5533 78.6995 43.3918C81.0979 40.6548 85.982 31.6249 80.5159 26.7447C80.2529 26.5103 80.2307 26.1079 80.4651 25.8449C80.7008 25.5806 81.1018 25.5611 81.3648 25.7941C87.43 31.2082 82.732 40.7212 79.6578 44.2303C78.7086 45.315 77.4469 45.8996 76.2372 45.8996Z" fill="#1A1A1A"/>
<path d="M77.4885 53.8778C76.3687 53.8778 75.6526 53.3491 75.3049 53.0027C73.6174 51.3283 73.7177 47.8283 75.5289 45.2046C75.7281 44.9129 76.1265 44.8426 76.4143 45.0418C76.7033 45.241 76.7763 45.6382 76.5757 45.9272C74.9976 48.2163 75.1122 51.0171 76.2007 52.0991C77.0315 52.922 78.4 52.7397 80.0536 51.5809C83.0367 49.4923 85.2841 45.5965 85.6474 41.8856C85.8466 39.8374 85.5718 36.8595 83.1213 34.3074C82.8778 34.0535 82.8843 33.6512 83.1382 33.4064C83.3934 33.1655 83.7958 33.1694 84.0393 33.4246C86.245 35.7202 87.2385 38.6889 86.9156 42.0079C86.5185 46.0678 84.0549 50.3335 80.7854 52.6238C79.4403 53.5666 78.3453 53.8778 77.4885 53.8778Z" fill="#1A1A1A"/>
<path d="M78.3274 59.9271C77.7428 59.9271 77.2089 59.7474 76.7506 59.3815C74.3834 57.4883 74.968 54.668 75.6074 53.4427C75.7701 53.1315 76.1529 53.0144 76.4641 53.1732C76.7753 53.3347 76.8964 53.7188 76.7376 54.0313C76.6816 54.1381 75.4134 56.681 77.5462 58.3868C78.4785 59.1302 80.0488 58.1862 81.2102 57.0508C83.955 54.3633 85.791 49.7422 84.1373 47.5795C83.9251 47.3008 83.9772 46.8998 84.2571 46.6875C84.5358 46.4753 84.9368 46.5261 85.1503 46.806C87.4824 49.8542 84.8782 55.2435 82.1022 57.961C80.7792 59.2552 79.4589 59.9271 78.3274 59.9271Z" fill="#1A1A1A"/>
<path d="M66.1446 78.4309C65.978 78.4309 65.8113 78.3658 65.6863 78.2369C65.4415 77.9843 65.4493 77.5807 65.7006 77.3359C68.7201 74.4179 72.0131 69.5741 74.9194 65.302C77.448 61.582 79.6329 58.3684 81.1941 57.0637C81.4636 56.8385 81.8647 56.8736 82.0912 57.1445C82.3165 57.414 82.28 57.8163 82.0105 58.0416C80.586 59.2317 78.3451 62.5286 75.9714 66.0182C73.0326 70.3424 69.6993 75.2434 66.586 78.2525C66.4623 78.371 66.3035 78.4309 66.1446 78.4309Z" fill="#1A1A1A"/>
<path d="M58.1122 42.8685C58.0354 42.8685 57.9559 42.8542 57.8791 42.8242L54.8531 41.6367C54.5263 41.5091 54.3648 41.138 54.4924 40.8112C54.6213 40.4844 54.9937 40.3229 55.3179 40.4505L58.344 41.638C58.6708 41.7657 58.8322 42.1367 58.7046 42.4636C58.607 42.7162 58.3661 42.8685 58.1122 42.8685Z" fill="#1A1A1A"/>
<path d="M61.0454 40.6236C60.9686 40.6236 60.8891 40.6093 60.8123 40.5794L57.785 39.3919C57.4581 39.2643 57.2967 38.8945 57.4243 38.5663C57.5519 38.2382 57.9256 38.0794 58.2498 38.2057L61.2772 39.3932C61.604 39.5208 61.7654 39.8906 61.6378 40.2187C61.5402 40.47 61.2993 40.6236 61.0454 40.6236Z" fill="#1A1A1A"/>
</g>
<defs>
<clipPath id="clip0">
<rect width="100" height="100" fill="white" transform="translate(0.943359)"/>
</clipPath>
</defs>
</svg>
