<svg width="931" height="754" viewBox="0 0 931 754" fill="none" xmlns="http://www.w3.org/2000/svg">
<g filter="url(#filter0_d)">
<path d="M628.626 376.985C628.626 393.543 627.152 409.77 624.355 425.526C610.329 504.777 562.499 572.302 496.407 612.46C460.513 634.285 419.257 648.056 375.058 651.259C369.751 651.675 364.45 651.884 359.058 651.939C357.705 652 356.347 652 354.994 652C344.355 652 333.833 651.406 323.493 650.194C320.605 649.838 317.686 649.483 314.798 649.012C277.844 643.592 243.309 630.708 212.721 611.934C143.383 569.467 94.3459 496.847 83.5916 412.207C82.1171 400.658 81.3799 388.932 81.3799 376.997C81.3738 225.114 203.874 102 354.988 102C416.546 102 473.394 122.434 519.098 156.934C523.991 160.639 528.761 164.485 533.423 168.514C570.7 200.736 599.197 242.879 614.929 290.857C623.825 317.96 628.626 346.894 628.626 376.985Z" fill="url(#paint0_radial)" stroke="white" stroke-width="3"/>
<path d="M216.451 271.721C218.572 263.717 205.386 260.533 201.92 268.843C186.157 306.649 135.402 308.291 108.367 334.548C87.1143 355.191 80.2657 391.902 108.013 410.315C134.695 428.018 167.189 414.981 185.109 391.228C209.731 358.583 206.556 314.824 217.006 277.067C217.585 274.972 217.274 273.172 216.451 271.721Z" fill="#1A1A1A"/>
<path d="M292.606 191.116C275.546 171.288 249.12 178.422 233.973 195.685C186.082 193.639 160.692 256.461 200.833 286.791C217.954 299.73 242.735 299.21 260.094 286.956C276.795 275.168 282.084 256.008 283.881 236.627C299.912 228.666 305.913 206.585 292.606 191.116Z" fill="#1A1A1A"/>
<path d="M448.524 586.221C445.929 578.713 442.309 572.112 437.429 566.056L437.88 564.433C437.88 564.433 420.192 546.081 394.509 548.947C368.833 551.812 357.988 573.037 340.299 559.84C323.495 547.312 327.26 444.815 300.792 407.033C290.666 387.848 273.812 374.939 245.327 368.742C238.539 367.248 231.118 366.152 222.941 365.442C204.766 363.868 188.79 363.537 174.709 364.376C125.166 367.267 99.0391 384.443 83.5933 412.189C96.9127 517.006 168.951 603.33 265.483 636.899C283.104 625.283 373.97 586.796 373.97 586.796C373.97 586.796 375.968 617.763 387.094 614.322C394.515 612.025 387.094 593.673 388.806 585.076C401.401 588.842 412.106 619.435 421.142 613.93C422.824 613.109 424 611.021 424.816 608.039C426.4 609.998 429.355 612.736 431.835 613.826C437.941 616.508 440.963 610.158 439.854 603.489C439.184 599.46 450.084 603.881 449.42 599.852C454.441 600.813 450.693 592.51 448.524 586.221Z" fill="white"/>
<path d="M265.475 638.357C265.316 638.357 265.152 638.332 265 638.277C167.029 604.212 95.2534 515.536 82.1412 412.373C82.0986 412.06 82.1595 411.748 82.3118 411.473C99.4942 380.616 127.955 365.638 174.609 362.913C188.812 362.068 205.111 362.429 223.049 363.984C231.36 364.707 238.745 365.791 245.624 367.309C273.243 373.317 291.175 385.723 302.063 406.341C316.541 426.984 321.951 466.211 326.722 500.828C330.445 527.814 333.961 553.3 341.15 558.665C350.893 565.927 358.217 562.069 368.344 556.73C375.491 552.964 383.595 548.689 394.337 547.489C420.427 544.574 438.164 562.639 438.907 563.41C439.267 563.784 439.401 564.317 439.261 564.819L439.011 565.725C443.745 571.726 447.309 578.285 449.881 585.737C450.91 588.719 450.496 591.493 448.723 593.563C447.096 595.455 444.482 596.533 441.722 596.533C441.68 596.533 441.637 596.533 441.6 596.533C441.643 597.745 441.485 598.639 441.338 599.448C441.149 600.538 440.979 601.474 441.277 603.244C442.082 608.088 440.881 612.558 438.225 614.64C436.336 616.122 433.856 616.306 431.242 615.155C429.274 614.291 427.099 612.552 425.387 610.844C424.467 613.06 423.266 614.505 421.761 615.24C415.912 618.804 410.13 610.788 404.006 602.289C399.692 596.3 394.861 589.595 390.004 587.133C389.846 590.054 390.394 593.845 390.924 597.537C392.082 605.596 393.282 613.93 387.506 615.718C385.429 616.361 383.393 616.055 381.62 614.83C375.253 610.415 373.218 594.794 372.664 588.927C359.655 594.469 282.188 627.628 266.261 638.118C266.029 638.277 265.755 638.357 265.475 638.357ZM85.0841 412.483C98.1903 514.116 168.845 601.462 265.286 635.289C284.132 623.311 369.721 587.005 373.395 585.449C373.827 585.265 374.321 585.308 374.723 585.553C375.125 585.804 375.381 586.227 375.412 586.704C375.795 592.608 377.952 608.737 383.278 612.43C384.332 613.158 385.404 613.317 386.659 612.932C390.059 611.878 389.042 604.8 388.061 597.953C387.378 593.214 386.678 588.315 387.378 584.788C387.457 584.384 387.701 584.035 388.055 583.82C388.408 583.612 388.828 583.557 389.218 583.673C395.555 585.572 401.057 593.195 406.37 600.58C411.683 607.953 416.692 614.916 420.384 612.674C421.67 612.038 422.681 610.323 423.413 607.647C423.559 607.12 423.979 606.716 424.515 606.606C425.052 606.502 425.6 606.692 425.941 607.114C427.477 609.013 430.267 611.536 432.418 612.479C434.057 613.195 435.416 613.152 436.452 612.338C438.225 610.948 439.041 607.408 438.426 603.722C438.048 601.462 438.286 600.121 438.493 598.939C438.682 597.849 438.846 596.912 438.554 595.143C438.475 594.671 438.633 594.194 438.974 593.857C439.315 593.52 439.797 593.379 440.26 593.465C442.679 593.93 445.201 593.202 446.542 591.646C447.626 590.385 447.84 588.67 447.157 586.686C444.604 579.313 441.058 572.859 436.299 566.962C436.007 566.595 435.903 566.105 436.031 565.652L436.251 564.868C433.015 561.843 416.777 547.918 394.672 550.386C384.472 551.525 376.63 555.664 369.702 559.314C359.478 564.703 350.643 569.363 339.432 561.004C331.261 554.911 327.995 531.219 323.858 501.226C319.13 466.946 313.774 428.086 299.608 407.866C289.055 387.909 271.745 375.974 245.02 370.163C238.263 368.675 231 367.603 222.817 366.893C205.02 365.35 188.861 364.995 174.792 365.828C129.441 368.479 101.755 382.876 85.0841 412.483Z" fill="#1A1A1A"/>
<path d="M199.431 262.254C201.533 262.664 203.635 263.074 205.731 263.478C208.01 263.919 209.868 265.634 209.667 268.138C209.612 268.806 209.313 269.461 208.917 270.067C209.545 271.408 209.594 272.951 208.631 274.311C207.376 276.081 204.403 276.846 202.636 275.315C200.619 273.57 194.824 265.364 195.519 263.466C196.116 261.819 197.603 261.898 199.431 262.254Z" fill="#1A1A1A"/>
<path d="M289.738 231.746C283.73 233.558 239.561 231.017 228.064 230.313C218.412 234.348 210.729 236.436 203.813 236.516L203.85 235.371C204.715 212.475 223.135 195.647 246.233 195.415C260.186 195.262 273.323 200.118 281.457 209.952C286.106 215.573 289.134 222.848 289.738 231.746Z" fill="#1A1A1A"/>
<path d="M289.806 238.286C289.172 209.389 270.04 195.151 246.235 195.415C224.001 195.654 205.874 212.769 203.803 234.532C203.425 234.495 203.096 234.41 202.718 234.422C184.817 234.624 174.611 261.947 206.941 264.305C207.83 265.756 208.695 267.213 209.737 268.542L184.549 364.364C180.588 364.29 176.573 364.731 172.875 364.835L235.194 443.254L243.676 368.356C242.95 368.173 242.183 368.007 241.439 367.83L261.632 288.254C277.559 281.751 290.421 266.803 289.806 238.286Z" fill="white"/>
<path d="M235.185 444.711C234.753 444.711 234.332 444.515 234.052 444.166L171.733 365.742C171.385 365.307 171.318 364.719 171.55 364.217C171.781 363.715 172.275 363.391 172.829 363.372C174.249 363.335 175.717 363.244 177.216 363.152C179.245 363.029 181.335 362.901 183.431 362.894L208.151 268.855C207.395 267.826 206.731 266.748 206.085 265.695C185.643 263.944 184.376 252.805 184.479 249.4C184.717 241.605 192.01 233.179 202.515 232.965C205.317 210.865 223.865 194.196 246.214 193.958C272.981 193.596 290.656 211.049 291.254 238.256C291.948 270.061 276.356 283.582 262.854 289.32L243.204 366.74C243.478 366.801 243.752 366.869 244.02 366.936C244.721 367.114 245.19 367.793 245.105 368.516L236.623 443.413C236.556 443.995 236.148 444.491 235.582 444.65C235.46 444.687 235.32 444.711 235.185 444.711ZM175.784 366.164L234.137 439.592L242.077 369.477C242.034 369.465 241.998 369.459 241.955 369.453L241.096 369.251C240.718 369.159 240.389 368.92 240.188 368.589C239.987 368.253 239.926 367.855 240.023 367.475L260.216 287.899C260.331 287.452 260.648 287.085 261.075 286.907C273.882 281.678 289.011 269.008 288.341 238.329C287.781 212.708 271.92 196.879 246.902 196.879C246.683 196.879 246.464 196.879 246.238 196.885C224.894 197.111 207.267 213.363 205.238 234.679C205.202 235.065 205.013 235.42 204.714 235.671C204.416 235.916 204.038 236.033 203.648 235.996L203.197 235.935C203.051 235.91 202.911 235.88 202.752 235.886C193.917 235.99 187.562 243.142 187.367 249.498C187.142 256.951 194.49 261.941 207.03 262.854C207.493 262.884 207.913 263.142 208.163 263.546L208.413 263.95C209.217 265.26 209.973 266.503 210.868 267.642C211.148 268.004 211.246 268.475 211.13 268.922L185.948 364.738C185.777 365.387 185.265 365.822 184.516 365.822C182.17 365.773 179.733 365.926 177.387 366.066C176.851 366.103 176.315 366.134 175.784 366.164Z" fill="#1A1A1A"/>
<path d="M281.451 209.952C267.412 219.67 253.258 210.448 248.17 205.451C240.743 221.648 219.917 242.56 202.844 235.53C203.709 212.634 223.128 195.653 246.227 195.415C260.186 195.262 273.316 200.118 281.451 209.952Z" fill="#1A1A1A"/>
<path d="M266.834 261.574C266.06 261.574 265.42 260.962 265.384 260.178C265.347 259.37 265.969 258.69 266.773 258.653L275.858 258.255C274.59 249.358 268.284 238.335 268.217 238.219C267.815 237.521 268.052 236.627 268.747 236.223C269.442 235.818 270.331 236.057 270.733 236.755C271.038 237.282 278.185 249.756 278.929 259.535C278.959 259.927 278.825 260.319 278.569 260.613C278.307 260.907 277.942 261.084 277.546 261.103L266.907 261.568C266.876 261.574 266.852 261.574 266.834 261.574Z" fill="#1A1A1A"/>
<path d="M222.427 604.837C221.763 604.837 221.166 604.377 221.014 603.698L166.725 363.195C166.548 362.411 167.035 361.627 167.821 361.449C168.613 361.272 169.381 361.762 169.558 362.552L223.847 603.061C224.024 603.845 223.536 604.628 222.75 604.806C222.64 604.824 222.531 604.837 222.427 604.837Z" fill="#1A1A1A"/>
<path d="M295.489 582.761C294.818 582.761 294.221 582.296 294.069 581.61C284.411 537.122 274.864 493.632 265.255 449.861C259.521 423.732 253.763 397.505 247.945 370.898C247.774 370.108 248.268 369.33 249.054 369.159C249.833 368.987 250.613 369.483 250.784 370.273C256.603 396.88 262.361 423.107 268.094 449.237C277.709 493.014 287.257 536.504 296.908 580.997C297.079 581.781 296.585 582.565 295.799 582.736C295.696 582.749 295.592 582.761 295.489 582.761Z" fill="#1A1A1A"/>
<path d="M314.609 579.65C313.92 579.65 313.311 579.154 313.183 578.45L297.207 490.699C297.091 490.062 297.408 489.42 297.987 489.132C302.599 486.811 304.226 472.488 294.959 439.219C294.739 438.441 295.19 437.639 295.964 437.418C296.732 437.21 297.536 437.657 297.755 438.429C302.526 455.556 309.009 484.625 300.248 491.152L316.047 577.923C316.193 578.713 315.669 579.479 314.877 579.62C314.786 579.644 314.694 579.65 314.609 579.65Z" fill="#1A1A1A"/>
<path d="M573.441 379.324C571.418 377.897 570.005 375.57 570.005 372.325V206.94C559.062 192.984 546.815 180.1 533.416 168.514L381.967 245.169C377.349 247.508 374.436 252.26 374.436 257.459V543.595C374.436 553.839 385.184 560.496 394.287 555.885L573.441 465.189V379.324Z" fill="#1A1A1A"/>
<path d="M473.321 621.089V538.261H438.615V634.897C450.241 630.519 461.805 625.914 473.321 621.089Z" fill="#1A1A1A"/>
<path d="M166.549 576.68C166.098 576.68 165.647 576.472 165.367 576.068C165.105 575.701 139.313 538.708 136.108 473.639C136.065 472.837 136.687 472.151 137.485 472.108C138.283 471.998 138.965 472.69 139.008 473.492C142.17 537.716 167.475 574.004 167.731 574.366C168.2 575.027 168.047 575.933 167.396 576.405C167.14 576.588 166.841 576.68 166.549 576.68Z" fill="#1A1A1A"/>
<path d="M313.854 595.045C329.227 604.23 350.76 623.978 339.902 628.412C331.731 631.749 306.537 604.524 296.489 602.748C296.489 602.748 323.609 623.011 324.243 635.007C324.798 645.05 317.126 646.066 317.126 646.066C317.126 646.066 316.548 647.487 314.805 649.012C277.857 643.586 243.303 630.696 212.71 611.927C282.926 564.163 341.255 580.881 347.768 589.987C353.648 598.223 314.64 592.81 313.854 595.045Z" fill="white"/>
<path d="M314.804 650.463C314.737 650.463 314.664 650.457 314.597 650.451C278.063 645.08 243.527 632.539 211.953 613.164C211.533 612.907 211.271 612.448 211.258 611.952C211.246 611.456 211.49 610.99 211.898 610.709C282.675 562.565 341.881 579.24 348.949 589.123C350.15 590.807 349.9 592.105 349.479 592.901C347.603 596.441 338.524 596.441 324.9 596.049C322.597 595.982 320.007 595.92 317.96 595.914C328.934 603.177 344.891 616.74 344.282 624.909C344.166 626.459 343.405 628.553 340.449 629.759C335.106 631.951 325.326 624.34 314.974 616.293C313.707 615.308 312.434 614.316 311.166 613.348C318.204 620.108 325.357 628.498 325.692 634.927C326.204 644.174 320.288 646.709 318.1 647.328C317.71 647.995 316.979 649.03 315.748 650.108C315.492 650.34 315.151 650.463 314.804 650.463ZM215.414 611.86C245.922 630.237 279.184 642.208 314.329 647.462C315.389 646.403 315.785 645.509 315.791 645.497C315.992 645.025 316.431 644.682 316.942 644.615C317.192 644.578 323.273 643.586 322.804 635.087C322.317 625.809 303.026 609.441 295.635 603.918C295.093 603.514 294.904 602.791 295.166 602.166C295.428 601.548 296.08 601.187 296.75 601.309C301.533 602.154 308.93 607.898 316.76 613.985C325.138 620.5 335.587 628.608 339.365 627.059C341.077 626.361 341.345 625.375 341.394 624.695C341.857 618.498 326.576 604.34 313.122 596.3C312.525 595.945 312.263 595.216 312.494 594.561C313.073 592.914 314.907 592.834 324.997 593.134C330.786 593.306 346.171 593.753 346.932 591.53C346.932 591.53 346.945 591.322 346.603 590.832C340.151 581.83 282.608 567.146 215.414 611.86Z" fill="#1A1A1A"/>
<path d="M313.853 596.502C313.549 596.502 313.244 596.41 312.988 596.215C305.256 590.397 302.794 589.191 302.77 589.179C302.051 588.836 301.74 587.966 302.082 587.237C302.423 586.515 303.282 586.203 304.001 586.533C304.104 586.582 306.627 587.782 314.731 593.875C315.37 594.359 315.504 595.272 315.023 595.921C314.737 596.3 314.298 596.502 313.853 596.502Z" fill="#1A1A1A"/>
<path d="M496.407 612.46C460.513 634.284 419.257 648.056 375.058 651.259C369.751 651.675 364.45 651.884 359.058 651.939L486.737 590.048L496.407 612.46Z" fill="#1A1A1A"/>
<path d="M317.126 647.524C316.413 647.524 315.785 646.991 315.688 646.262C315.03 641.418 303.404 622.711 285.886 615.283C285.149 614.971 284.802 614.113 285.112 613.372C285.423 612.625 286.276 612.282 287.013 612.595C304.854 620.164 317.686 639.422 318.564 645.87C318.673 646.672 318.119 647.407 317.321 647.517C317.253 647.517 317.186 647.524 317.126 647.524Z" fill="#1A1A1A"/>
<path d="M303.927 648.185C303.5 648.185 303.08 647.995 302.794 647.64C302.672 647.487 290.449 632.27 278.147 627.395C277.398 627.101 277.032 626.25 277.325 625.503C277.617 624.756 278.464 624.376 279.207 624.683C292.234 629.839 304.536 645.166 305.054 645.815C305.554 646.446 305.45 647.364 304.829 647.866C304.567 648.081 304.244 648.185 303.927 648.185Z" fill="#1A1A1A"/>
<path d="M424.808 609.496C424.205 609.496 423.645 609.116 423.437 608.51C423.383 608.351 417.82 592.381 406.225 579.521C405.688 578.921 405.731 578.003 406.328 577.458C406.925 576.913 407.845 576.962 408.381 577.556C420.391 590.874 425.954 606.881 426.185 607.555C426.447 608.32 426.045 609.147 425.284 609.41C425.125 609.472 424.961 609.496 424.808 609.496Z" fill="#1A1A1A"/>
<path d="M440.064 609.349C439.473 609.349 438.918 608.982 438.699 608.394C438.614 608.167 430.248 585.449 418.635 572.571C418.099 571.971 418.141 571.052 418.738 570.507C419.329 569.968 420.256 570.011 420.792 570.605C432.795 583.912 441.088 606.434 441.429 607.383C441.703 608.137 441.319 608.976 440.564 609.257C440.399 609.318 440.234 609.349 440.064 609.349Z" fill="#1A1A1A"/>
<path d="M364.716 590.25C363.912 590.25 363.266 589.595 363.266 588.793V561.359C363.266 560.551 363.918 559.902 364.716 559.902C365.514 559.902 366.166 560.557 366.166 561.359V588.793C366.166 589.601 365.52 590.25 364.716 590.25Z" fill="#1A1A1A"/>
<path d="M805.32 475.782C793.975 542.982 751.598 597.09 695.463 625.754C664.284 641.718 628.866 649.832 592.149 647.995C584.015 647.578 575.85 646.721 567.631 645.3C532.827 639.348 501.564 624.983 475.571 604.609C470.709 600.788 465.993 596.759 461.514 592.528C419.844 553.374 395.033 497.521 396.093 437.724C396.124 434.527 396.27 431.294 396.477 428.067C396.922 420.903 397.775 413.677 398.981 406.42C414.275 315.853 485.88 249.1 571.579 236.216C592.618 233.019 614.541 233.105 636.677 236.896C660.604 240.98 682.856 249.039 702.866 260.324C761.097 293.049 800.525 352.9 807.215 420.223C807.483 422.476 807.66 424.754 807.806 427.032C808.86 442.996 808.123 459.316 805.32 475.782Z" fill="#FEFFFE"/>
<path d="M602.268 649.71C598.868 649.71 595.474 649.624 592.074 649.453C583.629 649.024 575.318 648.112 567.379 646.74C533.55 640.953 501.495 626.783 474.673 605.761C469.634 601.799 464.87 597.702 460.513 593.587C417.606 553.27 393.593 496.449 394.635 437.694C394.659 434.809 394.787 431.625 395.019 427.969C395.452 420.952 396.299 413.622 397.541 406.176C412.597 317.017 482.448 248.139 571.352 234.771C593 231.483 615.051 231.709 636.907 235.457C660.529 239.492 682.958 247.428 703.558 259.051C762.637 292.253 801.918 352.454 808.639 420.076C808.907 422.324 809.084 424.632 809.236 426.941C810.327 443.358 809.486 459.879 806.744 476.027C795.807 540.808 754.447 597.268 696.113 627.053C667.031 641.951 634.78 649.71 602.268 649.71ZM601.914 235.389C591.824 235.389 581.765 236.149 571.796 237.661C484.13 250.839 415.26 318.756 400.417 406.666C399.193 414.008 398.358 421.24 397.931 428.159C397.7 431.76 397.578 434.895 397.554 437.737C396.524 495.678 420.202 551.702 462.512 591.456C466.801 595.51 471.499 599.546 476.471 603.458C502.915 624.187 534.519 638.155 567.879 643.862C575.708 645.215 583.897 646.115 592.226 646.538C627.663 648.283 663.137 640.671 694.809 624.45C752.333 595.075 793.108 539.406 803.893 475.531C806.604 459.604 807.433 443.321 806.354 427.124C806.208 424.865 806.031 422.611 805.775 420.388C799.146 353.684 760.413 294.335 702.157 261.592C681.843 250.135 659.731 242.309 636.437 238.329C624.952 236.375 613.418 235.389 601.914 235.389Z" fill="#1A1A1A"/>
<path d="M808.145 434.418C808.145 434.412 808.145 434.412 808.145 434.418C808.151 434.332 808.139 434.246 808.139 434.161C808.072 432.115 807.974 430.082 807.852 428.049C807.834 427.706 807.822 427.364 807.803 427.027C807.657 424.749 807.487 422.471 807.225 420.223C807.164 419.55 807.078 418.852 806.993 418.178C800.516 422.005 794.07 425.827 787.617 429.654C785.936 430.646 784.955 431.981 784.473 433.426C752.332 445.171 697.867 473.156 693.638 519.897C688.959 571.61 694.82 621.303 695.472 625.742C751.607 597.084 793.966 542.976 805.317 475.795C807.682 461.851 808.571 448.012 808.145 434.418Z" fill="white"/>
<path d="M695.474 627.2C695.242 627.2 695.017 627.145 694.81 627.035C694.395 626.82 694.109 626.416 694.036 625.951C693.969 625.467 687.254 574.323 692.19 519.762C696.723 469.592 756.94 442.017 783.348 432.281C784.048 430.676 785.255 429.341 786.876 428.392C793.322 424.571 799.768 420.744 806.251 416.923C806.666 416.672 807.19 416.653 807.622 416.868C808.061 417.082 808.36 417.505 808.427 417.988C808.518 418.68 808.603 419.403 808.664 420.095C808.926 422.33 809.097 424.632 809.249 426.935L809.298 427.97C809.42 430.009 809.523 432.066 809.584 434.124C809.584 434.136 809.597 434.406 809.597 434.418C809.597 434.449 809.597 434.473 809.597 434.504C810.023 448.373 809.066 462.354 806.757 476.04C795.808 540.827 754.448 597.28 696.132 627.047C695.925 627.151 695.699 627.2 695.474 627.2ZM805.801 420.573C799.97 424.02 794.163 427.462 788.35 430.909C787.101 431.644 786.26 432.648 785.846 433.885C785.706 434.308 785.383 434.644 784.962 434.798C759.408 444.136 699.501 471.135 695.084 520.031C690.733 568.114 695.474 613.477 696.656 623.489C753.181 593.894 793.206 538.739 803.887 475.544C806.178 462.005 807.123 448.184 806.69 434.461C806.69 434.418 806.69 434.369 806.69 434.326C806.617 432.128 806.52 430.125 806.398 428.141L806.349 427.112C806.209 424.932 806.044 422.74 805.801 420.573Z" fill="#1A1A1A"/>
<path d="M734.49 318.302C735.245 314.996 731.9 307.617 732.077 304.096C695.397 281.432 663.658 260.851 630.579 233.167C614.225 242.915 601.332 258.249 597.201 275.242C586.039 321.364 594.155 349.582 594.155 349.582L612.677 350.402C612.677 350.402 632.657 393.671 674.711 377.248L756.619 512.946L801.72 427.192L734.49 318.302Z" fill="white"/>
<path d="M756.616 514.404C756.111 514.404 755.635 514.14 755.373 513.699L674.092 379.036C635.243 393.353 614.825 357.702 611.767 351.817L594.091 351.033C593.469 351.009 592.933 350.58 592.762 349.98C592.427 348.81 584.665 320.862 595.797 274.893C599.836 258.273 612.565 242.211 629.845 231.905C630.375 231.587 631.039 231.642 631.514 232.04C662.808 258.23 692.365 277.832 732.841 302.847C733.292 303.128 733.56 303.631 733.53 304.163C733.463 305.529 734.09 307.868 734.7 310.134C735.492 313.085 736.247 315.884 736.016 317.99L802.96 426.408C803.234 426.849 803.252 427.4 803.009 427.859L757.902 513.626C757.658 514.091 757.183 514.385 756.659 514.404C756.647 514.404 756.629 514.404 756.616 514.404ZM674.708 375.784C675.201 375.784 675.683 376.042 675.951 376.489L756.531 509.988L800.048 427.247L733.256 319.074C733.055 318.743 732.988 318.352 733.073 317.978C733.402 316.527 732.598 313.538 731.891 310.905C731.3 308.713 730.739 306.619 730.636 304.923C690.732 280.251 661.4 260.778 630.442 234.955C614.265 244.875 602.402 260 598.612 275.591C588.838 315.97 594.036 342.766 595.297 348.173L612.741 348.945C613.278 348.969 613.765 349.294 613.991 349.79C614.789 351.511 633.921 391.608 674.178 375.895C674.354 375.815 674.531 375.784 674.708 375.784Z" fill="#1A1A1A"/>
<path d="M733.962 320.409C731.105 321.56 728.198 322.522 725.103 323.067C717.919 324.292 684.164 315.412 692.42 306.399C701.681 296.307 694.632 275.174 678.839 280.092C657.86 286.644 585.255 285.064 577.712 254.918C573.794 229.125 619.047 230.675 647.472 223.534C679.954 217.044 700.213 226.094 718.608 252.401C734.907 279.332 738.995 301.628 733.962 320.409Z" fill="#1A1A1A"/>
<path d="M660.988 262.603C657.826 257.796 651.867 260.116 650.173 264.28C646.145 264.47 642.361 267.985 644.634 272.584C648.107 279.602 651.58 286.613 655.053 293.631C657.783 299.148 665.954 298.75 667.16 292.271C669.104 281.8 666.807 271.445 660.988 262.603Z" fill="#1A1A1A"/>
<path d="M648.436 644.811C648.064 644.811 647.692 644.67 647.406 644.383C647.077 644.052 614.168 610.672 595.457 573.49C577.293 537.392 539.486 462.274 487.39 455.575C486.598 455.471 486.032 454.742 486.135 453.94C486.239 453.138 486.97 452.574 487.762 452.678C541.387 459.574 579.657 535.628 598.052 572.174C616.545 608.933 649.143 641.994 649.472 642.319C650.038 642.895 650.038 643.813 649.472 644.389C649.179 644.67 648.807 644.811 648.436 644.811Z" fill="#1A1A1A"/>
<path d="M561.998 585.302L475.568 604.61C470.706 600.789 465.99 596.759 461.511 592.528C419.841 553.374 395.03 497.521 396.09 437.724C396.121 434.528 396.267 431.294 396.474 428.067L459.36 414.032C463.601 413.083 468.025 414.889 470.413 418.564L568.511 569.222C572.52 575.406 569.163 583.704 561.998 585.302Z" fill="#1A1A1A"/>
<path d="M550.63 572.626L461.52 592.528C419.849 553.374 395.038 497.521 396.099 437.724L461.075 423.211C464.816 422.385 468.648 423.952 470.738 427.149L556.315 558.585C559.825 563.98 556.876 571.23 550.63 572.626Z" fill="white"/>
<path d="M461.079 594.12L460.518 593.593C417.611 553.276 393.599 496.455 394.64 437.7L394.659 436.549L460.75 421.785C465.1 420.817 469.5 422.611 471.949 426.347L557.526 557.783C559.433 560.716 559.786 564.402 558.47 567.648C557.154 570.893 554.339 573.282 550.939 574.041L461.079 594.12ZM397.529 438.9C396.834 496.168 420.262 551.476 461.944 590.936L550.305 571.2C552.816 570.642 554.808 568.946 555.777 566.558C556.746 564.164 556.496 561.549 555.088 559.387L469.524 427.951C467.751 425.238 464.552 423.946 461.384 424.638L397.529 438.9Z" fill="#1A1A1A"/>
<path d="M399.954 465.017C399.29 465.017 398.687 464.558 398.534 463.872C398.364 463.088 398.857 462.305 399.637 462.133L461 448.429C461.792 448.263 462.56 448.753 462.731 449.537C462.901 450.321 462.408 451.105 461.628 451.276L400.265 464.981C400.161 465.011 400.057 465.017 399.954 465.017Z" fill="#1A1A1A"/>
<path d="M400.903 489.628C400.239 489.628 399.636 489.169 399.483 488.483C399.313 487.699 399.806 486.915 400.586 486.744L473.093 470.553C473.879 470.381 474.653 470.877 474.824 471.661C474.994 472.445 474.501 473.229 473.721 473.4L401.214 489.591C401.11 489.616 401.007 489.628 400.903 489.628Z" fill="#1A1A1A"/>
<path d="M540.077 494.184C518.02 483.241 500.009 480.938 488.591 484.649C479.427 487.631 480.584 496.039 491.308 498.935C526.629 508.482 534.538 536.32 552.336 539.945" fill="white"/>
<path d="M552.34 541.402C552.243 541.402 552.145 541.396 552.048 541.372C544.042 539.737 538.034 533.589 531.082 526.461C522.064 517.221 510.841 505.72 490.929 500.338C484.884 498.703 481.07 495.182 480.966 491.146C480.881 487.693 483.562 484.741 488.138 483.253C500.879 479.114 520.047 482.61 540.715 492.867C541.434 493.222 541.726 494.098 541.373 494.821C541.02 495.543 540.142 495.837 539.429 495.482C519.438 485.562 501.073 482.108 489.04 486.027C485.756 487.099 483.824 488.979 483.879 491.073C483.946 493.724 487.011 496.253 491.69 497.521C512.364 503.112 523.898 514.924 533.159 524.416C539.777 531.201 545.492 537.055 552.633 538.512C553.419 538.671 553.925 539.443 553.766 540.233C553.626 540.931 553.017 541.402 552.34 541.402Z" fill="#1A1A1A"/>
<path d="M535.055 638.338C534.732 638.338 534.403 638.228 534.135 638.008C533.508 637.487 518.622 624.885 508.197 592.607C507.947 591.842 508.368 591.015 509.129 590.77C509.891 590.525 510.714 590.942 510.957 591.707C521.09 623.084 535.835 635.632 535.981 635.754C536.597 636.268 536.682 637.187 536.177 637.812C535.884 638.161 535.47 638.338 535.055 638.338Z" fill="#1A1A1A"/>
<path d="M525.246 625.62C524.741 625.62 524.247 625.35 523.979 624.879C523.583 624.175 523.833 623.287 524.527 622.889L599.112 580.544C599.807 580.146 600.696 580.391 601.092 581.095C601.488 581.8 601.239 582.687 600.544 583.085L525.959 625.43C525.734 625.559 525.49 625.62 525.246 625.62Z" fill="#1A1A1A"/>
<path d="M186.516 584.114C186.126 584.114 185.736 583.955 185.45 583.649C184.901 583.061 184.938 582.136 185.523 581.585L200.25 567.844L186.455 495.316L151.773 501.654C150.987 501.777 150.226 501.274 150.086 500.478C149.939 499.682 150.463 498.923 151.255 498.782L187.351 492.187C188.124 492.058 188.886 492.561 189.038 493.351L203.26 568.101C203.351 568.597 203.186 569.099 202.821 569.442L187.509 583.728C187.229 583.985 186.875 584.114 186.516 584.114Z" fill="#1A1A1A"/>
<path d="M185.993 568.854C183.945 568.854 182.117 567.397 181.715 565.302L166.617 486.278C166.166 483.902 167.707 481.606 170.077 481.152C172.429 480.687 174.72 482.249 175.177 484.624L190.276 563.649C190.727 566.025 189.185 568.321 186.815 568.774C186.541 568.83 186.267 568.854 185.993 568.854Z" fill="#1A1A1A"/>
<path d="M179.933 496.431C179.245 496.431 178.63 495.935 178.508 495.225L177.521 489.646L172.043 490.779C171.251 490.938 170.489 490.43 170.331 489.64C170.172 488.85 170.678 488.079 171.464 487.913L178.404 486.48C178.788 486.401 179.184 486.48 179.513 486.701C179.836 486.921 180.061 487.27 180.128 487.656L181.371 494.71C181.512 495.5 180.987 496.26 180.195 496.401C180.104 496.419 180.019 496.431 179.933 496.431Z" fill="#1A1A1A"/>
<path d="M487.311 403.64C486.969 403.64 486.628 403.518 486.354 403.279C485.751 402.746 485.69 401.828 486.22 401.222L500.856 384.412C501.386 383.8 502.3 383.751 502.903 384.278C503.506 384.81 503.567 385.729 503.037 386.335L488.401 403.144C488.115 403.469 487.713 403.64 487.311 403.64Z" fill="#1A1A1A"/>
<path d="M509.61 422.556C509.153 422.556 508.696 422.336 508.416 421.925C507.959 421.264 508.123 420.352 508.787 419.898L538.064 399.581C538.722 399.121 539.63 399.287 540.081 399.954C540.538 400.615 540.373 401.528 539.709 401.981L510.432 422.299C510.183 422.47 509.896 422.556 509.61 422.556Z" fill="#1A1A1A"/>
<path d="M709.036 618.853C708.298 618.853 707.671 618.296 707.598 617.543L703.625 578.438C703.54 577.635 704.125 576.919 704.923 576.839C705.703 576.754 706.434 577.335 706.513 578.144L710.486 617.249C710.571 618.051 709.986 618.768 709.188 618.847C709.133 618.847 709.084 618.853 709.036 618.853Z" fill="#1A1A1A"/>
<path d="M214.013 270.153C213.702 266.166 210.85 262.75 206.646 262.75C203.277 262.75 199.779 265.505 199.334 268.977C200.76 270.637 201.662 272.762 201.65 274.942C201.638 277.275 201.449 279.595 201.242 281.916C201.01 284.451 200.291 286.503 198.579 288.377C197.97 289.044 197.226 289.528 196.44 289.932C198.64 291.089 201.376 291.187 203.587 289.834C210.284 285.756 214.634 278.114 214.013 270.153Z" fill="#1A1A1A"/>
<path d="M540.107 211.042C539.735 211.042 539.363 210.902 539.077 210.614L522.376 193.829C521.809 193.26 521.809 192.335 522.376 191.765C522.942 191.196 523.862 191.196 524.429 191.765L541.13 208.55C541.697 209.12 541.697 210.044 541.13 210.614C540.85 210.902 540.478 211.042 540.107 211.042Z" fill="white"/>
<path d="M602.273 649.704C598.873 649.704 595.48 649.618 592.08 649.447C583.421 649.012 575.342 648.124 567.384 646.74C533.525 640.947 501.47 626.777 474.685 605.761C469.695 601.848 464.924 597.752 460.525 593.588C417.605 553.276 393.593 496.468 394.653 437.712C394.677 434.785 394.805 431.601 395.031 427.982C395.463 420.872 396.31 413.53 397.547 406.17C412.621 317.005 482.472 248.127 571.363 234.771C592.896 231.483 614.953 231.71 636.918 235.445C660.529 239.474 682.951 247.416 703.558 259.051C761.905 291.843 801.114 351.266 808.425 418.013C808.511 418.674 808.596 419.397 808.663 420.083C808.925 422.318 809.095 424.62 809.248 426.923C809.394 429.403 809.54 431.901 809.595 434.369C810.04 448.233 809.083 462.243 806.756 476.015C795.807 540.784 754.447 597.243 696.124 627.034C667.03 641.945 634.774 649.704 602.273 649.704ZM601.871 235.39C591.775 235.39 581.728 236.149 571.802 237.662C484.147 250.827 415.278 318.744 400.411 406.66C399.192 413.916 398.357 421.154 397.931 428.166C397.705 431.736 397.584 434.871 397.559 437.755C396.517 495.696 420.195 551.715 462.517 591.457C466.855 595.559 471.553 599.601 476.476 603.459C502.877 624.181 534.488 638.149 567.878 643.862C575.72 645.228 583.683 646.097 592.226 646.532C627.657 648.32 663.118 640.665 694.82 624.444C752.333 595.063 793.107 539.394 803.904 475.531C806.201 461.955 807.14 448.135 806.701 434.461C806.646 432.011 806.5 429.543 806.36 427.112C806.214 424.871 806.043 422.618 805.781 420.395C805.72 419.703 805.635 419.029 805.549 418.374C798.335 352.534 759.675 293.943 702.144 261.611C681.824 250.141 659.718 242.309 636.443 238.335C624.909 236.37 613.356 235.39 601.871 235.39Z" fill="#1A1A1A"/>
<path d="M488.37 559.32C488.175 559.32 487.986 559.283 487.804 559.204L466.417 550.086C465.68 549.773 465.332 548.916 465.649 548.175C465.96 547.428 466.819 547.085 467.55 547.403L487.097 555.732L490.807 512.799C490.88 511.997 491.587 511.434 492.379 511.47C493.178 511.538 493.775 512.248 493.702 513.05L489.814 557.991C489.772 558.457 489.516 558.873 489.114 559.118C488.888 559.253 488.632 559.32 488.37 559.32Z" fill="#1A1A1A"/>
<path d="M373.268 631.737C372.725 631.737 372.201 631.431 371.951 630.904C371.604 630.176 371.915 629.306 372.64 628.957L385.965 622.613C386.684 622.276 387.556 622.583 387.897 623.311C388.244 624.04 387.933 624.909 387.208 625.259L373.883 631.603C373.688 631.694 373.481 631.737 373.268 631.737Z" fill="#1A1A1A"/>
<path d="M346 644.443C345.458 644.443 344.934 644.137 344.684 643.611C344.337 642.882 344.648 642.012 345.373 641.663L358.698 635.319C359.424 634.982 360.289 635.282 360.63 636.017C360.977 636.746 360.667 637.616 359.941 637.965L346.622 644.302C346.421 644.4 346.208 644.443 346 644.443Z" fill="#1A1A1A"/>
<path d="M350.131 612.956C349.576 612.956 349.052 612.638 348.809 612.099C348.48 611.364 348.796 610.501 349.528 610.164L373.65 599.117C374.381 598.786 375.24 599.105 375.575 599.839C375.904 600.574 375.587 601.438 374.856 601.774L350.734 612.821C350.539 612.913 350.332 612.956 350.131 612.956Z" fill="#1A1A1A"/>
<path d="M444.824 593.951C444.227 593.951 443.672 593.577 443.459 592.989C443.398 592.824 437.592 576.798 430.865 569.818C430.31 569.236 430.323 568.317 430.901 567.754C431.474 567.197 432.394 567.203 432.955 567.791C440.114 575.219 445.951 591.317 446.195 591.997C446.469 592.756 446.079 593.589 445.324 593.865C445.159 593.92 444.989 593.951 444.824 593.951Z" fill="#1A1A1A"/>
</g>
<defs>
<filter id="filter0_d" x="0.879883" y="0.5" width="929.821" height="753" filterUnits="userSpaceOnUse" color-interpolation-filters="sRGB">
<feFlood flood-opacity="0" result="BackgroundImageFix"/>
<feColorMatrix in="SourceAlpha" type="matrix" values="0 0 0 0 0 0 0 0 0 0 0 0 0 0 0 0 0 0 127 0"/>
<feOffset dx="21"/>
<feGaussianBlur stdDeviation="50"/>
<feColorMatrix type="matrix" values="0 0 0 0 0.887069 0 0 0 0 0.878628 0 0 0 0 0.920833 0 0 0 1 0"/>
<feBlend mode="normal" in2="BackgroundImageFix" result="effect1_dropShadow"/>
<feBlend mode="normal" in="SourceGraphic" in2="effect1_dropShadow" result="shape"/>
</filter>
<radialGradient id="paint0_radial" cx="0" cy="0" r="1" gradientUnits="userSpaceOnUse" gradientTransform="translate(553.5 644) rotate(-128.639) scale(644.607 616.105)">
<stop offset="0.682682" stop-color="white"/>
<stop offset="1" stop-color="#DFD9F3"/>
</radialGradient>
</defs>
</svg>
