<svg width="447" height="539" viewBox="0 0 447 539" fill="none" xmlns="http://www.w3.org/2000/svg">
<path d="M199.003 400C308.909 400 398.006 310.457 398.006 200C398.006 89.543 308.909 0 199.003 0C89.0967 0 0 89.543 0 200C0 310.457 89.0967 400 199.003 400Z" fill="url(#paint0_linear)"/>
<path d="M169.859 451.452H350.568V539H169.859V451.452Z" fill="#1A1A1A"/>
<path d="M105.612 372.158C104.921 378.817 104.944 383.549 109.195 384.943C136.834 393.993 143.253 297.211 164.913 298.275C198.435 299.927 190.974 402.886 175.037 425.399C157.312 450.438 122.496 461.117 93.37 453.865C49.1205 442.849 33.7577 388.231 43.0244 352.843C43.6151 353.056 44.2057 353.274 44.8019 353.487C63.77 360.336 83.9472 365.236 103.155 371.369C103.974 371.637 104.793 371.895 105.612 372.158Z" fill="white"/>
<path d="M111.923 457.324C137.132 457.324 162.185 445.63 175.999 426.114C188.453 408.523 196.187 339.96 182.084 310.749C177.876 302.03 172.109 297.432 164.949 297.079C154.211 296.519 147.279 316.938 140.052 338.532C131.849 363.016 123.357 388.324 109.549 383.799C106.312 382.74 106.078 379.089 106.785 372.285C106.847 371.719 106.495 371.181 105.955 371.008L103.498 370.224C95.858 367.788 87.9398 365.503 80.2779 363.296C68.6318 359.942 56.5901 356.47 45.1836 352.353L43.4061 351.715C43.0885 351.603 42.7374 351.625 42.4421 351.782C42.1468 351.939 41.9238 352.213 41.8402 352.544C35.9726 374.95 40.0571 402.766 52.2437 423.409C61.9618 439.873 76.0764 450.811 93.0607 455.039C99.2459 456.584 105.593 457.324 111.923 457.324ZM164.553 299.482C164.648 299.482 164.743 299.482 164.843 299.487C171.061 299.796 176.138 303.934 179.933 311.802C193.746 340.419 186.224 407.515 174.048 424.714C157.304 448.363 123.491 460.141 93.6458 452.709C77.2967 448.638 63.6947 438.087 54.311 422.188C42.6705 402.464 38.6139 376.031 43.8463 354.442L44.3812 354.633C55.8546 358.777 67.9408 362.255 79.6203 365.626C87.2655 367.827 95.167 370.106 102.773 372.531L104.306 373.024C103.709 379.268 103.815 384.465 108.808 386.1C124.934 391.37 133.761 364.898 142.331 339.305C148.889 319.721 155.665 299.482 164.553 299.482Z" fill="#1A1A1A"/>
<path d="M155.673 348.678C155.673 400.402 155.673 459.517 155.673 459.517H360.21C360.21 459.517 361.469 377.469 358.705 325.605C359.736 326.91 360.767 328.277 361.815 329.766C366.144 335.96 376.347 355.595 371.873 363.384C370.039 366.593 367.42 367.881 364.244 367.713C364.946 380.577 364.657 393.603 365.069 406.304C365.481 418.754 365.855 431.225 366.183 443.675C417.543 444.212 451.222 396.241 443.8 344.394C435.843 288.717 391.799 246.335 339.057 233.14C326.319 229.948 307.73 228.089 291.303 227.008C273.577 225.827 258.348 225.558 255.646 225.519C242.763 225.334 231.529 226.202 221.761 228.005C150.107 241.154 155.673 303.171 155.673 348.678Z" fill="white"/>
<path d="M155.692 460.723H360.228C360.886 460.723 361.421 460.197 361.426 459.536C361.437 458.735 362.596 380.887 360.117 329.432C360.362 329.768 360.607 330.11 360.852 330.462C365.31 336.847 374.839 355.837 370.849 362.781C369.328 365.441 367.21 366.645 364.324 366.511C364.029 366.472 363.655 366.617 363.41 366.864C363.17 367.105 363.042 367.441 363.065 367.782C363.471 375.275 363.544 382.942 363.616 390.357C363.666 395.615 363.716 401.059 363.889 406.345C364.302 418.794 364.675 431.26 365.004 443.704C365.02 444.354 365.544 444.869 366.191 444.88C388.892 445.115 409.582 435.858 424.438 418.811C441.495 399.238 448.989 372.05 445.011 344.222C437.405 290.987 394.949 245.872 339.371 231.972C328.533 229.256 312.396 227.184 291.405 225.806C273.724 224.624 258.551 224.356 255.692 224.311C243.065 224.132 231.592 224.972 221.573 226.814C153.652 239.286 154.087 294.84 154.438 339.479C154.466 342.604 154.488 345.678 154.488 348.68V459.519C154.488 460.18 155.023 460.723 155.692 460.723ZM359.047 458.309H156.89V348.674C156.89 345.667 156.867 342.587 156.839 339.451C156.494 295.713 156.065 241.285 222.002 229.177C231.865 227.357 243.165 226.528 255.653 226.713C258.506 226.758 273.618 227.027 291.249 228.203C312.1 229.569 328.093 231.619 338.792 234.301C393.434 247.972 435.17 292.28 442.637 344.558C446.521 371.686 439.232 398.169 422.638 417.215C408.501 433.433 388.914 442.377 367.378 442.466C367.054 430.404 366.692 418.324 366.296 406.261C366.124 401.003 366.074 395.576 366.023 390.329C365.957 383.3 365.89 376.048 365.533 368.908C368.704 368.689 371.189 367.037 372.939 363.98C377.853 355.423 367.244 335.396 362.825 329.068C361.761 327.55 360.713 326.173 359.671 324.845C359.348 324.431 358.791 324.285 358.306 324.465C357.815 324.649 357.503 325.131 357.531 325.657C360.078 373.517 359.181 448.016 359.047 458.309Z" fill="#1A1A1A"/>
<path d="M351.267 361.998C352.778 377.953 352.003 394.535 352.516 410.294C352.867 421.058 353.201 431.827 353.496 442.596C352.638 442.461 351.791 442.355 350.922 442.193C330.466 438.334 288.513 408.653 267.99 377.863C284.272 361.5 300.554 345.136 316.836 328.772C328.12 341.221 340.708 354.594 351.267 361.998Z" fill="white"/>
<path d="M353.51 443.779C353.8 443.779 354.084 443.673 354.301 443.483C354.569 443.247 354.719 442.9 354.708 442.542C354.413 431.773 354.078 421.004 353.733 410.234C353.549 404.573 353.527 398.676 353.51 392.975C353.477 382.726 353.443 372.125 352.474 361.871C352.44 361.518 352.251 361.199 351.967 360.992C341.63 353.745 329.41 340.826 317.742 327.94C317.519 327.699 317.207 327.553 316.883 327.548C316.538 327.531 316.237 327.671 316.009 327.901L267.162 376.992C266.755 377.401 266.694 378.039 267.011 378.515C287.718 409.59 329.739 439.394 350.718 443.354C351.292 443.466 351.866 443.55 352.44 443.634L353.326 443.768C353.388 443.774 353.449 443.779 353.51 443.779ZM350.139 362.65C351.047 372.629 351.081 382.973 351.114 392.98C351.131 398.704 351.147 404.617 351.337 410.313C351.671 420.595 351.989 430.882 352.273 441.17C351.905 441.114 351.532 441.052 351.164 440.985C330.942 437.171 289.607 407.485 269.558 377.994L316.817 330.499C328.151 342.987 339.964 355.392 350.139 362.65Z" fill="#1A1A1A"/>
<path d="M209.361 132.67C192.694 129.836 182.124 112.335 188.939 96.3691C197.71 75.8163 220.389 78.706 237.563 85.4095C254.018 83.847 273.125 88.2936 283.061 101.314C296.841 119.38 299.159 140.706 298.262 162.44C312.872 171.064 329.45 187.96 314.617 204.542C300.541 220.279 270.166 222.256 250.73 222.177C231.394 222.093 207.266 216.835 201.298 195.257C197.308 180.842 207.411 166.091 221.364 165.285C219.72 154.017 215.452 142.767 213.747 131.46C212.638 132.423 211.15 132.972 209.361 132.67Z" fill="#1A1A1A"/>
<path d="M269.242 148.952C267.532 149.283 265.821 149.619 264.11 149.955C262.255 150.313 260.739 151.708 260.906 153.752C260.951 154.295 261.196 154.827 261.514 155.325C261.001 156.417 260.962 157.672 261.748 158.781C262.767 160.22 265.191 160.847 266.629 159.598C268.273 158.176 272.993 151.495 272.43 149.944C271.945 148.605 270.73 148.661 269.242 148.952Z" fill="#1A1A1A"/>
<path d="M197.717 121.845C202.56 123.48 238.59 122.589 247.969 122.321C255.72 125.86 261.922 127.77 267.55 128.016V127.086C267.449 108.421 252.894 94.2356 234.099 93.4292C222.743 92.9307 211.921 96.5373 205.04 104.327C201.1 108.774 198.442 114.615 197.717 121.845Z" fill="#1A1A1A"/>
<path d="M197.486 127.171C198.762 103.661 214.715 92.5781 234.09 93.4293C252.189 94.2189 266.487 108.634 267.602 126.403C267.914 126.381 268.181 126.319 268.488 126.342C283.059 126.986 290.643 149.499 264.264 150.557C263.501 151.716 262.759 152.875 261.873 153.934L281.165 226.434C284.402 226.58 287.824 226.787 291.323 227.016C289.055 235.221 284.252 242.383 277.721 247.317C271.887 251.708 264.693 254.317 256.658 254.317C251.693 254.317 246.784 253.158 242.27 251.109C232.602 246.718 224.712 238.206 221.781 228.013C225.553 227.33 229.532 226.77 233.756 226.378L219.1 168.606C206.306 162.877 196.226 150.367 197.486 127.171Z" fill="white"/>
<path d="M256.655 255.505C264.612 255.505 272.146 253.002 278.437 248.264C285.163 243.19 290.145 235.753 292.474 227.325C292.574 226.972 292.507 226.597 292.295 226.305C292.089 226.009 291.755 225.824 291.393 225.801C288.194 225.594 285.068 225.404 282.087 225.258L263.18 154.209C263.81 153.402 264.378 152.557 264.919 151.728C281.619 150.843 282.945 141.799 282.951 139.021C282.962 132.659 277.245 125.603 268.697 125.144C266.986 107.077 252.325 93.0153 234.132 92.2201C212.355 91.324 197.483 104.961 196.279 127.104C194.875 153.005 207.223 164.429 218.078 169.458L232.243 225.303C228.649 225.673 225.066 226.182 221.566 226.815C221.232 226.877 220.937 227.078 220.758 227.364C220.58 227.649 220.53 228.008 220.624 228.333C223.572 238.598 231.479 247.519 241.771 252.195C246.619 254.385 251.623 255.505 256.655 255.505ZM289.738 228.109C287.403 235.439 282.917 241.868 276.999 246.337C271.126 250.756 264.088 253.097 256.655 253.097C252.036 253.097 247.232 252.027 242.763 249.994C233.536 245.805 226.364 237.999 223.333 228.949C226.793 228.355 230.331 227.896 233.864 227.565C234.215 227.532 234.533 227.347 234.734 227.061C234.94 226.776 235.001 226.412 234.917 226.07L220.262 168.299C220.173 167.94 219.922 167.643 219.588 167.492C209.302 162.9 197.327 152.187 198.681 127.232C199.823 106.221 213.325 93.6369 234.037 94.6282C251.4 95.3842 265.314 109.077 266.407 126.476C266.429 126.796 266.574 127.098 266.813 127.311C267.053 127.524 267.371 127.636 267.688 127.608L268.05 127.568C268.173 127.557 268.29 127.535 268.413 127.546C275.601 127.86 280.577 133.846 280.566 139.021C280.555 145.08 274.442 148.944 264.222 149.353C263.838 149.37 263.481 149.572 263.269 149.896L263.08 150.182C262.383 151.24 261.726 152.243 260.957 153.161C260.706 153.464 260.617 153.873 260.717 154.248L280.009 226.742C280.142 227.252 280.594 227.61 281.117 227.633C283.87 227.745 286.768 227.913 289.738 228.109Z" fill="#1A1A1A"/>
<path d="M205.038 104.322C216.21 112.611 240.177 113.003 247.621 112.527C255.328 124.976 262.254 126.527 267.553 127.087C267.453 108.422 252.898 94.2366 234.103 93.4301C222.741 92.9261 211.92 96.5326 205.038 104.322Z" fill="#1A1A1A"/>
<path d="M215.632 146.768C216.25 146.768 216.78 146.286 216.83 145.653C216.88 144.987 216.384 144.41 215.721 144.359L208.355 143.794C209.625 136.592 215.041 127.805 215.097 127.716C215.448 127.15 215.275 126.405 214.713 126.053C214.15 125.7 213.409 125.868 213.058 126.439C212.796 126.859 206.644 136.827 205.78 144.774C205.747 145.099 205.842 145.423 206.048 145.676C206.254 145.928 206.555 146.084 206.878 146.107L215.526 146.773C215.571 146.768 215.599 146.768 215.632 146.768Z" fill="#1A1A1A"/>
<path d="M316.845 328.746C307.979 315.418 270.65 271.904 233.823 264.4C196.996 256.895 158.174 270.403 157.678 277.403C157.182 284.404 183.678 280.472 183.678 280.472C183.678 280.472 178.084 291.908 193.017 297.413C193.017 297.413 197.002 306.418 203.471 306.917C203.471 306.917 208.988 316.7 218.901 314.421C218.901 314.421 252.908 359.732 268.004 377.843C295.475 353.101 316.845 328.746 316.845 328.746Z" fill="white"/>
<path d="M267.97 379.03C268.266 379.03 268.55 378.923 268.773 378.722C295.988 354.226 317.508 329.771 317.72 329.53C318.082 329.115 318.121 328.516 317.82 328.057C310.526 317.092 272.684 271.07 234.041 263.201C201.604 256.599 168.772 265.923 159.506 273.007C157.555 274.497 156.558 275.903 156.458 277.303C156.38 278.439 156.792 279.47 157.661 280.282C161.69 284.045 176.328 282.617 181.878 281.917C181.388 283.782 181.026 286.733 182.263 289.836C183.74 293.532 187.049 296.394 192.109 298.354C193.04 300.252 196.807 307.14 202.73 308.036C204.101 310.097 209.562 317.282 218.36 315.737C222.461 321.191 253.048 361.809 267.045 378.598C267.251 378.85 267.552 379.002 267.876 379.03C267.915 379.03 267.942 379.03 267.97 379.03ZM315.301 328.628C311.635 332.739 292.204 354.282 268.098 376.084C252.819 357.609 220.16 314.118 219.831 313.67C219.547 313.289 219.062 313.116 218.605 313.222C209.679 315.266 204.541 306.39 204.485 306.3C204.29 305.947 203.934 305.723 203.532 305.69C197.865 305.247 194.121 296.982 194.087 296.898C193.953 296.601 193.708 296.366 193.402 296.254C188.743 294.54 185.746 292.076 184.492 288.928C182.87 284.868 184.709 281.021 184.726 280.982C184.921 280.579 184.882 280.103 184.62 279.739C184.352 279.375 183.912 279.201 183.472 279.257C175.671 280.416 162.208 281.239 159.288 278.507C158.948 278.193 158.815 277.879 158.848 277.471C158.865 277.235 159.065 276.362 160.954 274.922C169.664 268.269 202.284 259.186 233.561 265.559C270.573 273.102 306.987 316.605 315.301 328.628Z" fill="#1A1A1A"/>
<path d="M204.193 308.296C204.265 308.296 204.338 308.29 204.405 308.279C205.057 308.162 205.491 307.534 205.374 306.879C203.942 298.86 212.908 294.234 216.48 293.131C217.115 292.935 217.472 292.263 217.271 291.625C217.076 290.986 216.413 290.617 215.772 290.829C210.629 292.42 201.334 297.914 203.011 307.305C203.117 307.887 203.624 308.296 204.193 308.296Z" fill="#1A1A1A"/>
<path d="M193.011 298.611C193.067 298.611 193.123 298.605 193.179 298.6C193.836 298.51 194.293 297.9 194.204 297.239C193.518 292.221 199.849 282.852 210.001 280.192C210.642 280.024 211.027 279.363 210.86 278.719C210.692 278.075 210.046 277.677 209.394 277.856C197.631 280.942 191.028 291.762 191.824 297.564C191.908 298.174 192.426 298.611 193.011 298.611Z" fill="#1A1A1A"/>
<path d="M183.65 281.663C184.129 281.663 184.586 281.372 184.77 280.89C187.55 273.688 200.667 268.435 200.801 268.385C201.419 268.138 201.72 267.438 201.481 266.822C201.241 266.2 200.545 265.898 199.926 266.139C199.347 266.368 185.695 271.834 182.535 280.022C182.295 280.644 182.602 281.344 183.22 281.584C183.36 281.64 183.505 281.663 183.65 281.663Z" fill="#1A1A1A"/>
<path d="M218.877 315.614C219.089 315.614 219.306 315.559 219.501 315.435C219.63 315.357 222.65 313.481 223.146 310.266C223.452 308.29 222.761 306.313 221.089 304.381C220.655 303.882 219.897 303.821 219.395 304.263C218.894 304.7 218.844 305.462 219.278 305.966C220.46 307.332 220.967 308.654 220.772 309.897C220.449 311.986 218.275 313.363 218.253 313.38C217.685 313.722 217.506 314.467 217.852 315.038C218.08 315.407 218.476 315.614 218.877 315.614Z" fill="#1A1A1A"/>
<path d="M100.53 369.003H194.924C200.251 369.003 203.935 363.649 202.057 358.637L156.152 236.323C155.032 233.338 152.191 231.367 149.02 231.367H54.6256C49.2985 231.367 45.6152 236.721 47.4931 241.733L93.3975 364.047C94.5175 367.026 97.3594 369.003 100.53 369.003Z" fill="#1A1A1A"/>
<path d="M109.891 295.725C104.487 295.725 100.106 291.322 100.106 285.891C100.106 280.46 104.487 276.057 109.891 276.057C115.295 276.057 119.676 280.46 119.676 285.891C119.676 291.322 115.295 295.725 109.891 295.725Z" fill="white"/>
<path d="M109.873 296.93C115.93 296.93 120.856 291.979 120.856 285.892C120.856 279.804 115.93 274.854 109.873 274.854C103.816 274.854 98.8897 279.804 98.8897 285.892C98.8897 291.979 103.816 296.93 109.873 296.93ZM109.873 277.267C114.604 277.267 118.454 281.137 118.454 285.892C118.454 290.647 114.604 294.516 109.873 294.516C105.142 294.516 101.291 290.647 101.291 285.892C101.291 281.137 105.142 277.267 109.873 277.267Z" fill="#1A1A1A"/>
<path d="M104.176 371.867C118.887 334.889 136.183 322.803 129.474 309.817C129.474 309.817 132.048 298.454 124.882 298.398C124.882 298.398 125.78 283.63 110.322 293.61C94.8645 303.589 85.8541 312.04 85.8541 312.04C85.8541 312.04 113.019 282.801 106.628 277.128C100.236 271.455 78.5656 302.256 75.0885 304.071C62.1719 310.819 70.7755 279.861 66.7022 274.855C63.9049 271.422 59.6811 271.965 54.9224 294.427C50.5593 315.036 44.686 353.201 44.686 353.201C44.686 353.201 80.9115 364.816 104.176 371.867Z" fill="white"/>
<path d="M104.181 373.065C104.66 373.065 105.112 372.774 105.295 372.309C111.347 357.105 117.761 346.257 122.915 337.543C130.204 325.223 134.65 317.701 130.744 309.643C131.051 308.024 131.881 302.374 129.44 299.277C128.593 298.201 127.468 297.535 126.086 297.294C125.991 295.345 125.423 291.515 122.492 289.784C119.555 288.054 115.253 288.995 109.681 292.596C104.298 296.073 99.6675 299.383 95.9285 302.217C102.125 294.528 109.057 284.671 108.8 279.329C108.739 278.018 108.277 276.971 107.43 276.221C106.599 275.481 105.552 275.14 104.365 275.235C98.8205 275.621 90.1834 285.22 81.0727 295.877C78.2587 299.17 75.35 302.575 74.5364 303.001C72.8814 303.863 71.6388 304.048 70.8531 303.544C68.3846 301.97 68.7022 294.108 68.9585 287.796C69.2093 281.625 69.421 276.293 67.6323 274.093C65.9829 272.06 64.406 271.936 63.3639 272.188C61.1183 272.737 57.6858 275.61 53.7517 294.18C49.4332 314.588 43.5601 352.641 43.5043 353.022C43.4152 353.61 43.7606 354.176 44.3234 354.355C44.6856 354.472 80.8331 366.054 103.836 373.02C103.947 373.048 104.064 373.065 104.181 373.065ZM119.176 291.347C119.99 291.347 120.686 291.515 121.271 291.856C123.907 293.413 123.69 298.269 123.69 298.319C123.667 298.649 123.784 298.974 124.013 299.215C124.236 299.456 124.553 299.596 124.882 299.602C126.069 299.613 126.944 299.994 127.557 300.772C129.301 302.978 128.694 307.856 128.315 309.547C128.253 309.828 128.287 310.119 128.42 310.371C132.042 317.388 127.83 324.511 120.853 336.317C115.771 344.907 109.48 355.548 103.479 370.394C82.6218 364.054 51.8906 354.237 46.0341 352.367C46.9981 346.156 52.1915 313.143 56.1033 294.679C59.7754 277.318 62.8011 274.804 63.9323 274.529C64.4505 274.401 65.0802 274.765 65.7768 275.616C66.986 277.1 66.7575 282.728 66.5624 287.69C66.2392 295.693 65.9328 303.253 69.5659 305.571C71.1317 306.574 73.1768 306.423 75.6453 305.135C76.8155 304.524 78.9385 302.077 82.8949 297.445C89.1135 290.165 99.5281 277.985 104.526 277.637C105.084 277.598 105.496 277.721 105.836 278.024C106.187 278.332 106.371 278.797 106.399 279.441C106.722 286.239 91.0471 304.681 84.9789 311.211C84.5331 311.687 84.5499 312.426 85.0068 312.885C85.4637 313.344 86.2048 313.356 86.6729 312.913C86.7621 312.829 95.7947 304.412 110.968 294.617C114.334 292.45 117.114 291.347 119.176 291.347Z" fill="#1A1A1A"/>
<path d="M95.9416 324.449C96.2202 324.449 96.4932 324.354 96.7217 324.158L125.658 299.299C126.16 298.868 126.221 298.106 125.792 297.597C125.363 297.093 124.605 297.031 124.098 297.462L95.1615 322.321C94.66 322.752 94.5987 323.514 95.0278 324.024C95.2674 324.309 95.6073 324.449 95.9416 324.449Z" fill="#1A1A1A"/>
<path d="M106.058 336.765C106.337 336.765 106.61 336.669 106.839 336.473C109.697 334.015 129.54 311.564 130.382 310.611C130.822 310.113 130.777 309.351 130.281 308.909C129.785 308.467 129.027 308.506 128.587 309.01C121.483 317.052 107.468 332.76 105.278 334.642C104.777 335.073 104.716 335.835 105.145 336.345C105.384 336.625 105.724 336.765 106.058 336.765Z" fill="#1A1A1A"/>
<path d="M298.402 459.419C299.065 459.419 299.6 458.881 299.6 458.215V416.208C299.6 415.542 299.065 415.004 298.402 415.004C297.738 415.004 297.204 415.542 297.204 416.208V458.215C297.204 458.876 297.738 459.419 298.402 459.419Z" fill="#1A1A1A"/>
<path d="M299.6 227.586V306.213C299.6 306.879 299.065 307.417 298.402 307.417C297.738 307.417 297.204 306.879 297.204 306.213V227.115C297.204 227.082 297.209 227.048 297.215 227.015C298.017 227.143 298.819 227.323 299.6 227.586Z" fill="#1A1A1A"/>
<path d="M215.417 262.629C216.08 262.629 216.615 262.092 216.615 261.425V229.498C216.615 228.832 216.08 228.294 215.417 228.294C214.754 228.294 214.219 228.832 214.219 229.498V261.425C214.213 262.086 214.754 262.629 215.417 262.629Z" fill="#1A1A1A"/>
<path d="M215.417 459.906C216.08 459.906 216.615 459.369 216.615 458.702V315.079C216.615 314.413 216.08 313.875 215.417 313.875C214.754 313.875 214.219 314.413 214.219 315.079V458.702C214.213 459.369 214.754 459.906 215.417 459.906Z" fill="#1A1A1A"/>
<path d="M358.742 326.819C358.993 326.819 359.249 326.741 359.466 326.578C359.996 326.175 360.102 325.419 359.7 324.887C355.114 318.783 347.486 314.275 347.162 314.084C346.588 313.743 345.853 313.944 345.519 314.516C345.184 315.092 345.379 315.832 345.948 316.168C346.02 316.213 353.487 320.631 357.778 326.343C358.023 326.657 358.38 326.819 358.742 326.819Z" fill="#1A1A1A"/>
<path d="M250.768 514.339V538.991H253.169V514.339C253.169 513.672 252.634 513.135 251.971 513.135C251.303 513.135 250.768 513.678 250.768 514.339Z" fill="white"/>
<path d="M56.6798 165.01H151.643C152.306 165.01 152.841 164.473 152.841 163.806V139.591C152.841 138.925 152.306 138.387 151.643 138.387H56.6798C56.0167 138.387 55.4817 138.925 55.4817 139.591V163.806C55.4817 164.473 56.0167 165.01 56.6798 165.01ZM150.445 162.597H57.8779V140.795H150.445V162.597Z" fill="#1A1A1A"/>
<path d="M56.6843 115.882H134.641C135.304 115.882 135.839 115.345 135.839 114.678C135.839 114.012 135.304 113.474 134.641 113.474H56.6843C56.0212 113.474 55.4863 114.012 55.4863 114.678C55.4863 115.339 56.0212 115.882 56.6843 115.882Z" fill="#1A1A1A"/>
<path d="M151.67 122.277C155.849 122.277 159.248 118.861 159.248 114.661C159.248 110.461 155.849 107.044 151.67 107.044C147.491 107.044 144.091 110.461 144.091 114.661C144.091 118.861 147.491 122.277 151.67 122.277ZM151.67 109.458C154.523 109.458 156.846 111.793 156.846 114.661C156.846 117.528 154.523 119.863 151.67 119.863C148.817 119.863 146.493 117.528 146.493 114.661C146.493 111.793 148.817 109.458 151.67 109.458Z" fill="#1A1A1A"/>
<path d="M23.3756 198.437C23.6932 198.437 23.9997 198.308 24.2226 198.084L33.4002 188.861C33.8682 188.39 33.8682 187.629 33.4002 187.153L24.2226 177.929C23.9997 177.705 23.6932 177.576 23.3756 177.576C23.058 177.576 22.7516 177.705 22.5287 177.929L13.3511 187.153C12.883 187.623 12.883 188.385 13.3511 188.861L22.5287 198.084C22.7516 198.314 23.058 198.437 23.3756 198.437ZM30.8592 188.009L23.3756 195.53L15.8977 188.009L23.3756 180.488L30.8592 188.009Z" fill="#1A1A1A"/>
<path d="M23.3762 225.571C23.5824 225.571 23.7886 225.52 23.9781 225.408C24.552 225.072 24.7471 224.338 24.4127 223.756L16.617 210.226C16.2827 209.649 15.5472 209.453 14.9732 209.789C14.3993 210.125 14.2042 210.859 14.5386 211.441L22.3342 224.971C22.5627 225.352 22.9639 225.571 23.3762 225.571Z" fill="#1A1A1A"/>
<path d="M436.578 463.454C436.884 463.454 437.191 463.336 437.425 463.101C437.893 462.63 437.893 461.869 437.425 461.393L425.377 449.285C424.909 448.815 424.152 448.815 423.678 449.285C423.21 449.756 423.21 450.517 423.678 450.993L435.725 463.101C435.959 463.336 436.266 463.454 436.578 463.454Z" fill="#1A1A1A"/>
<path d="M423.079 467.724C423.386 467.724 423.692 467.607 423.926 467.371C424.394 466.901 424.394 466.139 423.926 465.663L411.879 453.555C411.411 453.085 410.653 453.085 410.179 453.555C409.711 454.026 409.711 454.788 410.179 455.264L422.232 467.371C422.466 467.607 422.773 467.724 423.079 467.724Z" fill="#1A1A1A"/>
<path d="M428.923 88.1231C429.23 88.1231 429.536 88.0055 429.77 87.7703L443.863 73.6075C444.331 73.1371 444.331 72.3755 443.863 71.8994C443.394 71.429 442.637 71.429 442.163 71.8994L428.071 86.0623C427.603 86.5327 427.603 87.2943 428.071 87.7703C428.31 88.0055 428.617 88.1231 428.923 88.1231Z" fill="#1A1A1A"/>
<path d="M78.1797 324.235C78.5419 324.235 78.9041 324.067 79.1381 323.753L82.2417 319.598C82.6428 319.066 82.5314 318.31 82.0021 317.913C81.4728 317.509 80.7205 317.616 80.3249 318.153L77.2214 322.308C76.8202 322.84 76.9316 323.596 77.4609 323.994C77.6727 324.162 77.929 324.235 78.1797 324.235Z" fill="#1A1A1A"/>
<path d="M279.07 284.889C283.589 288.523 302.557 306.226 318.516 326.51C337.612 347.6 358.753 373.557 369.162 366.456L416.287 425.325C399.793 439.841 377.136 447.116 350.896 442.159C330.44 438.301 297.815 422.424 265.128 380.059C251.515 362.9 234.346 339.362 234.346 339.362L279.07 284.889Z" fill="white"/>
<path d="M366.973 444.898C385.774 444.898 403.165 438.502 417.101 426.232C417.603 425.795 417.647 425.028 417.213 424.53C416.778 424.026 416.015 423.981 415.519 424.418C398.2 439.661 375.326 445.536 351.142 440.972C337.953 438.485 303.271 427.498 266.098 379.314C254.006 364.07 238.944 343.568 235.891 339.396L279.249 286.58C284.698 291.245 302.524 308.096 317.592 327.254C319.731 329.618 321.838 331.975 323.95 334.344C342.344 354.925 359.718 374.352 369.848 367.453C370.394 367.077 370.539 366.327 370.172 365.778C369.798 365.229 369.052 365.084 368.505 365.453C360.097 371.188 341.842 350.758 325.738 332.731C323.621 330.357 321.509 327.999 319.425 325.692C303.432 305.358 284.542 287.723 279.839 283.937C279.332 283.528 278.58 283.601 278.162 284.11L233.439 338.589C233.088 339.015 233.071 339.625 233.394 340.073C233.567 340.308 250.73 363.824 264.204 380.809C301.867 429.632 337.234 440.804 350.691 443.346C356.207 444.388 361.652 444.898 366.973 444.898Z" fill="#1A1A1A"/>
<path d="M371.77 219.821C372.076 219.821 372.383 219.703 372.617 219.468C373.085 218.998 373.085 218.236 372.617 217.76L363.278 208.374C362.809 207.904 362.052 207.904 361.578 208.374C361.11 208.845 361.11 209.606 361.578 210.082L370.917 219.468C371.157 219.703 371.463 219.821 371.77 219.821Z" fill="white"/>
<path d="M305.6 310.644C306.263 310.644 306.798 310.107 306.798 309.44V229.75C306.798 229.083 306.263 228.546 305.6 228.546C304.937 228.546 304.402 229.083 304.402 229.75V309.44C304.402 310.101 304.937 310.644 305.6 310.644Z" fill="#1A1A1A"/>
<path d="M305.019 419.504C305.308 419.779 305.587 420.064 305.849 420.367C305.977 420.512 306.099 420.658 306.222 420.809C306.239 420.831 306.328 420.949 306.384 421.016C306.456 421.117 306.545 421.246 306.545 421.246C306.629 421.369 306.712 421.487 306.796 421.61C306.796 421.615 306.802 421.615 306.802 421.621V500.248C306.802 500.914 306.267 501.452 305.604 501.452C304.94 501.452 304.406 500.914 304.406 500.248V420.557C304.4 420.098 304.651 419.706 305.019 419.504Z" fill="#1A1A1A"/>
<path d="M209.758 314.038V461.329C209.758 461.996 209.223 462.533 208.56 462.533C207.897 462.533 207.362 461.996 207.362 461.329V312.734C208.136 313.204 208.939 313.624 209.758 314.038Z" fill="#1A1A1A"/>
<path d="M208.556 263.06C209.219 263.06 209.754 262.522 209.754 261.856V231.413C209.754 230.747 209.219 230.209 208.556 230.209C207.892 230.209 207.357 230.747 207.357 231.413V261.85C207.357 262.522 207.892 263.06 208.556 263.06Z" fill="#1A1A1A"/>
<defs>
<linearGradient id="paint0_linear" x1="269.605" y1="-13.0216" x2="111.262" y2="400.024" gradientUnits="userSpaceOnUse">
<stop offset="0.015625" stop-color="#FF7B2E"/>
<stop offset="1" stop-color="#F7B654" stop-opacity="0.51"/>
</linearGradient>
</defs>
</svg>
