<svg width="376" height="459" viewBox="0 0 376 459" fill="none" xmlns="http://www.w3.org/2000/svg">
<path d="M126.528 187.925V405.049H50.1599V236.843L126.528 187.925Z" fill="url(#paint0_linear)"/>
<path d="M234.962 64.7549H158.9V405.558H234.962V64.7549Z" fill="url(#paint1_linear)"/>
<path d="M344.037 11.6882H267.386V405.558H344.037V11.6882Z" fill="url(#paint2_linear)"/>
<path d="M312.039 235.105H351.491C351.29 230.018 351.019 224.539 350.814 218.425C350.814 218.425 349.469 185.829 344.952 184.825C342.915 184.372 342.256 188.31 342.149 192.766C341.635 187.123 340.64 181.485 338.711 181.177C335.296 180.635 334.839 190.902 334.825 197.909C334.67 191.028 333.984 180.808 331.293 180.005C326.772 178.655 327.248 187.306 328.098 203.79C328.098 203.79 325.996 192.752 320.288 191.72C315.967 190.94 312.478 192.43 313.898 195.625C315.318 198.82 320.522 196.55 321.232 203.65C321.942 210.75 311.016 209.325 311.067 202.893C311.086 200.464 314.762 197.633 312.945 195.928C308.423 191.687 299.777 202.515 311.413 219.41C311.969 224.651 312.188 229.883 312.039 235.105Z" fill="white"/>
<path d="M351.492 235.946H312.039C311.81 235.946 311.596 235.853 311.437 235.689C311.278 235.526 311.194 235.306 311.199 235.078C311.343 230.033 311.138 224.866 310.596 219.719C302.155 207.354 304.29 198.386 307.803 195.363C309.363 194.023 311.231 193.817 312.768 194.752C312.651 193.873 312.852 193.07 313.371 192.407C314.552 190.903 317.262 190.328 320.433 190.898C323.507 191.454 325.595 194.467 326.931 197.423C326.459 187.17 326.52 181.359 328.757 179.598C329.505 179.01 330.439 178.879 331.527 179.201C332.237 179.411 333.76 179.865 334.76 185.993C335.236 183.382 335.942 181.719 336.881 180.92C337.45 180.434 338.132 180.238 338.838 180.35C339.907 180.523 341.164 181.467 342.131 186.348C342.514 185.218 342.962 184.704 343.35 184.4C343.869 183.994 344.48 183.858 345.134 184.003C349.913 185.064 351.333 210.591 351.655 218.388C351.786 222.246 351.94 225.852 352.09 229.262C352.179 231.257 352.263 233.19 352.333 235.068C352.342 235.297 352.258 235.517 352.099 235.685C351.94 235.853 351.721 235.946 351.492 235.946ZM312.899 234.26H350.614C350.548 232.663 350.478 231.023 350.403 229.337C350.254 225.922 350.1 222.311 349.969 218.453C349.338 203.094 347.166 186.18 344.765 185.647C344.607 185.61 344.504 185.633 344.382 185.727C344.009 186.021 343.116 187.296 342.986 192.79C342.976 193.233 342.617 193.593 342.173 193.612C341.645 193.621 341.346 193.289 341.309 192.846C340.361 182.415 338.646 182.023 338.576 182.013C338.347 181.976 338.17 182.037 337.974 182.2C337.119 182.929 335.685 185.937 335.661 197.914C335.661 198.376 335.288 198.75 334.83 198.755C334.83 198.755 334.825 198.755 334.821 198.755C334.363 198.755 333.989 198.39 333.98 197.933C333.62 182.037 331.313 180.892 331.051 180.818C330.332 180.603 329.991 180.775 329.804 180.925C327.837 182.471 328.295 191.281 328.921 203.468L328.935 203.753C328.958 204.192 328.636 204.58 328.197 204.631C327.795 204.701 327.356 204.388 327.272 203.954C327.253 203.846 325.212 193.472 320.139 192.556C317.659 192.103 315.473 192.463 314.697 193.448C314.562 193.621 314.155 194.14 314.665 195.293C315.048 196.158 315.814 196.485 317.038 196.952C318.953 197.685 321.578 198.685 322.068 203.575C322.279 205.677 321.583 207.382 320.097 208.368C318.355 209.526 315.725 209.517 313.553 208.34C311.418 207.186 310.208 205.201 310.227 202.898C310.236 201.665 310.932 200.488 311.6 199.357C312.511 197.816 312.885 197.04 312.371 196.559C311.343 195.602 310.082 195.63 308.905 196.648C305.953 199.189 304.215 207.485 312.109 218.948C312.189 219.065 312.236 219.196 312.254 219.336C312.782 224.325 313.002 229.346 312.899 234.26ZM314.258 197.428C314.127 198.376 313.548 199.353 313.039 200.212C312.483 201.156 311.904 202.132 311.899 202.912C311.885 204.575 312.777 206.014 314.342 206.864C315.958 207.737 317.934 207.779 319.154 206.967C320.106 206.336 320.527 205.22 320.382 203.743C319.994 199.885 318.261 199.226 316.426 198.526C315.702 198.246 314.917 197.947 314.258 197.428Z" fill="#1A1A1A"/>
<path d="M335.045 204.445C334.596 204.445 334.223 204.09 334.204 203.637L333.984 197.947C333.966 197.48 334.33 197.092 334.792 197.074C334.802 197.074 334.816 197.074 334.825 197.074C335.274 197.074 335.647 197.429 335.666 197.882L335.885 203.571C335.904 204.038 335.54 204.426 335.077 204.445C335.063 204.445 335.054 204.445 335.045 204.445Z" fill="#1A1A1A"/>
<path d="M342.375 206.72C341.917 206.72 341.543 206.355 341.534 205.893L341.305 192.786C341.296 192.318 341.665 191.935 342.132 191.931C342.52 191.926 342.982 192.29 342.987 192.757L343.216 205.865C343.225 206.332 342.856 206.715 342.389 206.72C342.384 206.72 342.379 206.72 342.375 206.72Z" fill="#1A1A1A"/>
<path d="M346.516 283.559C337.276 304.495 318.26 318.088 295.899 321.554C280.821 323.876 264.986 320.83 251.374 313.782V405.373H133.479C133.479 405.373 132.587 286.605 133.479 266.206C133.545 264.608 133.629 262.908 133.731 261.142C132.232 261.712 130.77 262.32 129.308 262.941C119.732 267.079 100.921 273.423 105.901 289.057C106.826 291.986 108.914 294.107 111.436 295.872C108.928 310.815 106.639 325.791 104.252 340.767C99.4732 338.917 94.8628 336.628 90.486 333.732C70.1245 320.27 57.7553 297.419 62.0995 272.797C65.9859 250.684 85.1048 236.077 104.252 227.043C126.398 216.594 179.238 209.12 181.657 210.096C184.619 209.779 187.767 209.559 191.098 209.475C197.932 209.288 214 210.568 226.804 215.164C237.608 218.934 247.361 226.796 252.257 238.403C256.092 247.489 257.33 261.301 265.089 268.504C273.268 276.109 281.764 278.332 291.541 276.431C298.137 275.151 304.228 269.92 306.923 260.241C309.987 249.254 311.048 238.146 310.627 226.992C310.814 227.01 310.964 227.043 311.151 227.043H352.967C353.952 249.988 354.793 264.814 346.516 283.559Z" fill="white"/>
<path d="M251.376 406.219H133.477C133.014 406.219 132.641 405.846 132.636 405.383C132.627 404.197 131.753 286.358 132.636 266.174C132.687 264.969 132.748 263.707 132.818 262.404C131.749 262.829 130.688 263.268 129.632 263.717C128.876 264.044 128.054 264.389 127.189 264.749C117.296 268.892 102.348 275.147 106.697 288.805C107.454 291.197 109.107 293.224 111.915 295.186C112.181 295.373 112.317 295.695 112.261 296.013C110.532 306.322 108.874 316.828 107.276 326.987C106.548 331.626 105.814 336.264 105.076 340.903C105.034 341.15 104.885 341.375 104.665 341.501C104.446 341.627 104.179 341.65 103.941 341.557C98.8029 339.567 94.2486 337.241 90.0165 334.443C68.1135 319.962 57.0943 296.289 61.261 272.662C65.423 248.998 86.7374 234.382 103.88 226.291C125.003 216.323 176.437 208.312 181.692 209.256C184.752 208.929 187.905 208.723 191.067 208.644C198.266 208.443 214.404 209.83 227.082 214.38C238.961 218.528 248.42 227.165 253.025 238.086C254.268 241.034 255.226 244.402 256.234 247.966C258.351 255.435 260.541 263.156 265.647 267.897C273.368 275.072 281.543 277.529 291.366 275.614C298.35 274.26 303.717 268.579 306.099 260.027C309.014 249.573 310.214 238.782 309.77 227.03C309.761 226.787 309.859 226.553 310.032 226.39C310.21 226.221 310.434 226.151 310.686 226.161L310.906 226.184C310.98 226.193 311.05 226.207 311.13 226.207H352.946C353.394 226.207 353.768 226.562 353.787 227.011L353.847 228.459C354.814 250.684 355.45 265.366 347.266 283.891C338.073 304.729 319.388 318.757 296.009 322.382C281.594 324.6 266.086 322.031 252.199 315.146V405.369C252.217 405.841 251.839 406.219 251.376 406.219ZM134.313 404.538H250.531V313.782C250.531 313.488 250.685 313.217 250.937 313.063C251.185 312.909 251.503 312.899 251.76 313.035C265.647 320.228 281.276 322.956 295.771 320.723C318.571 317.192 336.788 303.52 345.748 283.219C353.773 265.053 353.137 250.525 352.184 228.538L352.156 227.894H311.494C311.849 239.464 310.616 250.133 307.729 260.48C305.174 269.672 299.33 275.792 291.698 277.268C281.295 279.281 272.654 276.707 264.512 269.131C259.061 264.067 256.804 256.117 254.623 248.423C253.623 244.911 252.684 241.594 251.479 238.735C246.995 228.099 238.134 220.013 226.521 215.959C214.054 211.484 198.2 210.139 191.114 210.321C187.952 210.4 184.799 210.61 181.739 210.937C181.604 210.947 181.463 210.933 181.333 210.881C178.245 210.083 126.652 217.402 104.6 227.805C87.8117 235.727 66.9551 249.988 62.9145 272.947C58.8693 295.901 69.6036 318.925 90.9367 333.032C94.7998 335.587 98.9384 337.74 103.572 339.6C104.254 335.307 104.931 331.014 105.609 326.721C107.183 316.73 108.809 306.402 110.509 296.247C107.645 294.154 105.917 291.94 105.086 289.305C100.27 274.18 116.707 267.3 126.531 263.189C127.386 262.829 128.203 262.488 128.96 262.161C130.441 261.535 131.912 260.923 133.416 260.349C133.678 260.246 133.981 260.288 134.215 260.456C134.448 260.624 134.575 260.9 134.561 261.18C134.458 262.941 134.374 264.637 134.308 266.234C133.477 285.494 134.238 393.878 134.313 404.538Z" fill="#1A1A1A"/>
<path d="M172.632 405.392C172.165 405.392 171.792 405.014 171.792 404.551V210.919C171.792 210.452 172.17 210.078 172.632 210.078C173.095 210.078 173.473 210.456 173.473 210.919V404.551C173.473 405.014 173.099 405.392 172.632 405.392Z" fill="#1A1A1A"/>
<path d="M206.393 346.414H172.877V404.878H206.393V346.414Z" fill="#1A1A1A"/>
<path d="M205.793 405.392C205.326 405.392 204.952 405.014 204.952 404.551V211.325C204.952 210.858 205.33 210.484 205.793 210.484C206.255 210.484 206.634 210.862 206.634 211.325V404.551C206.634 405.014 206.26 405.392 205.793 405.392Z" fill="#1A1A1A"/>
<path d="M193.033 343.565C192.566 343.565 192.192 343.187 192.192 342.724V276.744C192.192 276.277 192.57 275.904 193.033 275.904C193.495 275.904 193.873 276.282 193.873 276.744V342.724C193.873 343.187 193.495 343.565 193.033 343.565Z" fill="#1A1A1A"/>
<path d="M203.915 178.702C202.967 178.547 202.014 178.398 201.066 178.244C200.038 178.08 198.987 178.51 198.688 179.594C198.609 179.883 198.637 180.206 198.707 180.519C198.235 180.986 197.978 181.626 198.175 182.345C198.431 183.279 199.571 184.064 200.552 183.695C201.673 183.275 205.382 180.724 205.382 179.818C205.382 179.033 204.742 178.837 203.915 178.702Z" fill="#1A1A1A"/>
<path d="M197.931 160.938C193.012 159.303 174.174 152.922 171.964 151.161C176.743 141.3 187.085 139.623 196.184 143.407C205.933 147.461 210.805 157.803 206.998 167.589C204.13 166.394 201.276 164.24 197.931 160.938Z" fill="#1A1A1A"/>
<path d="M196.195 143.406C205.425 147.245 210.115 157.391 207.349 166.766C207.508 166.817 207.658 166.841 207.816 166.906C215.248 169.994 214.931 183.045 201.053 178.593C200.445 179.046 199.838 179.504 199.184 179.883L202.043 210.058L182.125 241.467L176.576 209.778L174.245 179.336C168.691 173.96 165.827 165.603 170.858 153.869C175.945 141.981 186.306 139.295 196.195 143.406Z" fill="white"/>
<path d="M182.118 242.304C182.062 242.304 182.011 242.299 181.955 242.285C181.614 242.22 181.352 241.949 181.292 241.603L175.742 209.91L173.425 179.701C168.712 175.012 164.424 166.711 170.076 153.52C174.915 142.229 185.29 137.955 196.515 142.617C205.824 146.49 210.813 156.533 208.365 166.22C212.691 168.159 214.307 172.919 213.088 176.235C212.551 177.702 210.117 182.214 201.205 179.514C200.831 179.79 200.457 180.066 200.065 180.313L202.872 209.966C202.891 210.153 202.844 210.339 202.746 210.493L182.828 241.902C182.674 242.159 182.403 242.304 182.118 242.304ZM187.672 142.426C180.722 142.426 174.911 146.541 171.627 154.197C166.26 166.716 170.403 174.446 174.827 178.73C174.976 178.875 175.065 179.066 175.084 179.272L177.414 209.713L182.576 239.184L201.177 209.854L198.346 179.963C198.313 179.636 198.477 179.323 198.762 179.155C199.364 178.804 199.929 178.384 200.523 177.94C200.738 177.777 201.05 177.711 201.307 177.791C206.586 179.486 210.397 178.688 211.509 175.665C212.462 173.078 211.042 169.163 207.487 167.683C207.249 167.617 207.16 167.594 207.076 167.566C206.646 167.421 206.408 166.963 206.539 166.529C209.22 157.434 204.633 147.826 195.87 144.182C193.03 143 190.269 142.426 187.672 142.426Z" fill="#1A1A1A"/>
<path d="M201.235 157.084C197.031 155.841 181.71 149.302 178.365 142.281C174.535 122.233 192.458 135.256 200.782 140.539C209.694 146.195 217.439 156.257 210.573 168.337C207.947 166.674 203.968 160.91 201.235 157.084Z" fill="#1A1A1A"/>
<path d="M182.291 184.284C182.249 184.284 182.203 184.279 182.156 184.275C179.475 183.845 176.401 181.883 173.752 180.019C173.369 179.753 173.281 179.225 173.547 178.847C173.813 178.464 174.341 178.375 174.719 178.641C177.069 180.29 180.068 182.233 182.427 182.612C182.885 182.686 183.197 183.116 183.127 183.579C183.053 183.99 182.698 184.284 182.291 184.284Z" fill="#1A1A1A"/>
<path d="M189.613 274.166H125.151V358.167H189.613V274.166Z" fill="white"/>
<path d="M189.612 359.008H125.15C124.683 359.008 124.309 358.63 124.309 358.167V274.166C124.309 273.699 124.688 273.325 125.15 273.325H189.612C190.079 273.325 190.453 273.704 190.453 274.166V358.163C190.457 358.63 190.079 359.008 189.612 359.008ZM125.991 357.322H188.771V275.007H125.991V357.322Z" fill="#1A1A1A"/>
<path d="M154.284 304.724C170.647 303.673 186.08 303.061 186.08 307.275C186.08 311.488 175.383 308.573 172.469 312.46C169.549 316.351 173.118 316.995 179.924 316.673C186.73 316.351 195.287 316.981 195.156 319.915C194.993 323.661 190.943 324.778 190.943 324.778C190.943 324.778 195.694 330.042 189.644 332.882C189.644 332.882 191.265 336.773 187.701 338.716C187.701 338.716 187.818 345.812 155.994 345.994C124.169 346.176 147.833 305.981 147.833 305.981L154.284 304.724Z" fill="white"/>
<path d="M155.787 346.835C148.206 346.835 143.044 344.551 140.452 340.038C133.786 328.454 146.566 306.481 147.113 305.551C147.234 305.346 147.44 305.196 147.678 305.154L154.129 303.902C154.166 303.898 154.199 303.893 154.236 303.888C172.155 302.739 183.104 302.618 186.065 305.393C186.626 305.92 186.925 306.574 186.925 307.28C186.925 310.232 183.454 310.554 180.1 310.862C177.391 311.115 174.322 311.395 173.145 312.969C172.463 313.88 172.159 314.627 172.342 314.964C172.631 315.515 174.182 316.108 179.886 315.837C182.81 315.692 192.549 315.454 195.244 318.14C195.767 318.663 196.029 319.289 196.001 319.957C195.87 322.961 193.665 324.493 192.278 325.161C192.965 326.203 193.848 327.982 193.474 329.837C193.189 331.252 192.245 332.42 190.671 333.307C191.101 334.994 191.007 337.651 188.457 339.258C188.336 339.665 188.051 340.258 187.397 340.926C184.823 343.56 177.284 346.718 156.002 346.84C155.927 346.835 155.857 346.835 155.787 346.835ZM148.374 306.733C146.814 309.503 136.145 329.183 141.909 339.202C144.184 343.149 148.85 345.153 155.787 345.153C155.852 345.153 155.923 345.153 155.993 345.153C185.865 344.985 186.86 338.749 186.864 338.684C186.86 338.371 187.028 338.128 187.303 337.978C190.097 336.456 189.008 333.532 188.873 333.205C188.705 332.789 188.887 332.312 189.293 332.125C190.76 331.439 191.61 330.551 191.825 329.5C192.222 327.52 190.344 325.366 190.321 325.348C190.125 325.133 190.059 324.829 190.139 324.549C190.218 324.269 190.438 324.049 190.718 323.974C190.858 323.937 194.184 322.961 194.319 319.887C194.324 319.756 194.301 319.579 194.058 319.336C192.656 317.939 186.869 317.197 179.965 317.524C174.229 317.794 171.669 317.304 170.852 315.763C170.062 314.277 171.37 312.539 171.795 311.97C173.425 309.797 176.887 309.48 179.946 309.2C183.239 308.896 185.243 308.616 185.243 307.289C185.243 307.126 185.206 306.901 184.916 306.63C181.913 303.814 164.041 304.954 154.4 305.575L148.374 306.733Z" fill="#1A1A1A"/>
<path d="M176.773 167.622C176.657 167.622 176.54 167.599 176.423 167.547L172.065 165.567C171.859 165.473 171.696 165.296 171.621 165.086C171.542 164.871 171.56 164.633 171.658 164.432C173.62 160.461 178.721 156.463 178.936 156.295C179.305 156.01 179.828 156.075 180.118 156.439C180.403 156.804 180.337 157.336 179.973 157.621C179.926 157.659 175.629 161.031 173.588 164.413L177.119 166.02C177.539 166.211 177.731 166.711 177.535 167.136C177.399 167.44 177.091 167.622 176.773 167.622Z" fill="#1A1A1A"/>
<path d="M207.43 160.138C207.22 159.186 206.285 158.513 205.361 158.555C205.51 158.139 205.66 157.719 205.804 157.303C206.64 154.953 202.908 153.944 202.077 156.275C200.974 159.372 199.751 162.455 198.765 165.594C198.153 167.542 197.971 169.808 199.858 171.148C204.422 174.385 207.565 165.165 208.495 162.329C208.855 161.241 208.252 160.461 207.43 160.138Z" fill="#1A1A1A"/>
<path d="M74.9312 319.751C79.294 325.086 84.549 329.817 90.4907 333.741C109.568 346.344 133.143 348.044 155.424 347.666V304.388C142.247 304.705 127.64 304.593 116.836 299.021C113.178 297.134 109.516 295.064 107.344 291.939" fill="white"/>
<path d="M150.051 348.558C130.124 348.558 108.113 346.395 90.0267 334.446C84.0149 330.476 78.7178 325.707 74.2802 320.283C73.986 319.924 74.0373 319.396 74.397 319.102C74.7567 318.807 75.2845 318.859 75.5788 319.218C79.909 324.511 85.0799 329.163 90.9515 333.04C110.047 345.657 133.763 347.133 154.582 346.839V305.252C141.661 305.541 127.158 305.294 116.451 299.768C112.756 297.862 108.954 295.723 106.656 292.415C106.39 292.032 106.488 291.509 106.866 291.243C107.249 290.981 107.772 291.075 108.039 291.453C110.113 294.443 113.714 296.461 117.222 298.268C127.816 303.734 142.474 303.855 155.399 303.542C155.605 303.519 155.843 303.622 156.007 303.78C156.165 303.939 156.259 304.154 156.259 304.383V347.661C156.259 348.119 155.89 348.493 155.432 348.502C153.662 348.539 151.863 348.558 150.051 348.558Z" fill="#1A1A1A"/>
<path d="M173.326 326.604C172.882 326.604 172.508 326.253 172.485 325.805C172.461 325.338 172.816 324.946 173.284 324.922C173.41 324.917 185.952 324.287 190.88 323.937C191.305 323.904 191.748 324.254 191.777 324.717C191.809 325.179 191.459 325.581 190.996 325.613C186.054 325.964 173.494 326.594 173.368 326.599C173.354 326.604 173.34 326.604 173.326 326.604Z" fill="#1A1A1A"/>
<path d="M173.12 335.652C172.681 335.652 172.312 335.311 172.284 334.868C172.251 334.405 172.602 334.003 173.064 333.971C173.186 333.961 185.242 333.121 189.446 332.065C189.899 331.953 190.352 332.224 190.469 332.677C190.581 333.13 190.31 333.588 189.857 333.7C185.503 334.793 173.681 335.615 173.181 335.652C173.158 335.652 173.139 335.652 173.12 335.652Z" fill="#1A1A1A"/>
<path d="M174.3 341.571C173.716 341.571 173.408 341.543 173.361 341.538C172.898 341.496 172.562 341.085 172.604 340.622C172.646 340.16 173.071 339.828 173.52 339.861C173.562 339.866 177.957 340.225 187.323 337.782C187.776 337.656 188.234 337.936 188.351 338.385C188.467 338.833 188.201 339.296 187.748 339.413C180.433 341.318 176.079 341.571 174.3 341.571Z" fill="#1A1A1A"/>
<path d="M176.619 268.275H138.152V273.918H176.619V268.275Z" fill="#1A1A1A"/>
<path d="M176.617 274.759H138.151C137.683 274.759 137.31 274.381 137.31 273.918V268.275C137.31 267.808 137.688 267.435 138.151 267.435H176.617C177.085 267.435 177.458 267.813 177.458 268.275V273.918C177.458 274.385 177.085 274.759 176.617 274.759ZM138.991 273.077H175.777V269.121H138.991V273.077Z" fill="black"/>
<path d="M251.166 375.431C251.092 375.431 251.017 375.422 250.942 375.398L226.591 368.644C226.143 368.522 225.881 368.055 226.008 367.607C226.134 367.158 226.587 366.892 227.045 367.023L251.395 373.777C251.844 373.899 252.105 374.366 251.979 374.814C251.876 375.188 251.535 375.431 251.166 375.431Z" fill="#1A1A1A"/>
<path d="M133.424 375.431C133.083 375.431 132.76 375.221 132.634 374.885C132.471 374.45 132.695 373.964 133.129 373.801L151.244 367.046C151.679 366.883 152.164 367.102 152.328 367.541C152.491 367.976 152.267 368.462 151.833 368.625L133.718 375.38C133.62 375.417 133.522 375.431 133.424 375.431Z" fill="#1A1A1A"/>
<path d="M251.364 314.627C250.897 314.627 250.523 314.248 250.523 313.786V265.547C250.523 265.08 250.902 264.706 251.364 264.706C251.827 264.706 252.205 265.084 252.205 265.547V313.786C252.205 314.253 251.831 314.627 251.364 314.627Z" fill="#1A1A1A"/>
<path d="M133.739 261.988C133.271 261.988 132.898 261.61 132.898 261.147V254.781C132.898 254.313 133.276 253.94 133.739 253.94C134.206 253.94 134.579 254.318 134.579 254.781V261.147C134.579 261.614 134.201 261.988 133.739 261.988Z" fill="#1A1A1A"/>
<path d="M375.136 406.219H24.0115C23.5443 406.219 23.1707 405.84 23.1707 405.378C23.1707 404.915 23.549 404.537 24.0115 404.537H375.136C375.603 404.537 375.977 404.915 375.977 405.378C375.977 405.84 375.603 406.219 375.136 406.219Z" fill="#1A1A1A"/>
<path d="M39.1275 181.397C38.9126 181.397 38.6977 181.313 38.5342 181.149L29.3741 171.989C29.0472 171.662 29.0472 171.13 29.3741 170.798L38.5342 161.638C38.8612 161.311 39.3937 161.311 39.7254 161.638L48.8855 170.798C49.2125 171.125 49.2125 171.658 48.8855 171.989L39.7254 181.149C39.5619 181.318 39.3424 181.397 39.1275 181.397ZM31.1585 171.396L39.1275 179.365L47.0965 171.396L39.1275 163.427L31.1585 171.396Z" fill="#1A1A1A"/>
<path d="M300.82 54.192C297.111 54.192 294.089 51.1744 294.089 47.4609C294.089 43.752 297.107 40.7297 300.82 40.7297C304.534 40.7297 307.551 43.7473 307.551 47.4609C307.551 51.1744 304.529 54.192 300.82 54.192ZM300.82 42.416C298.036 42.416 295.775 44.6815 295.775 47.4609C295.775 50.2449 298.041 52.5057 300.82 52.5057C303.6 52.5057 305.865 50.2402 305.865 47.4609C305.865 44.6815 303.604 42.416 300.82 42.416Z" fill="white"/>
<path d="M266.685 450.167C266.47 450.167 266.255 450.083 266.092 449.919L257.847 441.675C257.52 441.348 257.52 440.815 257.847 440.484C258.174 440.157 258.707 440.157 259.038 440.484L267.283 448.728C267.61 449.055 267.61 449.588 267.283 449.919C267.115 450.088 266.9 450.167 266.685 450.167Z" fill="#1A1A1A"/>
<path d="M113.611 9.9285C113.826 9.9285 114.041 9.84444 114.204 9.68095L122.449 1.43637C122.776 1.10939 122.776 0.576886 122.449 0.245235C122.122 -0.081745 121.589 -0.081745 121.258 0.245235L113.013 8.48978C112.686 8.81676 112.686 9.3493 113.013 9.68095C113.181 9.84911 113.396 9.9285 113.611 9.9285Z" fill="#1A1A1A"/>
<path d="M247.539 459C244.802 459 242.579 456.772 242.579 454.039C242.579 451.307 244.807 449.079 247.539 449.079C250.272 449.079 252.5 451.307 252.5 454.039C252.5 456.772 250.277 459 247.539 459ZM247.539 450.756C245.732 450.756 244.26 452.227 244.26 454.035C244.26 455.842 245.732 457.314 247.539 457.314C249.347 457.314 250.819 455.842 250.819 454.035C250.819 452.227 249.347 450.756 247.539 450.756Z" fill="#1A1A1A"/>
<path d="M132.739 18.7619C135.476 18.7619 137.7 16.5337 137.7 13.8011C137.7 11.0685 135.472 8.84033 132.739 8.84033C130.006 8.84033 127.778 11.0685 127.778 13.8011C127.778 16.5337 130.002 18.7619 132.739 18.7619ZM132.739 10.5173C134.547 10.5173 136.018 11.9887 136.018 13.7964C136.018 15.6042 134.547 17.0755 132.739 17.0755C130.931 17.0755 129.46 15.6042 129.46 13.7964C129.46 11.9887 130.931 10.5173 132.739 10.5173Z" fill="#1A1A1A"/>
<path d="M17.33 274.694H0.840828C0.373714 274.694 0 274.315 0 273.853C0 273.391 0.378385 273.012 0.840828 273.012H17.33C17.7971 273.012 18.1708 273.391 18.1708 273.853C18.1708 274.315 17.7924 274.694 17.33 274.694Z" fill="#1A1A1A"/>
<path d="M17.33 305.504H0.840828C0.373714 305.504 0 305.126 0 304.663C0 304.201 0.378385 303.822 0.840828 303.822H17.33C17.7971 303.822 18.1708 304.201 18.1708 304.663C18.1708 305.126 17.7924 305.504 17.33 305.504Z" fill="#1A1A1A"/>
<path d="M17.33 336.32H0.840828C0.373714 336.32 0 335.942 0 335.479C0 335.017 0.378385 334.638 0.840828 334.638H17.33C17.7971 334.638 18.1708 335.017 18.1708 335.479C18.1708 335.942 17.7924 336.32 17.33 336.32Z" fill="#1A1A1A"/>
<path d="M17.33 367.136H0.840828C0.373714 367.136 0 366.757 0 366.295C0 365.832 0.378385 365.454 0.840828 365.454H17.33C17.7971 365.454 18.1708 365.832 18.1708 366.295C18.1708 366.757 17.7924 367.136 17.33 367.136Z" fill="#1A1A1A"/>
<path d="M140.042 295.335C141.616 295.335 142.892 294.059 142.892 292.486C142.892 290.912 141.616 289.636 140.042 289.636C138.469 289.636 137.193 290.912 137.193 292.486C137.193 294.059 138.469 295.335 140.042 295.335Z" fill="#1A1A1A"/>
<path d="M175.646 293.337H150.137C149.67 293.337 149.296 292.958 149.296 292.496C149.296 292.033 149.675 291.655 150.137 291.655H175.646C176.113 291.655 176.487 292.033 176.487 292.496C176.487 292.958 176.113 293.337 175.646 293.337Z" fill="#1A1A1A"/>
<path d="M228.041 295.456C227.966 295.456 227.891 295.447 227.817 295.424L216.251 292.201C215.886 292.102 215.634 291.766 215.634 291.392V265.804C215.634 265.337 216.013 264.963 216.475 264.963H239.228C239.695 264.963 240.069 265.341 240.069 265.804V291.392C240.069 291.766 239.821 292.098 239.462 292.201L228.274 295.424C228.2 295.442 228.12 295.456 228.041 295.456ZM217.321 290.753L228.041 293.737L238.392 290.757V266.645H217.321V290.753ZM239.233 291.392H239.252H239.233Z" fill="#1A1A1A"/>
<path d="M318.68 188.025C318.535 188.025 318.39 187.987 318.255 187.908L311.43 183.928C311.029 183.695 310.893 183.181 311.127 182.779C311.36 182.377 311.874 182.242 312.276 182.475L319.1 186.455C319.502 186.689 319.638 187.203 319.404 187.604C319.255 187.875 318.97 188.025 318.68 188.025Z" fill="white"/>
<path d="M325.877 182.779C325.545 182.779 325.228 182.579 325.097 182.252L318.511 165.786C318.338 165.356 318.548 164.866 318.978 164.693C319.408 164.515 319.898 164.73 320.071 165.16L326.657 181.626C326.83 182.055 326.62 182.546 326.19 182.719C326.087 182.761 325.98 182.779 325.877 182.779Z" fill="white"/>
<path d="M214.429 336.876H210.421C209.954 336.876 209.581 336.498 209.581 336.036C209.581 335.573 209.959 335.195 210.421 335.195H214.429C214.892 335.195 215.27 335.573 215.27 336.036C215.27 336.498 214.892 336.876 214.429 336.876Z" fill="#1A1A1A"/>
<path d="M214.429 379.911H210.421C209.954 379.911 209.581 379.532 209.581 379.07C209.581 378.608 209.959 378.229 210.421 378.229H214.429C214.892 378.229 215.27 378.608 215.27 379.07C215.27 379.532 214.892 379.911 214.429 379.911Z" fill="#1A1A1A"/>
<path d="M327.546 216.374C327.219 216.374 326.901 216.177 326.77 215.855C326.682 215.645 324.524 210.642 317.377 209.348C316.919 209.264 316.615 208.825 316.7 208.367C316.784 207.91 317.227 207.611 317.68 207.69C325.771 209.161 328.228 214.968 328.331 215.215C328.508 215.645 328.303 216.135 327.873 216.308C327.761 216.355 327.653 216.374 327.546 216.374Z" fill="#1A1A1A"/>
<defs>
<linearGradient id="paint0_linear" x1="88.3438" y1="461.08" x2="88.3438" y2="176.534" gradientUnits="userSpaceOnUse">
<stop stop-color="white" stop-opacity="0.4"/>
<stop offset="1" stop-color="#006233"/>
</linearGradient>
<linearGradient id="paint1_linear" x1="196.931" y1="493.505" x2="196.931" y2="46.8749" gradientUnits="userSpaceOnUse">
<stop stop-color="white" stop-opacity="0.4"/>
<stop offset="1" stop-color="#006233"/>
</linearGradient>
<linearGradient id="paint2_linear" x1="305.711" y1="507.199" x2="305.711" y2="-8.97586" gradientUnits="userSpaceOnUse">
<stop stop-color="white" stop-opacity="0.4"/>
<stop offset="1" stop-color="#006233"/>
</linearGradient>
</defs>
</svg>
